<?xml version="1.0" standalone="no"?>
<!DOCTYPE svg PUBLIC "-//W3C//DTD SVG 1.1//EN" "http://www.w3.org/Graphics/SVG/1.1/DTD/svg11.dtd" >
<svg xmlns="http://www.w3.org/2000/svg" width="100%" height="100%">
<metadata>
Created by FontXChange 20110222 at Mon Jun  1 14:12:01 2015
 By jasecoop
(c) Copyright The Font Bureau, Inc. 2014. All rights reserved.
</metadata>
<defs>
<font id="InputSans-Bold" horiz-adv-x="770" >
  <font-face 
    font-family="InputSans"
    font-weight="700"
    font-stretch="normal"
    units-per-em="1100"
    panose-1="2 0 7 0 3 0 0 9 0 4"
    ascent="850"
    descent="-250"
    x-height="600"
    cap-height="800"
    bbox="-288 -450 1523 1400"
    underline-thickness="0"
    underline-position="0"
    unicode-range="U+000D-1F41B"
  />
<missing-glyph horiz-adv-x="870" 
d="M50 -250v1100h770v-1100h-770zM150 -150h570v900h-570v-900z" />
    <glyph glyph-name=".notdef" horiz-adv-x="870" 
d="M50 -250v1100h770v-1100h-770zM150 -150h570v900h-570v-900z" />
    <glyph glyph-name="NULL" horiz-adv-x="0" 
 />
    <glyph glyph-name="nonmarkingreturn" unicode="&#xd;" horiz-adv-x="0" 
 />
    <glyph glyph-name="space" unicode="&#xa0;" horiz-adv-x="600" 
 />
    <glyph glyph-name="space" unicode=" " horiz-adv-x="600" 
 />
    <glyph glyph-name="A" unicode="A" horiz-adv-x="800" 
d="M497 327l-103 350l-104 -350h207zM593 0l-57 195h-285l-58 -195h-160l260 800h216l258 -800h-174z" />
    <glyph glyph-name="Agrave" unicode="&#xc0;" horiz-adv-x="800" 
d="M497 327l-103 350l-104 -350h207zM593 0l-57 195h-285l-58 -195h-160l260 800h216l258 -800h-174zM387 900l-216 200h220l115 -200h-119z" />
    <glyph glyph-name="Aacute" unicode="&#xc1;" horiz-adv-x="800" 
d="M497 327l-103 350l-104 -350h207zM593 0l-57 195h-285l-58 -195h-160l260 800h216l258 -800h-174zM272 900l115 200h220l-216 -200h-119z" />
    <glyph glyph-name="Acircumflex" unicode="&#xc2;" horiz-adv-x="800" 
d="M497 327l-103 350l-104 -350h207zM593 0l-57 195h-285l-58 -195h-160l260 800h216l258 -800h-174zM209 890l-55 78l181 156h128l183 -156l-54 -77l-193 108z" />
    <glyph glyph-name="Atilde" unicode="&#xc3;" horiz-adv-x="800" 
d="M497 327l-103 350l-104 -350h207zM593 0l-57 195h-285l-58 -195h-160l260 800h216l258 -800h-174zM491 910q-44 0 -69.5 16t-42.5 34q-16 19 -30.5 34.5t-33.5 15.5q-17 0 -30 -15.5t-12 -64.5v-10h-112v15q0 81 39.5 135t109.5 54q46 0 71.5 -15.5t42.5 -34.5t31 -35
t31 -16t30 15.5t12 65.5v9h112v-15q0 -80 -39.5 -134t-109.5 -54z" />
    <glyph glyph-name="Adieresis" unicode="&#xc4;" horiz-adv-x="800" 
d="M497 327l-103 350l-104 -350h207zM593 0l-57 195h-285l-58 -195h-160l260 800h216l258 -800h-174zM274 896q-39 0 -63.5 15.5t-24.5 54.5v13q0 40 24.5 56.5t63.5 16.5q40 0 64.5 -16.5t24.5 -56.5v-13q0 -39 -25 -54.5t-64 -15.5zM526 896q-40 0 -64.5 15.5t-24.5 54.5
v13q0 40 24.5 56.5t64.5 16.5t64 -16.5t24 -56.5v-13q0 -39 -25 -54.5t-63 -15.5z" />
    <glyph glyph-name="Aring" unicode="&#xc5;" horiz-adv-x="800" 
d="M497 327l-103 350l-104 -350h207zM593 0l-57 195h-285l-58 -195h-160l260 800h216l258 -800h-174zM400 878q-87 0 -141 37t-54 115v32q0 78 54 116.5t141 38.5q88 0 141.5 -38.5t53.5 -116.5v-32q0 -78 -54 -115t-141 -37zM400 963q37 0 56 15t19 52v32q0 36 -19 53
t-56 17t-56 -17t-19 -53v-32q0 -37 19 -52t56 -15z" />
    <glyph glyph-name="Amacron" unicode="&#x100;" horiz-adv-x="800" 
d="M497 327l-103 350l-104 -350h207zM593 0l-57 195h-285l-58 -195h-160l260 800h216l258 -800h-174zM182 934v132h436v-132h-436z" />
    <glyph glyph-name="Abreve" unicode="&#x102;" horiz-adv-x="800" 
d="M497 327l-103 350l-104 -350h207zM593 0l-57 195h-285l-58 -195h-160l260 800h216l258 -800h-174zM400 893q-124 0 -190 55.5t-67 175.5h142q1 -69 28 -96.5t87 -27.5t87 27.5t28 96.5h142q-1 -120 -67 -175.5t-190 -55.5z" />
    <glyph glyph-name="Aogonek" unicode="&#x104;" horiz-adv-x="800" 
d="M497 327l-103 350l-104 -350h207zM593 0l-57 195h-285l-58 -195h-160l260 800h216l258 -800h-174zM663 -221q-78 0 -125 31.5t-47 93.5q0 61 47.5 104.5t102.5 59.5l27 -45q-34 -21 -43 -41.5t-9 -39.5q0 -26 18 -39t56 -13q18 0 43 2.5t50 7.5v-109q-31 -6 -62 -9
t-58 -3z" />
    <glyph glyph-name="Aringacute" unicode="&#x1fa;" horiz-adv-x="800" 
d="M497 327l-103 350l-104 -350h207zM593 0l-57 195h-285l-58 -195h-160l260 800h216l258 -800h-174zM400 878q-87 0 -141 37t-54 115v32q0 78 54 116.5t141 38.5q88 0 141.5 -38.5t53.5 -116.5v-32q0 -78 -54 -115t-141 -37zM400 963q37 0 56 15t19 52v32q0 36 -19 53
t-56 17t-56 -17t-19 -53v-32q0 -37 19 -52t56 -15zM304 1200l115 200h220l-216 -200h-119z" />
    <glyph glyph-name="B" unicode="B" horiz-adv-x="870" 
d="M100 0v800h391q133 0 195.5 -46t62.5 -142v-37q0 -61 -28.5 -94t-87.5 -43v-29q66 -7 103.5 -47.5t37.5 -102.5v-50q0 -107 -68.5 -158t-214.5 -51h-391zM270 474h203q59 0 83.5 18.5t24.5 61.5v42q0 43 -24.5 61t-83.5 18h-203v-201zM270 125h206q70 0 99 21.5t29 72.5
v46q0 50 -29 71.5t-99 21.5h-206v-233z" />
    <glyph glyph-name="C" unicode="C" horiz-adv-x="870" 
d="M452 -10q-181 0 -266.5 73t-85.5 207v256q0 135 86 209.5t267 74.5q172 0 254.5 -67.5t89.5 -217.5l-170 -10q-7 93 -46 128t-129 35q-101 0 -141.5 -37t-40.5 -130v-227q0 -90 40.5 -126t141.5 -36q92 0 131 35.5t44 123.5l170 -10q-4 -146 -87 -213.5t-258 -67.5z" />
    <glyph glyph-name="Ccedilla" unicode="&#xc7;" horiz-adv-x="870" 
d="M452 -10q-181 0 -266.5 73t-85.5 207v256q0 135 86 209.5t267 74.5q172 0 254.5 -67.5t89.5 -217.5l-170 -10q-7 93 -46 128t-129 35q-101 0 -141.5 -37t-40.5 -130v-227q0 -90 40.5 -126t141.5 -36q92 0 131 35.5t44 123.5l170 -10q-4 -146 -87 -213.5t-258 -67.5z
M419 0l20 42q73 -8 123 -36t50 -95q0 -72 -60 -103t-135 -31q-87 0 -142 29t-60 98l144 10q2 -19 13.5 -26.5t37.5 -7.5q28 0 42 11t14 45q0 28 -10 42.5t-37 21.5z" />
    <glyph glyph-name="Cacute" unicode="&#x106;" horiz-adv-x="870" 
d="M452 -10q-181 0 -266.5 73t-85.5 207v256q0 135 86 209.5t267 74.5q172 0 254.5 -67.5t89.5 -217.5l-170 -10q-7 93 -46 128t-129 35q-101 0 -141.5 -37t-40.5 -130v-227q0 -90 40.5 -126t141.5 -36q92 0 131 35.5t44 123.5l170 -10q-4 -146 -87 -213.5t-258 -67.5z
M321 900l115 200h220l-216 -200h-119z" />
    <glyph glyph-name="Ccircumflex" unicode="&#x108;" horiz-adv-x="870" 
d="M452 -10q-181 0 -266.5 73t-85.5 207v256q0 135 86 209.5t267 74.5q172 0 254.5 -67.5t89.5 -217.5l-170 -10q-7 93 -46 128t-129 35q-101 0 -141.5 -37t-40.5 -130v-227q0 -90 40.5 -126t141.5 -36q92 0 131 35.5t44 123.5l170 -10q-4 -146 -87 -213.5t-258 -67.5z
M258 890l-55 78l181 156h128l183 -156l-54 -77l-193 108z" />
    <glyph glyph-name="Cdotaccent" unicode="&#x10a;" horiz-adv-x="870" 
d="M452 -10q-181 0 -266.5 73t-85.5 207v256q0 135 86 209.5t267 74.5q172 0 254.5 -67.5t89.5 -217.5l-170 -10q-7 93 -46 128t-129 35q-101 0 -141.5 -37t-40.5 -130v-227q0 -90 40.5 -126t141.5 -36q92 0 131 35.5t44 123.5l170 -10q-4 -146 -87 -213.5t-258 -67.5z
M449 896q-51 0 -83 15.5t-32 54.5v13q0 40 32 56.5t83 16.5t83 -16.5t32 -56.5v-13q0 -39 -32 -54.5t-83 -15.5z" />
    <glyph glyph-name="Ccaron" unicode="&#x10c;" horiz-adv-x="870" 
d="M452 -10q-181 0 -266.5 73t-85.5 207v256q0 135 86 209.5t267 74.5q172 0 254.5 -67.5t89.5 -217.5l-170 -10q-7 93 -46 128t-129 35q-101 0 -141.5 -37t-40.5 -130v-227q0 -90 40.5 -126t141.5 -36q92 0 131 35.5t44 123.5l170 -10q-4 -146 -87 -213.5t-258 -67.5z
M386 904l-183 156l54 77l193 -108l190 109l55 -78l-181 -156h-128z" />
    <glyph glyph-name="D" unicode="D" horiz-adv-x="870" 
d="M100 0v800h327q161 0 252 -79.5t91 -211.5v-222q0 -131 -91.5 -209t-252.5 -78h-326zM270 132h142q108 0 148 42.5t40 126.5v194q0 84 -40 128.5t-148 44.5h-142v-536z" />
    <glyph glyph-name="Dcaron" unicode="&#x10e;" horiz-adv-x="870" 
d="M100 0v800h327q161 0 252 -79.5t91 -211.5v-222q0 -131 -91.5 -209t-252.5 -78h-326zM270 132h142q108 0 148 42.5t40 126.5v194q0 84 -40 128.5t-148 44.5h-142v-536zM372 904l-183 156l54 77l193 -108l190 109l55 -78l-181 -156h-128z" />
    <glyph glyph-name="E" unicode="E" 
d="M100 0v800h576v-132h-406v-174h356v-132h-356v-230h406v-132h-576z" />
    <glyph glyph-name="Egrave" unicode="&#xc8;" 
d="M100 0v800h576v-132h-406v-174h356v-132h-356v-230h406v-132h-576zM382 900l-216 200h220l115 -200h-119z" />
    <glyph glyph-name="Eacute" unicode="&#xc9;" 
d="M100 0v800h576v-132h-406v-174h356v-132h-356v-230h406v-132h-576zM267 900l115 200h220l-216 -200h-119z" />
    <glyph glyph-name="Ecircumflex" unicode="&#xca;" 
d="M100 0v800h576v-132h-406v-174h356v-132h-356v-230h406v-132h-576zM204 890l-55 78l181 156h128l183 -156l-54 -77l-193 108z" />
    <glyph glyph-name="Edieresis" unicode="&#xcb;" 
d="M100 0v800h576v-132h-406v-174h356v-132h-356v-230h406v-132h-576zM272 896q-39 0 -63.5 15.5t-24.5 54.5v13q0 40 24.5 56.5t63.5 16.5q40 0 64.5 -16.5t24.5 -56.5v-13q0 -39 -25 -54.5t-64 -15.5zM524 896q-40 0 -64.5 15.5t-24.5 54.5v13q0 40 24.5 56.5t64.5 16.5
t64 -16.5t24 -56.5v-13q0 -39 -25 -54.5t-63 -15.5z" />
    <glyph glyph-name="Emacron" unicode="&#x112;" 
d="M100 0v800h576v-132h-406v-174h356v-132h-356v-230h406v-132h-576zM177 934v132h436v-132h-436z" />
    <glyph glyph-name="Ebreve" unicode="&#x114;" 
d="M100 0v800h576v-132h-406v-174h356v-132h-356v-230h406v-132h-576zM395 893q-124 0 -190 55.5t-67 175.5h142q1 -69 28 -96.5t87 -27.5t87 27.5t28 96.5h142q-1 -120 -67 -175.5t-190 -55.5z" />
    <glyph glyph-name="Edotaccent" unicode="&#x116;" 
d="M100 0v800h576v-132h-406v-174h356v-132h-356v-230h406v-132h-576zM395 896q-51 0 -83 15.5t-32 54.5v13q0 40 32 56.5t83 16.5t83 -16.5t32 -56.5v-13q0 -39 -32 -54.5t-83 -15.5z" />
    <glyph glyph-name="Eogonek" unicode="&#x118;" 
d="M555 -221q-78 0 -125 31.5t-47 93.5q0 61 47.5 104.5t102.5 59.5l27 -45q-34 -21 -43 -41.5t-9 -39.5q0 -26 18 -39t56 -13q18 0 43 2.5t50 7.5v-109q-31 -6 -62 -9t-58 -3zM100 0v800h576v-132h-406v-174h356v-132h-356v-230h406v-132h-576z" />
    <glyph glyph-name="Ecaron" unicode="&#x11a;" 
d="M100 0v800h576v-132h-406v-174h356v-132h-356v-230h406v-132h-576zM332 904l-183 156l54 77l193 -108l190 109l55 -78l-181 -156h-128z" />
    <glyph glyph-name="F" unicode="F" 
d="M100 0v800h590v-132h-420v-233h350v-132h-350v-303h-170z" />
    <glyph glyph-name="G" unicode="G" horiz-adv-x="870" 
d="M442 -10q-170 0 -256 74.5t-86 205.5v256q0 132 85 208t254 76q165 0 244.5 -58.5t86.5 -192.5l-170 -10q-7 71 -39.5 100t-120.5 29q-99 0 -134.5 -39.5t-35.5 -126.5v-228q0 -85 39 -123.5t146 -38.5q91 0 121.5 38.5t29.5 127.5h-171v132h341v-147q0 -131 -83 -207
t-251 -76z" />
    <glyph glyph-name="Gcircumflex" unicode="&#x11c;" horiz-adv-x="870" 
d="M442 -10q-170 0 -256 74.5t-86 205.5v256q0 132 85 208t254 76q165 0 244.5 -58.5t86.5 -192.5l-170 -10q-7 71 -39.5 100t-120.5 29q-99 0 -134.5 -39.5t-35.5 -126.5v-228q0 -85 39 -123.5t146 -38.5q91 0 121.5 38.5t29.5 127.5h-171v132h341v-147q0 -131 -83 -207
t-251 -76zM247 890l-55 78l181 156h128l183 -156l-54 -77l-193 108z" />
    <glyph glyph-name="Gbreve" unicode="&#x11e;" horiz-adv-x="870" 
d="M442 -10q-170 0 -256 74.5t-86 205.5v256q0 132 85 208t254 76q165 0 244.5 -58.5t86.5 -192.5l-170 -10q-7 71 -39.5 100t-120.5 29q-99 0 -134.5 -39.5t-35.5 -126.5v-228q0 -85 39 -123.5t146 -38.5q91 0 121.5 38.5t29.5 127.5h-171v132h341v-147q0 -131 -83 -207
t-251 -76zM438 893q-124 0 -190 55.5t-67 175.5h142q1 -69 28 -96.5t87 -27.5t87 27.5t28 96.5h142q-1 -120 -67 -175.5t-190 -55.5z" />
    <glyph glyph-name="Gdotaccent" unicode="&#x120;" horiz-adv-x="870" 
d="M442 -10q-170 0 -256 74.5t-86 205.5v256q0 132 85 208t254 76q165 0 244.5 -58.5t86.5 -192.5l-170 -10q-7 71 -39.5 100t-120.5 29q-99 0 -134.5 -39.5t-35.5 -126.5v-228q0 -85 39 -123.5t146 -38.5q91 0 121.5 38.5t29.5 127.5h-171v132h341v-147q0 -131 -83 -207
t-251 -76zM438 896q-51 0 -83 15.5t-32 54.5v13q0 40 32 56.5t83 16.5t83 -16.5t32 -56.5v-13q0 -39 -32 -54.5t-83 -15.5z" />
    <glyph glyph-name="Gcommaaccent" unicode="&#x122;" horiz-adv-x="870" 
d="M283 -300l75 200h220l-176 -200h-119zM442 -10q-170 0 -256 74.5t-86 205.5v256q0 132 85 208t254 76q165 0 244.5 -58.5t86.5 -192.5l-170 -10q-7 71 -39.5 100t-120.5 29q-99 0 -134.5 -39.5t-35.5 -126.5v-228q0 -85 39 -123.5t146 -38.5q91 0 121.5 38.5t29.5 127.5
h-171v132h341v-147q0 -131 -83 -207t-251 -76z" />
    <glyph glyph-name="H" unicode="H" horiz-adv-x="870" 
d="M100 0v800h170v-292h330v292h170v-800h-170v376h-330v-376h-170z" />
    <glyph glyph-name="Hcircumflex" unicode="&#x124;" horiz-adv-x="870" 
d="M100 0v800h170v-292h330v292h170v-800h-170v376h-330v-376h-170zM244 890l-55 78l181 156h128l183 -156l-54 -77l-193 108z" />
    <glyph glyph-name="I" unicode="I" 
d="M100 0v132h200v536h-200v132h570v-132h-200v-536h200v-132h-570z" />
    <glyph glyph-name="Igrave" unicode="&#xcc;" 
d="M100 0v132h200v536h-200v132h570v-132h-200v-536h200v-132h-570zM372 900l-216 200h220l115 -200h-119z" />
    <glyph glyph-name="Iacute" unicode="&#xcd;" 
d="M100 0v132h200v536h-200v132h570v-132h-200v-536h200v-132h-570zM257 900l115 200h220l-216 -200h-119z" />
    <glyph glyph-name="Icircumflex" unicode="&#xce;" 
d="M100 0v132h200v536h-200v132h570v-132h-200v-536h200v-132h-570zM194 890l-55 78l181 156h128l183 -156l-54 -77l-193 108z" />
    <glyph glyph-name="Idieresis" unicode="&#xcf;" 
d="M100 0v132h200v536h-200v132h570v-132h-200v-536h200v-132h-570zM259 896q-39 0 -63.5 15.5t-24.5 54.5v13q0 40 24.5 56.5t63.5 16.5q40 0 64.5 -16.5t24.5 -56.5v-13q0 -39 -25 -54.5t-64 -15.5zM511 896q-40 0 -64.5 15.5t-24.5 54.5v13q0 40 24.5 56.5t64.5 16.5
t64 -16.5t24 -56.5v-13q0 -39 -25 -54.5t-63 -15.5z" />
    <glyph glyph-name="Itilde" unicode="&#x128;" 
d="M100 0v132h200v536h-200v132h570v-132h-200v-536h200v-132h-570zM476 910q-44 0 -69.5 16t-42.5 34q-16 19 -30.5 34.5t-33.5 15.5q-17 0 -30 -15.5t-12 -64.5v-10h-112v15q0 81 39.5 135t109.5 54q46 0 71.5 -15.5t42.5 -34.5t31 -35t31 -16t30 15.5t12 65.5v9h112v-15
q0 -80 -39.5 -134t-109.5 -54z" />
    <glyph glyph-name="Imacron" unicode="&#x12a;" 
d="M100 0v132h200v536h-200v132h570v-132h-200v-536h200v-132h-570zM167 934v132h436v-132h-436z" />
    <glyph glyph-name="Ibreve" unicode="&#x12c;" 
d="M100 0v132h200v536h-200v132h570v-132h-200v-536h200v-132h-570zM385 893q-124 0 -190 55.5t-67 175.5h142q1 -69 28 -96.5t87 -27.5t87 27.5t28 96.5h142q-1 -120 -67 -175.5t-190 -55.5z" />
    <glyph glyph-name="Iogonek" unicode="&#x12e;" 
d="M100 0v132h200v536h-200v132h570v-132h-200v-536h200v-132h-570zM462 -221q-78 0 -125 31.5t-47 93.5q0 61 47.5 104.5t102.5 59.5l27 -45q-34 -21 -43 -41.5t-9 -39.5q0 -26 18 -39t56 -13q18 0 43 2.5t50 7.5v-109q-31 -6 -62 -9t-58 -3z" />
    <glyph glyph-name="Idotaccent" unicode="&#x130;" 
d="M100 0v132h200v536h-200v132h570v-132h-200v-536h200v-132h-570zM385 896q-51 0 -83 15.5t-32 54.5v13q0 40 32 56.5t83 16.5t83 -16.5t32 -56.5v-13q0 -39 -32 -54.5t-83 -15.5z" />
    <glyph glyph-name="J" unicode="J" 
d="M379 -10q-171 0 -241.5 65t-77.5 223l170 11q7 -102 34.5 -134.5t105.5 -32.5q80 0 105 33t25 112v401h-235v132h405v-540q0 -126 -65.5 -198t-225.5 -72z" />
    <glyph glyph-name="Jcircumflex" unicode="&#x134;" 
d="M379 -10q-171 0 -241.5 65t-77.5 223l170 11q7 -102 34.5 -134.5t105.5 -32.5q80 0 105 33t25 112v401h-235v132h405v-540q0 -126 -65.5 -198t-225.5 -72zM280 890l-55 78l181 156h128l183 -156l-54 -77l-193 108z" />
    <glyph glyph-name="K" unicode="K" 
d="M270 349v-349h-170v800h170v-319h38l251 319h188l-296 -369l293 -431h-197l-236 349h-41z" />
    <glyph glyph-name="Kcommaaccent" unicode="&#x136;" 
d="M270 349v-349h-170v800h170v-319h38l251 319h188l-296 -369l293 -431h-197l-236 349h-41zM237 -300l75 200h220l-176 -200h-119z" />
    <glyph glyph-name="L" unicode="L" horiz-adv-x="670" 
d="M100 0v800h170v-668h353v-132h-523z" />
    <glyph glyph-name="Lacute" unicode="&#x139;" horiz-adv-x="670" 
d="M100 0v800h170v-668h353v-132h-523zM68 900l115 200h220l-216 -200h-119z" />
    <glyph glyph-name="Lcommaaccent" unicode="&#x13b;" horiz-adv-x="670" 
d="M100 0v800h170v-668h353v-132h-523zM219 -300l75 200h220l-176 -200h-119z" />
    <glyph glyph-name="Lcaron" unicode="&#x13d;" horiz-adv-x="670" 
d="M100 0v800h170v-668h353v-132h-523zM387 505l60 295h217l-177 -295h-100z" />
    <glyph glyph-name="M" unicode="M" horiz-adv-x="970" 
d="M402 200l-154 418v-618h-148v800h224l164 -466l164 466h218v-800h-147v620l-155 -420h-166z" />
    <glyph glyph-name="N" unicode="N" horiz-adv-x="870" 
d="M536 0l-288 623v-623h-148v800h235l288 -625v625h147v-800h-234z" />
    <glyph glyph-name="Ntilde" unicode="&#xd1;" horiz-adv-x="870" 
d="M536 0l-288 623v-623h-148v800h235l288 -625v625h147v-800h-234zM560 910q-44 0 -69.5 16t-42.5 34q-16 19 -30.5 34.5t-33.5 15.5q-17 0 -30 -15.5t-12 -64.5v-10h-112v15q0 81 39.5 135t109.5 54q46 0 71.5 -15.5t42.5 -34.5t31 -35t31 -16t30 15.5t12 65.5v9h112v-15
q0 -80 -39.5 -134t-109.5 -54z" />
    <glyph glyph-name="Nacute" unicode="&#x143;" horiz-adv-x="870" 
d="M536 0l-288 623v-623h-148v800h235l288 -625v625h147v-800h-234zM341 900l115 200h220l-216 -200h-119z" />
    <glyph glyph-name="Ncommaaccent" unicode="&#x145;" horiz-adv-x="870" 
d="M246 -300l75 200h220l-176 -200h-119zM536 0l-288 623v-623h-148v800h235l288 -625v625h147v-800h-234z" />
    <glyph glyph-name="Ncaron" unicode="&#x147;" horiz-adv-x="870" 
d="M536 0l-288 623v-623h-148v800h235l288 -625v625h147v-800h-234zM406 904l-183 156l54 77l193 -108l190 109l55 -78l-181 -156h-128z" />
    <glyph glyph-name="O" unicode="O" horiz-adv-x="870" 
d="M435 -10q-165 0 -250 73t-85 207v256q0 136 85.5 210t250.5 74t249.5 -74t84.5 -210v-256q0 -134 -85 -207t-250 -73zM435 122q90 0 127.5 36.5t37.5 125.5v228q0 91 -37.5 128.5t-127.5 37.5t-127.5 -37.5t-37.5 -128.5v-228q0 -89 37.5 -125.5t127.5 -36.5z" />
    <glyph glyph-name="Ograve" unicode="&#xd2;" horiz-adv-x="870" 
d="M435 -10q-165 0 -250 73t-85 207v256q0 136 85.5 210t250.5 74t249.5 -74t84.5 -210v-256q0 -134 -85 -207t-250 -73zM435 122q90 0 127.5 36.5t37.5 125.5v228q0 91 -37.5 128.5t-127.5 37.5t-127.5 -37.5t-37.5 -128.5v-228q0 -89 37.5 -125.5t127.5 -36.5zM422 900
l-216 200h220l115 -200h-119z" />
    <glyph glyph-name="Oacute" unicode="&#xd3;" horiz-adv-x="870" 
d="M435 -10q-165 0 -250 73t-85 207v256q0 136 85.5 210t250.5 74t249.5 -74t84.5 -210v-256q0 -134 -85 -207t-250 -73zM435 122q90 0 127.5 36.5t37.5 125.5v228q0 91 -37.5 128.5t-127.5 37.5t-127.5 -37.5t-37.5 -128.5v-228q0 -89 37.5 -125.5t127.5 -36.5zM307 900
l115 200h220l-216 -200h-119z" />
    <glyph glyph-name="Ocircumflex" unicode="&#xd4;" horiz-adv-x="870" 
d="M435 -10q-165 0 -250 73t-85 207v256q0 136 85.5 210t250.5 74t249.5 -74t84.5 -210v-256q0 -134 -85 -207t-250 -73zM435 122q90 0 127.5 36.5t37.5 125.5v228q0 91 -37.5 128.5t-127.5 37.5t-127.5 -37.5t-37.5 -128.5v-228q0 -89 37.5 -125.5t127.5 -36.5zM244 890
l-55 78l181 156h128l183 -156l-54 -77l-193 108z" />
    <glyph glyph-name="Otilde" unicode="&#xd5;" horiz-adv-x="870" 
d="M435 -10q-165 0 -250 73t-85 207v256q0 136 85.5 210t250.5 74t249.5 -74t84.5 -210v-256q0 -134 -85 -207t-250 -73zM435 122q90 0 127.5 36.5t37.5 125.5v228q0 91 -37.5 128.5t-127.5 37.5t-127.5 -37.5t-37.5 -128.5v-228q0 -89 37.5 -125.5t127.5 -36.5zM526 910
q-44 0 -69.5 16t-42.5 34q-16 19 -30.5 34.5t-33.5 15.5q-17 0 -30 -15.5t-12 -64.5v-10h-112v15q0 81 39.5 135t109.5 54q46 0 71.5 -15.5t42.5 -34.5t31 -35t31 -16t30 15.5t12 65.5v9h112v-15q0 -80 -39.5 -134t-109.5 -54z" />
    <glyph glyph-name="Odieresis" unicode="&#xd6;" horiz-adv-x="870" 
d="M435 -10q-165 0 -250 73t-85 207v256q0 136 85.5 210t250.5 74t249.5 -74t84.5 -210v-256q0 -134 -85 -207t-250 -73zM435 122q90 0 127.5 36.5t37.5 125.5v228q0 91 -37.5 128.5t-127.5 37.5t-127.5 -37.5t-37.5 -128.5v-228q0 -89 37.5 -125.5t127.5 -36.5zM309 896
q-39 0 -63.5 15.5t-24.5 54.5v13q0 40 24.5 56.5t63.5 16.5q40 0 64.5 -16.5t24.5 -56.5v-13q0 -39 -25 -54.5t-64 -15.5zM561 896q-40 0 -64.5 15.5t-24.5 54.5v13q0 40 24.5 56.5t64.5 16.5t64 -16.5t24 -56.5v-13q0 -39 -25 -54.5t-63 -15.5z" />
    <glyph glyph-name="Omacron" unicode="&#x14c;" horiz-adv-x="870" 
d="M435 -10q-165 0 -250 73t-85 207v256q0 136 85.5 210t250.5 74t249.5 -74t84.5 -210v-256q0 -134 -85 -207t-250 -73zM435 122q90 0 127.5 36.5t37.5 125.5v228q0 91 -37.5 128.5t-127.5 37.5t-127.5 -37.5t-37.5 -128.5v-228q0 -89 37.5 -125.5t127.5 -36.5zM217 934
v132h436v-132h-436z" />
    <glyph glyph-name="Obreve" unicode="&#x14e;" horiz-adv-x="870" 
d="M435 -10q-165 0 -250 73t-85 207v256q0 136 85.5 210t250.5 74t249.5 -74t84.5 -210v-256q0 -134 -85 -207t-250 -73zM435 122q90 0 127.5 36.5t37.5 125.5v228q0 91 -37.5 128.5t-127.5 37.5t-127.5 -37.5t-37.5 -128.5v-228q0 -89 37.5 -125.5t127.5 -36.5zM435 893
q-124 0 -190 55.5t-67 175.5h142q1 -69 28 -96.5t87 -27.5t87 27.5t28 96.5h142q-1 -120 -67 -175.5t-190 -55.5z" />
    <glyph glyph-name="Ohungarumlaut" unicode="&#x150;" horiz-adv-x="870" 
d="M435 -10q-165 0 -250 73t-85 207v256q0 136 85.5 210t250.5 74t249.5 -74t84.5 -210v-256q0 -134 -85 -207t-250 -73zM435 122q90 0 127.5 36.5t37.5 125.5v228q0 91 -37.5 128.5t-127.5 37.5t-127.5 -37.5t-37.5 -128.5v-228q0 -89 37.5 -125.5t127.5 -36.5zM483 900
l49 200h175l-132 -200h-92zM253 900l49 200h175l-132 -200h-92z" />
    <glyph glyph-name="P" unicode="P" 
d="M100 0v800h324q131 0 203.5 -59t72.5 -166v-106q0 -104 -72.5 -160.5t-203.5 -56.5h-154v-252h-170zM270 383h131q69 0 99 24t30 81v72q0 58 -30 83t-99 25h-131v-285z" />
    <glyph glyph-name="Q" unicode="Q" horiz-adv-x="870" 
d="M707 -205q-183 -29 -265 23t-81 199q-128 14 -194.5 84.5t-66.5 189.5v235q0 136 85.5 210t250.5 74t249.5 -74t84.5 -210v-235q0 -120 -69.5 -191.5t-203.5 -84.5q4 -63 48.5 -81t143.5 0zM435 136q95 0 130 36t35 133v207q0 96 -35 131t-130 35t-130 -35t-35 -131v-207
q0 -97 35 -133t130 -36z" />
    <glyph glyph-name="R" unicode="R" horiz-adv-x="870" 
d="M270 420h194q68 0 95 21.5t27 72.5v62q0 51 -27 71.5t-95 20.5h-194v-248zM270 0h-170v800h400q123 0 189.5 -57t66.5 -161v-69q0 -87 -45 -142t-130 -73l198 -298h-194l-192 289h-123v-289z" />
    <glyph glyph-name="Racute" unicode="&#x154;" horiz-adv-x="870" 
d="M270 420h194q68 0 95 21.5t27 72.5v62q0 51 -27 71.5t-95 20.5h-194v-248zM270 0h-170v800h400q123 0 189.5 -57t66.5 -161v-69q0 -87 -45 -142t-130 -73l198 -298h-194l-192 289h-123v-289zM306 900l115 200h220l-216 -200h-119z" />
    <glyph glyph-name="Rcommaaccent" unicode="&#x156;" horiz-adv-x="870" 
d="M270 420h194q68 0 95 21.5t27 72.5v62q0 51 -27 71.5t-95 20.5h-194v-248zM270 0h-170v800h400q123 0 189.5 -57t66.5 -161v-69q0 -87 -45 -142t-130 -73l198 -298h-194l-192 289h-123v-289zM252 -300l75 200h220l-176 -200h-119z" />
    <glyph glyph-name="Rcaron" unicode="&#x158;" horiz-adv-x="870" 
d="M270 420h194q68 0 95 21.5t27 72.5v62q0 51 -27 71.5t-95 20.5h-194v-248zM270 0h-170v800h400q123 0 189.5 -57t66.5 -161v-69q0 -87 -45 -142t-130 -73l198 -298h-194l-192 289h-123v-289zM350 904l-183 156l54 77l193 -108l190 109l55 -78l-181 -156h-128z" />
    <glyph glyph-name="S" unicode="S" horiz-adv-x="870" 
d="M432 -9q-99 0 -188 30.5t-154 94.5l59 115q64 -54 137.5 -81t167.5 -27q75 0 114 27t39 78q0 46 -45.5 66.5t-192.5 45.5q-141 22 -199 71.5t-58 148.5q0 107 80 177.5t234 70.5q93 0 177.5 -30.5t133.5 -84.5l-52 -110q-60 45 -125.5 68.5t-136.5 23.5q-66 0 -104 -23.5
t-38 -72.5q0 -46 46.5 -66t196.5 -46q139 -24 196 -75t57 -150q0 -119 -91.5 -185t-253.5 -66z" />
    <glyph glyph-name="Sacute" unicode="&#x15a;" horiz-adv-x="870" 
d="M432 -9q-99 0 -188 30.5t-154 94.5l59 115q64 -54 137.5 -81t167.5 -27q75 0 114 27t39 78q0 46 -45.5 66.5t-192.5 45.5q-141 22 -199 71.5t-58 148.5q0 107 80 177.5t234 70.5q93 0 177.5 -30.5t133.5 -84.5l-52 -110q-60 45 -125.5 68.5t-136.5 23.5q-66 0 -104 -23.5
t-38 -72.5q0 -46 46.5 -66t196.5 -46q139 -24 196 -75t57 -150q0 -119 -91.5 -185t-253.5 -66zM305 900l115 200h220l-216 -200h-119z" />
    <glyph glyph-name="Scircumflex" unicode="&#x15c;" horiz-adv-x="870" 
d="M432 -9q-99 0 -188 30.5t-154 94.5l59 115q64 -54 137.5 -81t167.5 -27q75 0 114 27t39 78q0 46 -45.5 66.5t-192.5 45.5q-141 22 -199 71.5t-58 148.5q0 107 80 177.5t234 70.5q93 0 177.5 -30.5t133.5 -84.5l-52 -110q-60 45 -125.5 68.5t-136.5 23.5q-66 0 -104 -23.5
t-38 -72.5q0 -46 46.5 -66t196.5 -46q139 -24 196 -75t57 -150q0 -119 -91.5 -185t-253.5 -66zM242 890l-55 78l181 156h128l183 -156l-54 -77l-193 108z" />
    <glyph glyph-name="Scedilla" unicode="&#x15e;" horiz-adv-x="870" 
d="M432 -9q-99 0 -188 30.5t-154 94.5l59 115q64 -54 137.5 -81t167.5 -27q75 0 114 27t39 78q0 46 -45.5 66.5t-192.5 45.5q-141 22 -199 71.5t-58 148.5q0 107 80 177.5t234 70.5q93 0 177.5 -30.5t133.5 -84.5l-52 -110q-60 45 -125.5 68.5t-136.5 23.5q-66 0 -104 -23.5
t-38 -72.5q0 -46 46.5 -66t196.5 -46q139 -24 196 -75t57 -150q0 -119 -91.5 -185t-253.5 -66zM403 0l20 42q73 -8 123 -36t50 -95q0 -72 -60 -103t-135 -31q-87 0 -142 29t-60 98l144 10q2 -19 13.5 -26.5t37.5 -7.5q28 0 42 11t14 45q0 28 -10 42.5t-37 21.5z" />
    <glyph glyph-name="Scaron" unicode="&#x160;" horiz-adv-x="870" 
d="M432 -9q-99 0 -188 30.5t-154 94.5l59 115q64 -54 137.5 -81t167.5 -27q75 0 114 27t39 78q0 46 -45.5 66.5t-192.5 45.5q-141 22 -199 71.5t-58 148.5q0 107 80 177.5t234 70.5q93 0 177.5 -30.5t133.5 -84.5l-52 -110q-60 45 -125.5 68.5t-136.5 23.5q-66 0 -104 -23.5
t-38 -72.5q0 -46 46.5 -66t196.5 -46q139 -24 196 -75t57 -150q0 -119 -91.5 -185t-253.5 -66zM370 904l-183 156l54 77l193 -108l190 109l55 -78l-181 -156h-128z" />
    <glyph glyph-name="Scommaaccent" unicode="&#x218;" horiz-adv-x="870" 
d="M432 -9q-99 0 -188 30.5t-154 94.5l59 115q64 -54 137.5 -81t167.5 -27q75 0 114 27t39 78q0 46 -45.5 66.5t-192.5 45.5q-141 22 -199 71.5t-58 148.5q0 107 80 177.5t234 70.5q93 0 177.5 -30.5t133.5 -84.5l-52 -110q-60 45 -125.5 68.5t-136.5 23.5q-66 0 -104 -23.5
t-38 -72.5q0 -46 46.5 -66t196.5 -46q139 -24 196 -75t57 -150q0 -119 -91.5 -185t-253.5 -66zM246 -300l75 200h220l-176 -200h-119z" />
    <glyph glyph-name="T" unicode="T" 
d="M300 0v668h-250v132h670v-132h-250v-668h-170z" />
    <glyph glyph-name="Tcedilla" unicode="&#x162;" 
d="M300 0v668h-250v132h670v-132h-250v-668h-170zM351 0l20 42q73 -8 123 -36t50 -95q0 -72 -60 -103t-135 -31q-87 0 -142 29t-60 98l144 10q2 -19 13.5 -26.5t37.5 -7.5q28 0 42 11t14 45q0 28 -10 42.5t-37 21.5z" />
    <glyph glyph-name="Tcaron" unicode="&#x164;" 
d="M300 0v668h-250v132h670v-132h-250v-668h-170zM322 904l-183 156l54 77l193 -108l190 109l55 -78l-181 -156h-128z" />
    <glyph glyph-name="Tcommaaccent" unicode="&#x21a;" 
d="M300 0v668h-250v132h670v-132h-250v-668h-170zM203 -300l75 200h220l-176 -200h-119z" />
    <glyph glyph-name="U" unicode="U" horiz-adv-x="870" 
d="M435 -10q-178 0 -256.5 73.5t-78.5 227.5v509h170v-495q0 -96 34 -136t131 -40t131 40t34 136v495h170v-509q0 -154 -78.5 -227.5t-256.5 -73.5z" />
    <glyph glyph-name="Ugrave" unicode="&#xd9;" horiz-adv-x="870" 
d="M435 -10q-178 0 -256.5 73.5t-78.5 227.5v509h170v-495q0 -96 34 -136t131 -40t131 40t34 136v495h170v-509q0 -154 -78.5 -227.5t-256.5 -73.5zM422 900l-216 200h220l115 -200h-119z" />
    <glyph glyph-name="Uacute" unicode="&#xda;" horiz-adv-x="870" 
d="M435 -10q-178 0 -256.5 73.5t-78.5 227.5v509h170v-495q0 -96 34 -136t131 -40t131 40t34 136v495h170v-509q0 -154 -78.5 -227.5t-256.5 -73.5zM307 900l115 200h220l-216 -200h-119z" />
    <glyph glyph-name="Ucircumflex" unicode="&#xdb;" horiz-adv-x="870" 
d="M435 -10q-178 0 -256.5 73.5t-78.5 227.5v509h170v-495q0 -96 34 -136t131 -40t131 40t34 136v495h170v-509q0 -154 -78.5 -227.5t-256.5 -73.5zM244 890l-55 78l181 156h128l183 -156l-54 -77l-193 108z" />
    <glyph glyph-name="Udieresis" unicode="&#xdc;" horiz-adv-x="870" 
d="M435 -10q-178 0 -256.5 73.5t-78.5 227.5v509h170v-495q0 -96 34 -136t131 -40t131 40t34 136v495h170v-509q0 -154 -78.5 -227.5t-256.5 -73.5zM309 896q-39 0 -63.5 15.5t-24.5 54.5v13q0 40 24.5 56.5t63.5 16.5q40 0 64.5 -16.5t24.5 -56.5v-13q0 -39 -25 -54.5
t-64 -15.5zM561 896q-40 0 -64.5 15.5t-24.5 54.5v13q0 40 24.5 56.5t64.5 16.5t64 -16.5t24 -56.5v-13q0 -39 -25 -54.5t-63 -15.5z" />
    <glyph glyph-name="Utilde" unicode="&#x168;" horiz-adv-x="870" 
d="M435 -10q-178 0 -256.5 73.5t-78.5 227.5v509h170v-495q0 -96 34 -136t131 -40t131 40t34 136v495h170v-509q0 -154 -78.5 -227.5t-256.5 -73.5zM526 910q-44 0 -69.5 16t-42.5 34q-16 19 -30.5 34.5t-33.5 15.5q-17 0 -30 -15.5t-12 -64.5v-10h-112v15q0 81 39.5 135
t109.5 54q46 0 71.5 -15.5t42.5 -34.5t31 -35t31 -16t30 15.5t12 65.5v9h112v-15q0 -80 -39.5 -134t-109.5 -54z" />
    <glyph glyph-name="Umacron" unicode="&#x16a;" horiz-adv-x="870" 
d="M435 -10q-178 0 -256.5 73.5t-78.5 227.5v509h170v-495q0 -96 34 -136t131 -40t131 40t34 136v495h170v-509q0 -154 -78.5 -227.5t-256.5 -73.5zM217 934v132h436v-132h-436z" />
    <glyph glyph-name="Ubreve" unicode="&#x16c;" horiz-adv-x="870" 
d="M435 -10q-178 0 -256.5 73.5t-78.5 227.5v509h170v-495q0 -96 34 -136t131 -40t131 40t34 136v495h170v-509q0 -154 -78.5 -227.5t-256.5 -73.5zM435 893q-124 0 -190 55.5t-67 175.5h142q1 -69 28 -96.5t87 -27.5t87 27.5t28 96.5h142q-1 -120 -67 -175.5t-190 -55.5z
" />
    <glyph glyph-name="Uring" unicode="&#x16e;" horiz-adv-x="870" 
d="M435 -10q-178 0 -256.5 73.5t-78.5 227.5v509h170v-495q0 -96 34 -136t131 -40t131 40t34 136v495h170v-509q0 -154 -78.5 -227.5t-256.5 -73.5zM435 878q-87 0 -141 37t-54 115v32q0 78 54 116.5t141 38.5q88 0 141.5 -38.5t53.5 -116.5v-32q0 -78 -54 -115t-141 -37z
M435 963q37 0 56 15t19 52v32q0 36 -19 53t-56 17t-56 -17t-19 -53v-32q0 -37 19 -52t56 -15z" />
    <glyph glyph-name="Uhungarumlaut" unicode="&#x170;" horiz-adv-x="870" 
d="M435 -10q-178 0 -256.5 73.5t-78.5 227.5v509h170v-495q0 -96 34 -136t131 -40t131 40t34 136v495h170v-509q0 -154 -78.5 -227.5t-256.5 -73.5zM483 900l49 200h175l-132 -200h-92zM253 900l49 200h175l-132 -200h-92z" />
    <glyph glyph-name="Uogonek" unicode="&#x172;" horiz-adv-x="870" 
d="M508 -221q-78 0 -125 31.5t-47 93.5q0 61 47.5 104.5t102.5 59.5l27 -45q-34 -21 -43 -41.5t-9 -39.5q0 -26 18 -39t56 -13q18 0 43 2.5t50 7.5v-109q-31 -6 -62 -9t-58 -3zM435 -10q-178 0 -256.5 73.5t-78.5 227.5v509h170v-495q0 -96 34 -136t131 -40t131 40t34 136
v495h170v-509q0 -154 -78.5 -227.5t-256.5 -73.5z" />
    <glyph glyph-name="V" unicode="V" horiz-adv-x="800" 
d="M508 0h-217l-258 800h175l197 -667l199 667h163z" />
    <glyph glyph-name="W" unicode="W" horiz-adv-x="1040" 
d="M644 0l-122 498l-126 -498h-186l-158 800h162l114 -615l112 488h169l121 -489l112 616h147l-159 -800h-186z" />
    <glyph glyph-name="Wcircumflex" unicode="&#x174;" horiz-adv-x="1040" 
d="M644 0l-122 498l-126 -498h-186l-158 800h162l114 -615l112 488h169l121 -489l112 616h147l-159 -800h-186zM329 890l-55 78l181 156h128l183 -156l-54 -77l-193 108z" />
    <glyph glyph-name="Wgrave" unicode="&#x1e80;" horiz-adv-x="1040" 
d="M644 0l-122 498l-126 -498h-186l-158 800h162l114 -615l112 488h169l121 -489l112 616h147l-159 -800h-186zM507 900l-216 200h220l115 -200h-119z" />
    <glyph glyph-name="Wacute" unicode="&#x1e82;" horiz-adv-x="1040" 
d="M644 0l-122 498l-126 -498h-186l-158 800h162l114 -615l112 488h169l121 -489l112 616h147l-159 -800h-186zM392 900l115 200h220l-216 -200h-119z" />
    <glyph glyph-name="Wdieresis" unicode="&#x1e84;" horiz-adv-x="1040" 
d="M644 0l-122 498l-126 -498h-186l-158 800h162l114 -615l112 488h169l121 -489l112 616h147l-159 -800h-186zM394 896q-39 0 -63.5 15.5t-24.5 54.5v13q0 40 24.5 56.5t63.5 16.5q40 0 64.5 -16.5t24.5 -56.5v-13q0 -39 -25 -54.5t-64 -15.5zM646 896q-40 0 -64.5 15.5
t-24.5 54.5v13q0 40 24.5 56.5t64.5 16.5t64 -16.5t24 -56.5v-13q0 -39 -25 -54.5t-63 -15.5z" />
    <glyph glyph-name="X" unicode="X" horiz-adv-x="870" 
d="M611 0l-178 277l-175 -277h-185l273 412l-248 388h191l166 -263l160 263h183l-256 -400l253 -400h-184z" />
    <glyph glyph-name="Y" unicode="Y" 
d="M470 0h-170v300l-289 500h180l199 -362l197 362h172l-289 -500v-300z" />
    <glyph glyph-name="Yacute" unicode="&#xdd;" 
d="M470 0h-170v300l-289 500h180l199 -362l197 362h172l-289 -500v-300zM263 900l115 200h220l-216 -200h-119z" />
    <glyph glyph-name="Ycircumflex" unicode="&#x176;" 
d="M470 0h-170v300l-289 500h180l199 -362l197 362h172l-289 -500v-300zM194 890l-55 78l181 156h128l183 -156l-54 -77l-193 108z" />
    <glyph glyph-name="Ydieresis" unicode="&#x178;" 
d="M470 0h-170v300l-289 500h180l199 -362l197 362h172l-289 -500v-300zM259 896q-39 0 -63.5 15.5t-24.5 54.5v13q0 40 24.5 56.5t63.5 16.5q40 0 64.5 -16.5t24.5 -56.5v-13q0 -39 -25 -54.5t-64 -15.5zM511 896q-40 0 -64.5 15.5t-24.5 54.5v13q0 40 24.5 56.5t64.5 16.5
t64 -16.5t24 -56.5v-13q0 -39 -25 -54.5t-63 -15.5z" />
    <glyph glyph-name="Ygrave" unicode="&#x1ef2;" 
d="M470 0h-170v300l-289 500h180l199 -362l197 362h172l-289 -500v-300zM372 900l-216 200h220l115 -200h-119z" />
    <glyph glyph-name="Z" unicode="Z" horiz-adv-x="870" 
d="M763 0h-656v132l449 536h-449v132h656v-132l-451 -536h451v-132z" />
    <glyph glyph-name="Zacute" unicode="&#x179;" horiz-adv-x="870" 
d="M763 0h-656v132l449 536h-449v132h656v-132l-451 -536h451v-132zM307 900l115 200h220l-216 -200h-119z" />
    <glyph glyph-name="Zdotaccent" unicode="&#x17b;" horiz-adv-x="870" 
d="M763 0h-656v132l449 536h-449v132h656v-132l-451 -536h451v-132zM435 896q-51 0 -83 15.5t-32 54.5v13q0 40 32 56.5t83 16.5t83 -16.5t32 -56.5v-13q0 -39 -32 -54.5t-83 -15.5z" />
    <glyph glyph-name="Zcaron" unicode="&#x17d;" horiz-adv-x="870" 
d="M763 0h-656v132l449 536h-449v132h656v-132l-451 -536h451v-132zM372 904l-183 156l54 77l193 -108l190 109l55 -78l-181 -156h-128z" />
    <glyph glyph-name="AE" unicode="&#xc6;" horiz-adv-x="1140" 
d="M441 668l-128 -341h219v341h-91zM532 195h-268l-73 -195h-158l309 800h704v-132h-344v-174h294v-132h-294v-230h344v-132h-514v195z" />
    <glyph glyph-name="AEacute" unicode="&#x1fc;" horiz-adv-x="1140" 
d="M538 900l115 200h220l-216 -200h-119zM441 668l-128 -341h219v341h-91zM532 195h-268l-73 -195h-158l309 800h704v-132h-344v-174h294v-132h-294v-230h344v-132h-514v195z" />
    <glyph glyph-name="Eth" unicode="&#xd0;" horiz-adv-x="870" 
d="M100 0v385h-100v111h100v304h327q161 0 252 -79.5t91 -211.5v-222q0 -131 -91.5 -209t-252.5 -78h-326zM270 132h142q108 0 148 42.5t40 126.5v194q0 84 -40 128.5t-148 44.5h-142v-172h165v-111h-165v-253z" />
    <glyph glyph-name="Oslash" unicode="&#xd8;" horiz-adv-x="870" 
d="M291 182l196 493q-11 1 -24.5 2t-27.5 1q-92 0 -128.5 -37t-36.5 -129v-228q0 -34 5.5 -59t15.5 -43zM435 122q92 0 128.5 36t36.5 126v228q0 37 -6 63.5t-19 45.5l-198 -494q13 -2 27.5 -3.5t30.5 -1.5zM435 -10q-27 0 -52 2.5t-48 6.5l-39 -99h-128l55 137
q-61 34 -92 93t-31 140v256q0 135 86 209.5t250 74.5q25 0 48 -1.5t45 -5.5l39 97h128l-53 -134q63 -35 95 -96t32 -144v-256q0 -134 -85.5 -207t-249.5 -73z" />
    <glyph glyph-name="Oslashacute" unicode="&#x1fe;" horiz-adv-x="870" 
d="M291 182l196 493q-11 1 -24.5 2t-27.5 1q-92 0 -128.5 -37t-36.5 -129v-228q0 -34 5.5 -59t15.5 -43zM435 122q92 0 128.5 36t36.5 126v228q0 37 -6 63.5t-19 45.5l-198 -494q13 -2 27.5 -3.5t30.5 -1.5zM435 -10q-27 0 -52 2.5t-48 6.5l-39 -99h-128l55 137
q-61 34 -92 93t-31 140v256q0 135 86 209.5t250 74.5q25 0 48 -1.5t45 -5.5l39 97h128l-53 -134q63 -35 95 -96t32 -144v-256q0 -134 -85.5 -207t-249.5 -73zM307 900l115 200h220l-216 -200h-119z" />
    <glyph glyph-name="Thorn" unicode="&#xde;" 
d="M100 0v800h170v-123h154q127 0 201.5 -62.5t74.5 -169.5v-91q0 -103 -74.5 -164t-201.5 -61h-154v-129h-170zM270 260h131q68 0 98.5 25.5t30.5 80.5v72q0 57 -30.5 82t-98.5 25h-131v-285z" />
    <glyph glyph-name="Dcroat" unicode="&#x110;" horiz-adv-x="870" 
d="M100 0v385h-100v111h100v304h327q161 0 252 -79.5t91 -211.5v-222q0 -131 -91.5 -209t-252.5 -78h-326zM270 132h142q108 0 148 42.5t40 126.5v194q0 84 -40 128.5t-148 44.5h-142v-172h165v-111h-165v-253z" />
    <glyph glyph-name="Hbar" unicode="&#x126;" horiz-adv-x="870" 
d="M270 423h330v130h-330v-130zM270 291v-291h-170v553h-100v111h100v136h170v-136h330v136h170v-136h100v-111h-100v-553h-170v291h-330z" />
    <glyph glyph-name="IJ" unicode="&#x132;" horiz-adv-x="1540" 
d="M100 0v132h200v536h-200v132h570v-132h-200v-536h200v-132h-570zM1149 -10q-171 0 -241.5 65t-77.5 223l170 11q7 -102 34.5 -134.5t105.5 -32.5q80 0 105 33t25 112v401h-235v132h405v-540q0 -126 -65.5 -198t-225.5 -72z" />
    <glyph glyph-name="Ldot" unicode="&#x13f;" horiz-adv-x="940" 
d="M100 0v800h170v-668h353v-132h-523zM671 389q-51 0 -83 15.5t-32 54.5v13q0 40 32 56.5t83 16.5t83 -16.5t32 -56.5v-13q0 -39 -32 -54.5t-83 -15.5z" />
    <glyph glyph-name="Lslash" unicode="&#x141;" horiz-adv-x="670" 
d="M100 0v334l-79 -25v108l79 25v358h170v-304l236 75v-108l-236 -75v-256h353v-132h-523z" />
    <glyph glyph-name="Eng" unicode="&#x14a;" horiz-adv-x="870" 
d="M510 -209q-38 0 -77.5 6.5t-79.5 18.5l20 117q34 -11 63.5 -17t54.5 -6q51 0 80 27.5t29 90.5v505q0 71 -35 107.5t-99 36.5q-50 0 -96 -33.5t-100 -105.5v-538h-170v800h170v-154h30q34 78 96.5 121t143.5 43q106 0 168 -62.5t62 -168.5v-567q0 -116 -78 -168.5
t-182 -52.5z" />
    <glyph glyph-name="OE" unicode="&#x152;" horiz-adv-x="1140" 
d="M420 0q-150 0 -235 79t-85 211v222q0 131 85 209.5t236 78.5h625v-132h-341v-174h291v-132h-291v-230h341v-132h-626zM435 132h100v536h-100q-90 0 -127.5 -40.5t-37.5 -129.5v-194q0 -91 37.5 -131.5t127.5 -40.5z" />
    <glyph glyph-name="Tbar" unicode="&#x166;" 
d="M300 0v296h-200v111h200v261h-250v132h670v-132h-250v-261h200v-111h-200v-296h-170z" />
    <glyph glyph-name="Alpha" unicode="&#x391;" horiz-adv-x="800" 
d="M497 327l-103 350l-104 -350h207zM593 0l-57 195h-285l-58 -195h-160l260 800h216l258 -800h-174z" />
    <glyph glyph-name="Alphatonos" unicode="&#x386;" horiz-adv-x="870" 
d="M567 327l-103 350l-104 -350h207zM663 0l-57 195h-285l-58 -195h-160l260 800h216l258 -800h-174zM13 600l55 200h210l-156 -200h-109z" />
    <glyph glyph-name="Beta" unicode="&#x392;" horiz-adv-x="870" 
d="M100 0v800h391q133 0 195.5 -46t62.5 -142v-37q0 -61 -28.5 -94t-87.5 -43v-29q66 -7 103.5 -47.5t37.5 -102.5v-50q0 -107 -68.5 -158t-214.5 -51h-391zM270 474h203q59 0 83.5 18.5t24.5 61.5v42q0 43 -24.5 61t-83.5 18h-203v-201zM270 125h206q70 0 99 21.5t29 72.5
v46q0 50 -29 71.5t-99 21.5h-206v-233z" />
    <glyph glyph-name="Gamma" unicode="&#x393;" horiz-adv-x="670" 
d="M100 0v800h540v-132h-370v-668h-170z" />
    <glyph glyph-name="Delta" unicode="&#x394;" horiz-adv-x="800" 
d="M33 0v132l254 668h231l249 -668v-132h-734zM592 132l-196 556l-202 -556h398z" />
    <glyph glyph-name="Epsilon" unicode="&#x395;" 
d="M100 0v800h576v-132h-406v-174h356v-132h-356v-230h406v-132h-576z" />
    <glyph glyph-name="Epsilontonos" unicode="&#x388;" horiz-adv-x="970" 
d="M300 0v800h576v-132h-406v-174h356v-132h-356v-230h406v-132h-576zM-24 600l55 200h210l-156 -200h-109z" />
    <glyph glyph-name="Zeta" unicode="&#x396;" horiz-adv-x="870" 
d="M763 0h-656v132l449 536h-449v132h656v-132l-451 -536h451v-132z" />
    <glyph glyph-name="Eta" unicode="&#x397;" horiz-adv-x="870" 
d="M100 0v800h170v-292h330v292h170v-800h-170v376h-330v-376h-170z" />
    <glyph glyph-name="Etatonos" unicode="&#x389;" horiz-adv-x="1070" 
d="M300 0v800h170v-292h330v292h170v-800h-170v376h-330v-376h-170zM-31 600l55 200h210l-156 -200h-109z" />
    <glyph glyph-name="Theta" unicode="&#x398;" horiz-adv-x="870" 
d="M435 -10q-165 0 -250 73t-85 207v256q0 136 85.5 210t250.5 74t249.5 -74t84.5 -210v-256q0 -134 -85 -207t-250 -73zM435 122q94 0 133 37t39 125v228q0 90 -39 128t-133 38q-93 0 -132.5 -38t-39.5 -128v-228q0 -88 39.5 -125t132.5 -37zM349 346v118h172v-118h-172z
" />
    <glyph glyph-name="Iota" unicode="&#x399;" 
d="M100 0v132h200v536h-200v132h570v-132h-200v-536h200v-132h-570z" />
    <glyph glyph-name="Iotatonos" unicode="&#x38a;" horiz-adv-x="970" 
d="M300 0v132h200v536h-200v132h570v-132h-200v-536h200v-132h-570zM-22 600l55 200h210l-156 -200h-109z" />
    <glyph glyph-name="Iotadieresis" unicode="&#x3aa;" 
d="M100 0v132h200v536h-200v132h570v-132h-200v-536h200v-132h-570zM259 896q-39 0 -63.5 15.5t-24.5 54.5v13q0 40 24.5 56.5t63.5 16.5q40 0 64.5 -16.5t24.5 -56.5v-13q0 -39 -25 -54.5t-64 -15.5zM511 896q-40 0 -64.5 15.5t-24.5 54.5v13q0 40 24.5 56.5t64.5 16.5
t64 -16.5t24 -56.5v-13q0 -39 -25 -54.5t-63 -15.5z" />
    <glyph glyph-name="Kappa" unicode="&#x39a;" 
d="M270 349v-349h-170v800h170v-319h38l251 319h188l-296 -369l293 -431h-197l-236 349h-41z" />
    <glyph glyph-name="Lambda" unicode="&#x39b;" horiz-adv-x="800" 
d="M593 0l-199 677l-201 -677h-160l260 800h216l258 -800h-174z" />
    <glyph glyph-name="Mu" unicode="&#x39c;" horiz-adv-x="970" 
d="M402 200l-154 418v-618h-148v800h224l164 -466l164 466h218v-800h-147v620l-155 -420h-166z" />
    <glyph glyph-name="Nu" unicode="&#x39d;" horiz-adv-x="870" 
d="M536 0l-288 623v-623h-148v800h235l288 -625v625h147v-800h-234z" />
    <glyph glyph-name="Xi" unicode="&#x39e;" 
d="M80 668v132h610v-132h-610zM105 362v132h560v-132h-560zM80 0v132h610v-132h-610z" />
    <glyph glyph-name="Omicron" unicode="&#x39f;" horiz-adv-x="870" 
d="M435 -10q-165 0 -250 73t-85 207v256q0 136 85.5 210t250.5 74t249.5 -74t84.5 -210v-256q0 -134 -85 -207t-250 -73zM435 122q90 0 127.5 36.5t37.5 125.5v228q0 91 -37.5 128.5t-127.5 37.5t-127.5 -37.5t-37.5 -128.5v-228q0 -89 37.5 -125.5t127.5 -36.5z" />
    <glyph glyph-name="Omicrontonos" unicode="&#x38c;" horiz-adv-x="970" 
d="M535 -10q-165 0 -250 73t-85 207v256q0 136 85.5 210t250.5 74t249.5 -74t84.5 -210v-256q0 -134 -85 -207t-250 -73zM535 122q90 0 127.5 36.5t37.5 125.5v228q0 91 -37.5 128.5t-127.5 37.5t-127.5 -37.5t-37.5 -128.5v-228q0 -89 37.5 -125.5t127.5 -36.5zM-17 600
l55 200h210l-156 -200h-109z" />
    <glyph glyph-name="Pi" unicode="&#x3a0;" horiz-adv-x="870" 
d="M100 0v800h670v-800h-170v668h-330v-668h-170z" />
    <glyph glyph-name="Rho" unicode="&#x3a1;" 
d="M100 0v800h324q131 0 203.5 -59t72.5 -166v-106q0 -104 -72.5 -160.5t-203.5 -56.5h-154v-252h-170zM270 383h131q69 0 99 24t30 81v72q0 58 -30 83t-99 25h-131v-285z" />
    <glyph glyph-name="Sigma" unicode="&#x3a3;" 
d="M690 0h-620v132l339 282l-339 254v132h620v-132h-411l284 -213v-92l-286 -231h413v-132z" />
    <glyph glyph-name="Tau" unicode="&#x3a4;" 
d="M300 0v668h-250v132h670v-132h-250v-668h-170z" />
    <glyph glyph-name="Upsilon" unicode="&#x3a5;" 
d="M470 0h-170v300l-289 500h180l199 -362l197 362h172l-289 -500v-300z" />
    <glyph glyph-name="Upsilontonos" unicode="&#x38e;" horiz-adv-x="1040" 
d="M740 0h-170v300l-289 500h180l199 -362l197 362h172l-289 -500v-300zM-1 600l55 200h210l-156 -200h-109z" />
    <glyph glyph-name="Upsilondieresis" unicode="&#x3ab;" 
d="M470 0h-170v300l-289 500h180l199 -362l197 362h172l-289 -500v-300zM259 896q-39 0 -63.5 15.5t-24.5 54.5v13q0 40 24.5 56.5t63.5 16.5q40 0 64.5 -16.5t24.5 -56.5v-13q0 -39 -25 -54.5t-64 -15.5zM511 896q-40 0 -64.5 15.5t-24.5 54.5v13q0 40 24.5 56.5t64.5 16.5
t64 -16.5t24 -56.5v-13q0 -39 -25 -54.5t-63 -15.5z" />
    <glyph glyph-name="Phi" unicode="&#x3a6;" horiz-adv-x="970" 
d="M618 90h-48v-103h-170v103h-47q-142 0 -212.5 69.5t-70.5 197.5v82q0 131 70.5 201t212.5 70h47v103h170v-103h48q142 0 212 -70t70 -201v-82q0 -128 -70 -197.5t-212 -69.5zM618 585h-53v-370h53q64 0 91.5 36t27.5 106v82q0 71 -27.5 108.5t-91.5 37.5zM353 215h52v370
h-52q-65 0 -92.5 -37.5t-27.5 -108.5v-82q0 -70 27.5 -106t92.5 -36z" />
    <glyph glyph-name="Chi" unicode="&#x3a7;" horiz-adv-x="870" 
d="M611 0l-178 277l-175 -277h-185l273 412l-248 388h191l166 -263l160 263h183l-256 -400l253 -400h-184z" />
    <glyph glyph-name="Psi" unicode="&#x3a8;" horiz-adv-x="1040" 
d="M605 0h-170v186q-174 14 -254.5 86.5t-80.5 184.5v343h170v-322q0 -63 36 -100.5t129 -47.5v470h170v-470q93 10 129 47.5t36 100.5v322h170v-343q0 -112 -80 -184.5t-255 -86.5v-186z" />
    <glyph glyph-name="Omega" unicode="&#x3a9;" horiz-adv-x="900" 
d="M400 0h-321v111h151v90q-82 32 -123.5 85t-41.5 125v108q0 135 94 213t291 78t291 -78t94 -213v-108q0 -72 -41.5 -125t-123.5 -85v-90h151v-111h-321v230q96 16 130.5 62t34.5 119v108q0 74 -45.5 113t-169.5 39t-169.5 -39t-45.5 -113v-108q0 -73 34.5 -119t130.5 -62
v-230z" />
    <glyph glyph-name="Omegatonos" unicode="&#x38f;" horiz-adv-x="1070" 
d="M570 0h-321v111h151v90q-82 32 -123.5 85t-41.5 125v108q0 135 94 213t291 78t291 -78t94 -213v-108q0 -72 -41.5 -125t-123.5 -85v-90h151v-111h-321v230q96 16 130.5 62t34.5 119v108q0 74 -45.5 113t-169.5 39t-169.5 -39t-45.5 -113v-108q0 -73 34.5 -119t130.5 -62
v-230zM-17 600l55 200h210l-156 -200h-109z" />
    <glyph glyph-name="Ohm" unicode="&#x2126;" horiz-adv-x="900" 
d="M400 0h-321v111h151v90q-82 32 -123.5 85t-41.5 125v108q0 135 94 213t291 78t291 -78t94 -213v-108q0 -72 -41.5 -125t-123.5 -85v-90h151v-111h-321v230q96 16 130.5 62t34.5 119v108q0 74 -45.5 113t-169.5 39t-169.5 -39t-45.5 -113v-108q0 -73 34.5 -119t130.5 -62
v-230z" />
    <glyph glyph-name="Djecyrillic" unicode="&#x402;" horiz-adv-x="970" 
d="M266 0v668h-216v132h636v-132h-250v-148h156q150 0 224.5 -58t74.5 -174v-58q0 -134 -91 -182t-208 -48v130q63 0 96 22.5t33 79.5v54q0 57 -33 80.5t-96 23.5h-156v-390h-170z" />
    <glyph glyph-name="Ecyrillic" unicode="&#x404;" horiz-adv-x="870" 
d="M797 271q-7 -145 -90 -213t-255 -68q-181 0 -266.5 73t-85.5 207v256q0 135 86 209.5t267 74.5q171 0 254 -69t90 -216l-170 -10q-7 90 -46 126.5t-129 36.5q-101 0 -141.5 -37t-40.5 -130v-17h258v-132h-258v-78q0 -90 40.5 -126t141.5 -36q90 0 129 35.5t46 123.5z" />
    <glyph glyph-name="Dzecyrillic" unicode="&#x405;" horiz-adv-x="870" 
d="M432 -9q-99 0 -188 30.5t-154 94.5l59 115q64 -54 137.5 -81t167.5 -27q75 0 114 27t39 78q0 46 -45.5 66.5t-192.5 45.5q-141 22 -199 71.5t-58 148.5q0 107 80 177.5t234 70.5q93 0 177.5 -30.5t133.5 -84.5l-52 -110q-60 45 -125.5 68.5t-136.5 23.5q-66 0 -104 -23.5
t-38 -72.5q0 -46 46.5 -66t196.5 -46q139 -24 196 -75t57 -150q0 -119 -91.5 -185t-253.5 -66z" />
    <glyph glyph-name="Icyrillic" unicode="&#x406;" 
d="M100 0v132h200v536h-200v132h570v-132h-200v-536h200v-132h-570z" />
    <glyph glyph-name="Yicyrillic" unicode="&#x407;" 
d="M100 0v132h200v536h-200v132h570v-132h-200v-536h200v-132h-570zM259 896q-39 0 -63.5 15.5t-24.5 54.5v13q0 40 24.5 56.5t63.5 16.5q40 0 64.5 -16.5t24.5 -56.5v-13q0 -39 -25 -54.5t-64 -15.5zM511 896q-40 0 -64.5 15.5t-24.5 54.5v13q0 40 24.5 56.5t64.5 16.5
t64 -16.5t24 -56.5v-13q0 -39 -25 -54.5t-63 -15.5z" />
    <glyph glyph-name="Jecyrillic" unicode="&#x408;" 
d="M379 -10q-171 0 -241.5 65t-77.5 223l170 11q7 -102 34.5 -134.5t105.5 -32.5q80 0 105 33t25 112v401h-235v132h405v-540q0 -126 -65.5 -198t-225.5 -72z" />
    <glyph glyph-name="Ljecyrillic" unicode="&#x409;" horiz-adv-x="1270" 
d="M364 236q-1 -130 -60.5 -189.5t-160.5 -59.5q-26 0 -55 4.5t-58 11.5l19 133q18 -5 34 -7.5t31 -2.5q38 0 60 26.5t23 96.5l3 551h570v-252h154q136 0 206 -55t70 -162v-106q0 -110 -70.5 -167.5t-205.5 -57.5h-324v668h-234zM770 132h131q66 0 97.5 24t31.5 84v72
q0 58 -31.5 81.5t-97.5 23.5h-131v-285z" />
    <glyph glyph-name="Njecyrillic" unicode="&#x40a;" horiz-adv-x="1270" 
d="M770 132h131q66 0 97.5 24t31.5 84v72q0 58 -31.5 81.5t-97.5 23.5h-131v-285zM270 376v-376h-170v800h170v-292h330v292h170v-252h154q135 0 205.5 -55t70.5 -162v-106q0 -110 -70.5 -167.5t-205.5 -57.5h-324v376h-330z" />
    <glyph glyph-name="Tshecyrillic" unicode="&#x40b;" horiz-adv-x="970" 
d="M443 0h-170v668h-223v132h650v-132h-257v-171h146q140 0 210.5 -57.5t70.5 -173.5v-266h-170v256q0 61 -33.5 86t-88.5 25h-135v-367z" />
    <glyph glyph-name="Dzhecyrillic" unicode="&#x40f;" horiz-adv-x="870" 
d="M349 -150v150h-249v800h170v-668h330v668h170v-800h-250v-150h-171z" />
    <glyph glyph-name="Acyrillic" unicode="&#x410;" horiz-adv-x="800" 
d="M497 327l-103 350l-104 -350h207zM593 0l-57 195h-285l-58 -195h-160l260 800h216l258 -800h-174z" />
    <glyph glyph-name="Becyrillic" unicode="&#x411;" horiz-adv-x="870" 
d="M100 0v800h628v-132h-458v-160h249q127 0 196 -57t69 -161v-58q0 -110 -68.5 -171t-195.5 -61h-420zM270 132h229q57 0 86 24t29 81v38q0 56 -29 79.5t-86 23.5h-229v-246z" />
    <glyph glyph-name="Vecyrillic" unicode="&#x412;" horiz-adv-x="870" 
d="M100 0v800h391q133 0 195.5 -46t62.5 -142v-37q0 -61 -28.5 -94t-87.5 -43v-29q66 -7 103.5 -47.5t37.5 -102.5v-50q0 -107 -68.5 -158t-214.5 -51h-391zM270 474h203q59 0 83.5 18.5t24.5 61.5v42q0 43 -24.5 61t-83.5 18h-203v-201zM270 125h206q70 0 99 21.5t29 72.5
v46q0 50 -29 71.5t-99 21.5h-206v-233z" />
    <glyph glyph-name="Gecyrillic" unicode="&#x413;" horiz-adv-x="670" 
d="M100 0v800h540v-132h-370v-668h-170z" />
    <glyph glyph-name="Gjecyrillic" unicode="&#x403;" horiz-adv-x="670" 
d="M100 0v800h540v-132h-370v-668h-170zM242 900l115 200h220l-216 -200h-119z" />
    <glyph glyph-name="Decyrillic" unicode="&#x414;" horiz-adv-x="970" 
d="M311 153v-21h289v536h-239l-3 -364q-1 -53 -11.5 -91t-35.5 -60zM220 0v-150h-170v282h89q25 18 37.5 57.5t13.5 118.5l5 492h575v-668h100v-282h-170v150h-480z" />
    <glyph glyph-name="Iecyrillic" unicode="&#x415;" 
d="M100 0v800h576v-132h-406v-174h356v-132h-356v-230h406v-132h-576z" />
    <glyph glyph-name="IEgravecyrillic" unicode="&#x400;" 
d="M100 0v800h576v-132h-406v-174h356v-132h-356v-230h406v-132h-576zM367 900l-216 200h220l115 -200h-119z" />
    <glyph glyph-name="Iocyrillic" unicode="&#x401;" 
d="M100 0v800h576v-132h-406v-174h356v-132h-356v-230h406v-132h-576zM275 896q-39 0 -63.5 15.5t-24.5 54.5v13q0 40 24.5 56.5t63.5 16.5q40 0 64.5 -16.5t24.5 -56.5v-13q0 -39 -25 -54.5t-64 -15.5zM527 896q-40 0 -64.5 15.5t-24.5 54.5v13q0 40 24.5 56.5t64.5 16.5
t64 -16.5t24 -56.5v-13q0 -39 -25 -54.5t-63 -15.5z" />
    <glyph glyph-name="Zhecyrillic" unicode="&#x416;" horiz-adv-x="970" 
d="M359 356l-164 -356h-172l211 436l-214 364h168l182 -327h39v327h153v-327h38l182 327h169l-216 -363l213 -437h-172l-164 356h-50v-356h-153v356h-50z" />
    <glyph glyph-name="Zecyrillic" unicode="&#x417;" horiz-adv-x="870" 
d="M444 -10q-178 0 -262.5 66.5t-91.5 185.5l170 10q7 -67 48.5 -99.5t134.5 -32.5q92 0 126.5 27t34.5 81v23q0 54 -36 77t-112 23h-99v130h99q68 0 96 18t28 67v23q0 49 -34.5 70t-109.5 21t-112 -27.5t-44 -87.5l-170 10q7 117 84 176t238 59q149 0 233 -47.5t84 -154.5
v-22q0 -62 -26 -99.5t-92 -49.5v-29q76 -9 109.5 -50.5t33.5 -116.5v-20q0 -118 -85 -174.5t-245 -56.5z" />
    <glyph glyph-name="Iicyrillic" unicode="&#x418;" horiz-adv-x="870" 
d="M614 0v625l-271 -625h-243v800h156v-657l286 657h228v-800h-156z" />
    <glyph glyph-name="Igravecyrillic" unicode="&#x40d;" horiz-adv-x="870" 
d="M614 0v625l-271 -625h-243v800h156v-657l286 657h228v-800h-156zM402 900l-216 200h220l115 -200h-119z" />
    <glyph glyph-name="Iishortcyrillic" unicode="&#x419;" horiz-adv-x="870" 
d="M614 0v625l-271 -625h-243v800h156v-657l286 657h228v-800h-156zM429 893q-100 0 -174 49.5t-73 171.5l149 10q-1 -66 20 -95t78 -29t78 29t20 95l149 -10q1 -122 -73 -171.5t-174 -49.5z" />
    <glyph glyph-name="Kacyrillic" unicode="&#x41a;" 
d="M270 349v-349h-170v800h170v-319h38l251 319h188l-296 -369l293 -431h-197l-236 349h-41z" />
    <glyph glyph-name="Kjecyrillic" unicode="&#x40c;" 
d="M270 349v-349h-170v800h170v-319h38l251 319h188l-296 -369l293 -431h-197l-236 349h-41zM321 900l115 200h220l-216 -200h-119z" />
    <glyph glyph-name="Elcyrillic" unicode="&#x41b;" horiz-adv-x="870" 
d="M600 0v668h-234l-2 -432q-1 -133 -61 -191t-160 -58q-27 0 -56 4.5t-57 11.5l19 133q16 -4 33 -7t32 -3q38 0 60 26.5t23 96.5l3 551h570v-800h-170z" />
    <glyph glyph-name="Emcyrillic" unicode="&#x41c;" horiz-adv-x="970" 
d="M402 200l-154 418v-618h-148v800h224l164 -466l164 466h218v-800h-147v620l-155 -420h-166z" />
    <glyph glyph-name="Encyrillic" unicode="&#x41d;" horiz-adv-x="870" 
d="M100 0v800h170v-292h330v292h170v-800h-170v376h-330v-376h-170z" />
    <glyph glyph-name="Ocyrillic" unicode="&#x41e;" horiz-adv-x="870" 
d="M435 -10q-165 0 -250 73t-85 207v256q0 136 85.5 210t250.5 74t249.5 -74t84.5 -210v-256q0 -134 -85 -207t-250 -73zM435 122q90 0 127.5 36.5t37.5 125.5v228q0 91 -37.5 128.5t-127.5 37.5t-127.5 -37.5t-37.5 -128.5v-228q0 -89 37.5 -125.5t127.5 -36.5z" />
    <glyph glyph-name="Pecyrillic" unicode="&#x41f;" horiz-adv-x="870" 
d="M100 0v800h670v-800h-170v668h-330v-668h-170z" />
    <glyph glyph-name="Ercyrillic" unicode="&#x420;" 
d="M100 0v800h324q131 0 203.5 -59t72.5 -166v-106q0 -104 -72.5 -160.5t-203.5 -56.5h-154v-252h-170zM270 383h131q69 0 99 24t30 81v72q0 58 -30 83t-99 25h-131v-285z" />
    <glyph glyph-name="Escyrillic" unicode="&#x421;" horiz-adv-x="870" 
d="M452 -10q-181 0 -266.5 73t-85.5 207v256q0 135 86 209.5t267 74.5q172 0 254.5 -67.5t89.5 -217.5l-170 -10q-7 93 -46 128t-129 35q-101 0 -141.5 -37t-40.5 -130v-227q0 -90 40.5 -126t141.5 -36q92 0 131 35.5t44 123.5l170 -10q-4 -146 -87 -213.5t-258 -67.5z" />
    <glyph glyph-name="Tecyrillic" unicode="&#x422;" 
d="M300 0v668h-250v132h670v-132h-250v-668h-170z" />
    <glyph glyph-name="Ucyrillic" unicode="&#x423;" 
d="M210 -7q-29 0 -59 3.5t-61 10.5l17 132q31 -7 55.5 -11t47.5 -4q48 0 77 21.5t47 65.5l8 18h-67l-250 571h169l195 -460l188 460h168l-265 -625q-41 -99 -110.5 -140.5t-159.5 -41.5z" />
    <glyph glyph-name="Ushortcyrillic" unicode="&#x40e;" 
d="M210 -7q-29 0 -59 3.5t-61 10.5l17 132q31 -7 55.5 -11t47.5 -4q48 0 77 21.5t47 65.5l8 18h-67l-250 571h169l195 -460l188 460h168l-265 -625q-41 -99 -110.5 -140.5t-159.5 -41.5zM392 893q-100 0 -174 49.5t-73 171.5l149 10q-1 -66 20 -95t78 -29t78 29t20 95
l149 -10q1 -122 -73 -171.5t-174 -49.5z" />
    <glyph glyph-name="Efcyrillic" unicode="&#x424;" horiz-adv-x="970" 
d="M618 90h-48v-103h-170v103h-47q-142 0 -212.5 69.5t-70.5 197.5v82q0 131 70.5 201t212.5 70h47v103h170v-103h48q142 0 212 -70t70 -201v-82q0 -128 -70 -197.5t-212 -69.5zM618 585h-53v-370h53q64 0 91.5 36t27.5 106v82q0 71 -27.5 108.5t-91.5 37.5zM353 215h52v370
h-52q-65 0 -92.5 -37.5t-27.5 -108.5v-82q0 -70 27.5 -106t92.5 -36z" />
    <glyph glyph-name="Khacyrillic" unicode="&#x425;" horiz-adv-x="870" 
d="M611 0l-178 277l-175 -277h-185l273 412l-248 388h191l166 -263l160 263h183l-256 -400l253 -400h-184z" />
    <glyph glyph-name="Tsecyrillic" unicode="&#x426;" horiz-adv-x="870" 
d="M650 -150v150h-550v800h170v-668h280v668h170v-668h100v-282h-170z" />
    <glyph glyph-name="Checyrillic" unicode="&#x427;" 
d="M670 800v-800h-170v259h-131q-152 0 -225.5 60.5t-73.5 185.5v295h170v-293q0 -66 33 -92t96 -26h131v411h170z" />
    <glyph glyph-name="Shacyrillic" unicode="&#x428;" horiz-adv-x="1070" 
d="M100 0v800h163v-668h191v668h163v-668h190v668h163v-800h-870z" />
    <glyph glyph-name="Shchacyrillic" unicode="&#x429;" horiz-adv-x="1120" 
d="M1070 -150h-168v150h-802v800h163v-668h191v668h163v-668h190v668h163v-668h100v-282z" />
    <glyph glyph-name="Hardsigncyrillic" unicode="&#x42a;" horiz-adv-x="870" 
d="M524 0h-324v668h-200v132h370v-252h154q135 0 205.5 -55.5t70.5 -161.5v-106q0 -110 -71 -167.5t-205 -57.5zM370 132h131q69 0 99 25t30 83v72q0 57 -30 81t-99 24h-131v-285z" />
    <glyph glyph-name="Yericyrillic" unicode="&#x42b;" horiz-adv-x="1040" 
d="M100 0v800h170v-252h131q131 0 200 -55.5t69 -161.5v-106q0 -110 -69 -167.5t-200 -57.5h-301zM770 0v800h170v-800h-170zM270 132h108q66 0 94 25t28 83v72q0 57 -28 81t-94 24h-108v-285z" />
    <glyph glyph-name="Softsigncyrillic" unicode="&#x42c;" 
d="M100 0v800h170v-252h154q135 0 205.5 -55.5t70.5 -161.5v-106q0 -110 -71 -167.5t-205 -57.5h-324zM270 132h131q69 0 99 25t30 83v72q0 57 -30 81t-99 24h-131v-285z" />
    <glyph glyph-name="Ereversedcyrillic" unicode="&#x42d;" horiz-adv-x="870" 
d="M422 -10q-172 0 -257 68t-92 213l170 10q7 -90 45.5 -124.5t133.5 -34.5q101 0 139.5 35t38.5 127v78h-248v132h248v17q0 96 -38 131.5t-138 35.5q-96 0 -135 -35t-46 -128l-170 10q7 146 92 215.5t258 69.5q181 0 264 -74.5t83 -209.5v-256q0 -134 -83.5 -207
t-264.5 -73z" />
    <glyph glyph-name="IUcyrillic" unicode="&#x42e;" horiz-adv-x="1140" 
d="M730 -10q-151 0 -230.5 73t-79.5 207v92h-150v-362h-170v800h170v-306h150v32q0 135 79.5 209.5t231.5 74.5q151 0 230 -74.5t79 -209.5v-256q0 -134 -79 -207t-231 -73zM730 122q77 0 108.5 36.5t31.5 125.5v228q0 91 -31.5 128.5t-108.5 37.5t-108.5 -37.5
t-31.5 -128.5v-228q0 -89 31.5 -125.5t108.5 -36.5z" />
    <glyph glyph-name="IAcyrillic" unicode="&#x42f;" horiz-adv-x="870" 
d="M406 420h194v248h-194q-65 0 -93.5 -21.5t-28.5 -70.5v-62q0 -50 28.5 -72t93.5 -22zM600 289h-136l-192 -289h-181l198 296q-87 16 -131 71t-44 146v69q0 108 64.5 163t191.5 55h400v-800h-170v289z" />
    <glyph glyph-name="Gheupturncyrillic" unicode="&#x490;" horiz-adv-x="670" 
d="M100 0v800h370v150h170v-282h-370v-668h-170z" />
    <glyph glyph-name="a" unicode="a" horiz-adv-x="870" 
d="M360 100q40 0 78 10.5t69 34.5v97h-163q-34 0 -54.5 -15t-20.5 -55q0 -36 22.5 -54t68.5 -18zM323 -10q-96 0 -156 45t-60 129q0 83 56.5 127t154.5 44h189v66q0 47 -29.5 70t-86.5 23t-82.5 -19t-41.5 -75l-146 25q21 98 91 141.5t190 43.5q128 0 201.5 -47.5
t73.5 -150.5v-217q0 -50 27 -65t93 -6v-121q-89 -19 -146 1t-72 89h-27q-27 -46 -89.5 -74.5t-139.5 -28.5z" />
    <glyph glyph-name="agrave" unicode="&#xe0;" horiz-adv-x="870" 
d="M360 100q40 0 78 10.5t69 34.5v97h-163q-34 0 -54.5 -15t-20.5 -55q0 -36 22.5 -54t68.5 -18zM323 -10q-96 0 -156 45t-60 129q0 83 56.5 127t154.5 44h189v66q0 47 -29.5 70t-86.5 23t-82.5 -19t-41.5 -75l-146 25q21 98 91 141.5t190 43.5q128 0 201.5 -47.5
t73.5 -150.5v-217q0 -50 27 -65t93 -6v-121q-89 -19 -146 1t-72 89h-27q-27 -46 -89.5 -74.5t-139.5 -28.5zM389 700l-216 200h220l115 -200h-119z" />
    <glyph glyph-name="aacute" unicode="&#xe1;" horiz-adv-x="870" 
d="M360 100q40 0 78 10.5t69 34.5v97h-163q-34 0 -54.5 -15t-20.5 -55q0 -36 22.5 -54t68.5 -18zM323 -10q-96 0 -156 45t-60 129q0 83 56.5 127t154.5 44h189v66q0 47 -29.5 70t-86.5 23t-82.5 -19t-41.5 -75l-146 25q21 98 91 141.5t190 43.5q128 0 201.5 -47.5
t73.5 -150.5v-217q0 -50 27 -65t93 -6v-121q-89 -19 -146 1t-72 89h-27q-27 -46 -89.5 -74.5t-139.5 -28.5zM274 700l115 200h220l-216 -200h-119z" />
    <glyph glyph-name="acircumflex" unicode="&#xe2;" horiz-adv-x="870" 
d="M360 100q40 0 78 10.5t69 34.5v97h-163q-34 0 -54.5 -15t-20.5 -55q0 -36 22.5 -54t68.5 -18zM323 -10q-96 0 -156 45t-60 129q0 83 56.5 127t154.5 44h189v66q0 47 -29.5 70t-86.5 23t-82.5 -19t-41.5 -75l-146 25q21 98 91 141.5t190 43.5q128 0 201.5 -47.5
t73.5 -150.5v-217q0 -50 27 -65t93 -6v-121q-89 -19 -146 1t-72 89h-27q-27 -46 -89.5 -74.5t-139.5 -28.5zM211 690l-55 78l181 156h128l183 -156l-54 -77l-193 108z" />
    <glyph glyph-name="atilde" unicode="&#xe3;" horiz-adv-x="870" 
d="M360 100q40 0 78 10.5t69 34.5v97h-163q-34 0 -54.5 -15t-20.5 -55q0 -36 22.5 -54t68.5 -18zM323 -10q-96 0 -156 45t-60 129q0 83 56.5 127t154.5 44h189v66q0 47 -29.5 70t-86.5 23t-82.5 -19t-41.5 -75l-146 25q21 98 91 141.5t190 43.5q128 0 201.5 -47.5
t73.5 -150.5v-217q0 -50 27 -65t93 -6v-121q-89 -19 -146 1t-72 89h-27q-27 -46 -89.5 -74.5t-139.5 -28.5zM493 710q-44 0 -69.5 16t-42.5 34q-16 19 -30.5 34.5t-33.5 15.5q-17 0 -30 -15.5t-12 -64.5v-10h-112v15q0 81 39.5 135t109.5 54q46 0 71.5 -15.5t42.5 -34.5
t31 -35t31 -16t30 15.5t12 65.5v9h112v-15q0 -80 -39.5 -134t-109.5 -54z" />
    <glyph glyph-name="adieresis" unicode="&#xe4;" horiz-adv-x="870" 
d="M360 100q40 0 78 10.5t69 34.5v97h-163q-34 0 -54.5 -15t-20.5 -55q0 -36 22.5 -54t68.5 -18zM323 -10q-96 0 -156 45t-60 129q0 83 56.5 127t154.5 44h189v66q0 47 -29.5 70t-86.5 23t-82.5 -19t-41.5 -75l-146 25q21 98 91 141.5t190 43.5q128 0 201.5 -47.5
t73.5 -150.5v-217q0 -50 27 -65t93 -6v-121q-89 -19 -146 1t-72 89h-27q-27 -46 -89.5 -74.5t-139.5 -28.5zM276 696q-39 0 -63.5 15.5t-24.5 54.5v13q0 40 24.5 56.5t63.5 16.5q40 0 64.5 -16.5t24.5 -56.5v-13q0 -39 -25 -54.5t-64 -15.5zM528 696q-40 0 -64.5 15.5
t-24.5 54.5v13q0 40 24.5 56.5t64.5 16.5t64 -16.5t24 -56.5v-13q0 -39 -25 -54.5t-63 -15.5z" />
    <glyph glyph-name="aring" unicode="&#xe5;" horiz-adv-x="870" 
d="M360 100q40 0 78 10.5t69 34.5v97h-163q-34 0 -54.5 -15t-20.5 -55q0 -36 22.5 -54t68.5 -18zM323 -10q-96 0 -156 45t-60 129q0 83 56.5 127t154.5 44h189v66q0 47 -29.5 70t-86.5 23t-82.5 -19t-41.5 -75l-146 25q21 98 91 141.5t190 43.5q128 0 201.5 -47.5
t73.5 -150.5v-217q0 -50 27 -65t93 -6v-121q-89 -19 -146 1t-72 89h-27q-27 -46 -89.5 -74.5t-139.5 -28.5zM402 678q-87 0 -141 37t-54 115v32q0 78 54 116.5t141 38.5q88 0 141.5 -38.5t53.5 -116.5v-32q0 -78 -54 -115t-141 -37zM402 763q37 0 56 15t19 52v32
q0 36 -19 53t-56 17t-56 -17t-19 -53v-32q0 -37 19 -52t56 -15z" />
    <glyph glyph-name="amacron" unicode="&#x101;" horiz-adv-x="870" 
d="M360 100q40 0 78 10.5t69 34.5v97h-163q-34 0 -54.5 -15t-20.5 -55q0 -36 22.5 -54t68.5 -18zM323 -10q-96 0 -156 45t-60 129q0 83 56.5 127t154.5 44h189v66q0 47 -29.5 70t-86.5 23t-82.5 -19t-41.5 -75l-146 25q21 98 91 141.5t190 43.5q128 0 201.5 -47.5
t73.5 -150.5v-217q0 -50 27 -65t93 -6v-121q-89 -19 -146 1t-72 89h-27q-27 -46 -89.5 -74.5t-139.5 -28.5zM184 734v132h436v-132h-436z" />
    <glyph glyph-name="abreve" unicode="&#x103;" horiz-adv-x="870" 
d="M360 100q40 0 78 10.5t69 34.5v97h-163q-34 0 -54.5 -15t-20.5 -55q0 -36 22.5 -54t68.5 -18zM323 -10q-96 0 -156 45t-60 129q0 83 56.5 127t154.5 44h189v66q0 47 -29.5 70t-86.5 23t-82.5 -19t-41.5 -75l-146 25q21 98 91 141.5t190 43.5q128 0 201.5 -47.5
t73.5 -150.5v-217q0 -50 27 -65t93 -6v-121q-89 -19 -146 1t-72 89h-27q-27 -46 -89.5 -74.5t-139.5 -28.5zM402 693q-124 0 -190 55.5t-67 175.5h142q1 -69 28 -96.5t87 -27.5t87 27.5t28 96.5h142q-1 -120 -67 -175.5t-190 -55.5z" />
    <glyph glyph-name="aogonek" unicode="&#x105;" horiz-adv-x="870" 
d="M360 100q40 0 78 10.5t69 34.5v97h-163q-34 0 -54.5 -15t-20.5 -55q0 -36 22.5 -54t68.5 -18zM323 -10q-96 0 -156 45t-60 129q0 83 56.5 127t154.5 44h189v66q0 47 -29.5 70t-86.5 23t-82.5 -19t-41.5 -75l-146 25q21 98 91 141.5t190 43.5q128 0 201.5 -47.5
t73.5 -150.5v-217q0 -50 27 -65t93 -6v-121q-89 -19 -146 1t-72 89h-27q-27 -46 -89.5 -74.5t-139.5 -28.5zM677 -221q-78 0 -125 31.5t-47 93.5q0 61 47.5 104.5t102.5 59.5l27 -45q-34 -21 -43 -41.5t-9 -39.5q0 -26 18 -39t56 -13q18 0 43 2.5t50 7.5v-109q-31 -6 -62 -9
t-58 -3z" />
    <glyph glyph-name="aringacute" unicode="&#x1fb;" horiz-adv-x="870" 
d="M360 100q40 0 78 10.5t69 34.5v97h-163q-34 0 -54.5 -15t-20.5 -55q0 -36 22.5 -54t68.5 -18zM323 -10q-96 0 -156 45t-60 129q0 83 56.5 127t154.5 44h189v66q0 47 -29.5 70t-86.5 23t-82.5 -19t-41.5 -75l-146 25q21 98 91 141.5t190 43.5q128 0 201.5 -47.5
t73.5 -150.5v-217q0 -50 27 -65t93 -6v-121q-89 -19 -146 1t-72 89h-27q-27 -46 -89.5 -74.5t-139.5 -28.5zM402 678q-87 0 -141 37t-54 115v32q0 78 54 116.5t141 38.5q88 0 141.5 -38.5t53.5 -116.5v-32q0 -78 -54 -115t-141 -37zM402 763q37 0 56 15t19 52v32
q0 36 -19 53t-56 17t-56 -17t-19 -53v-32q0 -37 19 -52t56 -15zM337 1000l115 200h220l-216 -200h-119z" />
    <glyph glyph-name="b" unicode="b" 
d="M378 -7q-64 0 -145 14.5t-133 45.5v747h170v-307h30q24 55 73 86t113 31q84 0 134 -59t50 -163v-169q0 -114 -79.5 -170t-212.5 -56zM385 117q51 0 83 22.5t32 80.5v154q0 55 -25 79t-67 24q-37 0 -70.5 -16.5t-67.5 -50.5v-265q22 -13 50 -20.5t65 -7.5z" />
    <glyph glyph-name="c" unicode="c" 
d="M392 -10q-147 0 -219.5 60.5t-72.5 170.5v155q0 117 77.5 175.5t213.5 58.5q137 0 207 -57t83 -163l-164 -13q-5 63 -32.5 85t-90.5 22q-67 0 -95.5 -27t-28.5 -83v-146q0 -60 28.5 -86.5t97.5 -26.5q67 0 92 18.5t29 69.5l164 -13q-7 -98 -72.5 -149t-216.5 -51z" />
    <glyph glyph-name="ccedilla" unicode="&#xe7;" 
d="M392 -10q-147 0 -219.5 60.5t-72.5 170.5v155q0 117 77.5 175.5t213.5 58.5q137 0 207 -57t83 -163l-164 -13q-5 63 -32.5 85t-90.5 22q-67 0 -95.5 -27t-28.5 -83v-146q0 -60 28.5 -86.5t97.5 -26.5q67 0 92 18.5t29 69.5l164 -13q-7 -98 -72.5 -149t-216.5 -51zM351 0
l20 42q73 -8 123 -36t50 -95q0 -72 -60 -103t-135 -31q-87 0 -142 29t-60 98l144 10q2 -19 13.5 -26.5t37.5 -7.5q28 0 42 11t14 45q0 28 -10 42.5t-37 21.5z" />
    <glyph glyph-name="cacute" unicode="&#x107;" 
d="M392 -10q-147 0 -219.5 60.5t-72.5 170.5v155q0 117 77.5 175.5t213.5 58.5q137 0 207 -57t83 -163l-164 -13q-5 63 -32.5 85t-90.5 22q-67 0 -95.5 -27t-28.5 -83v-146q0 -60 28.5 -86.5t97.5 -26.5q67 0 92 18.5t29 69.5l164 -13q-7 -98 -72.5 -149t-216.5 -51z
M253 700l115 200h220l-216 -200h-119z" />
    <glyph glyph-name="ccircumflex" unicode="&#x109;" 
d="M392 -10q-147 0 -219.5 60.5t-72.5 170.5v155q0 117 77.5 175.5t213.5 58.5q137 0 207 -57t83 -163l-164 -13q-5 63 -32.5 85t-90.5 22q-67 0 -95.5 -27t-28.5 -83v-146q0 -60 28.5 -86.5t97.5 -26.5q67 0 92 18.5t29 69.5l164 -13q-7 -98 -72.5 -149t-216.5 -51z
M193 690l-55 78l181 156h128l183 -156l-54 -77l-193 108z" />
    <glyph glyph-name="cdotaccent" unicode="&#x10b;" 
d="M392 -10q-147 0 -219.5 60.5t-72.5 170.5v155q0 117 77.5 175.5t213.5 58.5q137 0 207 -57t83 -163l-164 -13q-5 63 -32.5 85t-90.5 22q-67 0 -95.5 -27t-28.5 -83v-146q0 -60 28.5 -86.5t97.5 -26.5q67 0 92 18.5t29 69.5l164 -13q-7 -98 -72.5 -149t-216.5 -51z
M384 696q-51 0 -83 15.5t-32 54.5v13q0 40 32 56.5t83 16.5t83 -16.5t32 -56.5v-13q0 -39 -32 -54.5t-83 -15.5z" />
    <glyph glyph-name="ccaron" unicode="&#x10d;" 
d="M392 -10q-147 0 -219.5 60.5t-72.5 170.5v155q0 117 77.5 175.5t213.5 58.5q137 0 207 -57t83 -163l-164 -13q-5 63 -32.5 85t-90.5 22q-67 0 -95.5 -27t-28.5 -83v-146q0 -60 28.5 -86.5t97.5 -26.5q67 0 92 18.5t29 69.5l164 -13q-7 -98 -72.5 -149t-216.5 -51z
M321 704l-183 156l54 77l193 -108l190 109l55 -78l-181 -156h-128z" />
    <glyph glyph-name="d" unicode="d" 
d="M362 124q37 0 70.5 16t67.5 50v263q-28 16 -57.5 23.5t-57.5 7.5q-56 0 -85.5 -26.5t-29.5 -77.5v-154q0 -55 25 -78.5t67 -23.5zM470 107q-21 -48 -67.5 -82.5t-118.5 -34.5q-88 0 -136 62.5t-48 159.5v169q0 106 68.5 166t189.5 60q40 0 76 -6t66 -18v217h170v-800
h-170v107h-30z" />
    <glyph glyph-name="dcaron" unicode="&#x10f;" 
d="M362 124q37 0 70.5 16t67.5 50v263q-28 16 -57.5 23.5t-57.5 7.5q-56 0 -85.5 -26.5t-29.5 -77.5v-154q0 -55 25 -78.5t67 -23.5zM470 107q-21 -48 -67.5 -82.5t-118.5 -34.5q-88 0 -136 62.5t-48 159.5v169q0 106 68.5 166t189.5 60q40 0 76 -6t66 -18v217h170v-800
h-170v107h-30zM763 705l60 295h217l-177 -295h-100z" />
    <glyph glyph-name="e" unicode="e" 
d="M681 139q-36 -84 -101.5 -116.5t-191.5 -32.5q-135 0 -211.5 62.5t-76.5 175.5v147q0 112 77 173.5t209 61.5q131 0 207.5 -62t76.5 -176v-106h-400v-38q0 -60 30 -92.5t99 -32.5q63 0 93.5 18.5t44.5 56.5zM270 374v-15h230v12q0 70 -27 100t-88 30t-88 -29.5t-27 -97.5
z" />
    <glyph glyph-name="egrave" unicode="&#xe8;" 
d="M681 139q-36 -84 -101.5 -116.5t-191.5 -32.5q-135 0 -211.5 62.5t-76.5 175.5v147q0 112 77 173.5t209 61.5q131 0 207.5 -62t76.5 -176v-106h-400v-38q0 -60 30 -92.5t99 -32.5q63 0 93.5 18.5t44.5 56.5zM270 374v-15h230v12q0 70 -27 100t-88 30t-88 -29.5t-27 -97.5
zM375 700l-216 200h220l115 -200h-119z" />
    <glyph glyph-name="eacute" unicode="&#xe9;" 
d="M681 139q-36 -84 -101.5 -116.5t-191.5 -32.5q-135 0 -211.5 62.5t-76.5 175.5v147q0 112 77 173.5t209 61.5q131 0 207.5 -62t76.5 -176v-106h-400v-38q0 -60 30 -92.5t99 -32.5q63 0 93.5 18.5t44.5 56.5zM270 374v-15h230v12q0 70 -27 100t-88 30t-88 -29.5t-27 -97.5
zM260 700l115 200h220l-216 -200h-119z" />
    <glyph glyph-name="ecircumflex" unicode="&#xea;" 
d="M681 139q-36 -84 -101.5 -116.5t-191.5 -32.5q-135 0 -211.5 62.5t-76.5 175.5v147q0 112 77 173.5t209 61.5q131 0 207.5 -62t76.5 -176v-106h-400v-38q0 -60 30 -92.5t99 -32.5q63 0 93.5 18.5t44.5 56.5zM270 374v-15h230v12q0 70 -27 100t-88 30t-88 -29.5t-27 -97.5
zM197 690l-55 78l181 156h128l183 -156l-54 -77l-193 108z" />
    <glyph glyph-name="edieresis" unicode="&#xeb;" 
d="M681 139q-36 -84 -101.5 -116.5t-191.5 -32.5q-135 0 -211.5 62.5t-76.5 175.5v147q0 112 77 173.5t209 61.5q131 0 207.5 -62t76.5 -176v-106h-400v-38q0 -60 30 -92.5t99 -32.5q63 0 93.5 18.5t44.5 56.5zM270 374v-15h230v12q0 70 -27 100t-88 30t-88 -29.5t-27 -97.5
zM262 696q-39 0 -63.5 15.5t-24.5 54.5v13q0 40 24.5 56.5t63.5 16.5q40 0 64.5 -16.5t24.5 -56.5v-13q0 -39 -25 -54.5t-64 -15.5zM514 696q-40 0 -64.5 15.5t-24.5 54.5v13q0 40 24.5 56.5t64.5 16.5t64 -16.5t24 -56.5v-13q0 -39 -25 -54.5t-63 -15.5z" />
    <glyph glyph-name="emacron" unicode="&#x113;" 
d="M681 139q-36 -84 -101.5 -116.5t-191.5 -32.5q-135 0 -211.5 62.5t-76.5 175.5v147q0 112 77 173.5t209 61.5q131 0 207.5 -62t76.5 -176v-106h-400v-38q0 -60 30 -92.5t99 -32.5q63 0 93.5 18.5t44.5 56.5zM270 374v-15h230v12q0 70 -27 100t-88 30t-88 -29.5t-27 -97.5
zM170 734v132h436v-132h-436z" />
    <glyph glyph-name="ebreve" unicode="&#x115;" 
d="M681 139q-36 -84 -101.5 -116.5t-191.5 -32.5q-135 0 -211.5 62.5t-76.5 175.5v147q0 112 77 173.5t209 61.5q131 0 207.5 -62t76.5 -176v-106h-400v-38q0 -60 30 -92.5t99 -32.5q63 0 93.5 18.5t44.5 56.5zM270 374v-15h230v12q0 70 -27 100t-88 30t-88 -29.5t-27 -97.5
zM388 693q-124 0 -190 55.5t-67 175.5h142q1 -69 28 -96.5t87 -27.5t87 27.5t28 96.5h142q-1 -120 -67 -175.5t-190 -55.5z" />
    <glyph glyph-name="edotaccent" unicode="&#x117;" 
d="M681 139q-36 -84 -101.5 -116.5t-191.5 -32.5q-135 0 -211.5 62.5t-76.5 175.5v147q0 112 77 173.5t209 61.5q131 0 207.5 -62t76.5 -176v-106h-400v-38q0 -60 30 -92.5t99 -32.5q63 0 93.5 18.5t44.5 56.5zM270 374v-15h230v12q0 70 -27 100t-88 30t-88 -29.5t-27 -97.5
zM388 696q-51 0 -83 15.5t-32 54.5v13q0 40 32 56.5t83 16.5t83 -16.5t32 -56.5v-13q0 -39 -32 -54.5t-83 -15.5z" />
    <glyph glyph-name="eogonek" unicode="&#x119;" 
d="M548 -221q-78 0 -125 31.5t-47 93.5q0 61 47.5 104.5t102.5 59.5l27 -45q-34 -21 -43 -41.5t-9 -39.5q0 -26 18 -39t56 -13q18 0 43 2.5t50 7.5v-109q-31 -6 -62 -9t-58 -3zM681 139q-36 -84 -101.5 -116.5t-191.5 -32.5q-135 0 -211.5 62.5t-76.5 175.5v147
q0 112 77 173.5t209 61.5q131 0 207.5 -62t76.5 -176v-106h-400v-38q0 -60 30 -92.5t99 -32.5q63 0 93.5 18.5t44.5 56.5zM270 374v-15h230v12q0 70 -27 100t-88 30t-88 -29.5t-27 -97.5z" />
    <glyph glyph-name="ecaron" unicode="&#x11b;" 
d="M681 139q-36 -84 -101.5 -116.5t-191.5 -32.5q-135 0 -211.5 62.5t-76.5 175.5v147q0 112 77 173.5t209 61.5q131 0 207.5 -62t76.5 -176v-106h-400v-38q0 -60 30 -92.5t99 -32.5q63 0 93.5 18.5t44.5 56.5zM270 374v-15h230v12q0 70 -27 100t-88 30t-88 -29.5t-27 -97.5
zM325 704l-183 156l54 77l193 -108l190 109l55 -78l-181 -156h-128z" />
    <glyph glyph-name="f" unicode="f" horiz-adv-x="670" 
d="M200 0v475h-120v125h120v34q0 93 63.5 144.5t171.5 51.5q34 0 73 -6.5t71 -17.5l-20 -113q-27 9 -52 14t-48 5q-41 0 -65 -20.5t-24 -69.5v-22h200v-125h-200v-475h-170z" />
    <glyph glyph-name="g" unicode="g" horiz-adv-x="870" 
d="M770 -33q0 -81 -62 -129t-169 -48h-198q-118 0 -179.5 39.5t-61.5 102.5q0 50 30.5 80t76.5 35v20q-36 10 -61 33t-25 71q0 52 38 86.5t101 41.5v19q-54 14 -81 46.5t-27 75.5v9q0 72 67 111.5t197 39.5h347v-104l-162 20v-20q37 -10 60.5 -40t23.5 -65v-10
q0 -71 -66 -110.5t-201 -39.5h-105q-31 0 -48.5 -11.5t-17.5 -39.5q0 -27 19.5 -39t53.5 -12h226q104 0 164 -39.5t60 -122.5zM419 317q54 0 79 20.5t25 57.5v30q0 35 -25.5 55t-78.5 20q-54 0 -79 -20t-25 -55v-30q0 -37 24.5 -57.5t79.5 -20.5zM342 -109h193q42 0 69 11.5
t27 46.5t-26.5 46.5t-66.5 11.5h-276v-53q0 -31 20 -47t60 -16z" />
    <glyph glyph-name="gcircumflex" unicode="&#x11d;" horiz-adv-x="870" 
d="M770 -33q0 -81 -62 -129t-169 -48h-198q-118 0 -179.5 39.5t-61.5 102.5q0 50 30.5 80t76.5 35v20q-36 10 -61 33t-25 71q0 52 38 86.5t101 41.5v19q-54 14 -81 46.5t-27 75.5v9q0 72 67 111.5t197 39.5h347v-104l-162 20v-20q37 -10 60.5 -40t23.5 -65v-10
q0 -71 -66 -110.5t-201 -39.5h-105q-31 0 -48.5 -11.5t-17.5 -39.5q0 -27 19.5 -39t53.5 -12h226q104 0 164 -39.5t60 -122.5zM419 317q54 0 79 20.5t25 57.5v30q0 35 -25.5 55t-78.5 20q-54 0 -79 -20t-25 -55v-30q0 -37 24.5 -57.5t79.5 -20.5zM342 -109h193q42 0 69 11.5
t27 46.5t-26.5 46.5t-66.5 11.5h-276v-53q0 -31 20 -47t60 -16zM244 690l-55 78l181 156h128l183 -156l-54 -77l-193 108z" />
    <glyph glyph-name="gbreve" unicode="&#x11f;" horiz-adv-x="870" 
d="M770 -33q0 -81 -62 -129t-169 -48h-198q-118 0 -179.5 39.5t-61.5 102.5q0 50 30.5 80t76.5 35v20q-36 10 -61 33t-25 71q0 52 38 86.5t101 41.5v19q-54 14 -81 46.5t-27 75.5v9q0 72 67 111.5t197 39.5h347v-104l-162 20v-20q37 -10 60.5 -40t23.5 -65v-10
q0 -71 -66 -110.5t-201 -39.5h-105q-31 0 -48.5 -11.5t-17.5 -39.5q0 -27 19.5 -39t53.5 -12h226q104 0 164 -39.5t60 -122.5zM419 317q54 0 79 20.5t25 57.5v30q0 35 -25.5 55t-78.5 20q-54 0 -79 -20t-25 -55v-30q0 -37 24.5 -57.5t79.5 -20.5zM342 -109h193q42 0 69 11.5
t27 46.5t-26.5 46.5t-66.5 11.5h-276v-53q0 -31 20 -47t60 -16zM435 693q-124 0 -190 55.5t-67 175.5h142q1 -69 28 -96.5t87 -27.5t87 27.5t28 96.5h142q-1 -120 -67 -175.5t-190 -55.5z" />
    <glyph glyph-name="gdotaccent" unicode="&#x121;" horiz-adv-x="870" 
d="M770 -33q0 -81 -62 -129t-169 -48h-198q-118 0 -179.5 39.5t-61.5 102.5q0 50 30.5 80t76.5 35v20q-36 10 -61 33t-25 71q0 52 38 86.5t101 41.5v19q-54 14 -81 46.5t-27 75.5v9q0 72 67 111.5t197 39.5h347v-104l-162 20v-20q37 -10 60.5 -40t23.5 -65v-10
q0 -71 -66 -110.5t-201 -39.5h-105q-31 0 -48.5 -11.5t-17.5 -39.5q0 -27 19.5 -39t53.5 -12h226q104 0 164 -39.5t60 -122.5zM419 317q54 0 79 20.5t25 57.5v30q0 35 -25.5 55t-78.5 20q-54 0 -79 -20t-25 -55v-30q0 -37 24.5 -57.5t79.5 -20.5zM342 -109h193q42 0 69 11.5
t27 46.5t-26.5 46.5t-66.5 11.5h-276v-53q0 -31 20 -47t60 -16zM435 696q-51 0 -83 15.5t-32 54.5v13q0 40 32 56.5t83 16.5t83 -16.5t32 -56.5v-13q0 -39 -32 -54.5t-83 -15.5z" />
    <glyph glyph-name="gcommaaccent" unicode="&#x123;" horiz-adv-x="870" 
d="M770 -33q0 -81 -62 -129t-169 -48h-198q-118 0 -179.5 39.5t-61.5 102.5q0 50 30.5 80t76.5 35v20q-36 10 -61 33t-25 71q0 52 38 86.5t101 41.5v19q-54 14 -81 46.5t-27 75.5v9q0 72 67 111.5t197 39.5h347v-104l-162 20v-20q37 -10 60.5 -40t23.5 -65v-10
q0 -71 -66 -110.5t-201 -39.5h-105q-31 0 -48.5 -11.5t-17.5 -39.5q0 -27 19.5 -39t53.5 -12h226q104 0 164 -39.5t60 -122.5zM419 317q54 0 79 20.5t25 57.5v30q0 35 -25.5 55t-78.5 20q-54 0 -79 -20t-25 -55v-30q0 -37 24.5 -57.5t79.5 -20.5zM342 -109h193q42 0 69 11.5
t27 46.5t-26.5 46.5t-66.5 11.5h-276v-53q0 -31 20 -47t60 -16zM299 700l176 200h119l-75 -200h-220z" />
    <glyph glyph-name="h" unicode="h" 
d="M100 0v800h170v-307h30q24 56 72 86.5t111 30.5q85 0 136 -55t51 -154v-401h-170v377q0 49 -23 74.5t-61 25.5q-40 0 -77 -25t-69 -67v-385h-170z" />
    <glyph glyph-name="hcircumflex" unicode="&#x125;" 
d="M100 0v800h170v-307h30q24 56 72 86.5t111 30.5q85 0 136 -55t51 -154v-401h-170v377q0 49 -23 74.5t-61 25.5q-40 0 -77 -25t-69 -67v-385h-170zM-6 890l-55 78l181 156h128l183 -156l-54 -77l-193 108z" />
    <glyph glyph-name="i" unicode="i" horiz-adv-x="500" 
d="M165 0v600h170v-600h-170zM250 696q-51 0 -83 15.5t-32 54.5v13q0 40 32 56.5t83 16.5t83 -16.5t32 -56.5v-13q0 -39 -32 -54.5t-83 -15.5z" />
    <glyph glyph-name="igrave" unicode="&#xec;" horiz-adv-x="500" 
d="M165 0v600h170v-600h-170zM237 700l-216 200h220l115 -200h-119z" />
    <glyph glyph-name="iacute" unicode="&#xed;" horiz-adv-x="500" 
d="M165 0v600h170v-600h-170zM122 700l115 200h220l-216 -200h-119z" />
    <glyph glyph-name="icircumflex" unicode="&#xee;" horiz-adv-x="500" 
d="M165 0v600h170v-600h-170zM59 690l-55 78l181 156h128l183 -156l-54 -77l-193 108z" />
    <glyph glyph-name="idieresis" unicode="&#xef;" horiz-adv-x="500" 
d="M165 0v600h170v-600h-170zM124 696q-39 0 -63.5 15.5t-24.5 54.5v13q0 40 24.5 56.5t63.5 16.5q40 0 64.5 -16.5t24.5 -56.5v-13q0 -39 -25 -54.5t-64 -15.5zM376 696q-40 0 -64.5 15.5t-24.5 54.5v13q0 40 24.5 56.5t64.5 16.5t64 -16.5t24 -56.5v-13q0 -39 -25 -54.5
t-63 -15.5z" />
    <glyph glyph-name="itilde" unicode="&#x129;" horiz-adv-x="500" 
d="M165 0v600h170v-600h-170zM341 710q-44 0 -69.5 16t-42.5 34q-16 19 -30.5 34.5t-33.5 15.5q-17 0 -30 -15.5t-12 -64.5v-10h-112v15q0 81 39.5 135t109.5 54q46 0 71.5 -15.5t42.5 -34.5t31 -35t31 -16t30 15.5t12 65.5v9h112v-15q0 -80 -39.5 -134t-109.5 -54z" />
    <glyph glyph-name="imacron" unicode="&#x12b;" horiz-adv-x="500" 
d="M165 0v600h170v-600h-170zM32 734v132h436v-132h-436z" />
    <glyph glyph-name="ibreve" unicode="&#x12d;" horiz-adv-x="500" 
d="M165 0v600h170v-600h-170zM250 693q-124 0 -190 55.5t-67 175.5h142q1 -69 28 -96.5t87 -27.5t87 27.5t28 96.5h142q-1 -120 -67 -175.5t-190 -55.5z" />
    <glyph glyph-name="iogonek" unicode="&#x12f;" horiz-adv-x="500" 
d="M250 696q-51 0 -83 15.5t-32 54.5v13q0 40 32 56.5t83 16.5t83 -16.5t32 -56.5v-13q0 -39 -32 -54.5t-83 -15.5zM165 0v600h170v-600h-170zM272 -221q-78 0 -125 31.5t-47 93.5q0 61 47.5 104.5t102.5 59.5l27 -45q-34 -21 -43 -41.5t-9 -39.5q0 -26 18 -39t56 -13
q18 0 43 2.5t50 7.5v-109q-31 -6 -62 -9t-58 -3z" />
    <glyph glyph-name="j" unicode="j" horiz-adv-x="570" 
d="M176 -209q-34 0 -70.5 6t-70.5 16l20 116q29 -10 54.5 -15t47.5 -5q43 0 68 24t25 78v464h-178v125h348v-603q0 -108 -73.5 -157t-170.5 -49zM335 696q-51 0 -83 15.5t-32 54.5v13q0 40 32 56.5t83 16.5t83 -16.5t32 -56.5v-13q0 -39 -32 -54.5t-83 -15.5z" />
    <glyph glyph-name="jcircumflex" unicode="&#x135;" horiz-adv-x="570" 
d="M176 -209q-34 0 -70.5 6t-70.5 16l20 116q29 -10 54.5 -15t47.5 -5q43 0 68 24t25 78v464h-178v125h348v-603q0 -108 -73.5 -157t-170.5 -49zM103 690l-55 78l181 156h128l183 -156l-54 -77l-193 108z" />
    <glyph glyph-name="k" unicode="k" horiz-adv-x="670" 
d="M270 253v-253h-170v800h170v-430h41l158 230h180l-198 -272l195 -328h-183l-152 253h-41z" />
    <glyph glyph-name="kcommaaccent" unicode="&#x137;" horiz-adv-x="670" 
d="M270 253v-253h-170v800h170v-430h41l158 230h180l-198 -272l195 -328h-183l-152 253h-41zM200 -300l75 200h220l-176 -200h-119z" />
    <glyph glyph-name="l" unicode="l" horiz-adv-x="570" 
d="M384 -9q-112 0 -173 69t-61 168v572h170v-571q0 -49 25 -77.5t65 -28.5q19 0 41.5 5.5t43.5 15.5l27 -122q-29 -13 -64.5 -22t-73.5 -9z" />
    <glyph glyph-name="lacute" unicode="&#x13a;" horiz-adv-x="570" 
d="M384 -9q-112 0 -173 69t-61 168v572h170v-571q0 -49 25 -77.5t65 -28.5q19 0 41.5 5.5t43.5 15.5l27 -122q-29 -13 -64.5 -22t-73.5 -9zM108 900l115 200h220l-216 -200h-119z" />
    <glyph glyph-name="lcommaaccent" unicode="&#x13c;" horiz-adv-x="570" 
d="M384 -9q-112 0 -173 69t-61 168v572h170v-571q0 -49 25 -77.5t65 -28.5q19 0 41.5 5.5t43.5 15.5l27 -122q-29 -13 -64.5 -22t-73.5 -9zM174 -300l75 200h220l-176 -200h-119z" />
    <glyph glyph-name="lcaron" unicode="&#x13e;" horiz-adv-x="570" 
d="M384 -9q-112 0 -173 69t-61 168v572h170v-571q0 -49 25 -77.5t65 -28.5q19 0 41.5 5.5t43.5 15.5l27 -122q-29 -13 -64.5 -22t-73.5 -9zM416 705l60 295h217l-177 -295h-100z" />
    <glyph glyph-name="m" unicode="m" horiz-adv-x="1070" 
d="M270 402v-402h-170v600h170v-107h30q22 54 66.5 85.5t101.5 31.5q54 0 90.5 -30.5t51.5 -86.5h39q21 54 65.5 85.5t100.5 31.5q72 0 113.5 -52.5t41.5 -145.5v-412h-170v397q0 40 -16.5 60t-44.5 20q-31 0 -62.5 -20t-56.5 -55v-402h-170v397q0 40 -16.5 60t-44.5 20
q-31 0 -62.5 -20t-56.5 -55z" />
    <glyph glyph-name="n" unicode="n" 
d="M100 0v600h170v-107h30q23 54 72 85.5t111 31.5q87 0 137 -55.5t50 -153.5v-401h-170v377q0 49 -23 74.5t-61 25.5q-40 0 -77 -25t-69 -67v-385h-170z" />
    <glyph glyph-name="ntilde" unicode="&#xf1;" 
d="M100 0v600h170v-107h30q23 54 72 85.5t111 31.5q87 0 137 -55.5t50 -153.5v-401h-170v377q0 49 -23 74.5t-61 25.5q-40 0 -77 -25t-69 -67v-385h-170zM496 710q-44 0 -69.5 16t-42.5 34q-16 19 -30.5 34.5t-33.5 15.5q-17 0 -30 -15.5t-12 -64.5v-10h-112v15
q0 81 39.5 135t109.5 54q46 0 71.5 -15.5t42.5 -34.5t31 -35t31 -16t30 15.5t12 65.5v9h112v-15q0 -80 -39.5 -134t-109.5 -54z" />
    <glyph glyph-name="nacute" unicode="&#x144;" 
d="M100 0v600h170v-107h30q23 54 72 85.5t111 31.5q87 0 137 -55.5t50 -153.5v-401h-170v377q0 49 -23 74.5t-61 25.5q-40 0 -77 -25t-69 -67v-385h-170zM277 700l115 200h220l-216 -200h-119z" />
    <glyph glyph-name="ncommaaccent" unicode="&#x146;" 
d="M230 -300l75 200h220l-176 -200h-119zM100 0v600h170v-107h30q23 54 72 85.5t111 31.5q87 0 137 -55.5t50 -153.5v-401h-170v377q0 49 -23 74.5t-61 25.5q-40 0 -77 -25t-69 -67v-385h-170z" />
    <glyph glyph-name="ncaron" unicode="&#x148;" 
d="M100 0v600h170v-107h30q23 54 72 85.5t111 31.5q87 0 137 -55.5t50 -153.5v-401h-170v377q0 49 -23 74.5t-61 25.5q-40 0 -77 -25t-69 -67v-385h-170zM342 704l-183 156l54 77l193 -108l190 109l55 -78l-181 -156h-128z" />
    <glyph glyph-name="o" unicode="o" 
d="M385 -10q-122 0 -203.5 57.5t-81.5 173.5v155q0 117 82 175.5t204 58.5t203 -58.5t81 -175.5v-155q0 -116 -81.5 -173.5t-203.5 -57.5zM385 115q62 0 88.5 26.5t26.5 86.5v148q0 54 -26.5 81.5t-88.5 27.5q-61 0 -88 -28.5t-27 -82.5v-146q0 -60 27 -86.5t88 -26.5z" />
    <glyph glyph-name="ograve" unicode="&#xf2;" 
d="M385 -10q-122 0 -203.5 57.5t-81.5 173.5v155q0 117 82 175.5t204 58.5t203 -58.5t81 -175.5v-155q0 -116 -81.5 -173.5t-203.5 -57.5zM385 115q62 0 88.5 26.5t26.5 86.5v148q0 54 -26.5 81.5t-88.5 27.5q-61 0 -88 -28.5t-27 -82.5v-146q0 -60 27 -86.5t88 -26.5z
M372 700l-216 200h220l115 -200h-119z" />
    <glyph glyph-name="oacute" unicode="&#xf3;" 
d="M385 -10q-122 0 -203.5 57.5t-81.5 173.5v155q0 117 82 175.5t204 58.5t203 -58.5t81 -175.5v-155q0 -116 -81.5 -173.5t-203.5 -57.5zM385 115q62 0 88.5 26.5t26.5 86.5v148q0 54 -26.5 81.5t-88.5 27.5q-61 0 -88 -28.5t-27 -82.5v-146q0 -60 27 -86.5t88 -26.5z
M257 700l115 200h220l-216 -200h-119z" />
    <glyph glyph-name="ocircumflex" unicode="&#xf4;" 
d="M385 -10q-122 0 -203.5 57.5t-81.5 173.5v155q0 117 82 175.5t204 58.5t203 -58.5t81 -175.5v-155q0 -116 -81.5 -173.5t-203.5 -57.5zM385 115q62 0 88.5 26.5t26.5 86.5v148q0 54 -26.5 81.5t-88.5 27.5q-61 0 -88 -28.5t-27 -82.5v-146q0 -60 27 -86.5t88 -26.5z
M194 690l-55 78l181 156h128l183 -156l-54 -77l-193 108z" />
    <glyph glyph-name="otilde" unicode="&#xf5;" 
d="M385 -10q-122 0 -203.5 57.5t-81.5 173.5v155q0 117 82 175.5t204 58.5t203 -58.5t81 -175.5v-155q0 -116 -81.5 -173.5t-203.5 -57.5zM385 115q62 0 88.5 26.5t26.5 86.5v148q0 54 -26.5 81.5t-88.5 27.5q-61 0 -88 -28.5t-27 -82.5v-146q0 -60 27 -86.5t88 -26.5z
M476 710q-44 0 -69.5 16t-42.5 34q-16 19 -30.5 34.5t-33.5 15.5q-17 0 -30 -15.5t-12 -64.5v-10h-112v15q0 81 39.5 135t109.5 54q46 0 71.5 -15.5t42.5 -34.5t31 -35t31 -16t30 15.5t12 65.5v9h112v-15q0 -80 -39.5 -134t-109.5 -54z" />
    <glyph glyph-name="odieresis" unicode="&#xf6;" 
d="M385 -10q-122 0 -203.5 57.5t-81.5 173.5v155q0 117 82 175.5t204 58.5t203 -58.5t81 -175.5v-155q0 -116 -81.5 -173.5t-203.5 -57.5zM385 115q62 0 88.5 26.5t26.5 86.5v148q0 54 -26.5 81.5t-88.5 27.5q-61 0 -88 -28.5t-27 -82.5v-146q0 -60 27 -86.5t88 -26.5z
M259 696q-39 0 -63.5 15.5t-24.5 54.5v13q0 40 24.5 56.5t63.5 16.5q40 0 64.5 -16.5t24.5 -56.5v-13q0 -39 -25 -54.5t-64 -15.5zM511 696q-40 0 -64.5 15.5t-24.5 54.5v13q0 40 24.5 56.5t64.5 16.5t64 -16.5t24 -56.5v-13q0 -39 -25 -54.5t-63 -15.5z" />
    <glyph glyph-name="omacron" unicode="&#x14d;" 
d="M385 -10q-122 0 -203.5 57.5t-81.5 173.5v155q0 117 82 175.5t204 58.5t203 -58.5t81 -175.5v-155q0 -116 -81.5 -173.5t-203.5 -57.5zM385 115q62 0 88.5 26.5t26.5 86.5v148q0 54 -26.5 81.5t-88.5 27.5q-61 0 -88 -28.5t-27 -82.5v-146q0 -60 27 -86.5t88 -26.5z
M167 734v132h436v-132h-436z" />
    <glyph glyph-name="obreve" unicode="&#x14f;" 
d="M385 -10q-122 0 -203.5 57.5t-81.5 173.5v155q0 117 82 175.5t204 58.5t203 -58.5t81 -175.5v-155q0 -116 -81.5 -173.5t-203.5 -57.5zM385 115q62 0 88.5 26.5t26.5 86.5v148q0 54 -26.5 81.5t-88.5 27.5q-61 0 -88 -28.5t-27 -82.5v-146q0 -60 27 -86.5t88 -26.5z
M385 693q-124 0 -190 55.5t-67 175.5h142q1 -69 28 -96.5t87 -27.5t87 27.5t28 96.5h142q-1 -120 -67 -175.5t-190 -55.5z" />
    <glyph glyph-name="ohungarumlaut" unicode="&#x151;" 
d="M385 -10q-122 0 -203.5 57.5t-81.5 173.5v155q0 117 82 175.5t204 58.5t203 -58.5t81 -175.5v-155q0 -116 -81.5 -173.5t-203.5 -57.5zM385 115q62 0 88.5 26.5t26.5 86.5v148q0 54 -26.5 81.5t-88.5 27.5q-61 0 -88 -28.5t-27 -82.5v-146q0 -60 27 -86.5t88 -26.5z
M433 700l49 200h175l-132 -200h-92zM203 700l49 200h175l-132 -200h-92z" />
    <glyph glyph-name="p" unicode="p" 
d="M385 117q57 0 86 24.5t29 78.5v155q0 54 -25 78t-67 24q-37 0 -70.5 -16.5t-67.5 -50.5v-264q28 -15 55 -22t60 -7zM412 -7q-38 0 -74.5 6t-67.5 18v-217h-170v800h170v-107h30q24 55 73 86t113 31q87 0 135.5 -59t48.5 -163v-169q0 -107 -68 -166.5t-190 -59.5z" />
    <glyph glyph-name="q" unicode="q" 
d="M500 -200v307h-30q-23 -55 -73 -86t-113 -31q-87 0 -135.5 59t-48.5 163v169q0 106 77.5 166t214.5 60q69 0 149.5 -15t128.5 -43v-749h-170zM362 124q36 0 70 16t68 50v265q-23 13 -51.5 21t-63.5 8q-56 0 -85.5 -25t-29.5 -79v-151q0 -53 24.5 -79t67.5 -26z" />
    <glyph glyph-name="r" unicode="r" horiz-adv-x="670" 
d="M100 0v600h170v-107h30q22 61 65 89t94 28q79 0 118.5 -50t39.5 -137v-88h-154v61q0 37 -16.5 59t-51.5 22q-32 0 -66 -24t-59 -64v-389h-170z" />
    <glyph glyph-name="racute" unicode="&#x155;" horiz-adv-x="670" 
d="M100 0v600h170v-107h30q22 61 65 89t94 28q79 0 118.5 -50t39.5 -137v-88h-154v61q0 37 -16.5 59t-51.5 22q-32 0 -66 -24t-59 -64v-389h-170zM237 700l115 200h220l-216 -200h-119z" />
    <glyph glyph-name="rcommaaccent" unicode="&#x157;" horiz-adv-x="670" 
d="M100 0v600h170v-107h30q22 61 65 89t94 28q79 0 118.5 -50t39.5 -137v-88h-154v61q0 37 -16.5 59t-51.5 22q-32 0 -66 -24t-59 -64v-389h-170zM27 -300l75 200h220l-176 -200h-119z" />
    <glyph glyph-name="rcaron" unicode="&#x159;" horiz-adv-x="670" 
d="M100 0v600h170v-107h30q22 61 65 89t94 28q79 0 118.5 -50t39.5 -137v-88h-154v61q0 37 -16.5 59t-51.5 22q-32 0 -66 -24t-59 -64v-389h-170zM302 704l-183 156l54 77l193 -108l190 109l55 -78l-181 -156h-128z" />
    <glyph glyph-name="s" unicode="s" 
d="M388 -7q-81 0 -161 21t-140 67l45 107q60 -46 130 -64.5t130 -18.5q54 0 84 14.5t30 48.5q0 35 -30 50t-103 23q-129 14 -197.5 51t-68.5 124q0 91 73.5 142.5t192.5 51.5q67 0 138 -20.5t130 -60.5l-38 -102q-59 36 -115.5 53.5t-108.5 17.5q-49 0 -76 -15t-27 -47
q0 -35 36 -48.5t119 -23.5q125 -16 184.5 -57t59.5 -121q0 -92 -77.5 -142.5t-209.5 -50.5z" />
    <glyph glyph-name="sacute" unicode="&#x15b;" 
d="M388 -7q-81 0 -161 21t-140 67l45 107q60 -46 130 -64.5t130 -18.5q54 0 84 14.5t30 48.5q0 35 -30 50t-103 23q-129 14 -197.5 51t-68.5 124q0 91 73.5 142.5t192.5 51.5q67 0 138 -20.5t130 -60.5l-38 -102q-59 36 -115.5 53.5t-108.5 17.5q-49 0 -76 -15t-27 -47
q0 -35 36 -48.5t119 -23.5q125 -16 184.5 -57t59.5 -121q0 -92 -77.5 -142.5t-209.5 -50.5zM255 700l115 200h220l-216 -200h-119z" />
    <glyph glyph-name="scircumflex" unicode="&#x15d;" 
d="M388 -7q-81 0 -161 21t-140 67l45 107q60 -46 130 -64.5t130 -18.5q54 0 84 14.5t30 48.5q0 35 -30 50t-103 23q-129 14 -197.5 51t-68.5 124q0 91 73.5 142.5t192.5 51.5q67 0 138 -20.5t130 -60.5l-38 -102q-59 36 -115.5 53.5t-108.5 17.5q-49 0 -76 -15t-27 -47
q0 -35 36 -48.5t119 -23.5q125 -16 184.5 -57t59.5 -121q0 -92 -77.5 -142.5t-209.5 -50.5zM192 690l-55 78l181 156h128l183 -156l-54 -77l-193 108z" />
    <glyph glyph-name="scedilla" unicode="&#x15f;" 
d="M388 -7q-81 0 -161 21t-140 67l45 107q60 -46 130 -64.5t130 -18.5q54 0 84 14.5t30 48.5q0 35 -30 50t-103 23q-129 14 -197.5 51t-68.5 124q0 91 73.5 142.5t192.5 51.5q67 0 138 -20.5t130 -60.5l-38 -102q-59 36 -115.5 53.5t-108.5 17.5q-49 0 -76 -15t-27 -47
q0 -35 36 -48.5t119 -23.5q125 -16 184.5 -57t59.5 -121q0 -92 -77.5 -142.5t-209.5 -50.5zM353 0l20 42q73 -8 123 -36t50 -95q0 -72 -60 -103t-135 -31q-87 0 -142 29t-60 98l144 10q2 -19 13.5 -26.5t37.5 -7.5q28 0 42 11t14 45q0 28 -10 42.5t-37 21.5z" />
    <glyph glyph-name="scaron" unicode="&#x161;" 
d="M388 -7q-81 0 -161 21t-140 67l45 107q60 -46 130 -64.5t130 -18.5q54 0 84 14.5t30 48.5q0 35 -30 50t-103 23q-129 14 -197.5 51t-68.5 124q0 91 73.5 142.5t192.5 51.5q67 0 138 -20.5t130 -60.5l-38 -102q-59 36 -115.5 53.5t-108.5 17.5q-49 0 -76 -15t-27 -47
q0 -35 36 -48.5t119 -23.5q125 -16 184.5 -57t59.5 -121q0 -92 -77.5 -142.5t-209.5 -50.5zM320 704l-183 156l54 77l193 -108l190 109l55 -78l-181 -156h-128z" />
    <glyph glyph-name="scommaaccent" unicode="&#x219;" 
d="M388 -7q-81 0 -161 21t-140 67l45 107q60 -46 130 -64.5t130 -18.5q54 0 84 14.5t30 48.5q0 35 -30 50t-103 23q-129 14 -197.5 51t-68.5 124q0 91 73.5 142.5t192.5 51.5q67 0 138 -20.5t130 -60.5l-38 -102q-59 36 -115.5 53.5t-108.5 17.5q-49 0 -76 -15t-27 -47
q0 -35 36 -48.5t119 -23.5q125 -16 184.5 -57t59.5 -121q0 -92 -77.5 -142.5t-209.5 -50.5zM183 -300l75 200h220l-176 -200h-119z" />
    <glyph glyph-name="t" unicode="t" horiz-adv-x="670" 
d="M442 -10q-116 0 -179 56t-63 159v270h-120v125h120v200h170v-200h206v-125h-206v-251q0 -57 26 -82.5t69 -25.5q20 0 46 5t54 15l20 -122q-22 -9 -60.5 -16.5t-82.5 -7.5z" />
    <glyph glyph-name="tcedilla" unicode="&#x163;" horiz-adv-x="670" 
d="M442 -10q-116 0 -179 56t-63 159v270h-120v125h120v200h170v-200h206v-125h-206v-251q0 -57 26 -82.5t69 -25.5q20 0 46 5t54 15l20 -122q-22 -9 -60.5 -16.5t-82.5 -7.5zM355 0l20 42q73 -8 123 -36t50 -95q0 -72 -60 -103t-135 -31q-87 0 -142 29t-60 98l144 10
q2 -19 13.5 -26.5t37.5 -7.5q28 0 42 11t14 45q0 28 -10 42.5t-37 21.5z" />
    <glyph glyph-name="tcaron" unicode="&#x165;" horiz-adv-x="670" 
d="M442 -10q-116 0 -179 56t-63 159v270h-120v125h120v200h170v-200h206v-125h-206v-251q0 -57 26 -82.5t69 -25.5q20 0 46 5t54 15l20 -122q-22 -9 -60.5 -16.5t-82.5 -7.5zM463 705l60 295h217l-177 -295h-100z" />
    <glyph glyph-name="tcommaaccent" unicode="&#x21b;" horiz-adv-x="670" 
d="M442 -10q-116 0 -179 56t-63 159v270h-120v125h120v200h170v-200h206v-125h-206v-251q0 -57 26 -82.5t69 -25.5q20 0 46 5t54 15l20 -122q-22 -9 -60.5 -16.5t-82.5 -7.5zM201 -300l75 200h220l-176 -200h-119z" />
    <glyph glyph-name="u" unicode="u" 
d="M282 -10q-85 0 -133.5 56t-48.5 155v399h170v-377q0 -49 22 -74t62 -25q37 0 74.5 24t71.5 67v385h170v-600h-170v107h-30q-23 -54 -73.5 -85.5t-114.5 -31.5z" />
    <glyph glyph-name="ugrave" unicode="&#xf9;" 
d="M282 -10q-85 0 -133.5 56t-48.5 155v399h170v-377q0 -49 22 -74t62 -25q37 0 74.5 24t71.5 67v385h170v-600h-170v107h-30q-23 -54 -73.5 -85.5t-114.5 -31.5zM363 700l-216 200h220l115 -200h-119z" />
    <glyph glyph-name="uacute" unicode="&#xfa;" 
d="M282 -10q-85 0 -133.5 56t-48.5 155v399h170v-377q0 -49 22 -74t62 -25q37 0 74.5 24t71.5 67v385h170v-600h-170v107h-30q-23 -54 -73.5 -85.5t-114.5 -31.5zM266 700l115 200h220l-216 -200h-119z" />
    <glyph glyph-name="ucircumflex" unicode="&#xfb;" 
d="M282 -10q-85 0 -133.5 56t-48.5 155v399h170v-377q0 -49 22 -74t62 -25q37 0 74.5 24t71.5 67v385h170v-600h-170v107h-30q-23 -54 -73.5 -85.5t-114.5 -31.5zM194 690l-55 78l181 156h128l183 -156l-54 -77l-193 108z" />
    <glyph glyph-name="udieresis" unicode="&#xfc;" 
d="M282 -10q-85 0 -133.5 56t-48.5 155v399h170v-377q0 -49 22 -74t62 -25q37 0 74.5 24t71.5 67v385h170v-600h-170v107h-30q-23 -54 -73.5 -85.5t-114.5 -31.5zM259 696q-39 0 -63.5 15.5t-24.5 54.5v13q0 40 24.5 56.5t63.5 16.5q40 0 64.5 -16.5t24.5 -56.5v-13
q0 -39 -25 -54.5t-64 -15.5zM511 696q-40 0 -64.5 15.5t-24.5 54.5v13q0 40 24.5 56.5t64.5 16.5t64 -16.5t24 -56.5v-13q0 -39 -25 -54.5t-63 -15.5z" />
    <glyph glyph-name="utilde" unicode="&#x169;" 
d="M282 -10q-85 0 -133.5 56t-48.5 155v399h170v-377q0 -49 22 -74t62 -25q37 0 74.5 24t71.5 67v385h170v-600h-170v107h-30q-23 -54 -73.5 -85.5t-114.5 -31.5zM476 710q-44 0 -69.5 16t-42.5 34q-16 19 -30.5 34.5t-33.5 15.5q-17 0 -30 -15.5t-12 -64.5v-10h-112v15
q0 81 39.5 135t109.5 54q46 0 71.5 -15.5t42.5 -34.5t31 -35t31 -16t30 15.5t12 65.5v9h112v-15q0 -80 -39.5 -134t-109.5 -54z" />
    <glyph glyph-name="umacron" unicode="&#x16b;" 
d="M282 -10q-85 0 -133.5 56t-48.5 155v399h170v-377q0 -49 22 -74t62 -25q37 0 74.5 24t71.5 67v385h170v-600h-170v107h-30q-23 -54 -73.5 -85.5t-114.5 -31.5zM167 734v132h436v-132h-436z" />
    <glyph glyph-name="ubreve" unicode="&#x16d;" 
d="M282 -10q-85 0 -133.5 56t-48.5 155v399h170v-377q0 -49 22 -74t62 -25q37 0 74.5 24t71.5 67v385h170v-600h-170v107h-30q-23 -54 -73.5 -85.5t-114.5 -31.5zM385 693q-124 0 -190 55.5t-67 175.5h142q1 -69 28 -96.5t87 -27.5t87 27.5t28 96.5h142q-1 -120 -67 -175.5
t-190 -55.5z" />
    <glyph glyph-name="uring" unicode="&#x16f;" 
d="M282 -10q-85 0 -133.5 56t-48.5 155v399h170v-377q0 -49 22 -74t62 -25q37 0 74.5 24t71.5 67v385h170v-600h-170v107h-30q-23 -54 -73.5 -85.5t-114.5 -31.5zM385 678q-87 0 -141 37t-54 115v32q0 78 54 116.5t141 38.5q88 0 141.5 -38.5t53.5 -116.5v-32
q0 -78 -54 -115t-141 -37zM385 763q37 0 56 15t19 52v32q0 36 -19 53t-56 17t-56 -17t-19 -53v-32q0 -37 19 -52t56 -15z" />
    <glyph glyph-name="uhungarumlaut" unicode="&#x171;" 
d="M282 -10q-85 0 -133.5 56t-48.5 155v399h170v-377q0 -49 22 -74t62 -25q37 0 74.5 24t71.5 67v385h170v-600h-170v107h-30q-23 -54 -73.5 -85.5t-114.5 -31.5zM433 700l49 200h175l-132 -200h-92zM203 700l49 200h175l-132 -200h-92z" />
    <glyph glyph-name="uogonek" unicode="&#x173;" 
d="M601 -221q-78 0 -125 31.5t-47 93.5q0 61 47.5 104.5t102.5 59.5l27 -45q-34 -21 -43 -41.5t-9 -39.5q0 -26 18 -39t56 -13q18 0 43 2.5t50 7.5v-109q-31 -6 -62 -9t-58 -3zM282 -10q-85 0 -133.5 56t-48.5 155v399h170v-377q0 -49 22 -74t62 -25q37 0 74.5 24t71.5 67
v385h170v-600h-170v107h-30q-23 -54 -73.5 -85.5t-114.5 -31.5z" />
    <glyph glyph-name="v" unicode="v" horiz-adv-x="670" 
d="M446 0h-223l-199 600h170l143 -475l145 475h164z" />
    <glyph glyph-name="w" unicode="w" horiz-adv-x="970" 
d="M597 0l-108 370l-105 -370h-187l-151 600h152l107 -466l103 366h157l109 -356l105 456h145l-150 -600h-177z" />
    <glyph glyph-name="wcircumflex" unicode="&#x175;" horiz-adv-x="970" 
d="M597 0l-108 370l-105 -370h-187l-151 600h152l107 -466l103 366h157l109 -356l105 456h145l-150 -600h-177zM294 690l-55 78l181 156h128l183 -156l-54 -77l-193 108z" />
    <glyph glyph-name="wgrave" unicode="&#x1e81;" horiz-adv-x="970" 
d="M597 0l-108 370l-105 -370h-187l-151 600h152l107 -466l103 366h157l109 -356l105 456h145l-150 -600h-177zM472 700l-216 200h220l115 -200h-119z" />
    <glyph glyph-name="wacute" unicode="&#x1e83;" horiz-adv-x="970" 
d="M597 0l-108 370l-105 -370h-187l-151 600h152l107 -466l103 366h157l109 -356l105 456h145l-150 -600h-177zM357 700l115 200h220l-216 -200h-119z" />
    <glyph glyph-name="wdieresis" unicode="&#x1e85;" horiz-adv-x="970" 
d="M597 0l-108 370l-105 -370h-187l-151 600h152l107 -466l103 366h157l109 -356l105 456h145l-150 -600h-177zM359 696q-39 0 -63.5 15.5t-24.5 54.5v13q0 40 24.5 56.5t63.5 16.5q40 0 64.5 -16.5t24.5 -56.5v-13q0 -39 -25 -54.5t-64 -15.5zM611 696q-40 0 -64.5 15.5
t-24.5 54.5v13q0 40 24.5 56.5t64.5 16.5t64 -16.5t24 -56.5v-13q0 -39 -25 -54.5t-63 -15.5z" />
    <glyph glyph-name="x" unicode="x" horiz-adv-x="670" 
d="M455 0l-129 190l-114 -190h-173l207 307l-200 293h173l121 -178l111 178h173l-203 -296l208 -304h-174z" />
    <glyph glyph-name="y" unicode="y" horiz-adv-x="670" 
d="M174 -210q-31 0 -65.5 3t-74.5 8l12 125q39 -7 69 -10.5t53 -3.5q67 0 94 30t42 79l2 7h-97l-185 572h170l142 -473l145 473h164l-200 -607q-34 -106 -95 -154.5t-176 -48.5z" />
    <glyph glyph-name="yacute" unicode="&#xfd;" horiz-adv-x="670" 
d="M174 -210q-31 0 -65.5 3t-74.5 8l12 125q39 -7 69 -10.5t53 -3.5q67 0 94 30t42 79l2 7h-97l-185 572h170l142 -473l145 473h164l-200 -607q-34 -106 -95 -154.5t-176 -48.5zM207 700l115 200h220l-216 -200h-119z" />
    <glyph glyph-name="ydieresis" unicode="&#xff;" horiz-adv-x="670" 
d="M174 -210q-31 0 -65.5 3t-74.5 8l12 125q39 -7 69 -10.5t53 -3.5q67 0 94 30t42 79l2 7h-97l-185 572h170l142 -473l145 473h164l-200 -607q-34 -106 -95 -154.5t-176 -48.5zM209 696q-39 0 -63.5 15.5t-24.5 54.5v13q0 40 24.5 56.5t63.5 16.5q40 0 64.5 -16.5
t24.5 -56.5v-13q0 -39 -25 -54.5t-64 -15.5zM461 696q-40 0 -64.5 15.5t-24.5 54.5v13q0 40 24.5 56.5t64.5 16.5t64 -16.5t24 -56.5v-13q0 -39 -25 -54.5t-63 -15.5z" />
    <glyph glyph-name="ycircumflex" unicode="&#x177;" horiz-adv-x="670" 
d="M174 -210q-31 0 -65.5 3t-74.5 8l12 125q39 -7 69 -10.5t53 -3.5q67 0 94 30t42 79l2 7h-97l-185 572h170l142 -473l145 473h164l-200 -607q-34 -106 -95 -154.5t-176 -48.5zM144 690l-55 78l181 156h128l183 -156l-54 -77l-193 108z" />
    <glyph glyph-name="ygrave" unicode="&#x1ef3;" horiz-adv-x="670" 
d="M174 -210q-31 0 -65.5 3t-74.5 8l12 125q39 -7 69 -10.5t53 -3.5q67 0 94 30t42 79l2 7h-97l-185 572h170l142 -473l145 473h164l-200 -607q-34 -106 -95 -154.5t-176 -48.5zM322 700l-216 200h220l115 -200h-119z" />
    <glyph glyph-name="z" unicode="z" 
d="M650 0h-530v125l336 350h-336v125h530v-125l-334 -350h334v-125z" />
    <glyph glyph-name="zacute" unicode="&#x17a;" 
d="M650 0h-530v125l336 350h-336v125h530v-125l-334 -350h334v-125zM257 700l115 200h220l-216 -200h-119z" />
    <glyph glyph-name="zdotaccent" unicode="&#x17c;" 
d="M650 0h-530v125l336 350h-336v125h530v-125l-334 -350h334v-125zM385 696q-51 0 -83 15.5t-32 54.5v13q0 40 32 56.5t83 16.5t83 -16.5t32 -56.5v-13q0 -39 -32 -54.5t-83 -15.5z" />
    <glyph glyph-name="zcaron" unicode="&#x17e;" 
d="M650 0h-530v125l336 350h-336v125h530v-125l-334 -350h334v-125zM322 704l-183 156l54 77l193 -108l190 109l55 -78l-181 -156h-128z" />
    <glyph glyph-name="ordfeminine" unicode="&#xaa;" 
d="M324 388q33 0 64 9.5t56 29.5v74h-125q-32 0 -49.5 -12t-17.5 -47q0 -26 16.5 -40t55.5 -14zM292 294q-64 0 -121.5 33.5t-57.5 105.5q0 73 52 110.5t138 37.5h141v45q0 44 -22.5 63t-65.5 19q-41 0 -64 -14.5t-36 -59.5l-130 22q16 82 71 118t162 36t168 -41t61 -139
v-161q0 -46 25 -56t75 -4v-104q-66 -13 -114.5 -0.5t-68.5 72.5h-23q-25 -35 -76.5 -59t-113.5 -24z" />
    <glyph glyph-name="ordmasculine" unicode="&#xba;" 
d="M385 294q-104 0 -173.5 47t-69.5 144v131q0 98 70 146t174 48t173 -48t69 -146v-131q0 -97 -69.5 -144t-173.5 -47zM385 401q53 0 75.5 22t22.5 71v119q0 45 -22.5 67.5t-75.5 22.5t-75.5 -23t-22.5 -68v-118q0 -49 22.5 -71t75.5 -22z" />
    <glyph glyph-name="germandbls" unicode="&#xdf;" horiz-adv-x="940" 
d="M613 -6q-63 0 -137.5 20t-125.5 63l46 101q51 -40 116.5 -58.5t114.5 -18.5q41 0 64.5 14t23.5 44q0 42 -48.5 54t-114.5 24q-99 19 -142.5 55.5t-43.5 104.5q0 75 60 124.5t163 57.5q-9 57 -54.5 81t-109.5 24q-63 0 -109 -39t-46 -124v-521h-170v535q0 145 96 209
t230 64q147 0 237 -72.5t90 -185.5v-60q-129 2 -180.5 -16.5t-51.5 -58.5q0 -41 51 -51.5t120 -23.5q95 -17 136.5 -57t41.5 -112q0 -85 -69 -131t-188 -46z" />
    <glyph glyph-name="ae" unicode="&#xe6;" horiz-adv-x="1070" 
d="M970 150q-26 -92 -86.5 -126t-160.5 -34q-66 0 -115.5 22.5t-77.5 67.5h-28q-28 -38 -79 -64t-120 -26q-78 0 -140.5 39.5t-62.5 128.5q0 88 64 132.5t168 44.5h125v59q0 52 -21.5 73.5t-63.5 21.5q-43 0 -65.5 -16.5t-38.5 -66.5l-154 25q20 94 77 136.5t172 42.5
q63 0 110.5 -17t75.5 -54q31 36 78.5 53.5t104.5 17.5q104 0 171 -55t67 -169v-120h-343v-67q0 -46 20.5 -71t69.5 -25q44 0 68.5 15t37.5 52zM627 404v-45h180v36q0 57 -20 81.5t-70 24.5t-70 -23t-20 -74zM457 139v103h-106q-42 0 -65 -16t-23 -58q0 -33 17 -50.5
t57 -17.5q34 0 64.5 10.5t55.5 28.5z" />
    <glyph glyph-name="aeacute" unicode="&#x1fd;" horiz-adv-x="1070" 
d="M970 150q-26 -92 -86.5 -126t-160.5 -34q-66 0 -115.5 22.5t-77.5 67.5h-28q-28 -38 -79 -64t-120 -26q-78 0 -140.5 39.5t-62.5 128.5q0 88 64 132.5t168 44.5h125v59q0 52 -21.5 73.5t-63.5 21.5q-43 0 -65.5 -16.5t-38.5 -66.5l-154 25q20 94 77 136.5t172 42.5
q63 0 110.5 -17t75.5 -54q31 36 78.5 53.5t104.5 17.5q104 0 171 -55t67 -169v-120h-343v-67q0 -46 20.5 -71t69.5 -25q44 0 68.5 15t37.5 52zM627 404v-45h180v36q0 57 -20 81.5t-70 24.5t-70 -23t-20 -74zM457 139v103h-106q-42 0 -65 -16t-23 -58q0 -33 17 -50.5
t57 -17.5q34 0 64.5 10.5t55.5 28.5zM407 700l115 200h220l-216 -200h-119z" />
    <glyph glyph-name="eth" unicode="&#xf0;" 
d="M385 -10q-128 0 -206.5 58.5t-78.5 178.5v58q0 99 63.5 157t164.5 58q63 0 103 -22t56 -52h21q-4 61 -25.5 106t-61.5 78l-171 -77v94l77 34q-30 14 -66.5 26t-79.5 23l96 111q65 -17 118 -38.5t94 -47.5l161 72v-94l-85 -38q54 -55 79.5 -130.5t25.5 -174.5v-137
q0 -127 -78.5 -185t-206.5 -58zM386 115q62 0 88 25.5t26 77.5v63q0 47 -26 70t-88 23q-63 0 -88.5 -23t-25.5 -70v-63q0 -52 25.5 -77.5t88.5 -25.5z" />
    <glyph glyph-name="oslash" unicode="&#xf8;" 
d="M256 228q0 -24 4 -42.5t12 -32.5l166 333q-11 3 -24.5 4.5t-28.5 1.5q-69 0 -99 -30t-30 -88v-146zM385 108q69 0 99 28t30 92v148q0 22 -4 39.5t-12 30.5l-167 -333q12 -2 25.5 -3.5t28.5 -1.5zM385 -10q-25 0 -48.5 2.5t-44.5 6.5l-50 -99h-114l68 136q-44 27 -70 72.5
t-26 108.5v162q0 117 82 174t204 57q25 0 48 -2.5t44 -6.5l50 99h114l-68 -136q45 -28 70.5 -74.5t25.5 -110.5v-162q0 -116 -81.5 -171.5t-203.5 -55.5z" />
    <glyph glyph-name="oslashacute" unicode="&#x1ff;" 
d="M256 228q0 -24 4 -42.5t12 -32.5l166 333q-11 3 -24.5 4.5t-28.5 1.5q-69 0 -99 -30t-30 -88v-146zM385 108q69 0 99 28t30 92v148q0 22 -4 39.5t-12 30.5l-167 -333q12 -2 25.5 -3.5t28.5 -1.5zM385 -10q-25 0 -48.5 2.5t-44.5 6.5l-50 -99h-114l68 136q-44 27 -70 72.5
t-26 108.5v162q0 117 82 174t204 57q25 0 48 -2.5t44 -6.5l50 99h114l-68 -136q45 -28 70.5 -74.5t25.5 -110.5v-162q0 -116 -81.5 -171.5t-203.5 -55.5zM257 700l115 200h220l-216 -200h-119z" />
    <glyph glyph-name="thorn" unicode="&#xfe;" 
d="M385 117q57 0 86 24t29 79v155q0 53 -24 77.5t-68 24.5q-37 0 -70 -16.5t-68 -50.5v-264q28 -16 54.5 -22.5t60.5 -6.5zM412 -7q-38 0 -74.5 6t-67.5 18v-217h-170v1000h170v-307h30q24 54 73.5 85.5t112.5 31.5q86 0 135 -59t49 -163v-169q0 -105 -69 -165.5t-189 -60.5
z" />
    <glyph glyph-name="dcroat" unicode="&#x111;" 
d="M362 124q37 0 70 16t68 50v199q-28 15 -57.5 23t-57.5 8q-57 0 -85.5 -24.5t-28.5 -79.5v-87q0 -54 23.5 -79.5t67.5 -25.5zM470 107q-23 -54 -73.5 -85.5t-112.5 -31.5q-84 0 -134 56t-50 152v119q0 104 70 165t188 61q38 0 74.5 -6t67.5 -18v90h-179v94h179v97h170v-97
h100v-94h-100v-609h-170v107h-30z" />
    <glyph glyph-name="hbar" unicode="&#x127;" 
d="M270 321v-321h-170v609h-100v94h100v97h170v-97h179v-94h-179v-180h30q23 54 74.5 85.5t115.5 31.5q83 0 131.5 -51t48.5 -137v-358h-170v319q0 46 -22 70t-62 24q-37 0 -75 -24.5t-71 -67.5z" />
    <glyph glyph-name="dotlessi" unicode="&#x131;" horiz-adv-x="500" 
d="M165 0v600h170v-600h-170z" />
    <glyph glyph-name="ij" unicode="&#x133;" horiz-adv-x="1070" 
d="M250 696q-51 0 -83 15.5t-32 54.5v13q0 40 32 56.5t83 16.5t83 -16.5t32 -56.5v-13q0 -39 -32 -54.5t-83 -15.5zM165 0v600h170v-600h-170zM676 -209q-34 0 -70.5 6t-70.5 16l20 116q29 -10 54.5 -15t47.5 -5q43 0 68 24t25 78v464h-178v125h348v-603q0 -108 -73.5 -157
t-170.5 -49zM835 696q-51 0 -83 15.5t-32 54.5v13q0 40 32 56.5t83 16.5t83 -16.5t32 -56.5v-13q0 -39 -32 -54.5t-83 -15.5z" />
    <glyph glyph-name="kgreenlandic" unicode="&#x138;" horiz-adv-x="670" 
d="M270 263v-263h-170v600h170v-220h40l164 220h178l-203 -263l197 -337h-181l-154 263h-41z" />
    <glyph glyph-name="ldot" unicode="&#x140;" horiz-adv-x="870" 
d="M384 -9q-112 0 -173 69t-61 168v572h170v-571q0 -49 25 -77.5t65 -28.5q19 0 41.5 5.5t43.5 15.5l27 -122q-29 -13 -64.5 -22t-73.5 -9zM680 324q-51 0 -83 15.5t-32 54.5v13q0 40 32 56.5t83 16.5t83 -16.5t32 -56.5v-13q0 -39 -32 -54.5t-83 -15.5z" />
    <glyph glyph-name="lslash" unicode="&#x142;" horiz-adv-x="570" 
d="M384 -9q-112 0 -173 69t-61 168v86l-93 -25v108l93 25v378h170v-333l172 47v-108l-172 -47v-130q0 -49 25 -77.5t65 -28.5q19 0 41.5 5.5t43.5 15.5l27 -122q-29 -13 -64.5 -22t-73.5 -9z" />
    <glyph glyph-name="napostrophe" unicode="&#x149;" horiz-adv-x="700" 
d="M100 0v600h170v-107h30q23 54 72 85.5t111 31.5q87 0 137 -55.5t50 -153.5v-401h-170v377q0 49 -23 74.5t-61 25.5q-40 0 -77 -25t-69 -67v-385h-170zM-28 700l115 200h220l-216 -200h-119z" />
    <glyph glyph-name="eng" unicode="&#x14b;" 
d="M433 -209q-33 0 -67 6t-67 16l20 117q27 -9 50.5 -14.5t44.5 -5.5q40 0 63 24t23 79v370q0 46 -22 70t-62 24q-37 0 -75 -24.5t-71 -67.5v-385h-170v600h170v-107h30q23 54 74.5 85.5t115.5 31.5q83 0 131.5 -49t48.5 -132v-432q0 -108 -71 -157t-166 -49z" />
    <glyph glyph-name="oe" unicode="&#x153;" horiz-adv-x="1070" 
d="M977 150q-26 -92 -84 -126t-163 -34q-63 0 -113 19t-82 56q-31 -37 -80 -56t-112 -19q-111 0 -177 60t-66 167v162q0 110 66.5 170.5t177.5 60.5q61 0 110 -19t80 -56q31 37 81 56t110 19q107 0 176 -55t69 -169v-120h-350v-67q0 -46 22.5 -71t74.5 -25q46 0 71.5 11.5
t41.5 55.5zM620 404v-45h180v36q0 57 -20 81.5t-70 24.5t-70 -23t-20 -74zM360 115q48 0 69 26.5t21 86.5v148q0 54 -21 81.5t-69 27.5t-69 -28.5t-21 -82.5v-146q0 -60 21 -86.5t69 -26.5z" />
    <glyph glyph-name="tbar" unicode="&#x167;" horiz-adv-x="670" 
d="M442 -10q-116 0 -179 56t-63 159v54h-120v111h120v105h-120v125h120v200h170v-200h206v-125h-206v-105h206v-111h-206v-35q0 -57 26 -82.5t69 -25.5q20 0 46 5t54 15l20 -122q-22 -9 -60.5 -16.5t-82.5 -7.5z" />
    <glyph glyph-name="longs" unicode="&#x17f;" horiz-adv-x="570" 
d="M200 0v475h-120v125h120v34q0 101 72.5 148.5t165.5 47.5q34 0 71.5 -6.5t69.5 -17.5l-20 -113q-27 9 -52 14t-48 5q-41 0 -65 -20.5t-24 -69.5v-622h-170z" />
    <glyph glyph-name="dotlessj" unicode="&#xf6be;" horiz-adv-x="570" 
d="M176 -209q-34 0 -70.5 6t-70.5 16l20 116q29 -10 54.5 -15t47.5 -5q43 0 68 24t25 78v464h-178v125h348v-603q0 -108 -73.5 -157t-170.5 -49z" />
    <glyph glyph-name="dotlessj" unicode="&#x237;" horiz-adv-x="570" 
d="M176 -209q-34 0 -70.5 6t-70.5 16l20 116q29 -10 54.5 -15t47.5 -5q43 0 68 24t25 78v464h-178v125h348v-603q0 -108 -73.5 -157t-170.5 -49z" />
    <glyph glyph-name="alpha" unicode="&#x3b1;" horiz-adv-x="870" 
d="M362 124q37 0 70.5 16.5t67.5 50.5v220q-34 34 -67.5 50.5t-70.5 16.5q-43 0 -67 -26.5t-24 -78.5v-149q0 -57 25.5 -78.5t65.5 -21.5zM555 125h-30q-27 -62 -88 -98t-139 -36q-90 0 -144 56t-54 152v189q0 103 54 163t144 60q57 0 103 -31.5t69 -85.5h30v107h170v-406
q0 -50 27 -65t93 -6v-121q-99 -20 -159 9.5t-76 112.5z" />
    <glyph glyph-name="alphatonos" unicode="&#x3ac;" horiz-adv-x="870" 
d="M362 124q37 0 70.5 16.5t67.5 50.5v220q-34 34 -67.5 50.5t-70.5 16.5q-43 0 -67 -26.5t-24 -78.5v-149q0 -57 25.5 -78.5t65.5 -21.5zM555 125h-30q-27 -62 -88 -98t-139 -36q-90 0 -144 56t-54 152v189q0 103 54 163t144 60q57 0 103 -31.5t69 -85.5h30v107h170v-406
q0 -50 27 -65t93 -6v-121q-99 -20 -159 9.5t-76 112.5zM326 700l55 200h210l-156 -200h-109z" />
    <glyph glyph-name="beta" unicode="&#x3b2;" 
d="M382 120q57 0 86.5 28.5t29.5 83.5v28q0 60 -32 87.5t-88 27.5h-72v102h66q49 0 73.5 21.5t24.5 67.5v18q0 49 -26 71.5t-72 22.5q-50 0 -76 -28.5t-26 -87.5v-411q26 -16 54 -23.5t58 -7.5zM412 -10q-40 0 -75.5 6t-66.5 16v-212h-170v773q0 124 78.5 180.5t193.5 56.5
q120 0 193 -52.5t73 -144.5v-19q0 -60 -37.5 -96.5t-106.5 -49.5v-29q80 -8 127.5 -55.5t48.5 -119.5v-35q0 -101 -69.5 -160t-188.5 -59z" />
    <glyph glyph-name="gamma" unicode="&#x3b3;" horiz-adv-x="670" 
d="M437 -200h-204l17 220l-226 580h173l142 -414l135 414h171l-225 -580z" />
    <glyph glyph-name="delta" unicode="&#x3b4;" 
d="M385 -10q-128 0 -206.5 55.5t-78.5 171.5v92q0 56 33 98.5t102 71.5q-57 25 -81 58.5t-24 83.5q0 93 63.5 136t188.5 43h199v-125h-199q-45 0 -67 -10.5t-22 -43.5q0 -25 36 -45t153 -55q97 -28 142.5 -80.5t45.5 -135.5v-88q0 -116 -78.5 -171.5t-206.5 -55.5zM385 115
q57 0 86 24t29 78v88q0 52 -31.5 80.5t-115.5 53.5q-42 -22 -62.5 -54t-20.5 -76v-92q0 -54 29 -78t86 -24z" />
    <glyph glyph-name="epsilon" unicode="&#x3b5;" 
d="M394 -10q-152 0 -226 42t-74 127v17q0 52 38 84t118 39v22q-68 5 -103 32.5t-35 76.5v19q0 87 76 124.5t197 36.5q133 -1 205.5 -46.5t79.5 -147.5l-157 -8q-7 49 -39.5 68.5t-86.5 19.5q-58 0 -84 -14t-26 -47v-14q0 -32 28.5 -44.5t88.5 -12.5h51v-101h-51
q-78 0 -105.5 -15.5t-27.5 -55.5v-10q0 -38 28 -57.5t103 -19.5q73 0 102.5 24.5t36.5 73.5l157 -7q-10 -104 -76.5 -155t-217.5 -51z" />
    <glyph glyph-name="epsilontonos" unicode="&#x3ad;" 
d="M394 -10q-152 0 -226 42t-74 127v17q0 52 38 84t118 39v22q-68 5 -103 32.5t-35 76.5v19q0 87 76 124.5t197 36.5q133 -1 205.5 -46.5t79.5 -147.5l-157 -8q-7 49 -39.5 68.5t-86.5 19.5q-58 0 -84 -14t-26 -47v-14q0 -32 28.5 -44.5t88.5 -12.5h51v-101h-51
q-78 0 -105.5 -15.5t-27.5 -55.5v-10q0 -38 28 -57.5t103 -19.5q73 0 102.5 24.5t36.5 73.5l157 -7q-10 -104 -76.5 -155t-217.5 -51zM311 700l55 200h210l-156 -200h-109z" />
    <glyph glyph-name="zeta" unicode="&#x3b6;" 
d="M438 -200h-138v118h139q37 0 58.5 11.5t21.5 46.5q0 37 -21.5 49.5t-58.5 12.5h-71q-150 0 -209.5 64.5t-59.5 153.5q0 82 32.5 135t98.5 123l100 104l-7 18q-96 -22 -165 21t-111 137l96 54q42 -77 108.5 -100.5t178.5 2.5l208 79l29 -157l-177 -30l-131 -167
q-42 -56 -66 -98t-24 -106q0 -57 22.5 -86t76.5 -29h91q99 0 155 -43t56 -131q0 -91 -62.5 -136.5t-169.5 -45.5z" />
    <glyph glyph-name="eta" unicode="&#x3b7;" 
d="M500 -200v583q0 46 -22 70t-62 24q-37 0 -75 -24.5t-71 -67.5v-385h-170v600h170v-107h30q22 53 74.5 85t115.5 32q81 0 130.5 -50t49.5 -131v-629h-170z" />
    <glyph glyph-name="etatonos" unicode="&#x3ae;" 
d="M500 -200v583q0 46 -22 70t-62 24q-37 0 -75 -24.5t-71 -67.5v-385h-170v600h170v-107h30q22 53 74.5 85t115.5 32q81 0 130.5 -50t49.5 -131v-629h-170zM318 700l55 200h210l-156 -200h-109z" />
    <glyph glyph-name="theta" unicode="&#x3b8;" 
d="M385 -10q-122 0 -203.5 55.5t-81.5 171.5v362q0 117 82 174t204 57t203 -57t81 -174v-362q0 -116 -81.5 -171.5t-203.5 -55.5zM263 574v-113h244v115q0 54 -28 81.5t-94 27.5q-65 0 -93.5 -28.5t-28.5 -82.5zM385 115q66 0 94 26.5t28 86.5v122h-244v-122
q0 -60 28.5 -86.5t93.5 -26.5z" />
    <glyph glyph-name="iota" unicode="&#x3b9;" horiz-adv-x="570" 
d="M344 -11q-95 0 -144.5 58.5t-49.5 148.5v404h170v-378q0 -47 20 -73t63 -27q18 -1 39 5.5t46 16.5l27 -121q-47 -19 -87.5 -26.5t-83.5 -7.5z" />
    <glyph glyph-name="iotadieresistonos" unicode="&#x390;" horiz-adv-x="570" 
d="M344 -11q-95 0 -144.5 58.5t-49.5 148.5v404h170v-378q0 -47 20 -73t63 -27q18 -1 39 5.5t46 16.5l27 -121q-47 -19 -87.5 -26.5t-83.5 -7.5zM163 700l46 200h156l-105 -200h-97zM35 693q-34 0 -56 15.5t-22 54.5v13q0 40 22 56.5t56 16.5q35 0 56.5 -16.5t21.5 -56.5
v-13q0 -39 -22 -54.5t-56 -15.5zM455 693q-34 0 -56 15.5t-22 54.5v13q0 40 22 56.5t56 16.5q35 0 56.5 -16.5t21.5 -56.5v-13q0 -39 -22 -54.5t-56 -15.5z" />
    <glyph glyph-name="iotatonos" unicode="&#x3af;" horiz-adv-x="570" 
d="M344 -11q-95 0 -144.5 58.5t-49.5 148.5v404h170v-378q0 -47 20 -73t63 -27q18 -1 39 5.5t46 16.5l27 -121q-47 -19 -87.5 -26.5t-83.5 -7.5zM175 700l55 200h210l-156 -200h-109z" />
    <glyph glyph-name="iotadieresis" unicode="&#x3ca;" horiz-adv-x="570" 
d="M344 -11q-95 0 -144.5 58.5t-49.5 148.5v404h170v-378q0 -47 20 -73t63 -27q18 -1 39 5.5t46 16.5l27 -121q-47 -19 -87.5 -26.5t-83.5 -7.5zM114 696q-39 0 -63.5 15.5t-24.5 54.5v13q0 40 24.5 56.5t63.5 16.5q40 0 64.5 -16.5t24.5 -56.5v-13q0 -39 -25 -54.5
t-64 -15.5zM366 696q-40 0 -64.5 15.5t-24.5 54.5v13q0 40 24.5 56.5t64.5 16.5t64 -16.5t24 -56.5v-13q0 -39 -25 -54.5t-63 -15.5z" />
    <glyph glyph-name="kappa" unicode="&#x3ba;" horiz-adv-x="670" 
d="M270 263v-263h-170v600h170v-220h40l164 220h178l-203 -263l197 -337h-181l-154 263h-41z" />
    <glyph glyph-name="lambda" unicode="&#x3bb;" horiz-adv-x="670" 
d="M476 -1l-144 467l-139 -467h-169l178 551h105l-8 26q-16 52 -50 81.5t-88 29.5q-29 0 -55.5 -3t-57.5 -10l-14 122q40 6 76 9.5t67 3.5q99 0 164 -42t95 -133l209 -635h-169z" />
    <glyph glyph-name="mu" unicode="&#x3bc;" horiz-adv-x="870" 
d="M270 20l10 -220h-190l10 220v580h170v-383q0 -49 30 -69.5t73 -20.5q40 0 71 13t56 41v419h170v-405q0 -54 31 -66t89 -5v-121q-75 -16 -134.5 -1t-83.5 84h-27q-22 -40 -62 -68t-100 -28q-34 0 -63.5 13.5t-49.5 41.5v-25z" />
    <glyph glyph-name="nu" unicode="&#x3bd;" horiz-adv-x="670" 
d="M422 0h-175l-223 600h172l157 -454q54 110 85 231.5t39 222.5h168q-19 -169 -80 -320t-143 -280z" />
    <glyph glyph-name="xi" unicode="&#x3be;" 
d="M676 -18q0 -91 -62.5 -136.5t-169.5 -45.5h-138v118h139q37 0 58.5 11.5t21.5 46.5q0 37 -21.5 49.5t-58.5 12.5h-105q-110 0 -175 49.5t-65 133.5v20q0 59 44 103t133 51v23q-57 0 -87 29t-30 69q0 34 26 65t84 41v23q-93 -1 -151.5 38t-86.5 111l96 54q31 -57 97 -89
t196 -6l208 76l29 -157l-218 -35l-44 -21q-38 -19 -52 -44t-14 -46q0 -34 18.5 -48t46.5 -14h191v-118h-189q-67 0 -97 -26t-30 -64v-20q0 -36 30 -58t96 -22h69q99 0 155 -43t56 -131z" />
    <glyph glyph-name="omicron" unicode="&#x3bf;" 
d="M385 -10q-122 0 -203.5 57.5t-81.5 173.5v155q0 117 82 175.5t204 58.5t203 -58.5t81 -175.5v-155q0 -116 -81.5 -173.5t-203.5 -57.5zM385 115q62 0 88.5 26.5t26.5 86.5v148q0 54 -26.5 81.5t-88.5 27.5q-61 0 -88 -28.5t-27 -82.5v-146q0 -60 27 -86.5t88 -26.5z" />
    <glyph glyph-name="omicrontonos" unicode="&#x3cc;" 
d="M385 -10q-122 0 -203.5 57.5t-81.5 173.5v155q0 117 82 175.5t204 58.5t203 -58.5t81 -175.5v-155q0 -116 -81.5 -173.5t-203.5 -57.5zM385 115q62 0 88.5 26.5t26.5 86.5v148q0 54 -26.5 81.5t-88.5 27.5q-61 0 -88 -28.5t-27 -82.5v-146q0 -60 27 -86.5t88 -26.5z
M310 700l55 200h210l-156 -200h-109z" />
    <glyph glyph-name="pi" unicode="&#x3c0;" horiz-adv-x="870" 
d="M783 600v-125h-106v-280q0 -49 25.5 -64t94.5 -7v-121q-143 -25 -216.5 14.5t-73.5 143.5v314h-187v-475h-170v475h-100v125h733z" />
    <glyph glyph-name="rho" unicode="&#x3c1;" 
d="M408 124q43 0 67.5 25.5t24.5 79.5v151q0 56 -28.5 80.5t-83.5 24.5q-58 0 -88 -24.5t-30 -80.5v-190q34 -34 68 -50t70 -16zM100 -200v580q0 112 74.5 171t205.5 59q137 0 213.5 -59t76.5 -171v-175q0 -91 -53 -153t-152 -62q-64 0 -106.5 32t-58.5 85h-30v-307h-170z
" />
    <glyph glyph-name="sigma1" unicode="&#x3c2;" 
d="M301 -200v125h132q43 0 61.5 11.5t18.5 42.5q0 34 -18.5 46.5t-61.5 12.5h-87q-112 0 -179 60.5t-67 176.5v102q0 116 75.5 174.5t212.5 58.5q134 0 197 -57.5t76 -165.5l-163 -13q-5 64 -29.5 87t-84.5 23q-63 0 -88.5 -26t-25.5 -89v-90q0 -63 25 -89.5t88 -26.5h99
q90 0 139.5 -45t49.5 -132q0 -90 -67.5 -138t-174.5 -48h-128z" />
    <glyph glyph-name="sigma" unicode="&#x3c3;" horiz-adv-x="870" 
d="M385 115q62 0 88.5 26.5t26.5 86.5v139q0 57 -26.5 86t-88.5 29q-61 0 -88 -28.5t-27 -82.5v-143q0 -60 27 -86.5t88 -26.5zM385 -10q-122 0 -203.5 55.5t-81.5 171.5v159q0 112 82 168t204 56h434v-135l-203 12q25 -25 39 -60.5t14 -81.5v-118q0 -116 -81.5 -171.5
t-203.5 -55.5z" />
    <glyph glyph-name="tau" unicode="&#x3c4;" horiz-adv-x="670" 
d="M540 3q-143 -25 -216.5 15.5t-73.5 142.5v307h-200v132h580v-132h-210v-273q0 -48 26.5 -63.5t93.5 -7.5v-121z" />
    <glyph glyph-name="upsilon" unicode="&#x3c5;" 
d="M386 -10q-125 0 -205.5 63t-80.5 188v359h170v-354q0 -62 27 -93t88 -31q62 0 88.5 30.5t26.5 91.5v356h170v-359q0 -125 -79.5 -188t-204.5 -63z" />
    <glyph glyph-name="upsilondieresistonos" unicode="&#x3b0;" 
d="M386 -10q-125 0 -205.5 63t-80.5 188v359h170v-354q0 -62 27 -93t88 -31q62 0 88.5 30.5t26.5 91.5v356h170v-359q0 -125 -79.5 -188t-204.5 -63zM303 700l46 200h156l-105 -200h-97zM175 693q-34 0 -56 15.5t-22 54.5v13q0 40 22 56.5t56 16.5q35 0 56.5 -16.5
t21.5 -56.5v-13q0 -39 -22 -54.5t-56 -15.5zM595 693q-34 0 -56 15.5t-22 54.5v13q0 40 22 56.5t56 16.5q35 0 56.5 -16.5t21.5 -56.5v-13q0 -39 -22 -54.5t-56 -15.5z" />
    <glyph glyph-name="upsilondieresis" unicode="&#x3cb;" 
d="M386 -10q-125 0 -205.5 63t-80.5 188v359h170v-354q0 -62 27 -93t88 -31q62 0 88.5 30.5t26.5 91.5v356h170v-359q0 -125 -79.5 -188t-204.5 -63zM259 696q-39 0 -63.5 15.5t-24.5 54.5v13q0 40 24.5 56.5t63.5 16.5q40 0 64.5 -16.5t24.5 -56.5v-13q0 -39 -25 -54.5
t-64 -15.5zM511 696q-40 0 -64.5 15.5t-24.5 54.5v13q0 40 24.5 56.5t64.5 16.5t64 -16.5t24 -56.5v-13q0 -39 -25 -54.5t-63 -15.5z" />
    <glyph glyph-name="upsilontonos" unicode="&#x3cd;" 
d="M386 -10q-125 0 -205.5 63t-80.5 188v359h170v-354q0 -62 27 -93t88 -31q62 0 88.5 30.5t26.5 91.5v356h170v-359q0 -125 -79.5 -188t-204.5 -63zM317 700l55 200h210l-156 -200h-109z" />
    <glyph glyph-name="phi" unicode="&#x3c6;" horiz-adv-x="1040" 
d="M605 -200h-170v194q-164 17 -249.5 100t-85.5 218v51q0 78 18.5 141t56.5 113l165 -32q-31 -43 -50.5 -98.5t-19.5 -123.5v-51q0 -83 39 -127.5t126 -56.5v472h124q162 0 271.5 -71.5t109.5 -216.5v-35q0 -125 -91.5 -196.5t-243.5 -86.5v-194zM605 468v-342
q87 10 126 46.5t39 104.5v35q0 81 -41 118.5t-124 37.5z" />
    <glyph glyph-name="chi" unicode="&#x3c7;" horiz-adv-x="670" 
d="M456 -200l-131 257l-114 -257h-172l207 410l-200 390h172l124 -241l110 241h172l-203 -395l208 -405h-173z" />
    <glyph glyph-name="psi" unicode="&#x3c8;" horiz-adv-x="1040" 
d="M605 -200h-170v186q-174 14 -254.5 86.5t-80.5 184.5v343h170v-322q0 -69 38.5 -104.5t126.5 -44.5v471h170v-471q89 9 127 44.5t38 104.5v322h170v-343q0 -112 -80 -184.5t-255 -86.5v-186z" />
    <glyph glyph-name="omega" unicode="&#x3c9;" horiz-adv-x="1040" 
d="M319 -10q-99 0 -159 72.5t-60 212.5v72q0 83 19.5 158.5t42.5 111.5l165 -32q-16 -31 -36.5 -97.5t-20.5 -140.5v-72q0 -76 21 -114.5t62 -38.5t61.5 22t20.5 73v283h170v-283q0 -51 21 -73t62 -22t61.5 38.5t20.5 114.5v72q0 74 -20.5 140.5t-36.5 97.5l165 32
q23 -36 42.5 -111.5t19.5 -158.5v-72q0 -140 -60 -212.5t-158 -72.5q-66 0 -115.5 30.5t-75.5 102.5h-25q-25 -72 -74 -102.5t-113 -30.5z" />
    <glyph glyph-name="omegatonos" unicode="&#x3ce;" horiz-adv-x="1040" 
d="M319 -10q-99 0 -159 72.5t-60 212.5v72q0 83 19.5 158.5t42.5 111.5l165 -32q-16 -31 -36.5 -97.5t-20.5 -140.5v-72q0 -76 21 -114.5t62 -38.5t61.5 22t20.5 73v283h170v-283q0 -51 21 -73t62 -22t61.5 38.5t20.5 114.5v72q0 74 -20.5 140.5t-36.5 97.5l165 32
q23 -36 42.5 -111.5t19.5 -158.5v-72q0 -140 -60 -212.5t-158 -72.5q-66 0 -115.5 30.5t-75.5 102.5h-25q-25 -72 -74 -102.5t-113 -30.5zM439 700l55 200h210l-156 -200h-109z" />
    <glyph glyph-name="acyrillic" unicode="&#x430;" horiz-adv-x="870" 
d="M360 100q40 0 78 10.5t69 34.5v97h-163q-34 0 -54.5 -15t-20.5 -55q0 -36 22.5 -54t68.5 -18zM323 -10q-96 0 -156 45t-60 129q0 83 56.5 127t154.5 44h189v66q0 47 -29.5 70t-86.5 23t-82.5 -19t-41.5 -75l-146 25q21 98 91 141.5t190 43.5q128 0 201.5 -47.5
t73.5 -150.5v-217q0 -50 27 -65t93 -6v-121q-89 -19 -146 1t-72 89h-27q-27 -46 -89.5 -74.5t-139.5 -28.5z" />
    <glyph glyph-name="becyrillic" unicode="&#x431;" 
d="M385 -10q-128 0 -206.5 61.5t-78.5 195.5v210q0 154 69.5 235.5t212.5 97.5l238 25l15 -134l-227 -26q-75 -9 -111.5 -46t-36.5 -111v-53h23q24 46 68.5 70.5t104.5 24.5q96 0 155 -54.5t59 -146.5v-112q0 -119 -78.5 -178t-206.5 -59zM384 115q62 0 88 26t26 77v103
q0 47 -26 70t-88 23q-63 0 -88.5 -23t-25.5 -70v-103q0 -51 25.5 -77t88.5 -26z" />
    <glyph glyph-name="vecyrillic" unicode="&#x432;" 
d="M100 0v600h287q136 0 209.5 -36t73.5 -118v-21q0 -49 -36 -75.5t-102 -30.5v-22q79 -5 117.5 -37t38.5 -81v-17q0 -80 -69 -121t-232 -41h-287zM263 358h132q62 0 87 12t25 47v14q0 34 -24.5 47.5t-88.5 13.5h-131v-134zM263 115h131q75 0 103 17.5t28 53.5v10
q0 36 -26 52t-104 16h-132v-149z" />
    <glyph glyph-name="gecyrillic" unicode="&#x433;" horiz-adv-x="570" 
d="M100 0v600h440v-132h-270v-468h-170z" />
    <glyph glyph-name="gjecyrillic" unicode="&#x453;" horiz-adv-x="570" 
d="M100 0v600h440v-132h-270v-468h-170zM206 700l115 200h220l-216 -200h-119z" />
    <glyph glyph-name="decyrillic" unicode="&#x434;" horiz-adv-x="870" 
d="M313 146v-21h201v350h-160l-2 -191q-1 -48 -9 -80.5t-30 -57.5zM219 0v-150h-163v275h88q22 16 34 49t13 98l4 328h482v-475h100v-275h-163v150h-395z" />
    <glyph glyph-name="iecyrillic" unicode="&#x435;" 
d="M681 139q-36 -84 -101.5 -116.5t-191.5 -32.5q-135 0 -211.5 62.5t-76.5 175.5v147q0 112 77 173.5t209 61.5q131 0 207.5 -62t76.5 -176v-106h-400v-38q0 -60 30 -92.5t99 -32.5q63 0 93.5 18.5t44.5 56.5zM270 374v-15h230v12q0 70 -27 100t-88 30t-88 -29.5t-27 -97.5
z" />
    <glyph glyph-name="iegravecyrillic" unicode="&#x450;" 
d="M681 139q-36 -84 -101.5 -116.5t-191.5 -32.5q-135 0 -211.5 62.5t-76.5 175.5v147q0 112 77 173.5t209 61.5q131 0 207.5 -62t76.5 -176v-106h-400v-38q0 -60 30 -92.5t99 -32.5q63 0 93.5 18.5t44.5 56.5zM270 374v-15h230v12q0 70 -27 100t-88 30t-88 -29.5t-27 -97.5
zM376 700l-216 200h220l115 -200h-119z" />
    <glyph glyph-name="iocyrillic" unicode="&#x451;" 
d="M681 139q-36 -84 -101.5 -116.5t-191.5 -32.5q-135 0 -211.5 62.5t-76.5 175.5v147q0 112 77 173.5t209 61.5q131 0 207.5 -62t76.5 -176v-106h-400v-38q0 -60 30 -92.5t99 -32.5q63 0 93.5 18.5t44.5 56.5zM270 374v-15h230v12q0 70 -27 100t-88 30t-88 -29.5t-27 -97.5
zM259 696q-39 0 -63.5 15.5t-24.5 54.5v13q0 40 24.5 56.5t63.5 16.5q40 0 64.5 -16.5t24.5 -56.5v-13q0 -39 -25 -54.5t-64 -15.5zM511 696q-40 0 -64.5 15.5t-24.5 54.5v13q0 40 24.5 56.5t64.5 16.5t64 -16.5t24 -56.5v-13q0 -39 -25 -54.5t-63 -15.5z" />
    <glyph glyph-name="zhecyrillic" unicode="&#x436;" horiz-adv-x="870" 
d="M311 251l-121 -251h-153l160 325l-163 275h157l130 -242h45v242h139v-242h44l130 242h158l-164 -274l161 -326h-154l-121 251h-54v-251h-139v251h-55z" />
    <glyph glyph-name="zecyrillic" unicode="&#x437;" 
d="M392 -10q-154 0 -221 50t-77 156l158 7q7 -49 36 -73.5t103 -24.5q76 0 103.5 19.5t27.5 57.5v10q0 37 -28 52.5t-103 15.5h-47v101h47q60 0 87 13t27 47v14q0 33 -26 47t-86 14q-54 0 -85 -19.5t-38 -68.5l-158 8q7 104 79.5 148.5t206.5 45.5q121 1 196.5 -37
t75.5 -125v-18q0 -50 -34.5 -78t-103.5 -33v-22q80 -6 118 -38t38 -83v-17q0 -85 -72.5 -127t-223.5 -42z" />
    <glyph glyph-name="iicyrillic" unicode="&#x438;" 
d="M521 0v405l-239 -405h-182v600h149v-426l252 426h169v-600h-149z" />
    <glyph glyph-name="iishortcyrillic" unicode="&#x439;" 
d="M521 0v405l-239 -405h-182v600h149v-426l252 426h169v-600h-149zM385 693q-100 0 -174 49.5t-73 171.5l149 10q-1 -66 20 -95t78 -29t78 29t20 95l149 -10q1 -122 -73 -171.5t-174 -49.5z" />
    <glyph glyph-name="igravecyrillic" unicode="&#x45d;" 
d="M521 0v405l-239 -405h-182v600h149v-426l252 426h169v-600h-149zM372 700l-216 200h220l115 -200h-119z" />
    <glyph glyph-name="kacyrillic" unicode="&#x43a;" horiz-adv-x="670" 
d="M270 253v-253h-170v600h170v-230h41l165 230h173l-204 -272l201 -328h-176l-159 253h-41z" />
    <glyph glyph-name="kjecyrillic" unicode="&#x45c;" horiz-adv-x="670" 
d="M270 253v-253h-170v600h170v-230h41l165 230h173l-204 -272l201 -328h-176l-159 253h-41zM261 700l115 200h220l-216 -200h-119z" />
    <glyph glyph-name="elcyrillic" unicode="&#x43b;" 
d="M500 0v475h-161l-2 -246q-1 -129 -53.5 -185.5t-143.5 -56.5q-26 0 -54 4.5t-56 11.5l19 126q18 -5 33.5 -7.5t28.5 -2.5q31 0 48 26.5t18 96.5l3 358h490v-600h-170z" />
    <glyph glyph-name="emcyrillic" unicode="&#x43c;" horiz-adv-x="870" 
d="M368 150l-120 269v-419h-148v600h211l127 -300l126 300h206v-600h-147v420l-121 -270h-134z" />
    <glyph glyph-name="encyrillic" unicode="&#x43d;" 
d="M100 0v600h170v-203h230v203h170v-600h-170v265h-230v-265h-170z" />
    <glyph glyph-name="ocyrillic" unicode="&#x43e;" 
d="M385 -10q-122 0 -203.5 57.5t-81.5 173.5v155q0 117 82 175.5t204 58.5t203 -58.5t81 -175.5v-155q0 -116 -81.5 -173.5t-203.5 -57.5zM385 115q62 0 88.5 26.5t26.5 86.5v148q0 54 -26.5 81.5t-88.5 27.5q-61 0 -88 -28.5t-27 -82.5v-146q0 -60 27 -86.5t88 -26.5z" />
    <glyph glyph-name="pecyrillic" unicode="&#x43f;" 
d="M100 0v600h570v-600h-170v468h-230v-468h-170z" />
    <glyph glyph-name="ercyrillic" unicode="&#x440;" 
d="M385 117q57 0 86 24.5t29 78.5v155q0 54 -25 78t-67 24q-37 0 -70.5 -16.5t-67.5 -50.5v-264q28 -15 55 -22t60 -7zM412 -7q-38 0 -74.5 6t-67.5 18v-217h-170v800h170v-107h30q24 55 73 86t113 31q87 0 135.5 -59t48.5 -163v-169q0 -107 -68 -166.5t-190 -59.5z" />
    <glyph glyph-name="escyrillic" unicode="&#x441;" 
d="M392 -10q-147 0 -219.5 60.5t-72.5 170.5v155q0 117 77.5 175.5t213.5 58.5q137 0 207 -57t83 -163l-164 -13q-5 63 -32.5 85t-90.5 22q-67 0 -95.5 -27t-28.5 -83v-146q0 -60 28.5 -86.5t97.5 -26.5q67 0 92 18.5t29 69.5l164 -13q-7 -98 -72.5 -149t-216.5 -51z" />
    <glyph glyph-name="tecyrillic" unicode="&#x442;" horiz-adv-x="670" 
d="M250 0v468h-200v132h570v-132h-200v-468h-170z" />
    <glyph glyph-name="ucyrillic" unicode="&#x443;" horiz-adv-x="670" 
d="M174 -210q-31 0 -65.5 3t-74.5 8l12 125q39 -7 69 -10.5t53 -3.5q67 0 94 30t42 79l2 7h-97l-185 572h170l142 -473l145 473h164l-200 -607q-34 -106 -95 -154.5t-176 -48.5z" />
    <glyph glyph-name="ushortcyrillic" unicode="&#x45e;" horiz-adv-x="670" 
d="M174 -210q-31 0 -65.5 3t-74.5 8l12 125q39 -7 69 -10.5t53 -3.5q67 0 94 30t42 79l2 7h-97l-185 572h170l142 -473l145 473h164l-200 -607q-34 -106 -95 -154.5t-176 -48.5zM335 693q-100 0 -174 49.5t-73 171.5l149 10q-1 -66 20 -95t78 -29t78 29t20 95l149 -10
q1 -122 -73 -171.5t-174 -49.5z" />
    <glyph glyph-name="efcyrillic" unicode="&#x444;" horiz-adv-x="1040" 
d="M671 0h-66v-200h-170v200h-65q-130 0 -200 63.5t-70 182.5v108q0 119 70 182.5t200 63.5h65v200h170v-200h66q129 0 199 -63.5t70 -182.5v-108q0 -119 -70 -182.5t-199 -63.5zM391 127h49v345h-49q-61 0 -91 -30.5t-30 -91.5v-102q0 -61 30 -91t91 -30zM650 472h-50v-345
h50q60 0 90 30t30 91v102q0 61 -30 91.5t-90 30.5z" />
    <glyph glyph-name="khacyrillic" unicode="&#x445;" horiz-adv-x="670" 
d="M455 0l-129 190l-114 -190h-173l207 307l-200 293h173l121 -178l111 178h173l-203 -296l208 -304h-174z" />
    <glyph glyph-name="tsecyrillic" unicode="&#x446;" horiz-adv-x="805" 
d="M594 -150v150h-494v600h170v-468h215v468h170v-468h100v-282h-161z" />
    <glyph glyph-name="checyrillic" unicode="&#x447;" 
d="M670 600v-600h-170v189q-25 -9 -56 -14.5t-77 -5.5q-133 0 -200 61t-67 181v189h170v-187q0 -62 29.5 -87.5t85.5 -26.5q35 0 64 6.5t51 16.5v278h170z" />
    <glyph glyph-name="shacyrillic" unicode="&#x448;" horiz-adv-x="1070" 
d="M100 0v600h163v-468h191v468h163v-468h190v468h163v-600h-870z" />
    <glyph glyph-name="shchacyrillic" unicode="&#x449;" horiz-adv-x="1120" 
d="M1070 -150h-159v150h-811v600h163v-468h191v468h163v-468h190v468h163v-468h100v-282z" />
    <glyph glyph-name="hardsigncyrillic" unicode="&#x44a;" horiz-adv-x="870" 
d="M550 0h-350v468h-200v132h370v-173h180q117 0 183.5 -51t66.5 -140v-48q0 -88 -66.5 -138t-183.5 -50zM370 125h151q56 0 82.5 15.5t26.5 54.5v36q0 39 -26.5 56t-82.5 17h-151v-179z" />
    <glyph glyph-name="yericyrillic" unicode="&#x44b;" horiz-adv-x="1040" 
d="M100 0v600h170v-173h150q117 0 183.5 -51t66.5 -140v-48q0 -88 -66.5 -138t-183.5 -50h-320zM770 0v600h170v-599zM270 125h121q56 0 82.5 15.5t26.5 54.5v36q0 39 -26.5 56t-82.5 17h-121v-179z" />
    <glyph glyph-name="softsigncyrillic" unicode="&#x44c;" 
d="M100 0v600h170v-173h180q117 0 183.5 -51t66.5 -140v-48q0 -88 -66.5 -138t-183.5 -50h-350zM270 125h151q56 0 82.5 15.5t26.5 54.5v36q0 39 -26.5 56t-82.5 17h-151v-179z" />
    <glyph glyph-name="ereversedcyrillic" unicode="&#x44d;" 
d="M371 -10q-152 0 -213.5 51t-68.5 149l163 13q4 -57 29 -77.5t94 -20.5t97 26.5t28 89.5v39h-192v101h192v22q0 61 -27.5 86.5t-95.5 25.5q-65 0 -93 -18.5t-32 -71.5l-163 13q10 94 77 143t206 49q142 0 220 -58.5t78 -174.5v-150q0 -115 -75 -176t-224 -61z" />
    <glyph glyph-name="iucyrillic" unicode="&#x44e;" horiz-adv-x="1040" 
d="M666 -10q-134 0 -204 60t-70 167v35h-122v-252h-170v600h170v-216h123v5q0 102 73 161.5t201 59.5q134 0 203.5 -60.5t69.5 -170.5v-162q0 -107 -70 -167t-204 -60zM666 122q60 0 83.5 24.5t23.5 84.5v134q0 63 -23.5 88t-83.5 25q-59 0 -83 -25t-24 -88v-134
q0 -60 24 -84.5t83 -24.5z" />
    <glyph glyph-name="iacyrillic" unicode="&#x44f;" 
d="M356 306h144v176h-144q-36 0 -54 -15t-18 -61v-22q0 -48 18 -63t54 -15zM500 189h-77l-151 -189h-181l158 199q-67 16 -101 62t-34 121v29q0 93 52.5 141t153.5 48h350v-600h-170v189z" />
    <glyph glyph-name="djecyrillic" unicode="&#x452;" 
d="M433 -209q-33 0 -67 6t-67 16l20 117q27 -9 50.5 -14.5t44.5 -5.5q40 0 63 24t23 79v306q0 46 -21.5 70t-62.5 24q-37 0 -74.5 -24t-71.5 -68v-321h-170v609h-100v94h100v97h170v-97h179v-94h-179v-180h30q23 54 74.5 85.5t115.5 31.5q83 0 131.5 -51t48.5 -137v-361
q0 -97 -65.5 -151.5t-171.5 -54.5z" />
    <glyph glyph-name="ecyrillic" unicode="&#x454;" 
d="M681 190q-7 -98 -69 -149t-213 -51q-147 0 -223 61t-76 176v150q0 116 79 174.5t219 58.5q137 0 205 -49t78 -143l-164 -13q-4 53 -32 71.5t-91 18.5q-67 0 -95.5 -25.5t-28.5 -86.5v-26h208v-94h-208v-42q0 -63 28.5 -89.5t97.5 -26.5q67 0 92 20.5t29 77.5z" />
    <glyph glyph-name="dzecyrillic" unicode="&#x455;" 
d="M388 -7q-81 0 -161 21t-140 67l45 107q60 -46 130 -64.5t130 -18.5q54 0 84 14.5t30 48.5q0 35 -30 50t-103 23q-129 14 -197.5 51t-68.5 124q0 91 73.5 142.5t192.5 51.5q67 0 138 -20.5t130 -60.5l-38 -102q-59 36 -115.5 53.5t-108.5 17.5q-49 0 -76 -15t-27 -47
q0 -35 36 -48.5t119 -23.5q125 -16 184.5 -57t59.5 -121q0 -92 -77.5 -142.5t-209.5 -50.5z" />
    <glyph glyph-name="icyrillic" unicode="&#x456;" horiz-adv-x="500" 
d="M165 0v600h170v-600h-170zM250 696q-51 0 -83 15.5t-32 54.5v13q0 40 32 56.5t83 16.5t83 -16.5t32 -56.5v-13q0 -39 -32 -54.5t-83 -15.5z" />
    <glyph glyph-name="yicyrillic" unicode="&#x457;" horiz-adv-x="500" 
d="M165 0v600h170v-600h-170zM124 696q-39 0 -63.5 15.5t-24.5 54.5v13q0 40 24.5 56.5t63.5 16.5q40 0 64.5 -16.5t24.5 -56.5v-13q0 -39 -25 -54.5t-64 -15.5zM376 696q-40 0 -64.5 15.5t-24.5 54.5v13q0 40 24.5 56.5t64.5 16.5t64 -16.5t24 -56.5v-13q0 -39 -25 -54.5
t-63 -15.5z" />
    <glyph glyph-name="jecyrillic" unicode="&#x458;" horiz-adv-x="570" 
d="M176 -209q-34 0 -70.5 6t-70.5 16l20 116q29 -10 54.5 -15t47.5 -5q43 0 68 24t25 78v464h-178v125h348v-603q0 -108 -73.5 -157t-170.5 -49zM335 696q-51 0 -83 15.5t-32 54.5v13q0 40 32 56.5t83 16.5t83 -16.5t32 -56.5v-13q0 -39 -32 -54.5t-83 -15.5z" />
    <glyph glyph-name="ljecyrillic" unicode="&#x459;" horiz-adv-x="1170" 
d="M339 475l-2 -246q-1 -129 -53.5 -185.5t-143.5 -56.5q-26 0 -54 4.5t-56 11.5l19 126q16 -4 32 -7t30 -3q28 0 46.5 23.5t19.5 99.5l3 358h490v-173h180q118 0 184 -50.5t66 -140.5v-48q0 -89 -66 -138.5t-184 -49.5h-350v475h-161zM670 125h151q54 0 81.5 16t27.5 54v36
q0 38 -27.5 55.5t-81.5 17.5h-151v-179z" />
    <glyph glyph-name="njecyrillic" unicode="&#x45a;" horiz-adv-x="1170" 
d="M670 125h151q54 0 81.5 16t27.5 54v36q0 38 -27.5 55.5t-81.5 17.5h-151v-179zM270 265v-265h-170v600h170v-203h230v203h170v-173h180q117 0 183.5 -50.5t66.5 -140.5v-48q0 -88 -66.5 -138t-183.5 -50h-350v265h-230z" />
    <glyph glyph-name="tshecyrillic" unicode="&#x45b;" 
d="M270 321v-321h-170v609h-100v94h100v97h170v-97h179v-94h-179v-180h30q23 54 74.5 85.5t115.5 31.5q83 0 131.5 -51t48.5 -137v-358h-170v319q0 46 -22 70t-62 24q-37 0 -75 -24.5t-71 -67.5z" />
    <glyph glyph-name="dzhecyrillic" unicode="&#x45f;" 
d="M304 -150v150h-204v600h170v-468h230v468h170v-600h-204v-150h-162z" />
    <glyph glyph-name="gheupturncyrillic" unicode="&#x491;" horiz-adv-x="570" 
d="M100 0v600h279v150h161v-282h-270v-468h-170z" />
    <glyph glyph-name="nsuperior" unicode="&#x207f;" horiz-adv-x="670" 
d="M100 301v500h144v-88h28q11 24 26.5 42.5t35.5 30.5q19 12 41.5 18t46.5 6q34 0 61.5 -13.5t46.5 -38.5q20 -26 30 -63t10 -84v-310h-144v302q0 23 -4.5 40t-12.5 29q-8 11 -19.5 17t-25.5 6q-16 0 -31.5 -6t-30.5 -18q-14 -11 -28.5 -26.5t-29.5 -35.5v-308h-144z" />
    <glyph glyph-name="gravecmb" unicode="&#x300;" horiz-adv-x="0" 
d="M-13 700l-216 200h220l115 -200h-119z" />
    <glyph glyph-name="acutecmb" unicode="&#x301;" horiz-adv-x="0" 
d="M-128 700l115 200h220l-216 -200h-119z" />
    <glyph glyph-name="circumflexcmb" unicode="&#x302;" horiz-adv-x="0" 
d="M-191 690l-55 78l181 156h128l183 -156l-54 -77l-193 108z" />
    <glyph glyph-name="tildecmb" unicode="&#x303;" horiz-adv-x="0" 
d="M91 710q-44 0 -69.5 16t-42.5 34q-16 19 -30.5 34.5t-33.5 15.5q-17 0 -30 -15.5t-12 -64.5v-10h-112v15q0 81 39.5 135t109.5 54q46 0 71.5 -15.5t42.5 -34.5t31 -35t31 -16t30 15.5t12 65.5v9h112v-15q0 -80 -39.5 -134t-109.5 -54z" />
    <glyph glyph-name="macroncmb" unicode="&#x304;" horiz-adv-x="0" 
d="M-218 734v132h436v-132h-436z" />
    <glyph glyph-name="brevecmb" unicode="&#x306;" horiz-adv-x="0" 
d="M0 693q-124 0 -190 55.5t-67 175.5h142q1 -69 28 -96.5t87 -27.5t87 27.5t28 96.5h142q-1 -120 -67 -175.5t-190 -55.5z" />
    <glyph glyph-name="dotaccentcmb" unicode="&#x307;" horiz-adv-x="0" 
d="M0 696q-51 0 -83 15.5t-32 54.5v13q0 40 32 56.5t83 16.5t83 -16.5t32 -56.5v-13q0 -39 -32 -54.5t-83 -15.5z" />
    <glyph glyph-name="dieresiscmb" unicode="&#x308;" horiz-adv-x="0" 
d="M-126 696q-39 0 -63.5 15.5t-24.5 54.5v13q0 40 24.5 56.5t63.5 16.5q40 0 64.5 -16.5t24.5 -56.5v-13q0 -39 -25 -54.5t-64 -15.5zM126 696q-40 0 -64.5 15.5t-24.5 54.5v13q0 40 24.5 56.5t64.5 16.5t64 -16.5t24 -56.5v-13q0 -39 -25 -54.5t-63 -15.5z" />
    <glyph glyph-name="ringcmb" unicode="&#x30a;" horiz-adv-x="0" 
d="M0 678q-87 0 -141 37t-54 115v32q0 78 54 116.5t141 38.5q88 0 141.5 -38.5t53.5 -116.5v-32q0 -78 -54 -115t-141 -37zM0 763q37 0 56 15t19 52v32q0 36 -19 53t-56 17t-56 -17t-19 -53v-32q0 -37 19 -52t56 -15z" />
    <glyph glyph-name="hungarumlautcmb" unicode="&#x30b;" horiz-adv-x="0" 
d="M48 700l49 200h175l-132 -200h-92zM-182 700l49 200h175l-132 -200h-92z" />
    <glyph glyph-name="caroncmb" unicode="&#x30c;" horiz-adv-x="0" 
d="M-63 704l-183 156l54 77l193 -108l190 109l55 -78l-181 -156h-128z" />
    <glyph glyph-name="commaturnedabovecmb" unicode="&#x312;" horiz-adv-x="0" 
d="M-148 700l176 200h119l-75 -200h-220z" />
    <glyph glyph-name="commaaccentcmb" unicode="&#x326;" horiz-adv-x="0" 
d="M-155 -300l75 200h220l-176 -200h-119z" />
    <glyph glyph-name="cedillacmb" unicode="&#x327;" horiz-adv-x="0" 
d="M-30 0l20 42q73 -8 123 -36t50 -95q0 -72 -60 -103t-135 -31q-87 0 -142 29t-60 98l144 10q2 -19 13.5 -26.5t37.5 -7.5q28 0 42 11t14 45q0 28 -10 42.5t-37 21.5z" />
    <glyph glyph-name="ogonekcmb" unicode="&#x328;" horiz-adv-x="0" 
d="M28 -221q-78 0 -125 31.5t-47 93.5q0 61 47.5 104.5t102.5 59.5l27 -45q-34 -21 -43 -41.5t-9 -39.5q0 -26 18 -39t56 -13q18 0 43 2.5t50 7.5v-109q-31 -6 -62 -9t-58 -3z" />
    <glyph glyph-name="zero" unicode="0" horiz-adv-x="870" 
d="M435 -10q-166 0 -252 89.5t-86 253.5v130q0 166 86.5 256.5t252.5 90.5t251.5 -90.5t85.5 -256.5v-130q0 -164 -86 -253.5t-252 -89.5zM435 115q101 0 134.5 60.5t33.5 174.5v96q0 113 -33.5 176t-134.5 63t-134.5 -63t-33.5 -176v-96q0 -114 33.5 -174.5t134.5 -60.5z
M435 315q-32 0 -52 12t-20 44v57q0 31 20 43.5t52 12.5t51.5 -12.5t19.5 -43.5v-57q0 -32 -20 -44t-51 -12z" />
    <glyph glyph-name="one" unicode="1" horiz-adv-x="870" 
d="M180 0v132h220v494h-26q-18 -65 -75 -104t-129 -43l-10 133q79 5 150 53t93 135h167v-668h200v-132h-590z" />
    <glyph glyph-name="two" unicode="2" horiz-adv-x="870" 
d="M100 0v167q0 99 46 160t143 81l196 40q58 11 81.5 35.5t23.5 73.5v23q0 57 -37.5 81t-117.5 24q-78 0 -113.5 -28t-41.5 -108l-170 10q7 125 82 188t242 63q169 0 247.5 -59.5t78.5 -168.5v-47q0 -90 -47.5 -140t-137.5 -68l-197 -40q-57 -12 -82.5 -38t-25.5 -80v-37
h500v-132h-670z" />
    <glyph glyph-name="three" unicode="3" horiz-adv-x="870" 
d="M434 -10q-175 0 -256 57.5t-88 180.5l170 10q8 -77 44.5 -97.5t128.5 -20.5q89 0 128 24t39 78v27q0 56 -39 81t-126 25h-124v130h124q77 0 111 18t34 59v32q0 46 -36.5 66t-118.5 20q-68 0 -103 -22t-42 -77l-170 10q7 116 81.5 167.5t233.5 51.5q162 0 243.5 -48.5
t81.5 -152.5v-22q0 -67 -42.5 -104.5t-107.5 -44.5v-29q71 -6 120.5 -51.5t49.5 -119.5v-20q0 -116 -82 -172t-254 -56z" />
    <glyph glyph-name="four" unicode="4" horiz-adv-x="870" 
d="M248 325h252v323zM820 200h-150v-200h-170v200h-410v125l365 475h215v-475h150v-125z" />
    <glyph glyph-name="five" unicode="5" horiz-adv-x="870" 
d="M434 -10q-180 0 -258.5 54.5t-85.5 197.5l170 10q8 -85 45 -111t130 -26q97 0 131 29.5t34 92.5v34q0 63 -37.5 89t-135.5 26h-307v414h617v-125h-447v-156h187q143 0 218 -54t75 -167v-85q0 -96 -80.5 -159.5t-255.5 -63.5z" />
    <glyph glyph-name="six" unicode="6" horiz-adv-x="870" 
d="M435 -10q-173 0 -254 76t-81 210v242q0 138 78.5 215t258.5 77q165 0 234.5 -53.5t89.5 -151.5l-179 -23q-13 63 -47 83t-110 20q-87 0 -121 -36.5t-34 -131.5v-87h13q28 33 78.5 51.5t122.5 18.5q147 0 216.5 -60.5t69.5 -177.5v-22q0 -106 -80.5 -178t-254.5 -72z
M434 115q91 0 127.5 33.5t36.5 92.5v13q0 63 -36.5 98.5t-127.5 35.5t-127.5 -35.5t-36.5 -98.5v-13q0 -64 36.5 -95t127.5 -31z" />
    <glyph glyph-name="seven" unicode="7" horiz-adv-x="870" 
d="M300 0q52 242 114 363t186 302h-500v135h670v-135q-123 -202 -189.5 -332.5t-100.5 -332.5h-180z" />
    <glyph glyph-name="eight" unicode="8" horiz-adv-x="870" 
d="M435 -10q-186 0 -260.5 58.5t-74.5 165.5v22q0 75 43.5 119.5t120.5 51.5v29q-63 6 -103.5 43t-40.5 100v32q0 103 81 151t234 48t234 -47t81 -152v-32q0 -63 -40.5 -100t-103.5 -43v-29q77 -7 120.5 -52.5t43.5 -118.5v-22q0 -109 -74.5 -166.5t-260.5 -57.5zM435 483
q73 0 109 19.5t36 68.5v23q0 48 -36 67t-109 19t-109 -19t-36 -67v-23q0 -49 36 -68.5t109 -19.5zM435 120q99 0 132 28.5t33 82.5v14q0 55 -33 84t-132 29t-132 -29t-33 -84v-14q0 -54 33 -82.5t132 -28.5z" />
    <glyph glyph-name="nine" unicode="9" horiz-adv-x="870" 
d="M436 412q91 0 127.5 35.5t36.5 98.5v13q0 64 -36.5 95t-127.5 31t-127.5 -33.5t-36.5 -92.5v-13q0 -63 36.5 -98.5t127.5 -35.5zM433 -10q-165 0 -234.5 53.5t-89.5 151.5l179 23q14 -63 47.5 -83t110.5 -20q87 0 120.5 37t33.5 131v87h-20q-28 -32 -77 -51t-127 -19
q-140 0 -208 59t-68 179v22q0 107 80.5 178.5t254.5 71.5q173 0 254 -76t81 -210v-242q0 -137 -78.5 -214.5t-258.5 -77.5z" />
    <glyph glyph-name="onequarter" unicode="&#xbc;" horiz-adv-x="1542" 
d="M1130 211h138v171zM1494 120h-93v-120h-133v120h-254v91l226 285h161v-285h93v-91zM128 304v98h136v285h-19q-9 -43 -45 -67t-79 -27l-6 96q43 5 88.5 32t62.5 79h131v-398h124v-98h-393zM500 0l400 800h142l-400 -800h-142z" />
    <glyph glyph-name="onehalf" unicode="&#xbd;" horiz-adv-x="1542" 
d="M128 304v98h136v285h-19q-9 -43 -45 -67t-79 -27l-6 96q43 5 88.5 32t62.5 79h131v-398h124v-98h-393zM1020 0v115q0 52 27 90t90 51l122 25q35 7 50 20.5t15 44.5v9q0 34 -22.5 45t-60.5 11q-37 0 -57.5 -13t-24.5 -58l-133 7q4 77 53.5 116t161.5 39q113 0 164.5 -38.5
t51.5 -110.5v-23q0 -57 -32 -90.5t-83 -43.5l-122 -25q-37 -8 -52 -19t-15 -36v-18h310v-98h-443zM500 0l400 800h142l-400 -800h-142z" />
    <glyph glyph-name="threequarters" unicode="&#xbe;" horiz-adv-x="1542" 
d="M1130 211h138v171zM1494 120h-93v-120h-133v120h-254v91l226 285h161v-285h93v-91zM500 0l400 800h142l-400 -800h-142zM303 298q-113 0 -170 38t-61 113l133 6q4 -35 24.5 -47.5t72.5 -12.5q49 0 67.5 11.5t18.5 38.5v16q0 29 -20.5 41t-68.5 12h-103v96h103q41 0 59 9
t18 35v10q0 27 -20 36t-63 9t-57.5 -9.5t-18.5 -37.5l-133 6q5 78 59.5 108t149.5 30q94 0 154.5 -25.5t60.5 -98.5v-11q0 -43 -26 -67.5t-63 -29.5v-18q37 -3 69.5 -30t32.5 -76v-10q0 -82 -59.5 -112t-158.5 -30z" />
    <glyph glyph-name="oneeighth" unicode="&#x215b;" horiz-adv-x="1542" 
d="M1241 -6q-126 0 -173.5 38t-47.5 104v14q0 43 28 70.5t77 31.5v18q-40 4 -66.5 26.5t-26.5 59.5v20q0 66 54.5 96t154.5 30q101 0 155 -29t54 -97v-20q0 -37 -26 -59.5t-65 -26.5v-18q49 -4 76.5 -32t27.5 -70v-14q0 -68 -47.5 -105t-174.5 -37zM1241 300q37 0 57 10
t20 37v19q0 27 -20 36.5t-57 9.5q-35 0 -55.5 -9.5t-20.5 -36.5v-19q0 -27 20.5 -37t55.5 -10zM1241 84q54 0 71.5 16.5t17.5 44.5v14q0 29 -17.5 46t-71.5 17t-71 -17t-17 -46v-14q0 -28 17 -44.5t71 -16.5zM128 304v98h136v285h-19q-9 -43 -45 -67t-79 -27l-6 96
q43 5 88.5 32t62.5 79h131v-398h124v-98h-393zM500 0l400 800h142l-400 -800h-142z" />
    <glyph glyph-name="threeeighths" unicode="&#x215c;" horiz-adv-x="1542" 
d="M1241 -6q-126 0 -173.5 38t-47.5 104v14q0 43 28 70.5t77 31.5v18q-40 4 -66.5 26.5t-26.5 59.5v20q0 66 54.5 96t154.5 30q101 0 155 -29t54 -97v-20q0 -37 -26 -59.5t-65 -26.5v-18q49 -4 76.5 -32t27.5 -70v-14q0 -68 -47.5 -105t-174.5 -37zM1241 300q37 0 57 10
t20 37v19q0 27 -20 36.5t-57 9.5q-35 0 -55.5 -9.5t-20.5 -36.5v-19q0 -27 20.5 -37t55.5 -10zM1241 84q54 0 71.5 16.5t17.5 44.5v14q0 29 -17.5 46t-71.5 17t-71 -17t-17 -46v-14q0 -28 17 -44.5t71 -16.5zM500 0l400 800h142l-400 -800h-142zM303 298q-113 0 -170 38
t-61 113l133 6q4 -35 24.5 -47.5t72.5 -12.5q49 0 67.5 11.5t18.5 38.5v16q0 29 -20.5 41t-68.5 12h-103v96h103q41 0 59 9t18 35v10q0 27 -20 36t-63 9t-57.5 -9.5t-18.5 -37.5l-133 6q5 78 59.5 108t149.5 30q94 0 154.5 -25.5t60.5 -98.5v-11q0 -43 -26 -67.5t-63 -29.5
v-18q37 -3 69.5 -30t32.5 -76v-10q0 -82 -59.5 -112t-158.5 -30z" />
    <glyph glyph-name="fiveeighths" unicode="&#x215d;" horiz-adv-x="1542" 
d="M1241 -6q-126 0 -173.5 38t-47.5 104v14q0 43 28 70.5t77 31.5v18q-40 4 -66.5 26.5t-26.5 59.5v20q0 66 54.5 96t154.5 30q101 0 155 -29t54 -97v-20q0 -37 -26 -59.5t-65 -26.5v-18q49 -4 76.5 -32t27.5 -70v-14q0 -68 -47.5 -105t-174.5 -37zM1241 300q37 0 57 10
t20 37v19q0 27 -20 36.5t-57 9.5q-35 0 -55.5 -9.5t-20.5 -36.5v-19q0 -27 20.5 -37t55.5 -10zM1241 84q54 0 71.5 16.5t17.5 44.5v14q0 29 -17.5 46t-71.5 17t-71 -17t-17 -46v-14q0 -28 17 -44.5t71 -16.5zM304 298q-121 0 -174.5 37t-57.5 128l133 6q6 -48 26.5 -64
t74.5 -16q47 0 64.5 15.5t17.5 54.5v16q0 34 -23 48.5t-88 14.5h-187v262h414v-91h-281v-74h106q96 0 144 -33.5t48 -102.5v-60q0 -59 -50.5 -100t-166.5 -41zM500 0l400 800h142l-400 -800h-142z" />
    <glyph glyph-name="seveneighths" unicode="&#x215e;" horiz-adv-x="1542" 
d="M1241 -6q-126 0 -173.5 38t-47.5 104v14q0 43 28 70.5t77 31.5v18q-40 4 -66.5 26.5t-26.5 59.5v20q0 66 54.5 96t154.5 30q101 0 155 -29t54 -97v-20q0 -37 -26 -59.5t-65 -26.5v-18q49 -4 76.5 -32t27.5 -70v-14q0 -68 -47.5 -105t-174.5 -37zM1241 300q37 0 57 10
t20 37v19q0 27 -20 36.5t-57 9.5q-35 0 -55.5 -9.5t-20.5 -36.5v-19q0 -27 20.5 -37t55.5 -10zM1241 84q54 0 71.5 16.5t17.5 44.5v14q0 29 -17.5 46t-71.5 17t-71 -17t-17 -46v-14q0 -28 17 -44.5t71 -16.5zM202 304q39 133 80.5 219t105.5 180h-310v97h443v-97
q-62 -104 -107 -196t-73 -203h-139zM500 0l400 800h142l-400 -800h-142z" />
    <glyph glyph-name="underscore" unicode="_" horiz-adv-x="900" 
d="M100 -200v149h700v-149h-700z" />
    <glyph glyph-name="hyphen" unicode="&#x2011;" horiz-adv-x="900" 
d="M115 279v149h670v-149h-670z" />
    <glyph glyph-name="hyphen" unicode="&#x2010;" horiz-adv-x="900" 
d="M115 279v149h670v-149h-670z" />
    <glyph glyph-name="hyphen" unicode="&#xad;" horiz-adv-x="900" 
d="M115 279v149h670v-149h-670z" />
    <glyph glyph-name="hyphen" unicode="-" horiz-adv-x="900" 
d="M115 279v149h670v-149h-670z" />
    <glyph glyph-name="endash" unicode="&#x2013;" horiz-adv-x="1000" 
d="M129 279v149h742v-149h-742z" />
    <glyph glyph-name="emdash" unicode="&#x2014;" horiz-adv-x="1300" 
d="M129 279v149h1042v-149h-1042z" />
    <glyph glyph-name="horizontalbar" unicode="&#x2015;" horiz-adv-x="1000" 
d="M0 279v149h1000v-149h-1000z" />
    <glyph glyph-name="parenleft" unicode="(" 
d="M606 -210q-219 37 -312.5 179.5t-93.5 330.5q0 183 93.5 328t312.5 182l17 -114q-145 -37 -199 -139.5t-54 -256.5t54 -253.5t199 -136.5z" />
    <glyph glyph-name="parenright" unicode=")" 
d="M164 -210l-17 120q145 37 199 139t54 251q0 143 -54 251t-199 145l17 114q219 -37 312.5 -182t93.5 -328q0 -188 -93.5 -330.5t-312.5 -179.5z" />
    <glyph glyph-name="bracketleft" unicode="[" 
d="M200 -200v1000h420v-125h-250v-754h250v-121h-420z" />
    <glyph glyph-name="bracketright" unicode="]" 
d="M150 -200v121h250v754h-250v125h420v-1000h-420z" />
    <glyph glyph-name="braceleft" unicode="{" 
d="M620 -210q-251 -3 -360.5 34.5t-109.5 131.5q0 45 15.5 75t48.5 60q34 31 50 50.5t16 37.5q0 47 -49.5 66.5t-180.5 22.5v88q131 3 180.5 22t49.5 65q0 18 -15.5 34t-48.5 40q-34 25 -50 52t-16 70q0 96 109.5 135t360.5 36v-125q-170 3 -235 -13t-65 -59q0 -21 14 -39
t51 -45q37 -26 51 -47t14 -52q0 -59 -59 -86t-203 -31v-5q144 -10 203 -38.5t59 -84.5q0 -32 -14 -53t-51 -49q-37 -25 -51 -45.5t-14 -47.5q0 -46 65 -63t235 -14v-123z" />
    <glyph glyph-name="braceright" unicode="}" 
d="M620 -44q0 -94 -109.5 -131.5t-360.5 -34.5v123q170 -3 235 14t65 63q0 27 -14 47.5t-51 45.5q-37 28 -51 49t-14 53q0 56 59 84.5t203 38.5v5q-144 4 -203 31t-59 86q0 31 14 52t51 47q37 27 51 45t14 39q0 43 -65 59t-235 13v125q251 3 360.5 -36t109.5 -135
q0 -43 -16 -70t-50 -52q-33 -24 -48.5 -40t-15.5 -34q0 -46 49.5 -65t180.5 -22v-88q-131 -3 -180.5 -22.5t-49.5 -66.5q0 -18 16 -37.5t50 -50.5q33 -30 48.5 -60t15.5 -75z" />
    <glyph glyph-name="numbersign" unicode="#" horiz-adv-x="970" 
d="M557 297l10 206h-154l-10 -206h154zM542 0l9 179h-154l-9 -179h-146l9 179h-151v118h157l10 206h-167v118h173l9 179h146l-9 -179h154l9 179h146l-9 -179h151v-118h-157l-10 -206h167v-118h-173l-9 -179h-146z" />
    <glyph glyph-name="percent" unicode="%" horiz-adv-x="1240" 
d="M293 374q-99 0 -160 38.5t-61 119.5v118q0 81 61 120.5t160 39.5t159 -39.5t60 -120.5v-118q0 -81 -60.5 -119.5t-158.5 -38.5zM292 0l500 800h156l-500 -800h-156zM293 480q34 0 54 14t20 47v101q0 32 -20 47.5t-54 15.5t-55 -15.5t-21 -47.5v-101q0 -33 21 -47t55 -14z
M948 -12q-99 0 -160 38.5t-61 119.5v125q0 81 61.5 120.5t159.5 39.5q99 0 159 -39.5t60 -120.5v-125q0 -81 -60.5 -119.5t-158.5 -38.5zM948 94q34 0 54 14t20 47v108q0 32 -20 47.5t-54 15.5t-54.5 -15.5t-20.5 -47.5v-108q0 -33 20.5 -47t54.5 -14z" />
    <glyph glyph-name="perthousand" unicode="&#x2030;" horiz-adv-x="1610" 
d="M280 374q-87 0 -140.5 39t-53.5 120v117q0 81 53.5 120.5t140.5 39.5t139.5 -39.5t52.5 -120.5v-117q0 -81 -53 -120t-139 -39zM905 800l-500 -800h-156l500 800h156zM216 538q0 -32 17 -46t47 -14q28 0 45 14t17 46v107q0 31 -17 46t-45 15q-30 0 -47 -15t-17 -46v-107z
M1523 148q0 -81 -53 -120t-139 -39q-87 0 -140.5 39t-53.5 120v124q0 81 53.5 120.5t140.5 39.5t139.5 -39.5t52.5 -120.5v-124zM1067 148q0 -81 -53 -120t-139 -39q-87 0 -140.5 39t-53.5 120v124q0 81 53.5 120.5t140.5 39.5t139.5 -39.5t52.5 -120.5v-124zM811 156
q0 -33 16.5 -48t47.5 -15q28 0 45.5 15t17.5 48v111q0 31 -17.5 46t-45.5 15q-31 0 -47.5 -15t-16.5 -46v-111zM1267 156q0 -33 16.5 -48t47.5 -15q30 0 46.5 15t16.5 48v111q0 31 -16.5 46t-46.5 15q-31 0 -47.5 -15t-16.5 -46v-111z" />
    <glyph glyph-name="quotesingle" unicode="'" horiz-adv-x="700" 
d="M276 365l-34 435h216l-34 -435h-148z" />
    <glyph glyph-name="quotedbl" unicode="&#x22;" horiz-adv-x="1010" 
d="M616 365l-34 435h216l-34 -435h-148zM246 365l-34 435h216l-34 -435h-148z" />
    <glyph glyph-name="quoteleft" unicode="&#x2018;" horiz-adv-x="700" 
d="M172 365l243 435h114l-100 -435h-257z" />
    <glyph glyph-name="quoteleft" unicode="&#x2bb;" horiz-adv-x="700" 
d="M172 365l243 435h114l-100 -435h-257z" />
    <glyph glyph-name="quoteright" unicode="&#x2019;" horiz-adv-x="700" 
d="M171 365l100 435h257l-243 -435h-114z" />
    <glyph glyph-name="quotedblleft" unicode="&#x201c;" horiz-adv-x="1040" 
d="M527 365l243 435h111l-100 -435h-254zM164 365l243 435h111l-100 -435h-254z" />
    <glyph glyph-name="quotedblright" unicode="&#x201d;" horiz-adv-x="1040" 
d="M522 365l100 435h254l-243 -435h-111zM159 365l100 435h254l-243 -435h-111z" />
    <glyph glyph-name="quotereversed" unicode="&#x201b;" horiz-adv-x="700" 
d="M394 365l-243 435h258l99 -435h-114z" />
    <glyph glyph-name="quotesinglbase" unicode="&#x201a;" horiz-adv-x="700" 
d="M181 -165l80 435h257l-223 -435h-114z" />
    <glyph glyph-name="quotedblbase" unicode="&#x201e;" horiz-adv-x="1040" 
d="M522 -165l100 435h254l-243 -435h-111zM159 -165l100 435h254l-243 -435h-111z" />
    <glyph glyph-name="guilsinglleft" unicode="&#x2039;" horiz-adv-x="700" 
d="M535 44l-370 221v170l370 221v-151l-259 -155l259 -155v-151z" />
    <glyph glyph-name="guilsinglright" unicode="&#x203a;" horiz-adv-x="700" 
d="M165 44v151l259 155l-259 155v151l370 -221v-170z" />
    <glyph glyph-name="guillemotleft" unicode="&#xab;" horiz-adv-x="1040" 
d="M908 44l-370 221v170l370 221v-151l-259 -155l259 -155v-151zM503 44l-370 221v170l370 221v-151l-259 -155l259 -155v-151z" />
    <glyph glyph-name="guillemotright" unicode="&#xbb;" horiz-adv-x="1040" 
d="M133 44v151l258 155l-258 155v151l370 -221v-170zM538 44v151l258 155l-258 155v151l370 -221v-170z" />
    <glyph glyph-name="asterisk" unicode="*" horiz-adv-x="900" 
d="M672 266l-190 176l42 -242h-150l43 241l-189 -175l-75 130l242 105l-242 105l75 130l189 -176l-43 240h150l-42 -241l190 177l75 -130l-243 -105l243 -105z" />
    <glyph glyph-name="dagger" unicode="&#x2020;" horiz-adv-x="1000" 
d="M450 -200v675h-129l-40 -217h-122l30 342h258l-7 200h190l-7 -200h258l30 -342h-122l-40 217h-129v-675h-170z" />
    <glyph glyph-name="daggerdbl" unicode="&#x2021;" horiz-adv-x="1000" 
d="M440 -200l7 179h-258l-30 251h122l40 -126h129v392h-129l-40 -126h-122l30 251h258l-7 179h190l-7 -179h258l30 -251h-122l-40 126h-129v-392h129l40 126h122l-30 -251h-258l7 -179h-190z" />
    <glyph glyph-name="period" unicode="." horiz-adv-x="700" 
d="M351 -10q-63 0 -101 27.5t-38 78.5v69q0 52 38 80t101 28q62 0 100 -28t38 -80v-69q0 -51 -39 -78.5t-99 -27.5z" />
    <glyph glyph-name="comma" unicode="," horiz-adv-x="700" 
d="M181 -165l80 435h257l-223 -435h-114z" />
    <glyph glyph-name="colon" unicode=":" horiz-adv-x="700" 
d="M351 387q-57 0 -93 24.5t-36 70.5v55q0 47 36 72t93 25t92 -25t35 -72v-55q0 -46 -36 -70.5t-91 -24.5zM351 -6q-57 0 -93 24.5t-36 70.5v55q0 47 36 72t93 25t92 -25t35 -72v-55q0 -46 -36 -70.5t-91 -24.5z" />
    <glyph glyph-name="semicolon" unicode=";" horiz-adv-x="700" 
d="M351 387q-57 0 -93 24.5t-36 70.5v55q0 47 36 72t93 25t92 -25t35 -72v-55q0 -46 -36 -70.5t-91 -24.5zM194 -150l74 405h238l-207 -405h-105z" />
    <glyph glyph-name="ellipsis" unicode="&#x2026;" horiz-adv-x="1690" 
d="M1354 -10q-63 0 -101 27.5t-38 78.5v69q0 52 38 80t101 28q62 0 100 -28t38 -80v-69q0 -51 -39 -78.5t-99 -27.5zM814 -10q-63 0 -101 27.5t-38 78.5v69q0 52 38 80t101 28q62 0 100 -28t38 -80v-69q0 -51 -39 -78.5t-99 -27.5zM274 -10q-63 0 -101 27.5t-38 78.5v69
q0 52 38 80t101 28q62 0 100 -28t38 -80v-69q0 -51 -39 -78.5t-99 -27.5z" />
    <glyph glyph-name="exclam" unicode="!" 
d="M307 300l-30 500h210l-30 -500h-150zM386 -10q-66 0 -99 20.5t-33 63.5v28q0 44 33 65t99 21t98.5 -21t32.5 -65v-28q0 -43 -33.5 -63.5t-97.5 -20.5z" />
    <glyph glyph-name="exclamdown" unicode="&#xa1;" 
d="M385 810q66 0 99 -20.5t33 -63.5v-28q0 -44 -33 -65t-99 -21t-98.5 21t-32.5 65v28q0 43 33.5 63.5t97.5 20.5zM465 500l30 -500h-210l30 500h150z" />
    <glyph glyph-name="exclamdbl" unicode="&#x203c;" horiz-adv-x="1100" 
d="M707 300l-30 500h210l-30 -500h-150zM786 -10q-66 0 -99 20.5t-33 63.5v28q0 44 33 65t99 21t98.5 -21t32.5 -65v-28q0 -43 -33.5 -63.5t-97.5 -20.5zM237 300l-30 500h210l-30 -500h-150zM316 -10q-66 0 -99 20.5t-33 63.5v28q0 44 33 65t99 21t98.5 -21t32.5 -65v-28
q0 -43 -33.5 -63.5t-97.5 -20.5z" />
    <glyph glyph-name="question" unicode="?" horiz-adv-x="1000" 
d="M420 278l-20 116q174 28 232 63t58 95v23q0 52 -31 81t-124 29q-96 0 -127 -30t-38 -106l-170 10q7 132 86 191.5t248 59.5q164 0 245 -65.5t81 -160.5v-36q0 -119 -104.5 -177.5t-335.5 -92.5zM487 -10q-66 0 -98.5 20.5t-32.5 63.5v28q0 44 32.5 65t98.5 21t99 -21
t33 -65v-28q0 -43 -34 -63.5t-98 -20.5z" />
    <glyph glyph-name="questiondown" unicode="&#xbf;" horiz-adv-x="1000" 
d="M573 810q66 0 99 -20.5t33 -63.5v-28q0 -44 -33 -65t-99 -21t-98.5 21t-32.5 65v28q0 43 33.5 63.5t97.5 20.5zM640 522l20 -116q-174 -28 -232 -63t-58 -95v-23q0 -52 31 -81t124 -29q96 0 127 30t38 106l170 -10q-7 -131 -86 -191t-248 -60q-164 0 -245 65.5t-81 161.5
v35q0 119 104.5 177.5t335.5 92.5z" />
    <glyph glyph-name="slash" unicode="/" horiz-adv-x="700" 
d="M79 -200l400 1000h142l-400 -1000h-142z" />
    <glyph glyph-name="backslash" unicode="\" horiz-adv-x="700" 
d="M479 -199l-400 1000l142 -1l400 -1000z" />
    <glyph glyph-name="fraction" unicode="&#x2215;" horiz-adv-x="342" 
d="M-100 0l400 800h142l-400 -800h-142z" />
    <glyph glyph-name="fraction" unicode="&#x2044;" horiz-adv-x="342" 
d="M-100 0l400 800h142l-400 -800h-142z" />
    <glyph glyph-name="bar" unicode="|" horiz-adv-x="700" 
d="M281 -200v1000h139v-1000h-139z" />
    <glyph glyph-name="brokenbar" unicode="&#xa6;" horiz-adv-x="700" 
d="M281 400v400h139v-400h-139zM281 -200v400h139v-400h-139z" />
    <glyph glyph-name="at" unicode="@" horiz-adv-x="1070" 
d="M613 -110q-222 0 -331.5 95t-109.5 252v256q0 143 94 230t285 87q167 0 257 -81.5t90 -225.5v-216q-6 -87 -68 -128.5t-177 -41.5q-122 0 -179 47.5t-57 131.5v94q0 83 51 133t135 50q58 0 93.5 -20t51.5 -49h30q-2 103 -51.5 154t-176.5 51q-132 0 -189 -56.5
t-57 -159.5v-249q0 -118 72 -183.5t237 -65.5q59 0 109 8.5t93 21.5v-105q-41 -11 -95.5 -20.5t-106.5 -9.5zM657 218q37 0 58 15.5t21 64.5v84q0 48 -22 69t-57 21q-37 0 -58.5 -21t-21.5 -71v-74q0 -47 20 -67.5t60 -20.5z" />
    <glyph glyph-name="ampersand" unicode="&#x26;" horiz-adv-x="900" 
d="M838 -17q-62 16 -120.5 42t-110.5 57q-49 -44 -108 -68t-136 -24q-122 0 -192.5 55t-70.5 159q0 68 37.5 122.5t118.5 100.5q-28 47 -42 89t-14 75q0 101 64.5 160.5t174.5 59.5q96 0 158.5 -51.5t62.5 -129.5q0 -75 -51.5 -125t-188.5 -98q10 -15 21 -29.5t23 -28.5
q26 -30 56 -58.5t62 -54.5q23 37 46.5 84.5t47.5 106.5l131 -32q-32 -67 -71 -125.5t-78 -106.5l209 -60zM356 590q0 -26 6.5 -53t16.5 -54q73 31 104 63t31 75q0 37 -19.5 57.5t-56.5 20.5q-43 0 -62.5 -29.5t-19.5 -79.5zM395 101q31 0 59.5 11t55.5 35q-41 31 -78.5 65.5
t-68.5 68.5q-13 13 -24 27.5t-21 28.5q-22 -27 -35 -60t-13 -66q0 -57 32 -83.5t93 -26.5z" />
    <glyph glyph-name="section" unicode="&#xa7;" horiz-adv-x="1040" 
d="M510 223q10 -2 19 -4l18 -4q49 1 88.5 16.5t39.5 54.5q0 44 -41.5 60t-98.5 28q-10 2 -19 4l-18 4q-49 -1 -88.5 -16.5t-39.5 -54.5q0 -44 41.5 -60t98.5 -28zM538 -207q-90 0 -175.5 26t-141.5 68l50 123q62 -42 128 -63.5t144 -21.5q56 0 97.5 15t41.5 51
q0 46 -56.5 62.5t-127.5 31.5q-142 28 -220 70.5t-78 137.5q0 52 38.5 86t98.5 52q-66 29 -101.5 71.5t-35.5 107.5q0 104 95.5 149t211.5 45q90 0 173.5 -26t143.5 -68l-57 -116q-63 38 -125.5 58t-139.5 20q-69 0 -103.5 -19t-34.5 -53q0 -43 60.5 -59t158.5 -37
q115 -22 188.5 -63.5t73.5 -136.5q0 -54 -32.5 -90.5t-83.5 -56.5q57 -29 86.5 -69.5t29.5 -100.5q0 -99 -89.5 -146.5t-217.5 -47.5z" />
    <glyph glyph-name="paragraph" unicode="&#xb6;" horiz-adv-x="1040" 
d="M670 340h-100v-540h-170v540q-90 0 -160 44.5t-70 152.5v52q0 110 69.5 160.5t159.5 50.5h441v-1000h-170v540z" />
    <glyph glyph-name="lsquare" unicode="&#x2113;" horiz-adv-x="730" 
d="M354 361q17 0 29 2.5t21 9.5q10 8 16.5 21t10.5 34l30 173q3 20 2 34.5t-7 23.5q-5 10 -16.5 14.5t-29.5 4.5q-17 0 -29.5 -2.5t-21.5 -10.5q-10 -7 -16.5 -21t-10.5 -37l-32 -184q-3 -16 -1 -27.5t8 -19.5q7 -7 18.5 -11t28.5 -4zM537 43q-27 -12 -54.5 -21.5
t-54.5 -15.5q-27 -7 -54 -10t-53 -3q-58 0 -103.5 15t-76.5 46t-42.5 78.5t-0.5 110.5l65 370q9 53 32.5 91t58.5 61q34 24 77 34.5t93 10.5q62 0 105.5 -11t69.5 -35q26 -23 34.5 -61.5t-1.5 -93.5l-35 -202q-7 -40 -26.5 -70t-48.5 -49q-30 -19 -67 -28.5t-80 -9.5
q-16 0 -30 1.5t-27 4.5t-24 7t-20 10l-8 -43q-4 -26 0.5 -46t17.5 -33q12 -13 31.5 -19t44.5 -6q18 0 38.5 3t43.5 10q23 6 47 15t48 20v-131z" />
    <glyph glyph-name="numero" unicode="&#x2116;" horiz-adv-x="1340" 
d="M1005 293q-101 0 -168 54t-67 166v73q0 113 67.5 168.5t168.5 55.5t167.5 -55.5t66.5 -168.5v-73q0 -112 -67 -166t-168 -54zM1005 416q44 0 63 21.5t19 72.5v87q0 45 -19 67.5t-63 22.5t-63 -23t-19 -69v-85q0 -51 19.5 -72.5t62.5 -21.5zM246 603v-603h-146v800h207
l217 -644v644h146v-800h-220z" />
    <glyph glyph-name="periodcentered" unicode="&#x2219;" horiz-adv-x="700" 
d="M351 259q-63 0 -101 27t-38 78v70q0 51 38 79.5t101 28.5q62 0 100 -28.5t38 -79.5v-70q0 -51 -39 -78t-99 -27z" />
    <glyph glyph-name="periodcentered" unicode="&#xb7;" horiz-adv-x="700" 
d="M351 259q-63 0 -101 27t-38 78v70q0 51 38 79.5t101 28.5q62 0 100 -28.5t38 -79.5v-70q0 -51 -39 -78t-99 -27z" />
    <glyph glyph-name="bullet" unicode="&#x2022;" horiz-adv-x="900" 
d="M451 236q-75 0 -121.5 30.5t-46.5 95.5v72q0 66 46.5 97.5t121.5 31.5t121 -31.5t46 -97.5v-72q0 -65 -47 -95.5t-120 -30.5z" />
    <glyph glyph-name="anoteleia" unicode="&#x387;" horiz-adv-x="700" 
d="M351 259q-63 0 -101 27t-38 78v70q0 51 38 79.5t101 28.5q62 0 100 -28.5t38 -79.5v-70q0 -51 -39 -78t-99 -27z" />
    <glyph glyph-name="underscoredbl" unicode="&#x2017;" horiz-adv-x="900" 
d="M100 0v149h700v-149h-700zM100 -270v149h700v-149h-700z" />
    <glyph glyph-name="minute" unicode="&#x2032;" horiz-adv-x="700" 
d="M171 365l100 435h257l-243 -435h-114z" />
    <glyph glyph-name="second" unicode="&#x2033;" horiz-adv-x="1040" 
d="M522 365l100 435h254l-243 -435h-111zM159 365l100 435h254l-243 -435h-111z" />
    <glyph glyph-name="overline" unicode="&#x203e;" horiz-adv-x="900" 
d="M100 851v149h700v-149h-700z" />
    <glyph glyph-name="plus" unicode="+" horiz-adv-x="900" 
d="M379 0v279h-279v142h279v279h142v-279h279v-142h-279v-279h-142z" />
    <glyph glyph-name="minus" unicode="&#x2212;" horiz-adv-x="900" 
d="M100 279v142h700v-142h-700z" />
    <glyph glyph-name="plusminus" unicode="&#xb1;" horiz-adv-x="900" 
d="M379 100v279h-279v142h279v279h142v-279h279v-142h-279v-279h-142zM100 0v142h700v-142h-700z" />
    <glyph glyph-name="divide" unicode="&#xf7;" horiz-adv-x="900" 
d="M450 516q-44 0 -71.5 17.5t-27.5 55.5v19q0 39 27.5 57.5t71.5 18.5t71 -18.5t27 -57.5v-19q0 -38 -27.5 -55.5t-70.5 -17.5zM100 286v128h700v-128h-700zM450 16q-44 0 -71.5 17.5t-27.5 55.5v19q0 39 27.5 57.5t71.5 18.5t71 -18.5t27 -57.5v-19q0 -38 -27.5 -55.5
t-70.5 -17.5z" />
    <glyph glyph-name="multiply" unicode="&#xd7;" horiz-adv-x="900" 
d="M219 27l-91 91l231 232l-231 233l91 91l231 -233l231 231l91 -91l-231 -231l231 -231l-91 -91l-231 231z" />
    <glyph glyph-name="equal" unicode="=" horiz-adv-x="900" 
d="M100 433v142h700v-142h-700zM100 125v142h700v-142h-700z" />
    <glyph glyph-name="less" unicode="&#x3c;" horiz-adv-x="900" 
d="M750 0l-600 265v170l600 265v-137l-481 -213l481 -213v-137z" />
    <glyph glyph-name="greater" unicode="&#x3e;" horiz-adv-x="900" 
d="M150 0v130l497 220l-497 220v130l600 -265v-170z" />
    <glyph glyph-name="lessequal" unicode="&#x2264;" horiz-adv-x="900" 
d="M750 200l-600 215v170l600 215v-137l-452 -163l452 -163v-137zM150 0v122h600v-122h-600z" />
    <glyph glyph-name="greaterequal" unicode="&#x2265;" horiz-adv-x="900" 
d="M150 200v137l452 163l-452 163v137l600 -215v-170zM750 0h-600v122h600v-122z" />
    <glyph glyph-name="approxequal" unicode="&#x2248;" horiz-adv-x="900" 
d="M605 383q-35 0 -63 8t-49 22q-22 14 -40 33.5t-36 45.5q-27 38 -37 52t-24 28q-14 13 -31 20.5t-38 7.5q-18 0 -32 -6t-24 -18q-10 -13 -15 -33.5t-5 -49.5v-79h-132v85q0 55 15 98.5t44 73.5q28 30 68 45t89 15q35 0 63 -8t50 -22t39.5 -33t35.5 -45q24 -35 36 -51
t26 -30q14 -13 31 -20.5t39 -7.5q17 0 30.5 6t23.5 18q10 13 15 34t5 50v78h132v-85q0 -55 -15 -98.5t-44 -73.5q-28 -30 -68 -45t-89 -15zM603 -17q-34 0 -61.5 8t-49.5 22q-21 15 -38.5 34t-35.5 45q-26 37 -36.5 52t-24.5 29q-14 13 -31 20.5t-39 7.5q-18 0 -32 -6
t-24 -19t-15 -33.5t-5 -49.5v-79h-132v85q0 55 15 98.5t44 73.5q28 30 68 45t89 15q35 0 63 -8t50 -22t39.5 -33t35.5 -45q24 -35 36 -51t26 -30q14 -13 31 -20.5t39 -7.5q17 0 30.5 6t23.5 18q10 13 15 34t5 50v78h132v-85q0 -56 -15 -99t-44 -73q-28 -30 -68.5 -45
t-90.5 -15z" />
    <glyph glyph-name="notequal" unicode="&#x2260;" horiz-adv-x="900" 
d="M800 173h-343l-43 -173h-128l43 173h-229v135h263l46 185h-309v135h343l43 172h128l-43 -172h229v-135h-263l-46 -185h309v-135z" />
    <glyph glyph-name="logicalnot" unicode="&#xac;" horiz-adv-x="900" 
d="M658 0v279h-558v142h700v-421h-142z" />
    <glyph glyph-name="uni23af" unicode="&#x23af;" horiz-adv-x="1000" 
d="M-150 315v170h1300v-170h-1300z" />
    <glyph glyph-name="arrowleft" unicode="&#x2190;" horiz-adv-x="1170" 
d="M550 40l-400 350v20l400 350h20v-275h450v-170h-450v-275h-20z" />
    <glyph glyph-name="arrowup" unicode="&#x2191;" horiz-adv-x="900" 
d="M365 -35v450h-275v20l350 400h20l350 -400v-20h-275v-450h-170z" />
    <glyph glyph-name="arrowright" unicode="&#x2192;" horiz-adv-x="1170" 
d="M600 40v275h-450v170h450v275h20l400 -350v-20l-400 -350h-20z" />
    <glyph glyph-name="arrowdown" unicode="&#x2193;" horiz-adv-x="900" 
d="M440 -70l-350 400v20h275v450h170v-450h275v-20l-350 -400h-20z" />
    <glyph glyph-name="arrowboth" unicode="&#x2194;" horiz-adv-x="1370" 
d="M535 315v-275h-20l-365 350v20l365 350h20v-275h300v275h20l365 -350v-20l-365 -350h-20v275h-300z" />
    <glyph glyph-name="partialdiff" unicode="&#x2202;" 
d="M325 -10q-65 0 -115.5 14.5t-83.5 43.5q-33 30 -45 74.5t-1 103.5l11 58q9 49 32 88.5t59 67.5q35 28 79.5 42.5t95.5 14.5q31 0 56 -5.5t44 -15.5t31.5 -23.5t17.5 -28.5h21q6 60 -6.5 102.5t-44.5 74.5q-33 31 -88 55t-140 47l120 114q102 -28 169.5 -67.5t104.5 -93.5
q37 -53 45.5 -124t-8.5 -164l-25 -136q-12 -62 -40.5 -108t-70.5 -76q-43 -29 -97.5 -43.5t-120.5 -14.5zM346 114q31 0 53.5 6.5t38.5 18.5q16 13 26 32.5t15 45.5l13 63q5 24 2 41t-14 28q-12 12 -33 17.5t-52 5.5t-54 -5.5t-38 -17.5q-16 -11 -25.5 -28t-14.5 -41
l-13 -63q-5 -26 -2.5 -45t13.5 -32t32 -19.5t53 -6.5z" />
    <glyph glyph-name="Delta#1" unicode="&#x2206;" horiz-adv-x="800" 
d="M33 0v132l254 668h231l249 -668v-132h-734zM592 132l-196 556l-202 -556h398z" />
    <glyph glyph-name="product" unicode="&#x220f;" horiz-adv-x="870" 
d="M100 -200v1000h670v-1000h-170v868h-330v-868h-170z" />
    <glyph glyph-name="summation" unicode="&#x2211;" 
d="M690 -68v-132h-620v132l388 378l-388 358v132h620v-132h-445l328 -299v-106l-341 -331h458z" />
    <glyph glyph-name="mu1" unicode="&#xb5;" horiz-adv-x="870" 
d="M270 20l10 -220h-190l10 220v580h170v-383q0 -49 30 -69.5t73 -20.5q40 0 71 13t56 41v419h170v-405q0 -54 31 -66t89 -5v-121q-75 -16 -134.5 -1t-83.5 84h-27q-22 -40 -62 -68t-100 -28q-34 0 -63.5 13.5t-49.5 41.5v-25z" />
    <glyph glyph-name="radical" unicode="&#x221a;" 
d="M337 0l-155 362l-131 -19v127l215 30l146 -362l173 762h162l-215 -900h-195z" />
    <glyph glyph-name="infinity" unicode="&#x221e;" horiz-adv-x="1000" 
d="M289 99q-42 0 -80 19.5t-67 58.5q-29 38 -46 94.5t-17 127.5q0 72 18 129t50 95q32 39 73.5 58.5t87.5 19.5q41 0 73.5 -12.5t58.5 -33.5q25 -22 44.5 -50.5t35.5 -64.5q18 36 37 64.5t43 50.5q23 21 52.5 33.5t64.5 12.5q40 0 77 -20t65 -58q29 -39 45.5 -95.5
t16.5 -126.5q0 -72 -18 -128.5t-50 -95.5t-74.5 -58.5t-90.5 -19.5q-39 0 -71.5 12t-57.5 34q-25 21 -44 49.5t-35 63.5q-18 -36 -36.5 -64t-41.5 -49q-22 -22 -50.5 -34t-62.5 -12zM691 230q19 0 35 9.5t28 29.5t18.5 53t6.5 78q-1 46 -8 78.5t-18 53.5q-12 20 -27.5 29
t-34.5 9q-21 0 -39.5 -10t-33.5 -28q-16 -18 -30 -42t-29 -55q21 -65 30.5 -91.5t23.5 -53.5q15 -28 34 -44t44 -16zM309 230q21 0 39 10t34 27q16 18 30 41.5t29 54.5q-26 78 -33.5 98.5t-21.5 48.5t-33 44t-44 16q-19 0 -35 -9.5t-28 -29.5t-18.5 -53t-6.5 -78
q1 -46 8 -78.5t18 -53.5q12 -20 27.5 -29t34.5 -9z" />
    <glyph glyph-name="orthogonal" unicode="&#x221f;" horiz-adv-x="830" 
d="M121 0v700h170v-561h444v-139h-614z" />
    <glyph glyph-name="intersection" unicode="&#x2229;" horiz-adv-x="970" 
d="M164 0v444q0 66 23.5 116.5t67.5 83.5q43 33 102 49.5t129 16.5t128.5 -16.5t101.5 -49.5t66.5 -83.5t23.5 -116.5v-444h-170v434q0 37 -8.5 64t-26.5 45q-18 17 -46.5 26t-69.5 9q-40 0 -69 -9t-47 -27t-26.5 -45.5t-8.5 -64.5v-432h-170z" />
    <glyph glyph-name="integral" unicode="&#x222b;" 
d="M227 -205q-19 0 -38 1.5t-36 4.5q-18 3 -35 7t-34 10l20 114q15 -5 29 -8.5t27 -5.5q12 -3 24 -4t23 -1q24 0 41.5 6t28.5 19q12 13 17.5 35t5.5 53v593q0 52 18.5 92t51.5 66q33 27 77 40t94 13q19 0 37.5 -1.5t37.5 -4.5q18 -3 35 -7t34 -10l-20 -114q-14 5 -27.5 8.5
t-26.5 5.5q-13 3 -25 4t-24 1q-24 0 -41 -6t-28 -19q-12 -13 -17.5 -35t-5.5 -53v-593q0 -52 -18.5 -92t-52.5 -66q-33 -27 -77 -40t-95 -13z" />
    <glyph glyph-name="equivalence" unicode="&#x2261;" horiz-adv-x="900" 
d="M100 514v142h700v-142h-700zM100 272v142h700v-142h-700zM100 30v142h700v-142h-700z" />
    <glyph glyph-name="integralbt" unicode="&#x2321;" horiz-adv-x="700" 
d="M229 -205q-17 0 -35.5 1.5t-37.5 4.5q-19 2 -37.5 6.5t-34.5 10.5l20 114q15 -5 29 -8.5t27 -5.5q12 -3 24 -4t23 -1q24 0 41.5 6.5t29.5 19.5q11 14 16.5 35.5t5.5 51.5v774h170v-794q0 -53 -19 -93t-52 -66q-34 -26 -77.5 -39t-92.5 -13z" />
    <glyph glyph-name="dollar" unicode="$" 
d="M249 563q0 -30 20.5 -49.5t71.5 -33.5v158q-47 -4 -69.5 -21t-22.5 -54zM537 239q0 31 -24 51t-84 35v-166q56 2 82 21t26 59zM439 -50h-108v94q-84 7 -144.5 29.5t-106.5 51.5l39 116q46 -28 98 -50.5t124 -29.5v181q-134 23 -190 68t-56 132t58.5 144.5t177.5 68.5v95
h108v-94q61 -6 120 -24.5t94 -43.5l-32 -112q-46 25 -91 40.5t-101 20.5v-175q145 -25 204 -72t59 -135q0 -93 -67 -148t-186 -64v-93z" />
    <glyph glyph-name="cent" unicode="&#xa2;" 
d="M263 331q0 -55 19.5 -84t65.5 -36v377q-46 -7 -65.5 -35.5t-19.5 -83.5v-138zM334 -50v143q-116 11 -175 71t-59 163v150q0 104 61 162t173 68v143h108v-142q108 -11 161 -67.5t64 -153.5l-156 -13q-4 55 -23 81t-59 33v-378q44 6 61 29.5t21 76.5l156 -13
q-7 -95 -56.5 -148.5t-168.5 -62.5v-142h-108z" />
    <glyph glyph-name="sterling" unicode="&#xa3;" horiz-adv-x="870" 
d="M797 259q-7 -131 -75 -200t-184 -69q-47 0 -91 17.5t-84 34.5q-41 17 -78 24t-71 -15l-92 -60l-74 106l99 60q35 21 61.5 62.5t26.5 81.5q0 18 -3.5 33.5t-10.5 29.5h-147v97h91q-13 23 -22.5 49.5t-9.5 58.5q0 108 81 174.5t229 66.5q167 0 240.5 -66t80.5 -197
l-170 -10q-6 69 -35 101.5t-116 32.5q-75 0 -107 -27.5t-32 -76.5q0 -28 13 -54t29 -52h182v-97h-130q4 -13 6.5 -26.5t2.5 -28.5q0 -38 -31.5 -68.5t-100.5 -61.5l17 -32q41 22 74.5 23t61.5 -6q29 -7 55.5 -16.5t54.5 -9.5q51 0 67 31t22 100z" />
    <glyph glyph-name="currency" unicode="&#xa4;" horiz-adv-x="900" 
d="M450 222q54 0 81 22t27 73v162q0 51 -27 75t-81 24t-81 -24t-27 -75v-162q0 -51 27 -73t81 -22zM450 90q-54 0 -100.5 12t-80.5 37l-108 -110l-77 77l118 119q-8 20 -12 43t-4 49v162q0 27 4.5 51t12.5 44l-119 120l77 77l109 -110q34 25 80.5 37t100.5 12
q56 0 102 -12.5t80 -37.5l106 106l77 -77l-117 -117q7 -20 11 -43.5t4 -49.5v-162q0 -22 -3 -43t-9 -39l114 -124l-77 -77l-105 106q-34 -25 -81 -37.5t-103 -12.5z" />
    <glyph glyph-name="yen" unicode="&#xa5;" horiz-adv-x="800" 
d="M685 100h-200v-100h-170v100h-200v97h200v103h-200v97h144l-233 403h179l198 -367l200 367h171l-233 -403h144v-97h-200v-103h200v-97z" />
    <glyph glyph-name="franc" unicode="&#x20a3;" 
d="M435 150h-165v-150h-170v150h-100v111h100v539h590v-132h-420v-147h350v-132h-350v-128h165v-111z" />
    <glyph glyph-name="lira" unicode="&#x20a4;" horiz-adv-x="870" 
d="M797 259q-4 -66 -23 -116t-52 -84t-79.5 -51.5t-104.5 -17.5q-22 0 -44.5 4.5t-44.5 11.5q-21 8 -26.5 10.5t-59.5 25.5q-24 10 -42.5 16t-36.5 8q-19 2 -36.5 -1.5t-33.5 -13.5l-92 -60l-74 106l99 60q15 9 29.5 23t25.5 30q12 17 20 35t11 36h-159v94h139
q-2 5 -4.5 9.5t-4.5 7.5q-1 3 -5.5 10.5t-6.5 11.5q-5 7 -9 14t-7 14q-4 7 -8 14.5t-7 14.5h-87v94h60q0 3 -0.5 5.5t-0.5 4.5v5.5v6.5q0 48 20.5 88.5t60.5 71.5q40 30 98 46.5t131 16.5q84 0 143 -16.5t97 -48.5q38 -33 57.5 -82t23.5 -116l-170 -10q-3 37 -11 61.5
t-24 40.5q-17 16 -45 24t-71 8q-37 0 -63.5 -7t-43.5 -20q-16 -14 -24 -33t-8 -44v-2h210v-94h-176q3 -4 5 -7.5t4 -6.5q3 -3 5.5 -6.5t4.5 -7.5q6 -9 11.5 -16.5t10.5 -16.5q5 -8 9 -17l8 -18h118v-94h-112q-4 -14 -14 -27t-26 -26q-16 -12 -37.5 -24t-49.5 -25l17 -32
q20 11 38.5 16.5t34.5 6.5q17 2 32 0t31 -6q12 -3 37 -10.5t29 -9.5q5 -1 18 -3.5t26 -2.5q26 0 42 7.5t25 22.5q9 16 14 39.5t8 61.5z" />
    <glyph glyph-name="peseta" unicode="&#x20a7;" horiz-adv-x="1200" 
d="M212 381h68q22 0 38 6t27 19q11 14 17 35.5t6 51.5v79q0 30 -6 51.5t-17 34.5t-27 19t-38 6h-68v-302zM1117 164q0 -44 -14.5 -77t-39.5 -55q-25 -21 -57 -31.5t-68 -10.5q-15 0 -29.5 1.5t-29.5 4.5q-14 4 -28 8.5t-28 10.5l1 -6q-3 -1 -15 -4t-27 -6q-15 -4 -29.5 -6
t-23.5 -2q-35 0 -64 12t-51 38t-34 68t-12 101v277l-75 7v-16q0 -63 -18 -105t-48 -65t-67 -32t-80 -9h-68v-267h-125v800h194q40 0 75.5 -8.5t64.5 -30.5q30 -22 49 -62t22 -99h76v200h125v-200h120v-61q11 18 25.5 31.5t31.5 21.5q17 9 36.5 13.5t39.5 4.5q19 0 39 -3
t39 -9q19 -7 37 -16t34 -20l-45 -101q-13 9 -25 15t-24 11q-11 4 -22.5 6t-23.5 2q-11 0 -19 -3t-14 -10q-5 -6 -8 -16t-3 -23q0 -20 8.5 -36.5t22.5 -30.5q14 -13 23.5 -20.5t48.5 -34.5q24 -17 41 -31.5t31 -33.5q14 -18 22.5 -41t8.5 -51zM821 139q12 -8 26.5 -14
t29.5 -11q16 -4 31 -6.5t30 -2.5q10 0 19.5 2.5t17.5 7.5q8 6 12.5 16.5t4.5 25.5t-8 28t-22 25q-13 11 -40.5 30t-31.5 22q-23 16 -40.5 32.5t-31.5 37.5q-14 20 -22.5 46t-8.5 58q0 7 0.5 13t0.5 12q1 7 2 12.5t2 11.5h-99v-276q0 -23 2.5 -41.5t7.5 -31.5t13 -20t19 -7
q5 0 14.5 2t20.5 4q10 3 18.5 5.5t10.5 3.5l5 -24z" />
    <glyph glyph-name="Euro" unicode="&#x20ac;" horiz-adv-x="870" 
d="M468 -10q-163 0 -245 67.5t-82 191.5v2h-101v93h100v110h-100v93h101v2q0 125 82.5 193t245.5 68q159 0 239 -68t89 -209l-163 -10q-10 93 -46 127.5t-120 34.5q-85 0 -124.5 -30t-39.5 -106v-2h194v-93h-195v-110h195v-93h-194v-2q0 -75 39 -104.5t125 -29.5
q84 0 120 34t46 124l163 -10q-9 -140 -89.5 -206.5t-239.5 -66.5z" />
    <glyph glyph-name="florin" unicode="&#x192;" 
d="M232 -5q-18 0 -37 1.5t-39 4.5q-19 2 -37.5 6.5t-34.5 10.5l20 114q15 -5 29 -8.5t27 -5.5q12 -3 24 -4t23 -1q24 0 41 5.5t28 16.5q12 12 17.5 30.5t5.5 45.5v185h-202v125h203v113q0 45 16.5 81.5t47.5 61.5q31 26 75 39.5t99 13.5q18 0 37 -1.5t38 -4.5
q19 -2 37.5 -6.5t34.5 -10.5l-20 -114q-14 5 -28 8.5t-27 5.5q-13 3 -25 4t-23 1q-23 0 -40.5 -5.5t-28.5 -17.5q-11 -11 -17 -30t-6 -45v-93h206v-125h-206v-205q0 -45 -16 -81.5t-47 -62.5q-31 -25 -75.5 -38.5t-99.5 -13.5z" />
    <glyph glyph-name="asciicircum" unicode="^" horiz-adv-x="970" 
d="M705 200l-220 440l-220 -440h-165l300 600h170l300 -600h-165z" />
    <glyph glyph-name="asciitilde" unicode="~" horiz-adv-x="970" 
d="M647 196q-73 0 -120.5 34t-84.5 86q-39 56 -64.5 87.5t-59.5 31.5q-36 0 -52 -28.5t-16 -103.5v-97h-150v103q0 140 57.5 217.5t167.5 77.5q75 0 122.5 -33.5t84.5 -85.5q38 -56 62 -87.5t57 -31.5q39 0 55.5 30t16.5 110v88h147v-93q0 -157 -59 -231t-164 -74z" />
    <glyph glyph-name="acute" unicode="&#xb4;" horiz-adv-x="700" 
d="M222 700l115 200h220l-216 -200h-119z" />
    <glyph glyph-name="grave" unicode="`" horiz-adv-x="700" 
d="M394 365l-243 435h258l99 -435h-114z" />
    <glyph glyph-name="hungarumlaut" unicode="&#x2dd;" horiz-adv-x="700" 
d="M398 700l49 200h175l-132 -200h-92zM168 700l49 200h175l-132 -200h-92z" />
    <glyph glyph-name="circumflex" unicode="&#x2c6;" horiz-adv-x="700" 
d="M159 690l-55 78l181 156h128l183 -156l-54 -77l-193 108z" />
    <glyph glyph-name="caron" unicode="&#x2c7;" horiz-adv-x="700" 
d="M287 704l-183 156l54 77l193 -108l190 109l55 -78l-181 -156h-128z" />
    <glyph glyph-name="breve" unicode="&#x2d8;" horiz-adv-x="700" 
d="M350 693q-124 0 -190 55.5t-67 175.5h142q1 -69 28 -96.5t87 -27.5t87 27.5t28 96.5h142q-1 -120 -67 -175.5t-190 -55.5z" />
    <glyph glyph-name="tilde" unicode="&#x2dc;" horiz-adv-x="700" 
d="M441 710q-44 0 -69.5 16t-42.5 34q-16 19 -30.5 34.5t-33.5 15.5q-17 0 -30 -15.5t-12 -64.5v-10h-112v15q0 81 39.5 135t109.5 54q46 0 71.5 -15.5t42.5 -34.5t31 -35t31 -16t30 15.5t12 65.5v9h112v-15q0 -80 -39.5 -134t-109.5 -54z" />
    <glyph glyph-name="macron" unicode="&#x2c9;" horiz-adv-x="700" 
d="M132 734v132h436v-132h-436z" />
    <glyph glyph-name="macron" unicode="&#xaf;" horiz-adv-x="700" 
d="M132 734v132h436v-132h-436z" />
    <glyph glyph-name="dieresis" unicode="&#xa8;" horiz-adv-x="700" 
d="M224 696q-39 0 -63.5 15.5t-24.5 54.5v13q0 40 24.5 56.5t63.5 16.5q40 0 64.5 -16.5t24.5 -56.5v-13q0 -39 -25 -54.5t-64 -15.5zM476 696q-40 0 -64.5 15.5t-24.5 54.5v13q0 40 24.5 56.5t64.5 16.5t64 -16.5t24 -56.5v-13q0 -39 -25 -54.5t-63 -15.5z" />
    <glyph glyph-name="dotaccent" unicode="&#x2d9;" horiz-adv-x="700" 
d="M350 696q-51 0 -83 15.5t-32 54.5v13q0 40 32 56.5t83 16.5t83 -16.5t32 -56.5v-13q0 -39 -32 -54.5t-83 -15.5z" />
    <glyph glyph-name="ring" unicode="&#x2da;" horiz-adv-x="700" 
d="M350 678q-87 0 -141 37t-54 115v32q0 78 54 116.5t141 38.5q88 0 141.5 -38.5t53.5 -116.5v-32q0 -78 -54 -115t-141 -37zM350 763q37 0 56 15t19 52v32q0 36 -19 53t-56 17t-56 -17t-19 -53v-32q0 -37 19 -52t56 -15z" />
    <glyph glyph-name="cedilla" unicode="&#xb8;" horiz-adv-x="700" 
d="M320 0l20 42q73 -8 123 -36t50 -95q0 -72 -60 -103t-135 -31q-87 0 -142 29t-60 98l144 10q2 -19 13.5 -26.5t37.5 -7.5q28 0 42 11t14 45q0 28 -10 42.5t-37 21.5z" />
    <glyph glyph-name="ogonek" unicode="&#x2db;" horiz-adv-x="700" 
d="M378 -221q-78 0 -125 31.5t-47 93.5q0 61 47.5 104.5t102.5 59.5l27 -45q-34 -21 -43 -41.5t-9 -39.5q0 -26 18 -39t56 -13q18 0 43 2.5t50 7.5v-109q-31 -6 -62 -9t-58 -3z" />
    <glyph glyph-name="tonos" unicode="&#x384;" horiz-adv-x="700" 
d="M262 700l55 200h210l-156 -200h-109z" />
    <glyph glyph-name="dieresistonos" unicode="&#x385;" horiz-adv-x="700" 
d="M268 700l46 200h156l-105 -200h-97zM140 693q-34 0 -56 15.5t-22 54.5v13q0 40 22 56.5t56 16.5q35 0 56.5 -16.5t21.5 -56.5v-13q0 -39 -22 -54.5t-56 -15.5zM560 693q-34 0 -56 15.5t-22 54.5v13q0 40 22 56.5t56 16.5q35 0 56.5 -16.5t21.5 -56.5v-13q0 -39 -22 -54.5
t-56 -15.5z" />
    <glyph glyph-name="copyright" unicode="&#xa9;" horiz-adv-x="1270" 
d="M635 -110q-222 0 -328.5 95.5t-106.5 285.5v194q0 192 107 288.5t329 96.5t328 -96.5t106 -288.5v-194q0 -190 -106.5 -285.5t-328.5 -95.5zM635 -45q201 0 283 78t82 244v182q0 166 -82 246t-283 80t-283 -80t-82 -246v-182q0 -166 82 -244t283 -78zM638 94
q-128 0 -183 54t-55 156v135q0 101 55.5 154t181.5 53q121 0 178.5 -49t64.5 -151l-146 -6q-4 60 -24.5 80t-66.5 20t-68 -23.5t-22 -77.5v-138q0 -54 22 -77.5t70 -23.5q46 0 65.5 17.5t23.5 73.5l146 -6q-7 -99 -64.5 -145t-177.5 -46z" />
    <glyph glyph-name="registered" unicode="&#xae;" horiz-adv-x="940" 
d="M470 124q-171 0 -253 71.5t-82 208.5v173q0 139 82 211t254 72q170 0 252 -72t82 -211v-173q0 -137 -82 -208.5t-253 -71.5zM470 182q146 0 210 56.5t64 168.5v167q0 113 -64 171t-210 58q-145 0 -209.5 -58t-64.5 -171v-167q0 -112 64.5 -168.5t209.5 -56.5zM422 504h74
q17 0 32 6.5t15 29.5v28q0 26 -15 35.5t-32 9.5h-74v-109zM422 310h-102v370h186q51 0 96 -24.5t45 -87.5v-28q0 -39 -21 -60t-51 -29l91 -141h-112l-89 132h-43v-132z" />
    <glyph glyph-name="trademark" unicode="&#x2122;" horiz-adv-x="1470" 
d="M342 337v371h-172v92h454v-92h-161v-371h-121zM829 651v-314h-113v463h146l115 -273l114 273h146v-463h-113l-1 316l-101 -229h-93z" />
    <glyph glyph-name="degree" unicode="&#xb0;" horiz-adv-x="600" 
d="M300 325q-99 0 -160 44.5t-61 137.5v114q0 93 61 139t160 46q101 0 161 -46t60 -139v-114q0 -93 -61 -137.5t-160 -44.5zM300 440q41 0 62.5 19t21.5 62v86q0 43 -21.5 63.5t-62.5 20.5q-43 0 -63.5 -20.5t-20.5 -63.5v-86q0 -43 20.5 -62t63.5 -19z" />
    <glyph glyph-name="careof" unicode="&#x2105;" horiz-adv-x="1240" 
d="M292 0l500 800h156l-500 -800h-156zM367 538l145 -11q-1 -39 -17 -68t-44 -48q-29 -19 -68.5 -28t-89.5 -9t-91 9.5t-70 29.5q-29 19 -44.5 49t-15.5 70v118q0 40 15.5 70.5t45.5 50.5q29 19 69.5 29t90.5 10q51 0 90.5 -8.5t67.5 -26.5q29 -17 44.5 -45.5t16.5 -67.5
l-145 -18q-1 16 -6.5 28.5t-14.5 19.5q-10 8 -23 12t-30 4t-31 -4t-24 -11q-10 -8 -15.5 -20t-5.5 -28v-108q0 -16 5.5 -27.5t15.5 -18.5q10 -8 23.5 -11.5t31.5 -3.5q17 0 30.5 3.5t22.5 11.5q9 7 14.5 19t6.5 28zM948 -12q-50 0 -90.5 9.5t-69.5 29.5q-30 19 -45.5 49
t-15.5 70v125q0 40 16 70.5t45 50.5q29 19 69.5 29t90.5 10t90.5 -10t68.5 -29q29 -20 44.5 -50.5t15.5 -70.5v-125q0 -40 -15.5 -70t-44.5 -49q-29 -20 -69 -29.5t-90 -9.5zM948 94q18 0 31.5 3.5t22.5 10.5q10 7 15 19t5 28v108q0 16 -5 28t-15 20q-9 7 -23 11t-31 4
t-31 -4t-24 -11q-10 -8 -15 -20t-5 -28v-108q0 -16 5 -28t15 -19t23.5 -10.5t31.5 -3.5z" />
    <glyph glyph-name="uni2117" unicode="&#x2117;" horiz-adv-x="1270" 
d="M635 -110q-222 0 -328.5 95.5t-106.5 285.5v194q0 192 107 288.5t329 96.5t328 -96.5t106 -288.5v-194q0 -190 -106.5 -285.5t-328.5 -95.5zM635 -44q194 0 279.5 75t85.5 246v182q0 173 -85.5 249t-279.5 76t-279.5 -76t-85.5 -249v-182q0 -171 85.5 -246t279.5 -75z
M434 109v530h232q94 0 162 -41.5t68 -140.5v-38q0 -96 -68.5 -132.5t-161.5 -36.5h-79v-141h-153zM587 354h79q36 0 56.5 13t20.5 52v38q0 43 -20.5 59t-56.5 16h-79v-178z" />
    <glyph glyph-name="estimated" unicode="&#x212e;" horiz-adv-x="1000" 
d="M495 -12q-180 0 -288.5 122.5t-108.5 291.5q0 171 107 292t294 121t291.5 -138t108.5 -327h-607v-210q38 -33 90.5 -52.5t112.5 -19.5q107 0 183 38.5t120 107.5l48 -60q-51 -79 -139.5 -122.5t-211.5 -43.5zM292 430h409v230q-38 31 -89 53t-115 22q-59 0 -112.5 -18.5
t-92.5 -53.5v-233z" />
    <glyph glyph-name="arrowupdn" unicode="&#x2195;" horiz-adv-x="1040" 
d="M530 -135h-20l-350 365v20h275v300h-275v20l350 365h20l350 -365v-20h-275v-300h275v-20z" />
    <glyph glyph-name="arrowupdnbse" unicode="&#x21a8;" horiz-adv-x="1040" 
d="M170 -242v142h700v-142h-700zM530 -135h-20l-350 365v20h275v300h-275v20l350 365h20l350 -365v-20h-275v-300h275v-20z" />
    <glyph glyph-name="logicalnotreversed" unicode="&#x2310;" horiz-adv-x="900" 
d="M100 0v421h700v-142h-558v-279h-142z" />
    <glyph glyph-name="lighthorzbxd" unicode="&#x2500;" horiz-adv-x="1100" 
d="M-20 350h1140v-100h-1140v100z" />
    <glyph glyph-name="heavyhorzbxd" unicode="&#x2501;" horiz-adv-x="1100" 
d="M-20 400h1140v-200h-1140v200z" />
    <glyph glyph-name="lightvertbxd" unicode="&#x2502;" horiz-adv-x="1100" 
d="M500 1050h100v-1500h-100v1500z" />
    <glyph glyph-name="heavyvertbxd" unicode="&#x2503;" horiz-adv-x="1100" 
d="M450 1050h200v-1500h-200v1500z" />
    <glyph glyph-name="lighttrpldashhorzbxd" unicode="&#x2504;" horiz-adv-x="1100" 
d="M61 350h244v-100h-244v100zM427 350h244v-100h-244v100zM793 350h244v-100h-244v100z" />
    <glyph glyph-name="heavytrpldashhorzbxd" unicode="&#x2505;" horiz-adv-x="1100" 
d="M61 400h244v-200h-244v200zM427 400h244v-200h-244v200zM793 400h244v-200h-244v200z" />
    <glyph glyph-name="lighttrpldashvertbxd" unicode="&#x2506;" horiz-adv-x="1100" 
d="M500 55h100v-244h-100v244zM500 421h100v-244h-100v244zM500 787h100v-244h-100v244zM500 1153h100v-244h-100v244z" />
    <glyph glyph-name="heavytrpldashvertbxd" unicode="&#x2507;" horiz-adv-x="1100" 
d="M450 55h200v-244h-200v244zM450 421h200v-244h-200v244zM450 787h200v-244h-200v244zM450 1153h200v-244h-200v244z" />
    <glyph glyph-name="lightquaddashhorzbxd" unicode="&#x2508;" horiz-adv-x="1100" 
d="M34 350h207v-100h-207v100zM309 350h207v-100h-207v100zM584 350h207v-100h-207v100zM859 350h207v-100h-207v100z" />
    <glyph glyph-name="heavyquaddashhorzbxd" unicode="&#x2509;" horiz-adv-x="1100" 
d="M34 400h207v-200h-207v200zM309 400h207v-200h-207v200zM584 400h207v-200h-207v200zM859 400h207v-200h-207v200z" />
    <glyph glyph-name="lightquaddashvertbxd" unicode="&#x250a;" horiz-adv-x="1100" 
d="M500 -9h100v-207h-100v207zM500 266h100v-207h-100v207zM500 541h100v-207h-100v207zM500 816h100v-207h-100v207z" />
    <glyph glyph-name="heavyquaddashvertbxd" unicode="&#x250b;" horiz-adv-x="1100" 
d="M450 -9h200v-207h-200v207zM450 266h200v-207h-200v207zM450 541h200v-207h-200v207zM450 816h200v-207h-200v207z" />
    <glyph glyph-name="lightdnrightbxd" unicode="&#x250c;" horiz-adv-x="1100" 
d="M500 350h620v-100h-520v-700h-100v800z" />
    <glyph glyph-name="dnlightrightheavybxd" unicode="&#x250d;" horiz-adv-x="1100" 
d="M500 400h620v-200h-520v-650h-100v850z" />
    <glyph glyph-name="dnheavyrightlightbxd" unicode="&#x250e;" horiz-adv-x="1100" 
d="M450 350h670v-100h-470v-700h-200v800z" />
    <glyph glyph-name="heavydnrightbxd" unicode="&#x250f;" horiz-adv-x="1100" 
d="M450 400h670v-200h-470v-650h-200v850z" />
    <glyph glyph-name="lightdnleftbxd" unicode="&#x2510;" horiz-adv-x="1100" 
d="M-20 350h620v-800h-100v700h-520v100z" />
    <glyph glyph-name="dnlightleftheavybxd" unicode="&#x2511;" horiz-adv-x="1100" 
d="M-20 400h620v-850h-100v650h-520v200z" />
    <glyph glyph-name="dnheavyleftlightbxd" unicode="&#x2512;" horiz-adv-x="1100" 
d="M-20 350h670v-800h-200v700h-470v100z" />
    <glyph glyph-name="heavydnleftbxd" unicode="&#x2513;" horiz-adv-x="1100" 
d="M-20 400h670v-850h-200v650h-470v200z" />
    <glyph glyph-name="lightuprightbxd" unicode="&#x2514;" horiz-adv-x="1100" 
d="M500 1050h100v-700h520v-100h-620v800z" />
    <glyph glyph-name="uplightrightheavybxd" unicode="&#x2515;" horiz-adv-x="1100" 
d="M500 1050h100v-650h520v-200h-620v850z" />
    <glyph glyph-name="upheavyrightlightbxd" unicode="&#x2516;" horiz-adv-x="1100" 
d="M450 1050h200v-700h470v-100h-670v800z" />
    <glyph glyph-name="heavyuprightbxd" unicode="&#x2517;" horiz-adv-x="1100" 
d="M450 1050h200v-650h470v-200h-670v850z" />
    <glyph glyph-name="lightupleftbxd" unicode="&#x2518;" horiz-adv-x="1100" 
d="M-20 350h520v700h100v-800h-620v100z" />
    <glyph glyph-name="uplightleftheavybxd" unicode="&#x2519;" horiz-adv-x="1100" 
d="M-20 400h520v650h100v-850h-620v200z" />
    <glyph glyph-name="upheavyleftlightbxd" unicode="&#x251a;" horiz-adv-x="1100" 
d="M-20 350h470v700h200v-800h-670v100z" />
    <glyph glyph-name="heavyupleftbxd" unicode="&#x251b;" horiz-adv-x="1100" 
d="M-20 400h470v650h200v-850h-670v200z" />
    <glyph glyph-name="lightvertrightbxd" unicode="&#x251c;" horiz-adv-x="1100" 
d="M500 1050h100v-700h520v-100h-520v-700h-100v1500z" />
    <glyph glyph-name="vertlightrightheavybxd" unicode="&#x251d;" horiz-adv-x="1100" 
d="M500 1050h100v-650h520v-200h-520v-650h-100v1500z" />
    <glyph glyph-name="upheavyrightdnlightbxd" unicode="&#x251e;" horiz-adv-x="1100" 
d="M450 1050h200v-700h470v-100h-520v-700h-100v700h-50v800z" />
    <glyph glyph-name="dnheavyrightuplightbxd" unicode="&#x251f;" horiz-adv-x="1100" 
d="M450 350h50v700h100v-700h520v-100h-470v-700h-200v800z" />
    <glyph glyph-name="vertheavyrightlightbxd" unicode="&#x2520;" horiz-adv-x="1100" 
d="M450 1050h200v-700h470v-100h-470v-700h-200v1500z" />
    <glyph glyph-name="dnlightrightupheavybxd" unicode="&#x2521;" horiz-adv-x="1100" 
d="M450 1050h200v-650h470v-200h-520v-650h-100v650h-50v850z" />
    <glyph glyph-name="uplightrightdnheavybxd" unicode="&#x2522;" horiz-adv-x="1100" 
d="M450 400h50v650h100v-650h520v-200h-470v-650h-200v850z" />
    <glyph glyph-name="heavyvertrightbxd" unicode="&#x2523;" horiz-adv-x="1100" 
d="M450 1050h200v-650h470v-200h-470v-650h-200v1500z" />
    <glyph glyph-name="lightvertleftbxd" unicode="&#x2524;" horiz-adv-x="1100" 
d="M-20 350h520v700h100v-1500h-100v700h-520v100z" />
    <glyph glyph-name="vertlightleftheavybxd" unicode="&#x2525;" horiz-adv-x="1100" 
d="M-20 400h520v650h100v-1500h-100v650h-520v200z" />
    <glyph glyph-name="upheavyleftdnlightbxd" unicode="&#x2526;" horiz-adv-x="1100" 
d="M-20 350h470v700h200v-800h-50v-700h-100v700h-520v100z" />
    <glyph glyph-name="dnheavyleftuplightbxd" unicode="&#x2527;" horiz-adv-x="1100" 
d="M-20 350h520v700h100v-700h50v-800h-200v700h-470v100z" />
    <glyph glyph-name="vertheavyleftlightbxd" unicode="&#x2528;" horiz-adv-x="1100" 
d="M-20 350h470v700h200v-1500h-200v700h-470v100z" />
    <glyph glyph-name="dnlightleftupheavybxd" unicode="&#x2529;" horiz-adv-x="1100" 
d="M-20 400h470v650h200v-850h-50v-650h-100v650h-520v200z" />
    <glyph glyph-name="uplightleftdnheavybxd" unicode="&#x252a;" horiz-adv-x="1100" 
d="M-20 400h520v650h100v-650h50v-850h-200v650h-470v200z" />
    <glyph glyph-name="heavyvertleftbxd" unicode="&#x252b;" horiz-adv-x="1100" 
d="M-20 400h470v650h200v-1500h-200v650h-470v200z" />
    <glyph glyph-name="lightdnhorzbxd" unicode="&#x252c;" horiz-adv-x="1100" 
d="M-20 350h1140v-100h-520v-700h-100v700h-520v100z" />
    <glyph glyph-name="leftheavyrightdnlightbxd" unicode="&#x252d;" horiz-adv-x="1100" 
d="M-20 400h620v-50h520v-100h-520v-700h-100v650h-520v200z" />
    <glyph glyph-name="rightheavyleftdnlightbxd" unicode="&#x252e;" horiz-adv-x="1100" 
d="M-20 350h520v50h620v-200h-520v-650h-100v700h-520v100z" />
    <glyph glyph-name="dnlighthorzheavybxd" unicode="&#x252f;" horiz-adv-x="1100" 
d="M-20 400h1140v-200h-520v-650h-100v650h-520v200z" />
    <glyph glyph-name="dnheavyhorzlightbxd" unicode="&#x2530;" horiz-adv-x="1100" 
d="M-20 350h1140v-100h-470v-700h-200v700h-470v100z" />
    <glyph glyph-name="rightlightleftdnheavybxd" unicode="&#x2531;" horiz-adv-x="1100" 
d="M-20 400h670v-50h470v-100h-470v-700h-200v650h-470v200z" />
    <glyph glyph-name="leftlightrightdnheavybxd" unicode="&#x2532;" horiz-adv-x="1100" 
d="M-20 350h470v50h670v-200h-470v-650h-200v700h-470v100z" />
    <glyph glyph-name="heavydnhorzbxd" unicode="&#x2533;" horiz-adv-x="1100" 
d="M-20 400h1140v-200h-470v-650h-200v650h-470v200z" />
    <glyph glyph-name="lightuphorzbxd" unicode="&#x2534;" horiz-adv-x="1100" 
d="M-20 350h520v700h100v-700h520v-100h-1140v100z" />
    <glyph glyph-name="leftheavyrightuplightbxd" unicode="&#x2535;" horiz-adv-x="1100" 
d="M-20 400h520v650h100v-700h520v-100h-520v-50h-620v200z" />
    <glyph glyph-name="rightheavyleftuplightbxd" unicode="&#x2536;" horiz-adv-x="1100" 
d="M-20 350h520v700h100v-650h520v-200h-620v50h-520v100z" />
    <glyph glyph-name="uplighthorzheavybxd" unicode="&#x2537;" horiz-adv-x="1100" 
d="M-20 400h520v650h100v-650h520v-200h-1140v200z" />
    <glyph glyph-name="upheavyhorzlightbxd" unicode="&#x2538;" horiz-adv-x="1100" 
d="M-20 350h470v700h200v-700h470v-100h-1140v100z" />
    <glyph glyph-name="rightlightleftupheavybxd" unicode="&#x2539;" horiz-adv-x="1100" 
d="M-20 400h470v650h200v-700h470v-100h-470v-50h-670v200z" />
    <glyph glyph-name="leftlightrightupheavybxd" unicode="&#x253a;" horiz-adv-x="1100" 
d="M-20 350h470v700h200v-650h470v-200h-670v50h-470v100z" />
    <glyph glyph-name="heavyuphorzbxd" unicode="&#x253b;" horiz-adv-x="1100" 
d="M-20 400h470v650h200v-650h470v-200h-1140v200z" />
    <glyph glyph-name="lightverthorzbxd" unicode="&#x253c;" horiz-adv-x="1100" 
d="M-20 350h520v700h100v-700h520v-100h-520v-700h-100v700h-520v100z" />
    <glyph glyph-name="leftheavyrightvertlightbxd" unicode="&#x253d;" horiz-adv-x="1100" 
d="M-20 400h520v650h100v-700h520v-100h-520v-700h-100v650h-520v200z" />
    <glyph glyph-name="rightheavyleftvertlightbxd" unicode="&#x253e;" horiz-adv-x="1100" 
d="M-20 350h520v700h100v-650h520v-200h-520v-650h-100v700h-520v100z" />
    <glyph glyph-name="vertlighthorzheavybxd" unicode="&#x253f;" horiz-adv-x="1100" 
d="M-20 400h520v650h100v-650h520v-200h-520v-650h-100v650h-520v200z" />
    <glyph glyph-name="upheavydnhorzlightbxd" unicode="&#x2540;" horiz-adv-x="1100" 
d="M-20 350h470v700h200v-700h470v-100h-520v-700h-100v700h-520v100z" />
    <glyph glyph-name="dnheavyuphorzlightbxd" unicode="&#x2541;" horiz-adv-x="1100" 
d="M-20 350h520v700h100v-700h520v-100h-470v-700h-200v700h-470v100z" />
    <glyph glyph-name="vertheavyhorzlightbxd" unicode="&#x2542;" horiz-adv-x="1100" 
d="M-20 350h470v700h200v-700h470v-100h-470v-700h-200v700h-470v100z" />
    <glyph glyph-name="leftupheavyrightdnlightbxd" unicode="&#x2543;" horiz-adv-x="1100" 
d="M-20 400h470v650h200v-700h470v-100h-470v-50h-50v-650h-100v650h-520v200z" />
    <glyph glyph-name="rightupheavyleftdnlightbxd" unicode="&#x2544;" horiz-adv-x="1100" 
d="M-20 350h470v700h200v-650h470v-200h-520v-650h-100v650h-50v50h-470v100z" />
    <glyph glyph-name="leftdnheavyrightuplightbxd" unicode="&#x2545;" horiz-adv-x="1100" 
d="M-20 400h520v650h100v-650h50v-50h470v-100h-470v-700h-200v650h-470v200z" />
    <glyph glyph-name="rightdnheavyleftuplightbxd" unicode="&#x2546;" horiz-adv-x="1100" 
d="M-20 350h470v50h50v650h100v-650h520v-200h-470v-650h-200v700h-470v100z" />
    <glyph glyph-name="dnlightuphorzheavybxd" unicode="&#x2547;" horiz-adv-x="1100" 
d="M-20 400h470v650h200v-650h470v-200h-520v-650h-100v650h-520v200z" />
    <glyph glyph-name="uplightdnhorzheavybxd" unicode="&#x2548;" horiz-adv-x="1100" 
d="M-20 400h520v650h100v-650h520v-200h-470v-650h-200v650h-470v200z" />
    <glyph glyph-name="rightlightleftvertheavybxd" unicode="&#x2549;" horiz-adv-x="1100" 
d="M-20 400h470v650h200v-700h470v-100h-470v-700h-200v650h-470v200z" />
    <glyph glyph-name="leftlightrightvertheavybxd" unicode="&#x254a;" horiz-adv-x="1100" 
d="M-20 350h470v700h200v-650h470v-200h-470v-650h-200v700h-470v100z" />
    <glyph glyph-name="heavyverthorzbxd" unicode="&#x254b;" horiz-adv-x="1100" 
d="M-20 400h470v650h200v-650h470v-200h-470v-650h-200v650h-470v200z" />
    <glyph glyph-name="lightdbldashhorzbxd" unicode="&#x254c;" horiz-adv-x="1100" 
d="M137 350h275v-100h-275v100zM687 350h275v-100h-275v100z" />
    <glyph glyph-name="heavydbldashhorzbxd" unicode="&#x254d;" horiz-adv-x="1100" 
d="M137 400h275v-200h-275v200zM687 400h275v-200h-275v200z" />
    <glyph glyph-name="lightdbldashvertbxd" unicode="&#x254e;" horiz-adv-x="1100" 
d="M500 162h100v-275h-100v275zM500 712h100v-275h-100v275z" />
    <glyph glyph-name="heavydbldashvertbxd" unicode="&#x254f;" horiz-adv-x="1100" 
d="M450 162h200v-275h-200v275zM450 712h200v-275h-200v275z" />
    <glyph glyph-name="dblhorzbxd" unicode="&#x2550;" horiz-adv-x="1100" 
d="M-20 450h1140v-100h-1140v100zM-20 250h1140v-100h-1140v100z" />
    <glyph glyph-name="dblvertbxd" unicode="&#x2551;" horiz-adv-x="1100" 
d="M400 1050h100v-1500h-100v1500zM600 1050h100v-1500h-100v1500z" />
    <glyph glyph-name="dnsngrightdblbxd" unicode="&#x2552;" horiz-adv-x="1100" 
d="M500 450h620v-100h-520v-100h520v-100h-520v-600h-100v900z" />
    <glyph glyph-name="dndblrightsngbxd" unicode="&#x2553;" horiz-adv-x="1100" 
d="M400 350h720v-100h-420v-700h-100v700h-100v-700h-100v800z" />
    <glyph glyph-name="dbldnrightbxd" unicode="&#x2554;" horiz-adv-x="1100" 
d="M400 450h720v-100h-620v-800h-100v900zM600 250h520v-100h-420v-600h-100v700z" />
    <glyph glyph-name="dnsngleftdblbxd" unicode="&#x2555;" horiz-adv-x="1100" 
d="M-20 450h620v-900h-100v600h-520v100h520v100h-520v100z" />
    <glyph glyph-name="dndblleftsngbxd" unicode="&#x2556;" horiz-adv-x="1100" 
d="M-20 350h720v-800h-100v700h-100v-700h-100v700h-420v100z" />
    <glyph glyph-name="dbldnleftbxd" unicode="&#x2557;" horiz-adv-x="1100" 
d="M-20 450h720v-900h-100v800h-620v100zM-20 250h520v-700h-100v600h-420v100z" />
    <glyph glyph-name="upsngrightdblbxd" unicode="&#x2558;" horiz-adv-x="1100" 
d="M500 1050h100v-600h520v-100h-520v-100h520v-100h-620v900z" />
    <glyph glyph-name="updblrightsngbxd" unicode="&#x2559;" horiz-adv-x="1100" 
d="M400 1050h100v-700h100v700h100v-700h420v-100h-720v800z" />
    <glyph glyph-name="dbluprightbxd" unicode="&#x255a;" horiz-adv-x="1100" 
d="M400 1050h100v-800h620v-100h-720v900zM600 1050h100v-600h420v-100h-520v700z" />
    <glyph glyph-name="upsngleftdblbxd" unicode="&#x255b;" horiz-adv-x="1100" 
d="M-20 450h520v600h100v-900h-620v100h520v100h-520v100z" />
    <glyph glyph-name="updblleftsngbxd" unicode="&#x255c;" horiz-adv-x="1100" 
d="M-20 350h420v700h100v-700h100v700h100v-800h-720v100z" />
    <glyph glyph-name="dblupleftbxd" unicode="&#x255d;" horiz-adv-x="1100" 
d="M-20 250h620v800h100v-900h-720v100zM-20 450h420v600h100v-700h-520v100z" />
    <glyph glyph-name="vertsngrightdblbxd" unicode="&#x255e;" horiz-adv-x="1100" 
d="M500 1050h100v-600h520v-100h-520v-100h520v-100h-520v-600h-100v1500z" />
    <glyph glyph-name="vertdblrightsngbxd" unicode="&#x255f;" horiz-adv-x="1100" 
d="M600 1050h100v-700h420v-100h-420v-700h-100v1500zM400 1050h100v-1500h-100v1500z" />
    <glyph glyph-name="dblvertrightbxd" unicode="&#x2560;" horiz-adv-x="1100" 
d="M400 1050h100v-1500h-100v1500zM600 1050h100v-600h420v-100h-520v700zM600 250h520v-100h-420v-600h-100v700z" />
    <glyph glyph-name="vertsngleftdblbxd" unicode="&#x2561;" horiz-adv-x="1100" 
d="M-20 450h520v600h100v-1500h-100v600h-520v100h520v100h-520v100z" />
    <glyph glyph-name="vertdblleftsngbxd" unicode="&#x2562;" horiz-adv-x="1100" 
d="M-20 350h420v700h100v-1500h-100v700h-420v100zM600 1050h100v-1500h-100v1500z" />
    <glyph glyph-name="dblvertleftbxd" unicode="&#x2563;" horiz-adv-x="1100" 
d="M600 1050h100v-1500h-100v1500zM-20 250h520v-700h-100v600h-420v100zM-20 450h420v600h100v-700h-520v100z" />
    <glyph glyph-name="dnsnghorzdblbxd" unicode="&#x2564;" horiz-adv-x="1100" 
d="M-20 250h1140v-100h-520v-600h-100v600h-520v100zM-20 450h1140v-100h-1140v100z" />
    <glyph glyph-name="dndblhorzsngbxd" unicode="&#x2565;" horiz-adv-x="1100" 
d="M-20 350h1140v-100h-420v-700h-100v700h-100v-700h-100v700h-420v100z" />
    <glyph glyph-name="dbldnhorzbxd" unicode="&#x2566;" horiz-adv-x="1100" 
d="M-20 450h1140v-100h-1140v100zM600 250h520v-100h-420v-600h-100v700zM-20 250h520v-700h-100v600h-420v100z" />
    <glyph glyph-name="upsnghorzdblbxd" unicode="&#x2567;" horiz-adv-x="1100" 
d="M-20 450h520v600h100v-600h520v-100h-1140v100zM-20 250h1140v-100h-1140v100z" />
    <glyph glyph-name="updblhorzsngbxd" unicode="&#x2568;" horiz-adv-x="1100" 
d="M-20 350h420v700h100v-700h100v700h100v-700h420v-100h-1140v100z" />
    <glyph glyph-name="dbluphorzbxd" unicode="&#x2569;" horiz-adv-x="1100" 
d="M-20 250h1140v-100h-1140v100zM-20 450h420v600h100v-700h-520v100zM600 1050h100v-600h420v-100h-520v700z" />
    <glyph glyph-name="vertsnghorzdblbxd" unicode="&#x256a;" horiz-adv-x="1100" 
d="M-20 450h520v600h100v-600h520v-100h-520v-100h520v-100h-520v-600h-100v600h-520v100h520v100h-520v100z" />
    <glyph glyph-name="vertdblhorzsngbxd" unicode="&#x256b;" horiz-adv-x="1100" 
d="M-20 350h420v700h100v-700h100v700h100v-700h420v-100h-420v-700h-100v700h-100v-700h-100v700h-420v100z" />
    <glyph glyph-name="dblverthorzbxd" unicode="&#x256c;" horiz-adv-x="1100" 
d="M-20 450h420v600h100v-700h-520v100zM-20 250h520v-700h-100v600h-420v100zM600 1050h100v-600h420v-100h-520v700zM600 250h520v-100h-420v-600h-100v700z" />
    <glyph glyph-name="lightarcdnrightbxd" unicode="&#x256d;" horiz-adv-x="1100" 
d="M500 -250q0 124 47 233.5t128.5 191t191 128.5t233.5 47h20v-100h-20q-69 0 -133 -18t-119.5 -50.5t-101 -78t-78 -101t-50.5 -119.5t-18 -133v-200h-100v200z" />
    <glyph glyph-name="lightarcdnleftbxd" unicode="&#x256e;" horiz-adv-x="1100" 
d="M600 -450h-100v200q0 103 -39.5 194.5t-107 159t-159 107t-194.5 39.5h-20v100h20q124 0 233.5 -47t191 -128.5t128.5 -191t47 -233.5v-200z" />
    <glyph glyph-name="lightarcupleftbxd" unicode="&#x256f;" horiz-adv-x="1100" 
d="M600 850q0 -124 -47 -233.5t-128.5 -191t-191 -128.5t-233.5 -47h-20v100h20q69 0 133 18t119.5 50.5t101 78t78 101t50.5 119.5t18 133v200h100v-200z" />
    <glyph glyph-name="lightarcuprightbxd" unicode="&#x2570;" horiz-adv-x="1100" 
d="M500 1050h100v-200q0 -69 18 -133t50.5 -119.5t78 -101t101 -78t119.5 -50.5t133 -18h20v-100h-20q-124 0 -233.5 47t-191 128.5t-128.5 191t-47 233.5v200z" />
    <glyph glyph-name="lightdiaguprightdnleftbxd" unicode="&#x2571;" horiz-adv-x="1100" 
d="M1029 850h71v-71l-1029 -1029h-71v71z" />
    <glyph glyph-name="lightdiagupleftdnrightbxd" unicode="&#x2572;" horiz-adv-x="1100" 
d="M1100 -179v-71h-71l-1029 1029v71h71z" />
    <glyph glyph-name="lightdiagcrossbxd" unicode="&#x2573;" horiz-adv-x="1100" 
d="M479 300l-479 479v71h71l479 -479l479 479h71v-71l-479 -479l479 -479v-71h-71l-479 479l-479 -479h-71v71z" />
    <glyph glyph-name="lightleftbxd" unicode="&#x2574;" horiz-adv-x="1100" 
d="M-20 350h620v-100h-620v100z" />
    <glyph glyph-name="lightupbxd" unicode="&#x2575;" horiz-adv-x="1100" 
d="M500 1050h100v-800h-100v800z" />
    <glyph glyph-name="lightrightbxd" unicode="&#x2576;" horiz-adv-x="1100" 
d="M500 350h620v-100h-620v100z" />
    <glyph glyph-name="lightdnbxd" unicode="&#x2577;" horiz-adv-x="1100" 
d="M500 350h100v-800h-100v800z" />
    <glyph glyph-name="heavyleftbxd" unicode="&#x2578;" horiz-adv-x="1100" 
d="M-20 400h620v-200h-620v200z" />
    <glyph glyph-name="heavyupbxd" unicode="&#x2579;" horiz-adv-x="1100" 
d="M450 1050h200v-800h-200v800z" />
    <glyph glyph-name="heavyrightbxd" unicode="&#x257a;" horiz-adv-x="1100" 
d="M500 400h620v-200h-620v200z" />
    <glyph glyph-name="heavydnbxd" unicode="&#x257b;" horiz-adv-x="1100" 
d="M450 350h200v-800h-200v800z" />
    <glyph glyph-name="lightleftheavyrightbxd" unicode="&#x257c;" horiz-adv-x="1100" 
d="M-20 350h520v50h620v-200h-620v50h-520v100z" />
    <glyph glyph-name="lightupheavydnbxd" unicode="&#x257d;" horiz-adv-x="1100" 
d="M450 350h50v700h100v-700h50v-800h-200v800z" />
    <glyph glyph-name="heavyleftlightrightbxd" unicode="&#x257e;" horiz-adv-x="1100" 
d="M-20 400h620v-50h520v-100h-520v-50h-620v200z" />
    <glyph glyph-name="heavyuplightdnbxd" unicode="&#x257f;" horiz-adv-x="1100" 
d="M450 1050h200v-800h-50v-700h-100v700h-50v800z" />
    <glyph glyph-name="uphalfblock" unicode="&#x2580;" horiz-adv-x="1100" 
d="M0 850h1100v-550h-1100v550z" />
    <glyph glyph-name="dneighthblock" unicode="&#x2581;" horiz-adv-x="1100" 
d="M0 -113h1100v-137h-1100v137z" />
    <glyph glyph-name="dnquarterblock" unicode="&#x2582;" horiz-adv-x="1100" 
d="M0 25h1100v-275h-1100v275z" />
    <glyph glyph-name="dnthreeeighthsblock" unicode="&#x2583;" horiz-adv-x="1100" 
d="M0 162h1100v-412h-1100v412z" />
    <glyph glyph-name="dnhalfblock" unicode="&#x2584;" horiz-adv-x="1100" 
d="M0 300h1100v-550h-1100v550z" />
    <glyph glyph-name="dnfiveeighthsblock" unicode="&#x2585;" horiz-adv-x="1100" 
d="M0 437h1100v-687h-1100v687z" />
    <glyph glyph-name="dnthreequartersblock" unicode="&#x2586;" horiz-adv-x="1100" 
d="M0 575h1100v-825h-1100v825z" />
    <glyph glyph-name="dnseveneighthsblock" unicode="&#x2587;" horiz-adv-x="1100" 
d="M0 712h1100v-962h-1100v962z" />
    <glyph glyph-name="fullblock" unicode="&#x2588;" horiz-adv-x="1100" 
d="M0 850h1100v-1100h-1100v1100z" />
    <glyph glyph-name="leftseveneighthsblock" unicode="&#x2589;" horiz-adv-x="1100" 
d="M0 850h962v-1100h-962v1100z" />
    <glyph glyph-name="leftthreequartersblock" unicode="&#x258a;" horiz-adv-x="1100" 
d="M0 850h825v-1100h-825v1100z" />
    <glyph glyph-name="leftfiveeighthsblock" unicode="&#x258b;" horiz-adv-x="1100" 
d="M0 850h687v-1100h-687v1100z" />
    <glyph glyph-name="lefthalfblock" unicode="&#x258c;" horiz-adv-x="1100" 
d="M0 850h550v-1100h-550v1100z" />
    <glyph glyph-name="leftthreeeighthsblock" unicode="&#x258d;" horiz-adv-x="1100" 
d="M0 850h412v-1100h-412v1100z" />
    <glyph glyph-name="leftquarterblock" unicode="&#x258e;" horiz-adv-x="1100" 
d="M0 850h275v-1100h-275v1100z" />
    <glyph glyph-name="lefteighthblock" unicode="&#x258f;" horiz-adv-x="1100" 
d="M0 850h137v-1100h-137v1100z" />
    <glyph glyph-name="righthalfblock" unicode="&#x2590;" horiz-adv-x="1100" 
d="M550 850h550v-1100h-550v1100z" />
    <glyph glyph-name="lightshade" unicode="&#x2591;" horiz-adv-x="1100" 
d="M0 -220h20v-30h-20v30zM50 -170h20v-30h-20v30zM0 -120h20v-30h-20v30zM50 -70h20v-30h-20v30zM0 -20h20v-30h-20v30zM50 30h20v-30h-20v30zM0 80h20v-30h-20v30zM50 130h20v-30h-20v30zM0 180h20v-30h-20v30zM50 230h20v-30h-20v30zM0 280h20v-30h-20v30zM50 330h20v-30
h-20v30zM0 380h20v-30h-20v30zM50 430h20v-30h-20v30zM0 480h20v-30h-20v30zM50 530h20v-30h-20v30zM0 580h20v-30h-20v30zM50 630h20v-30h-20v30zM0 680h20v-30h-20v30zM50 730h20v-30h-20v30zM0 780h20v-30h-20v30zM50 830h20v-30h-20v30zM100 -220h20v-30h-20v30z
M150 -170h20v-30h-20v30zM100 -120h20v-30h-20v30zM150 -70h20v-30h-20v30zM100 -20h20v-30h-20v30zM150 30h20v-30h-20v30zM100 80h20v-30h-20v30zM150 130h20v-30h-20v30zM100 180h20v-30h-20v30zM150 230h20v-30h-20v30zM100 280h20v-30h-20v30zM150 330h20v-30h-20v30z
M100 380h20v-30h-20v30zM150 430h20v-30h-20v30zM100 480h20v-30h-20v30zM150 530h20v-30h-20v30zM100 580h20v-30h-20v30zM150 630h20v-30h-20v30zM100 680h20v-30h-20v30zM150 730h20v-30h-20v30zM100 780h20v-30h-20v30zM150 830h20v-30h-20v30zM200 -220h20v-30h-20v30z
M250 -170h20v-30h-20v30zM200 -120h20v-30h-20v30zM250 -70h20v-30h-20v30zM200 -20h20v-30h-20v30zM250 30h20v-30h-20v30zM200 80h20v-30h-20v30zM250 130h20v-30h-20v30zM200 180h20v-30h-20v30zM250 230h20v-30h-20v30zM200 280h20v-30h-20v30zM250 330h20v-30h-20v30z
M200 380h20v-30h-20v30zM250 430h20v-30h-20v30zM200 480h20v-30h-20v30zM250 530h20v-30h-20v30zM200 580h20v-30h-20v30zM250 630h20v-30h-20v30zM200 680h20v-30h-20v30zM250 730h20v-30h-20v30zM200 780h20v-30h-20v30zM250 830h20v-30h-20v30zM300 -220h20v-30h-20v30z
M350 -170h20v-30h-20v30zM300 -120h20v-30h-20v30zM350 -70h20v-30h-20v30zM300 -20h20v-30h-20v30zM350 30h20v-30h-20v30zM300 80h20v-30h-20v30zM350 130h20v-30h-20v30zM300 180h20v-30h-20v30zM350 230h20v-30h-20v30zM300 280h20v-30h-20v30zM350 330h20v-30h-20v30z
M300 380h20v-30h-20v30zM350 430h20v-30h-20v30zM300 480h20v-30h-20v30zM350 530h20v-30h-20v30zM300 580h20v-30h-20v30zM350 630h20v-30h-20v30zM300 680h20v-30h-20v30zM350 730h20v-30h-20v30zM300 780h20v-30h-20v30zM350 830h20v-30h-20v30zM400 -220h20v-30h-20v30z
M450 -170h20v-30h-20v30zM400 -120h20v-30h-20v30zM450 -70h20v-30h-20v30zM400 -20h20v-30h-20v30zM450 30h20v-30h-20v30zM400 80h20v-30h-20v30zM450 130h20v-30h-20v30zM400 180h20v-30h-20v30zM450 230h20v-30h-20v30zM400 280h20v-30h-20v30zM450 330h20v-30h-20v30z
M400 380h20v-30h-20v30zM450 430h20v-30h-20v30zM400 480h20v-30h-20v30zM450 530h20v-30h-20v30zM400 580h20v-30h-20v30zM450 630h20v-30h-20v30zM400 680h20v-30h-20v30zM450 730h20v-30h-20v30zM400 780h20v-30h-20v30zM450 830h20v-30h-20v30zM500 -220h20v-30h-20v30z
M550 -170h20v-30h-20v30zM500 -120h20v-30h-20v30zM550 -70h20v-30h-20v30zM500 -20h20v-30h-20v30zM550 30h20v-30h-20v30zM500 80h20v-30h-20v30zM550 130h20v-30h-20v30zM500 180h20v-30h-20v30zM550 230h20v-30h-20v30zM500 280h20v-30h-20v30zM550 330h20v-30h-20v30z
M500 380h20v-30h-20v30zM550 430h20v-30h-20v30zM500 480h20v-30h-20v30zM550 530h20v-30h-20v30zM500 580h20v-30h-20v30zM550 630h20v-30h-20v30zM500 680h20v-30h-20v30zM550 730h20v-30h-20v30zM500 780h20v-30h-20v30zM550 830h20v-30h-20v30zM600 -220h20v-30h-20v30z
M650 -170h20v-30h-20v30zM600 -120h20v-30h-20v30zM650 -70h20v-30h-20v30zM600 -20h20v-30h-20v30zM650 30h20v-30h-20v30zM600 80h20v-30h-20v30zM650 130h20v-30h-20v30zM600 180h20v-30h-20v30zM650 230h20v-30h-20v30zM600 280h20v-30h-20v30zM650 330h20v-30h-20v30z
M600 380h20v-30h-20v30zM650 430h20v-30h-20v30zM600 480h20v-30h-20v30zM650 530h20v-30h-20v30zM600 580h20v-30h-20v30zM650 630h20v-30h-20v30zM600 680h20v-30h-20v30zM650 730h20v-30h-20v30zM600 780h20v-30h-20v30zM650 830h20v-30h-20v30zM700 -220h20v-30h-20v30z
M750 -170h20v-30h-20v30zM700 -120h20v-30h-20v30zM750 -70h20v-30h-20v30zM700 -20h20v-30h-20v30zM750 30h20v-30h-20v30zM700 80h20v-30h-20v30zM750 130h20v-30h-20v30zM700 180h20v-30h-20v30zM750 230h20v-30h-20v30zM700 280h20v-30h-20v30zM750 330h20v-30h-20v30z
M700 380h20v-30h-20v30zM750 430h20v-30h-20v30zM700 480h20v-30h-20v30zM750 530h20v-30h-20v30zM700 580h20v-30h-20v30zM750 630h20v-30h-20v30zM700 680h20v-30h-20v30zM750 730h20v-30h-20v30zM700 780h20v-30h-20v30zM750 830h20v-30h-20v30zM800 -220h20v-30h-20v30z
M850 -170h20v-30h-20v30zM800 -120h20v-30h-20v30zM850 -70h20v-30h-20v30zM800 -20h20v-30h-20v30zM850 30h20v-30h-20v30zM800 80h20v-30h-20v30zM850 130h20v-30h-20v30zM800 180h20v-30h-20v30zM850 230h20v-30h-20v30zM800 280h20v-30h-20v30zM850 330h20v-30h-20v30z
M800 380h20v-30h-20v30zM850 430h20v-30h-20v30zM800 480h20v-30h-20v30zM850 530h20v-30h-20v30zM800 580h20v-30h-20v30zM850 630h20v-30h-20v30zM800 680h20v-30h-20v30zM850 730h20v-30h-20v30zM800 780h20v-30h-20v30zM850 830h20v-30h-20v30zM900 -220h20v-30h-20v30z
M950 -170h20v-30h-20v30zM900 -120h20v-30h-20v30zM950 -70h20v-30h-20v30zM900 -20h20v-30h-20v30zM950 30h20v-30h-20v30zM900 80h20v-30h-20v30zM950 130h20v-30h-20v30zM900 180h20v-30h-20v30zM950 230h20v-30h-20v30zM900 280h20v-30h-20v30zM950 330h20v-30h-20v30z
M900 380h20v-30h-20v30zM950 430h20v-30h-20v30zM900 480h20v-30h-20v30zM950 530h20v-30h-20v30zM900 580h20v-30h-20v30zM950 630h20v-30h-20v30zM900 680h20v-30h-20v30zM950 730h20v-30h-20v30zM900 780h20v-30h-20v30zM950 830h20v-30h-20v30zM1000 -220h20v-30h-20v30
zM1050 -170h20v-30h-20v30zM1000 -120h20v-30h-20v30zM1050 -70h20v-30h-20v30zM1000 -20h20v-30h-20v30zM1050 30h20v-30h-20v30zM1000 80h20v-30h-20v30zM1050 130h20v-30h-20v30zM1000 180h20v-30h-20v30zM1050 230h20v-30h-20v30zM1000 280h20v-30h-20v30zM1050 330h20
v-30h-20v30zM1000 380h20v-30h-20v30zM1050 430h20v-30h-20v30zM1000 480h20v-30h-20v30zM1050 530h20v-30h-20v30zM1000 580h20v-30h-20v30zM1050 630h20v-30h-20v30zM1000 680h20v-30h-20v30zM1050 730h20v-30h-20v30zM1000 780h20v-30h-20v30zM1050 830h20v-30h-20v30z
" />
    </font>
</defs>
</svg>
