<?xml version="1.0" standalone="no"?>
<!DOCTYPE svg PUBLIC "-//W3C//DTD SVG 1.1//EN" "http://www.w3.org/Graphics/SVG/1.1/DTD/svg11.dtd" >
<svg xmlns="http://www.w3.org/2000/svg" width="100%" height="100%">
<metadata>
Created by FontXChange 20110222 at Mon Jun  1 14:17:13 2015
 By jasecoop
(c) Copyright The Font Bureau, Inc. 2014. All rights reserved.
</metadata>
<defs>
<font id="InputSans-Thin" horiz-adv-x="700" >
  <font-face 
    font-family="InputSans"
    font-weight="250"
    font-stretch="normal"
    units-per-em="1100"
    panose-1="2 0 4 6 2 0 0 9 0 4"
    ascent="850"
    descent="-250"
    x-height="600"
    bbox="-210 -450 1432 1400"
    underline-thickness="0"
    underline-position="0"
    unicode-range="U+000D-1F41B"
  />
<missing-glyph horiz-adv-x="800" 
d="M50 -250v1100h700v-1100h-700zM100 -200h600v1000h-600v-1000z" />
    <glyph glyph-name=".notdef" horiz-adv-x="800" 
d="M50 -250v1100h700v-1100h-700zM100 -200h600v1000h-600v-1000z" />
    <glyph glyph-name="NULL" horiz-adv-x="0" 
 />
    <glyph glyph-name="nonmarkingreturn" unicode="&#xd;" horiz-adv-x="0" 
 />
    <glyph glyph-name="space" unicode="&#xa0;" horiz-adv-x="600" 
 />
    <glyph glyph-name="space" unicode=" " horiz-adv-x="600" 
 />
    <glyph glyph-name="A" unicode="A" horiz-adv-x="800" 
d="M567 295l-168 429l-168 -429h336zM682 0l-98 250h-370l-98 -250h-51l318 800h35l318 -800h-54z" />
    <glyph glyph-name="Agrave" unicode="&#xc0;" horiz-adv-x="800" 
d="M65 0zM567 295l-168 429l-168 -429h336zM682 0l-98 250h-370l-98 -250h-51l318 800h35l318 -800h-54zM427 900l-185 200h80l146 -200h-41z" />
    <glyph glyph-name="Aacute" unicode="&#xc1;" horiz-adv-x="800" 
d="M65 0zM567 295l-168 429l-168 -429h336zM682 0l-98 250h-370l-98 -250h-51l318 800h35l318 -800h-54zM334 900l146 200h80l-185 -200h-41z" />
    <glyph glyph-name="Acircumflex" unicode="&#xc2;" horiz-adv-x="800" 
d="M65 0zM567 295l-168 429l-168 -429h336zM682 0l-98 250h-370l-98 -250h-51l318 800h35l318 -800h-54zM232 922l-21 27l173 168h32l174 -168l-21 -27l-169 148z" />
    <glyph glyph-name="Atilde" unicode="&#xc3;" horiz-adv-x="800" 
d="M65 0zM567 295l-168 429l-168 -429h336zM682 0l-98 250h-370l-98 -250h-51l318 800h35l318 -800h-54zM488 910q-33 0 -56.5 19.5t-51.5 70.5q-20 40 -34.5 55t-31.5 15q-31 0 -44.5 -33.5t-11.5 -105.5v-11h-42v15q0 87 24.5 131t73.5 44q34 0 56.5 -18t47.5 -67
q24 -43 39 -59t31 -16q29 0 42.5 33.5t13.5 105.5v11h42v-15q0 -87 -24.5 -131t-73.5 -44z" />
    <glyph glyph-name="Adieresis" unicode="&#xc4;" horiz-adv-x="800" 
d="M65 0zM567 295l-168 429l-168 -429h336zM682 0l-98 250h-370l-98 -250h-51l318 800h35l318 -800h-54zM296 930q-20 0 -32.5 7.5t-12.5 29.5v7q0 22 12.5 30.5t32.5 8.5t32.5 -8.5t12.5 -30.5v-7q0 -22 -13 -29.5t-32 -7.5zM506 930q-20 0 -32.5 7.5t-12.5 29.5v7
q0 22 12.5 30.5t32.5 8.5t32.5 -8.5t12.5 -30.5v-7q0 -22 -13 -29.5t-32 -7.5z" />
    <glyph glyph-name="Aring" unicode="&#xc5;" horiz-adv-x="800" 
d="M65 0zM567 295l-168 429l-168 -429h336zM682 0l-98 250h-370l-98 -250h-51l318 800h35l318 -800h-54zM401 885q-68 0 -104 37t-36 108v32q0 72 36 110t104 38t104 -38t36 -110v-32q0 -71 -36 -108t-104 -37zM401 926q49 0 70.5 25t21.5 79v32q0 56 -21.5 81.5t-70.5 25.5
t-70.5 -25.5t-21.5 -81.5v-32q0 -54 21.5 -79t70.5 -25z" />
    <glyph glyph-name="Amacron" unicode="&#x100;" horiz-adv-x="800" 
d="M65 0zM567 295l-168 429l-168 -429h336zM682 0l-98 250h-370l-98 -250h-51l318 800h35l318 -800h-54zM226 980v45h350v-45h-350z" />
    <glyph glyph-name="Abreve" unicode="&#x102;" horiz-adv-x="800" 
d="M65 0zM567 295l-168 429l-168 -429h336zM682 0l-98 250h-370l-98 -250h-51l318 800h35l318 -800h-54zM401 893q-98 0 -149.5 54t-52.5 156h50q2 -87 38 -126t114 -39t114 39t38 126h50q-1 -102 -52.5 -156t-149.5 -54z" />
    <glyph glyph-name="Aogonek" unicode="&#x104;" horiz-adv-x="800" 
d="M65 0zM567 295l-168 429l-168 -429h336zM682 0l-98 250h-370l-98 -250h-51l318 800h35l318 -800h-54zM702 -215q-59 0 -95 30t-36 79q0 43 31.5 80.5t86.5 59.5l12 -11q-41 -25 -60.5 -53t-19.5 -63q0 -40 20.5 -58.5t66.5 -18.5q21 0 38 2t36 6v-45q-19 -4 -41 -6
t-39 -2z" />
    <glyph glyph-name="Aringacute" unicode="&#x1fa;" horiz-adv-x="800" 
d="M65 0zM567 295l-168 429l-168 -429h336zM682 0l-98 250h-370l-98 -250h-51l318 800h35l318 -800h-54zM401 885q-68 0 -104 37t-36 108v32q0 72 36 110t104 38t104 -38t36 -110v-32q0 -71 -36 -108t-104 -37zM401 926q49 0 70.5 25t21.5 79v32q0 56 -21.5 81.5t-70.5 25.5
t-70.5 -25.5t-21.5 -81.5v-32q0 -54 21.5 -79t70.5 -25zM393 1200l146 200h80l-185 -200h-41z" />
    <glyph glyph-name="B" unicode="B" horiz-adv-x="800" 
d="M125 0v800h323q101 0 155 -48.5t54 -139.5v-45q0 -54 -29.5 -92t-79.5 -47v-9q63 -6 102 -52.5t39 -117.5v-45q0 -99 -57 -151.5t-164 -52.5h-343zM175 441h273q87 0 124 32.5t37 107.5v28q0 78 -37 112t-124 34h-273v-314zM175 45h293q92 0 131.5 37t39.5 123v32
q0 85 -39.5 122t-131.5 37h-293v-351z" />
    <glyph glyph-name="C" unicode="C" horiz-adv-x="800" 
d="M410 -10q-139 0 -212 71.5t-73 205.5v262q0 137 73 209t213 72q131 0 204 -59.5t80 -186.5l-50 -5q-10 115 -62 160.5t-173 45.5q-125 0 -180 -57.5t-55 -188.5v-242q0 -129 55 -185.5t180 -56.5q124 0 179 47.5t56 154.5l50 -5q0 -118 -73 -180t-212 -62z" />
    <glyph glyph-name="Ccedilla" unicode="&#xc7;" horiz-adv-x="800" 
d="M125 0zM410 -10q-139 0 -212 71.5t-73 205.5v262q0 137 73 209t213 72q131 0 204 -59.5t80 -186.5l-50 -5q-10 115 -62 160.5t-173 45.5q-125 0 -180 -57.5t-55 -188.5v-242q0 -129 55 -185.5t180 -56.5q124 0 179 47.5t56 154.5l50 -5q0 -118 -73 -180t-212 -62zM380 0
l10 22q60 -11 92 -43t32 -80q0 -54 -36 -84.5t-100 -30.5q-57 0 -93 25.5t-40 85.5l48 4q4 -40 22.5 -56.5t57.5 -16.5q50 0 70.5 17t20.5 59q0 40 -19.5 62.5t-64.5 35.5z" />
    <glyph glyph-name="Cacute" unicode="&#x106;" horiz-adv-x="800" 
d="M125 0zM410 -10q-139 0 -212 71.5t-73 205.5v262q0 137 73 209t213 72q131 0 204 -59.5t80 -186.5l-50 -5q-10 115 -62 160.5t-173 45.5q-125 0 -180 -57.5t-55 -188.5v-242q0 -129 55 -185.5t180 -56.5q124 0 179 47.5t56 154.5l50 -5q0 -118 -73 -180t-212 -62z
M343 900l146 200h80l-185 -200h-41z" />
    <glyph glyph-name="Ccircumflex" unicode="&#x108;" horiz-adv-x="800" 
d="M125 0zM410 -10q-139 0 -212 71.5t-73 205.5v262q0 137 73 209t213 72q131 0 204 -59.5t80 -186.5l-50 -5q-10 115 -62 160.5t-173 45.5q-125 0 -180 -57.5t-55 -188.5v-242q0 -129 55 -185.5t180 -56.5q124 0 179 47.5t56 154.5l50 -5q0 -118 -73 -180t-212 -62z
M241 922l-21 27l173 168h32l174 -168l-21 -27l-169 148z" />
    <glyph glyph-name="Cdotaccent" unicode="&#x10a;" horiz-adv-x="800" 
d="M125 0zM410 -10q-139 0 -212 71.5t-73 205.5v262q0 137 73 209t213 72q131 0 204 -59.5t80 -186.5l-50 -5q-10 115 -62 160.5t-173 45.5q-125 0 -180 -57.5t-55 -188.5v-242q0 -129 55 -185.5t180 -56.5q124 0 179 47.5t56 154.5l50 -5q0 -118 -73 -180t-212 -62z
M410 930q-22 0 -36 8t-14 29v7q0 22 14 30.5t36 8.5t36 -8.5t14 -30.5v-7q0 -21 -14 -29t-36 -8z" />
    <glyph glyph-name="Ccaron" unicode="&#x10c;" horiz-adv-x="800" 
d="M125 0zM410 -10q-139 0 -212 71.5t-73 205.5v262q0 137 73 209t213 72q131 0 204 -59.5t80 -186.5l-50 -5q-10 115 -62 160.5t-173 45.5q-125 0 -180 -57.5t-55 -188.5v-242q0 -129 55 -185.5t180 -56.5q124 0 179 47.5t56 154.5l50 -5q0 -118 -73 -180t-212 -62z
M394 904l-174 168l21 27l169 -148l168 148l21 -27l-173 -168h-32z" />
    <glyph glyph-name="D" unicode="D" horiz-adv-x="800" 
d="M125 0v800h246q143 0 223.5 -79.5t80.5 -211.5v-222q0 -131 -81 -209t-224 -78h-245zM175 45h195q129 0 192 67t63 175v222q0 107 -63 176.5t-192 69.5h-195v-710z" />
    <glyph glyph-name="Dcaron" unicode="&#x10e;" horiz-adv-x="800" 
d="M125 0zM125 0v800h246q143 0 223.5 -79.5t80.5 -211.5v-222q0 -131 -81 -209t-224 -78h-245zM175 45h195q129 0 192 67t63 175v222q0 107 -63 176.5t-192 69.5h-195v-710zM384 904l-174 168l21 27l169 -148l168 148l21 -27l-173 -168h-32z" />
    <glyph glyph-name="E" unicode="E" 
d="M125 0v800h470v-45h-420v-295h370v-45h-370v-370h420v-45h-470z" />
    <glyph glyph-name="Egrave" unicode="&#xc8;" 
d="M125 0zM125 0v800h470v-45h-420v-295h370v-45h-370v-370h420v-45h-470zM386 900l-185 200h80l146 -200h-41z" />
    <glyph glyph-name="Eacute" unicode="&#xc9;" 
d="M125 0zM125 0v800h470v-45h-420v-295h370v-45h-370v-370h420v-45h-470zM293 900l146 200h80l-185 -200h-41z" />
    <glyph glyph-name="Ecircumflex" unicode="&#xca;" 
d="M125 0zM125 0v800h470v-45h-420v-295h370v-45h-370v-370h420v-45h-470zM191 922l-21 27l173 168h32l174 -168l-21 -27l-169 148z" />
    <glyph glyph-name="Edieresis" unicode="&#xcb;" 
d="M125 0zM125 0v800h470v-45h-420v-295h370v-45h-370v-370h420v-45h-470zM265 930q-20 0 -32.5 7.5t-12.5 29.5v7q0 22 12.5 30.5t32.5 8.5t32.5 -8.5t12.5 -30.5v-7q0 -22 -13 -29.5t-32 -7.5zM475 930q-20 0 -32.5 7.5t-12.5 29.5v7q0 22 12.5 30.5t32.5 8.5t32.5 -8.5
t12.5 -30.5v-7q0 -22 -13 -29.5t-32 -7.5z" />
    <glyph glyph-name="Emacron" unicode="&#x112;" 
d="M125 0zM125 0v800h470v-45h-420v-295h370v-45h-370v-370h420v-45h-470zM185 980v45h350v-45h-350z" />
    <glyph glyph-name="Ebreve" unicode="&#x114;" 
d="M125 0zM125 0v800h470v-45h-420v-295h370v-45h-370v-370h420v-45h-470zM360 893q-98 0 -149.5 54t-52.5 156h50q2 -87 38 -126t114 -39t114 39t38 126h50q-1 -102 -52.5 -156t-149.5 -54z" />
    <glyph glyph-name="Edotaccent" unicode="&#x116;" 
d="M125 0zM125 0v800h470v-45h-420v-295h370v-45h-370v-370h420v-45h-470zM360 930q-22 0 -36 8t-14 29v7q0 22 14 30.5t36 8.5t36 -8.5t14 -30.5v-7q0 -21 -14 -29t-36 -8z" />
    <glyph glyph-name="Eogonek" unicode="&#x118;" 
d="M125 0zM125 0v800h470v-45h-420v-295h370v-45h-370v-370h420v-45h-470zM520 -215q-59 0 -95 30t-36 79q0 43 31.5 80.5t86.5 59.5l12 -11q-41 -25 -60.5 -53t-19.5 -63q0 -40 20.5 -58.5t66.5 -18.5q21 0 38 2t36 6v-45q-19 -4 -41 -6t-39 -2z" />
    <glyph glyph-name="Ecaron" unicode="&#x11a;" 
d="M125 0zM125 0v800h470v-45h-420v-295h370v-45h-370v-370h420v-45h-470zM344 904l-174 168l21 27l169 -148l168 148l21 -27l-173 -168h-32z" />
    <glyph glyph-name="F" unicode="F" 
d="M125 0v800h470v-45h-420v-380h350v-45h-350v-330h-50z" />
    <glyph glyph-name="G" unicode="G" horiz-adv-x="800" 
d="M420 -10q-151 0 -223 76.5t-72 210.5v242q0 136 67.5 213.5t218.5 77.5q137 0 197 -54.5t67 -173.5l-50 -6q-8 97 -48 143t-167 46q-122 0 -178.5 -58.5t-56.5 -187.5v-242q0 -127 58.5 -184.5t186.5 -57.5q123 0 174 67t51 228h-245v45h295v-44q0 -167 -62 -254
t-213 -87z" />
    <glyph glyph-name="Gcircumflex" unicode="&#x11c;" horiz-adv-x="800" 
d="M125 0zM420 -10q-151 0 -223 76.5t-72 210.5v242q0 136 67.5 213.5t218.5 77.5q137 0 197 -54.5t67 -173.5l-50 -6q-8 97 -48 143t-167 46q-122 0 -178.5 -58.5t-56.5 -187.5v-242q0 -127 58.5 -184.5t186.5 -57.5q123 0 174 67t51 228h-245v45h295v-44q0 -167 -62 -254
t-213 -87zM241 922l-21 27l173 168h32l174 -168l-21 -27l-169 148z" />
    <glyph glyph-name="Gbreve" unicode="&#x11e;" horiz-adv-x="800" 
d="M125 0zM420 -10q-151 0 -223 76.5t-72 210.5v242q0 136 67.5 213.5t218.5 77.5q137 0 197 -54.5t67 -173.5l-50 -6q-8 97 -48 143t-167 46q-122 0 -178.5 -58.5t-56.5 -187.5v-242q0 -127 58.5 -184.5t186.5 -57.5q123 0 174 67t51 228h-245v45h295v-44q0 -167 -62 -254
t-213 -87zM410 893q-98 0 -149.5 54t-52.5 156h50q2 -87 38 -126t114 -39t114 39t38 126h50q-1 -102 -52.5 -156t-149.5 -54z" />
    <glyph glyph-name="Gdotaccent" unicode="&#x120;" horiz-adv-x="800" 
d="M125 0zM420 -10q-151 0 -223 76.5t-72 210.5v242q0 136 67.5 213.5t218.5 77.5q137 0 197 -54.5t67 -173.5l-50 -6q-8 97 -48 143t-167 46q-122 0 -178.5 -58.5t-56.5 -187.5v-242q0 -127 58.5 -184.5t186.5 -57.5q123 0 174 67t51 228h-245v45h295v-44q0 -167 -62 -254
t-213 -87zM410 930q-22 0 -36 8t-14 29v7q0 22 14 30.5t36 8.5t36 -8.5t14 -30.5v-7q0 -21 -14 -29t-36 -8z" />
    <glyph glyph-name="Gcommaaccent" unicode="&#x122;" horiz-adv-x="800" 
d="M125 0zM420 -10q-151 0 -223 76.5t-72 210.5v242q0 136 67.5 213.5t218.5 77.5q137 0 197 -54.5t67 -173.5l-50 -6q-8 97 -48 143t-167 46q-122 0 -178.5 -58.5t-56.5 -187.5v-242q0 -127 58.5 -184.5t186.5 -57.5q123 0 174 67t51 228h-245v45h295v-44q0 -167 -62 -254
t-213 -87zM296 -300l96 200h80l-135 -200h-41z" />
    <glyph glyph-name="H" unicode="H" horiz-adv-x="800" 
d="M125 0v800h50v-340h450v340h50v-800h-50v415h-450v-415h-50z" />
    <glyph glyph-name="Hcircumflex" unicode="&#x124;" horiz-adv-x="800" 
d="M125 0zM125 0v800h50v-340h450v340h50v-800h-50v415h-450v-415h-50zM231 922l-21 27l173 168h32l174 -168l-21 -27l-169 148z" />
    <glyph glyph-name="I" unicode="I" 
d="M125 0v45h200v710h-200v45h450v-45h-200v-710h200v-45h-450z" />
    <glyph glyph-name="Igrave" unicode="&#xcc;" 
d="M125 0zM125 0v45h200v710h-200v45h450v-45h-200v-710h200v-45h-450zM376 900l-185 200h80l146 -200h-41z" />
    <glyph glyph-name="Iacute" unicode="&#xcd;" 
d="M125 0zM125 0v45h200v710h-200v45h450v-45h-200v-710h200v-45h-450zM283 900l146 200h80l-185 -200h-41z" />
    <glyph glyph-name="Icircumflex" unicode="&#xce;" 
d="M125 0zM125 0v45h200v710h-200v45h450v-45h-200v-710h200v-45h-450zM181 922l-21 27l173 168h32l174 -168l-21 -27l-169 148z" />
    <glyph glyph-name="Idieresis" unicode="&#xcf;" 
d="M125 0zM125 0v45h200v710h-200v45h450v-45h-200v-710h200v-45h-450zM245 930q-20 0 -32.5 7.5t-12.5 29.5v7q0 22 12.5 30.5t32.5 8.5t32.5 -8.5t12.5 -30.5v-7q0 -22 -13 -29.5t-32 -7.5zM455 930q-20 0 -32.5 7.5t-12.5 29.5v7q0 22 12.5 30.5t32.5 8.5t32.5 -8.5
t12.5 -30.5v-7q0 -22 -13 -29.5t-32 -7.5z" />
    <glyph glyph-name="Itilde" unicode="&#x128;" 
d="M125 0zM125 0v45h200v710h-200v45h450v-45h-200v-710h200v-45h-450zM437 910q-33 0 -56.5 19.5t-51.5 70.5q-20 40 -34.5 55t-31.5 15q-31 0 -44.5 -33.5t-11.5 -105.5v-11h-42v15q0 87 24.5 131t73.5 44q34 0 56.5 -18t47.5 -67q24 -43 39 -59t31 -16q29 0 42.5 33.5
t13.5 105.5v11h42v-15q0 -87 -24.5 -131t-73.5 -44z" />
    <glyph glyph-name="Imacron" unicode="&#x12a;" 
d="M125 0zM125 0v45h200v710h-200v45h450v-45h-200v-710h200v-45h-450zM175 980v45h350v-45h-350z" />
    <glyph glyph-name="Ibreve" unicode="&#x12c;" 
d="M125 0zM125 0v45h200v710h-200v45h450v-45h-200v-710h200v-45h-450zM350 893q-98 0 -149.5 54t-52.5 156h50q2 -87 38 -126t114 -39t114 39t38 126h50q-1 -102 -52.5 -156t-149.5 -54z" />
    <glyph glyph-name="Iogonek" unicode="&#x12e;" 
d="M125 0zM125 0v45h200v710h-200v45h450v-45h-200v-710h200v-45h-450zM405 -215q-59 0 -95 30t-36 79q0 43 31.5 80.5t86.5 59.5l12 -11q-41 -25 -60.5 -53t-19.5 -63q0 -40 20.5 -58.5t66.5 -18.5q21 0 38 2t36 6v-45q-19 -4 -41 -6t-39 -2z" />
    <glyph glyph-name="Idotaccent" unicode="&#x130;" 
d="M125 0zM125 0v45h200v710h-200v45h450v-45h-200v-710h200v-45h-450zM350 930q-22 0 -36 8t-14 29v7q0 22 14 30.5t36 8.5t36 -8.5t14 -30.5v-7q0 -21 -14 -29t-36 -8z" />
    <glyph glyph-name="J" unicode="J" 
d="M329 -10q-120 0 -179 59t-65 186l50 6q8 -123 47 -164.5t144 -41.5q106 0 152.5 53t46.5 171v496h-225v45h275v-540q0 -140 -59 -205t-187 -65z" />
    <glyph glyph-name="Jcircumflex" unicode="&#x134;" 
d="M85 0zM329 -10q-120 0 -179 59t-65 186l50 6q8 -123 47 -164.5t144 -41.5q106 0 152.5 53t46.5 171v496h-225v45h275v-540q0 -140 -59 -205t-187 -65zM281 922l-21 27l173 168h32l174 -168l-21 -27l-169 148z" />
    <glyph glyph-name="K" unicode="K" 
d="M175 400v-400h-50v800h50v-355h84l309 355h66l-326 -372l323 -428h-63l-299 400h-94z" />
    <glyph glyph-name="Kcommaaccent" unicode="&#x136;" 
d="M125 0zM175 400v-400h-50v800h50v-355h84l309 355h66l-326 -372l323 -428h-63l-299 400h-94zM206 -300l96 200h80l-135 -200h-41z" />
    <glyph glyph-name="L" unicode="L" horiz-adv-x="600" 
d="M125 0v800h50v-755h360v-45h-410z" />
    <glyph glyph-name="Lacute" unicode="&#x139;" horiz-adv-x="600" 
d="M108 0zM125 0v800h50v-755h360v-45h-410zM108 900l146 200h80l-185 -200h-41z" />
    <glyph glyph-name="Lcommaaccent" unicode="&#x13b;" horiz-adv-x="600" 
d="M125 0zM125 0v800h50v-755h360v-45h-410zM211 -300l96 200h80l-135 -200h-41z" />
    <glyph glyph-name="Lcaron" unicode="&#x13d;" horiz-adv-x="600" 
d="M125 0zM125 0v800h50v-755h360v-45h-410zM396 555l81 245h67l-106 -245h-42z" />
    <glyph glyph-name="M" unicode="M" horiz-adv-x="900" 
d="M427 200l-252 528v-728h-50v800h68l258 -544l258 544h66v-800h-50v729l-253 -529h-45z" />
    <glyph glyph-name="N" unicode="N" horiz-adv-x="800" 
d="M617 0l-444 715v-715h-48v800h52l450 -727v727h48v-800h-58z" />
    <glyph glyph-name="Ntilde" unicode="&#xd1;" horiz-adv-x="800" 
d="M125 0zM617 0l-444 715v-715h-48v800h52l450 -727v727h48v-800h-58zM507 910q-33 0 -56.5 19.5t-51.5 70.5q-20 40 -34.5 55t-31.5 15q-31 0 -44.5 -33.5t-11.5 -105.5v-11h-42v15q0 87 24.5 131t73.5 44q34 0 56.5 -18t47.5 -67q24 -43 39 -59t31 -16q29 0 42.5 33.5
t13.5 105.5v11h42v-15q0 -87 -24.5 -131t-73.5 -44z" />
    <glyph glyph-name="Nacute" unicode="&#x143;" horiz-adv-x="800" 
d="M125 0zM617 0l-444 715v-715h-48v800h52l450 -727v727h48v-800h-58zM353 900l146 200h80l-185 -200h-41z" />
    <glyph glyph-name="Ncommaaccent" unicode="&#x145;" horiz-adv-x="800" 
d="M125 0zM617 0l-444 715v-715h-48v800h52l450 -727v727h48v-800h-58zM266 -300l96 200h80l-135 -200h-41z" />
    <glyph glyph-name="Ncaron" unicode="&#x147;" horiz-adv-x="800" 
d="M125 0zM617 0l-444 715v-715h-48v800h52l450 -727v727h48v-800h-58zM404 904l-174 168l21 27l169 -148l168 148l21 -27l-173 -168h-32z" />
    <glyph glyph-name="O" unicode="O" horiz-adv-x="800" 
d="M400 -10q-137 0 -206 70t-69 217v242q0 149 69.5 220t206.5 71q136 0 205 -71t69 -220v-242q0 -147 -69 -217t-206 -70zM400 35q122 0 173.5 56t51.5 186v242q0 132 -51.5 189t-173.5 57t-173.5 -57t-51.5 -189v-242q0 -130 51.5 -186t173.5 -56z" />
    <glyph glyph-name="Ograve" unicode="&#xd2;" horiz-adv-x="800" 
d="M125 0zM400 -10q-137 0 -206 70t-69 217v242q0 149 69.5 220t206.5 71q136 0 205 -71t69 -220v-242q0 -147 -69 -217t-206 -70zM400 35q122 0 173.5 56t51.5 186v242q0 132 -51.5 189t-173.5 57t-173.5 -57t-51.5 -189v-242q0 -130 51.5 -186t173.5 -56zM426 900
l-185 200h80l146 -200h-41z" />
    <glyph glyph-name="Oacute" unicode="&#xd3;" horiz-adv-x="800" 
d="M125 0zM400 -10q-137 0 -206 70t-69 217v242q0 149 69.5 220t206.5 71q136 0 205 -71t69 -220v-242q0 -147 -69 -217t-206 -70zM400 35q122 0 173.5 56t51.5 186v242q0 132 -51.5 189t-173.5 57t-173.5 -57t-51.5 -189v-242q0 -130 51.5 -186t173.5 -56zM333 900l146 200
h80l-185 -200h-41z" />
    <glyph glyph-name="Ocircumflex" unicode="&#xd4;" horiz-adv-x="800" 
d="M125 0zM400 -10q-137 0 -206 70t-69 217v242q0 149 69.5 220t206.5 71q136 0 205 -71t69 -220v-242q0 -147 -69 -217t-206 -70zM400 35q122 0 173.5 56t51.5 186v242q0 132 -51.5 189t-173.5 57t-173.5 -57t-51.5 -189v-242q0 -130 51.5 -186t173.5 -56zM231 922l-21 27
l173 168h32l174 -168l-21 -27l-169 148z" />
    <glyph glyph-name="Otilde" unicode="&#xd5;" horiz-adv-x="800" 
d="M125 0zM400 -10q-137 0 -206 70t-69 217v242q0 149 69.5 220t206.5 71q136 0 205 -71t69 -220v-242q0 -147 -69 -217t-206 -70zM400 35q122 0 173.5 56t51.5 186v242q0 132 -51.5 189t-173.5 57t-173.5 -57t-51.5 -189v-242q0 -130 51.5 -186t173.5 -56zM487 910
q-33 0 -56.5 19.5t-51.5 70.5q-20 40 -34.5 55t-31.5 15q-31 0 -44.5 -33.5t-11.5 -105.5v-11h-42v15q0 87 24.5 131t73.5 44q34 0 56.5 -18t47.5 -67q24 -43 39 -59t31 -16q29 0 42.5 33.5t13.5 105.5v11h42v-15q0 -87 -24.5 -131t-73.5 -44z" />
    <glyph glyph-name="Odieresis" unicode="&#xd6;" horiz-adv-x="800" 
d="M125 0zM400 -10q-137 0 -206 70t-69 217v242q0 149 69.5 220t206.5 71q136 0 205 -71t69 -220v-242q0 -147 -69 -217t-206 -70zM400 35q122 0 173.5 56t51.5 186v242q0 132 -51.5 189t-173.5 57t-173.5 -57t-51.5 -189v-242q0 -130 51.5 -186t173.5 -56zM295 930
q-20 0 -32.5 7.5t-12.5 29.5v7q0 22 12.5 30.5t32.5 8.5t32.5 -8.5t12.5 -30.5v-7q0 -22 -13 -29.5t-32 -7.5zM505 930q-20 0 -32.5 7.5t-12.5 29.5v7q0 22 12.5 30.5t32.5 8.5t32.5 -8.5t12.5 -30.5v-7q0 -22 -13 -29.5t-32 -7.5z" />
    <glyph glyph-name="Omacron" unicode="&#x14c;" horiz-adv-x="800" 
d="M125 0zM400 -10q-137 0 -206 70t-69 217v242q0 149 69.5 220t206.5 71q136 0 205 -71t69 -220v-242q0 -147 -69 -217t-206 -70zM400 35q122 0 173.5 56t51.5 186v242q0 132 -51.5 189t-173.5 57t-173.5 -57t-51.5 -189v-242q0 -130 51.5 -186t173.5 -56zM225 980v45h350
v-45h-350z" />
    <glyph glyph-name="Obreve" unicode="&#x14e;" horiz-adv-x="800" 
d="M125 0zM400 -10q-137 0 -206 70t-69 217v242q0 149 69.5 220t206.5 71q136 0 205 -71t69 -220v-242q0 -147 -69 -217t-206 -70zM400 35q122 0 173.5 56t51.5 186v242q0 132 -51.5 189t-173.5 57t-173.5 -57t-51.5 -189v-242q0 -130 51.5 -186t173.5 -56zM400 893
q-98 0 -149.5 54t-52.5 156h50q2 -87 38 -126t114 -39t114 39t38 126h50q-1 -102 -52.5 -156t-149.5 -54z" />
    <glyph glyph-name="Ohungarumlaut" unicode="&#x150;" horiz-adv-x="800" 
d="M125 0zM400 -10q-137 0 -206 70t-69 217v242q0 149 69.5 220t206.5 71q136 0 205 -71t69 -220v-242q0 -147 -69 -217t-206 -70zM400 35q122 0 173.5 56t51.5 186v242q0 132 -51.5 189t-173.5 57t-173.5 -57t-51.5 -189v-242q0 -130 51.5 -186t173.5 -56zM476 900l56 200
h90l-105 -200h-41zM286 900l56 200h90l-105 -200h-41z" />
    <glyph glyph-name="P" unicode="P" 
d="M125 0v800h256q109 0 166.5 -54t57.5 -157v-98q0 -103 -57.5 -157t-167.5 -54h-205v-280h-50zM175 325h205q93 0 134 39t41 129v92q0 90 -41 130t-134 40h-205v-430z" />
    <glyph glyph-name="Q" unicode="Q" horiz-adv-x="800" 
d="M700 -191q-146 -31 -226.5 15.5t-83.5 165.5q-131 3 -198 75t-67 212v242q0 145 69.5 218t206.5 73q136 0 205 -73t69 -218v-242q0 -132 -59.5 -203.5t-175.5 -81.5q2 -104 66.5 -134t184.5 -5zM400 35q122 0 173.5 56t51.5 186v242q0 132 -51.5 189t-173.5 57
t-173.5 -57t-51.5 -189v-242q0 -130 51.5 -186t173.5 -56z" />
    <glyph glyph-name="R" unicode="R" horiz-adv-x="800" 
d="M175 359h275q93 0 134 39t41 129v58q0 90 -41 130t-134 40h-275v-396zM175 0h-50v800h326q113 0 168.5 -54t55.5 -157v-64q0 -96 -48 -149.5t-144 -60.5l206 -315h-58l-205 314h-251v-314z" />
    <glyph glyph-name="Racute" unicode="&#x154;" horiz-adv-x="800" 
d="M125 0zM175 359h275q93 0 134 39t41 129v58q0 90 -41 130t-134 40h-275v-396zM175 0h-50v800h326q113 0 168.5 -54t55.5 -157v-64q0 -96 -48 -149.5t-144 -60.5l206 -315h-58l-205 314h-251v-314zM318 900l146 200h80l-185 -200h-41z" />
    <glyph glyph-name="Rcommaaccent" unicode="&#x156;" horiz-adv-x="800" 
d="M125 0zM175 359h275q93 0 134 39t41 129v58q0 90 -41 130t-134 40h-275v-396zM175 0h-50v800h326q113 0 168.5 -54t55.5 -157v-64q0 -96 -48 -149.5t-144 -60.5l206 -315h-58l-205 314h-251v-314zM251 -300l96 200h80l-135 -200h-41z" />
    <glyph glyph-name="Rcaron" unicode="&#x158;" horiz-adv-x="800" 
d="M125 0zM175 359h275q93 0 134 39t41 129v58q0 90 -41 130t-134 40h-275v-396zM175 0h-50v800h326q113 0 168.5 -54t55.5 -157v-64q0 -96 -48 -149.5t-144 -60.5l206 -315h-58l-205 314h-251v-314zM369 904l-174 168l21 27l169 -148l168 148l21 -27l-173 -168h-32z" />
    <glyph glyph-name="S" unicode="S" horiz-adv-x="800" 
d="M412 -6q-120 0 -189.5 44t-97.5 138l43 17q29 -90 85.5 -122t159.5 -32q114 0 170 40.5t56 123.5q0 84 -46.5 121t-180.5 62q-154 27 -212.5 75.5t-58.5 141.5t68.5 147t191.5 54q97 0 160 -39.5t101 -123.5l-43 -18q-36 76 -88.5 106t-129.5 30q-107 0 -159.5 -37.5
t-52.5 -114.5q0 -78 47.5 -113.5t184.5 -60.5q152 -27 208.5 -77.5t56.5 -152.5q0 -95 -71 -152t-203 -57z" />
    <glyph glyph-name="Sacute" unicode="&#x15a;" horiz-adv-x="800" 
d="M125 0zM412 -6q-120 0 -189.5 44t-97.5 138l43 17q29 -90 85.5 -122t159.5 -32q114 0 170 40.5t56 123.5q0 84 -46.5 121t-180.5 62q-154 27 -212.5 75.5t-58.5 141.5t68.5 147t191.5 54q97 0 160 -39.5t101 -123.5l-43 -18q-36 76 -88.5 106t-129.5 30
q-107 0 -159.5 -37.5t-52.5 -114.5q0 -78 47.5 -113.5t184.5 -60.5q152 -27 208.5 -77.5t56.5 -152.5q0 -95 -71 -152t-203 -57zM334 900l146 200h80l-185 -200h-41z" />
    <glyph glyph-name="Scircumflex" unicode="&#x15c;" horiz-adv-x="800" 
d="M125 0zM412 -6q-120 0 -189.5 44t-97.5 138l43 17q29 -90 85.5 -122t159.5 -32q114 0 170 40.5t56 123.5q0 84 -46.5 121t-180.5 62q-154 27 -212.5 75.5t-58.5 141.5t68.5 147t191.5 54q97 0 160 -39.5t101 -123.5l-43 -18q-36 76 -88.5 106t-129.5 30
q-107 0 -159.5 -37.5t-52.5 -114.5q0 -78 47.5 -113.5t184.5 -60.5q152 -27 208.5 -77.5t56.5 -152.5q0 -95 -71 -152t-203 -57zM232 922l-21 27l173 168h32l174 -168l-21 -27l-169 148z" />
    <glyph glyph-name="Scedilla" unicode="&#x15e;" horiz-adv-x="800" 
d="M125 0zM412 -6q-120 0 -189.5 44t-97.5 138l43 17q29 -90 85.5 -122t159.5 -32q114 0 170 40.5t56 123.5q0 84 -46.5 121t-180.5 62q-154 27 -212.5 75.5t-58.5 141.5t68.5 147t191.5 54q97 0 160 -39.5t101 -123.5l-43 -18q-36 76 -88.5 106t-129.5 30
q-107 0 -159.5 -37.5t-52.5 -114.5q0 -78 47.5 -113.5t184.5 -60.5q152 -27 208.5 -77.5t56.5 -152.5q0 -95 -71 -152t-203 -57zM371 0l10 22q60 -11 92 -43t32 -80q0 -54 -36 -84.5t-100 -30.5q-57 0 -93 25.5t-40 85.5l48 4q4 -40 22.5 -56.5t57.5 -16.5q50 0 70.5 17
t20.5 59q0 40 -19.5 62.5t-64.5 35.5z" />
    <glyph glyph-name="Scaron" unicode="&#x160;" horiz-adv-x="800" 
d="M125 0zM412 -6q-120 0 -189.5 44t-97.5 138l43 17q29 -90 85.5 -122t159.5 -32q114 0 170 40.5t56 123.5q0 84 -46.5 121t-180.5 62q-154 27 -212.5 75.5t-58.5 141.5t68.5 147t191.5 54q97 0 160 -39.5t101 -123.5l-43 -18q-36 76 -88.5 106t-129.5 30
q-107 0 -159.5 -37.5t-52.5 -114.5q0 -78 47.5 -113.5t184.5 -60.5q152 -27 208.5 -77.5t56.5 -152.5q0 -95 -71 -152t-203 -57zM385 904l-174 168l21 27l169 -148l168 148l21 -27l-173 -168h-32z" />
    <glyph glyph-name="Scommaaccent" unicode="&#x218;" horiz-adv-x="800" 
d="M125 0zM412 -6q-120 0 -189.5 44t-97.5 138l43 17q29 -90 85.5 -122t159.5 -32q114 0 170 40.5t56 123.5q0 84 -46.5 121t-180.5 62q-154 27 -212.5 75.5t-58.5 141.5t68.5 147t191.5 54q97 0 160 -39.5t101 -123.5l-43 -18q-36 76 -88.5 106t-129.5 30
q-107 0 -159.5 -37.5t-52.5 -114.5q0 -78 47.5 -113.5t184.5 -60.5q152 -27 208.5 -77.5t56.5 -152.5q0 -95 -71 -152t-203 -57zM266 -300l96 200h80l-135 -200h-41z" />
    <glyph glyph-name="T" unicode="T" 
d="M325 0v755h-250v45h550v-45h-250v-755h-50z" />
    <glyph glyph-name="Tcedilla" unicode="&#x162;" 
d="M75 0zM325 0v755h-250v45h550v-45h-250v-755h-50zM327 0l10 22q60 -11 92 -43t32 -80q0 -54 -36 -84.5t-100 -30.5q-57 0 -93 25.5t-40 85.5l48 4q4 -40 22.5 -56.5t57.5 -16.5q50 0 70.5 17t20.5 59q0 40 -19.5 62.5t-64.5 35.5z" />
    <glyph glyph-name="Tcaron" unicode="&#x164;" 
d="M75 0zM325 0v755h-250v45h550v-45h-250v-755h-50zM334 904l-174 168l21 27l169 -148l168 148l21 -27l-173 -168h-32z" />
    <glyph glyph-name="Tcommaaccent" unicode="&#x21a;" 
d="M75 0zM325 0v755h-250v45h550v-45h-250v-755h-50zM215 -300l96 200h80l-135 -200h-41z" />
    <glyph glyph-name="U" unicode="U" horiz-adv-x="800" 
d="M400 -10q-137 0 -206 72t-69 215v523h50v-523q0 -129 52.5 -185.5t172.5 -56.5t172.5 56.5t52.5 185.5v523h50v-523q0 -143 -69 -215t-206 -72z" />
    <glyph glyph-name="Ugrave" unicode="&#xd9;" horiz-adv-x="800" 
d="M125 0zM400 -10q-137 0 -206 72t-69 215v523h50v-523q0 -129 52.5 -185.5t172.5 -56.5t172.5 56.5t52.5 185.5v523h50v-523q0 -143 -69 -215t-206 -72zM426 900l-185 200h80l146 -200h-41z" />
    <glyph glyph-name="Uacute" unicode="&#xda;" horiz-adv-x="800" 
d="M125 0zM400 -10q-137 0 -206 72t-69 215v523h50v-523q0 -129 52.5 -185.5t172.5 -56.5t172.5 56.5t52.5 185.5v523h50v-523q0 -143 -69 -215t-206 -72zM333 900l146 200h80l-185 -200h-41z" />
    <glyph glyph-name="Ucircumflex" unicode="&#xdb;" horiz-adv-x="800" 
d="M125 0zM400 -10q-137 0 -206 72t-69 215v523h50v-523q0 -129 52.5 -185.5t172.5 -56.5t172.5 56.5t52.5 185.5v523h50v-523q0 -143 -69 -215t-206 -72zM231 922l-21 27l173 168h32l174 -168l-21 -27l-169 148z" />
    <glyph glyph-name="Udieresis" unicode="&#xdc;" horiz-adv-x="800" 
d="M125 0zM400 -10q-137 0 -206 72t-69 215v523h50v-523q0 -129 52.5 -185.5t172.5 -56.5t172.5 56.5t52.5 185.5v523h50v-523q0 -143 -69 -215t-206 -72zM295 930q-20 0 -32.5 7.5t-12.5 29.5v7q0 22 12.5 30.5t32.5 8.5t32.5 -8.5t12.5 -30.5v-7q0 -22 -13 -29.5t-32 -7.5
zM505 930q-20 0 -32.5 7.5t-12.5 29.5v7q0 22 12.5 30.5t32.5 8.5t32.5 -8.5t12.5 -30.5v-7q0 -22 -13 -29.5t-32 -7.5z" />
    <glyph glyph-name="Utilde" unicode="&#x168;" horiz-adv-x="800" 
d="M125 0zM400 -10q-137 0 -206 72t-69 215v523h50v-523q0 -129 52.5 -185.5t172.5 -56.5t172.5 56.5t52.5 185.5v523h50v-523q0 -143 -69 -215t-206 -72zM487 910q-33 0 -56.5 19.5t-51.5 70.5q-20 40 -34.5 55t-31.5 15q-31 0 -44.5 -33.5t-11.5 -105.5v-11h-42v15
q0 87 24.5 131t73.5 44q34 0 56.5 -18t47.5 -67q24 -43 39 -59t31 -16q29 0 42.5 33.5t13.5 105.5v11h42v-15q0 -87 -24.5 -131t-73.5 -44z" />
    <glyph glyph-name="Umacron" unicode="&#x16a;" horiz-adv-x="800" 
d="M125 0zM400 -10q-137 0 -206 72t-69 215v523h50v-523q0 -129 52.5 -185.5t172.5 -56.5t172.5 56.5t52.5 185.5v523h50v-523q0 -143 -69 -215t-206 -72zM225 980v45h350v-45h-350z" />
    <glyph glyph-name="Ubreve" unicode="&#x16c;" horiz-adv-x="800" 
d="M125 0zM400 -10q-137 0 -206 72t-69 215v523h50v-523q0 -129 52.5 -185.5t172.5 -56.5t172.5 56.5t52.5 185.5v523h50v-523q0 -143 -69 -215t-206 -72zM400 893q-98 0 -149.5 54t-52.5 156h50q2 -87 38 -126t114 -39t114 39t38 126h50q-1 -102 -52.5 -156t-149.5 -54z
" />
    <glyph glyph-name="Uring" unicode="&#x16e;" horiz-adv-x="800" 
d="M125 0zM400 -10q-137 0 -206 72t-69 215v523h50v-523q0 -129 52.5 -185.5t172.5 -56.5t172.5 56.5t52.5 185.5v523h50v-523q0 -143 -69 -215t-206 -72zM400 885q-68 0 -104 37t-36 108v32q0 72 36 110t104 38t104 -38t36 -110v-32q0 -71 -36 -108t-104 -37zM400 926
q49 0 70.5 25t21.5 79v32q0 56 -21.5 81.5t-70.5 25.5t-70.5 -25.5t-21.5 -81.5v-32q0 -54 21.5 -79t70.5 -25z" />
    <glyph glyph-name="Uhungarumlaut" unicode="&#x170;" horiz-adv-x="800" 
d="M125 0zM400 -10q-137 0 -206 72t-69 215v523h50v-523q0 -129 52.5 -185.5t172.5 -56.5t172.5 56.5t52.5 185.5v523h50v-523q0 -143 -69 -215t-206 -72zM476 900l56 200h90l-105 -200h-41zM286 900l56 200h90l-105 -200h-41z" />
    <glyph glyph-name="Uogonek" unicode="&#x172;" horiz-adv-x="800" 
d="M125 0zM400 -10q-137 0 -206 72t-69 215v523h50v-523q0 -129 52.5 -185.5t172.5 -56.5t172.5 56.5t52.5 185.5v523h50v-523q0 -143 -69 -215t-206 -72zM465 -215q-59 0 -95 30t-36 79q0 43 31.5 80.5t86.5 59.5l12 -11q-41 -25 -60.5 -53t-19.5 -63q0 -40 20.5 -58.5
t66.5 -18.5q21 0 38 2t36 6v-45q-19 -4 -41 -6t-39 -2z" />
    <glyph glyph-name="V" unicode="V" horiz-adv-x="800" 
d="M418 0h-35l-318 800h55l283 -722l281 722h52z" />
    <glyph glyph-name="W" unicode="W" horiz-adv-x="900" 
d="M633 0l-182 550l-184 -550h-50l-158 800h46l144 -727l177 537h53l175 -531l138 721h49l-158 -800h-50z" />
    <glyph glyph-name="Wcircumflex" unicode="&#x174;" horiz-adv-x="900" 
d="M59 0zM633 0l-182 550l-184 -550h-50l-158 800h46l144 -727l177 537h53l175 -531l138 721h49l-158 -800h-50zM281 922l-21 27l173 168h32l174 -168l-21 -27l-169 148z" />
    <glyph glyph-name="Wgrave" unicode="&#x1e80;" horiz-adv-x="900" 
d="M59 0zM633 0l-182 550l-184 -550h-50l-158 800h46l144 -727l177 537h53l175 -531l138 721h49l-158 -800h-50zM476 900l-185 200h80l146 -200h-41z" />
    <glyph glyph-name="Wacute" unicode="&#x1e82;" horiz-adv-x="900" 
d="M59 0zM633 0l-182 550l-184 -550h-50l-158 800h46l144 -727l177 537h53l175 -531l138 721h49l-158 -800h-50zM383 900l146 200h80l-185 -200h-41z" />
    <glyph glyph-name="Wdieresis" unicode="&#x1e84;" horiz-adv-x="900" 
d="M59 0zM633 0l-182 550l-184 -550h-50l-158 800h46l144 -727l177 537h53l175 -531l138 721h49l-158 -800h-50zM345 930q-20 0 -32.5 7.5t-12.5 29.5v7q0 22 12.5 30.5t32.5 8.5t32.5 -8.5t12.5 -30.5v-7q0 -22 -13 -29.5t-32 -7.5zM555 930q-20 0 -32.5 7.5t-12.5 29.5v7
q0 22 12.5 30.5t32.5 8.5t32.5 -8.5t12.5 -30.5v-7q0 -22 -13 -29.5t-32 -7.5z" />
    <glyph glyph-name="X" unicode="X" horiz-adv-x="800" 
d="M646 0l-242 371l-251 -371h-55l279 411l-254 389h55l231 -354l240 354h55l-268 -394l265 -406h-55z" />
    <glyph glyph-name="Y" unicode="Y" 
d="M375 0h-50v300l-286 500h57l255 -451l254 451h55l-285 -500v-300z" />
    <glyph glyph-name="Yacute" unicode="&#xdd;" 
d="M39 0zM375 0h-50v300l-286 500h57l255 -451l254 451h55l-285 -500v-300zM303 900l146 200h80l-185 -200h-41z" />
    <glyph glyph-name="Ycircumflex" unicode="&#x176;" 
d="M39 0zM375 0h-50v300l-286 500h57l255 -451l254 451h55l-285 -500v-300zM181 922l-21 27l173 168h32l174 -168l-21 -27l-169 148z" />
    <glyph glyph-name="Ydieresis" unicode="&#x178;" 
d="M39 0zM375 0h-50v300l-286 500h57l255 -451l254 451h55l-285 -500v-300zM245 930q-20 0 -32.5 7.5t-12.5 29.5v7q0 22 12.5 30.5t32.5 8.5t32.5 -8.5t12.5 -30.5v-7q0 -22 -13 -29.5t-32 -7.5zM455 930q-20 0 -32.5 7.5t-12.5 29.5v7q0 22 12.5 30.5t32.5 8.5t32.5 -8.5
t12.5 -30.5v-7q0 -22 -13 -29.5t-32 -7.5z" />
    <glyph glyph-name="Ygrave" unicode="&#x1ef2;" 
d="M39 0zM375 0h-50v300l-286 500h57l255 -451l254 451h55l-285 -500v-300zM376 900l-185 200h80l146 -200h-41z" />
    <glyph glyph-name="Z" unicode="Z" horiz-adv-x="800" 
d="M675 0h-550v45l491 710h-491v45h550v-45l-490 -710h490v-45z" />
    <glyph glyph-name="Zacute" unicode="&#x179;" horiz-adv-x="800" 
d="M125 0zM675 0h-550v45l491 710h-491v45h550v-45l-490 -710h490v-45zM333 900l146 200h80l-185 -200h-41z" />
    <glyph glyph-name="Zdotaccent" unicode="&#x17b;" horiz-adv-x="800" 
d="M125 0zM675 0h-550v45l491 710h-491v45h550v-45l-490 -710h490v-45zM400 930q-22 0 -36 8t-14 29v7q0 22 14 30.5t36 8.5t36 -8.5t14 -30.5v-7q0 -21 -14 -29t-36 -8z" />
    <glyph glyph-name="Zcaron" unicode="&#x17d;" horiz-adv-x="800" 
d="M125 0zM675 0h-550v45l491 710h-491v45h550v-45l-490 -710h490v-45zM384 904l-174 168l21 27l169 -148l168 148l21 -27l-173 -168h-32z" />
    <glyph glyph-name="AE" unicode="&#xc6;" horiz-adv-x="1000" 
d="M416 755l-180 -460h279v460h-99zM515 250h-298l-96 -250h-56l323 800h507v-45h-330v-295h280v-45h-280v-370h330v-45h-380v250z" />
    <glyph glyph-name="AEacute" unicode="&#x1fc;" horiz-adv-x="1000" 
d="M65 0zM416 755l-180 -460h279v460h-99zM515 250h-298l-96 -250h-56l323 800h507v-45h-330v-295h280v-45h-280v-370h330v-45h-380v250zM613 900l146 200h80l-185 -200h-41z" />
    <glyph glyph-name="Eth" unicode="&#xd0;" horiz-adv-x="800" 
d="M25 420v45h350v-45h-350zM125 0v800h246q143 0 223.5 -79.5t80.5 -211.5v-222q0 -131 -81 -209t-224 -78h-245zM175 45h195q129 0 192 67t63 175v222q0 107 -63 176.5t-192 69.5h-195v-710z" />
    <glyph glyph-name="Oslash" unicode="&#xd8;" horiz-adv-x="800" 
d="M237 80l268 671q-22 7 -48 10.5t-57 3.5q-122 0 -173.5 -57t-51.5 -189v-242q0 -71 15 -120t47 -77zM400 35q122 0 173.5 56t51.5 186v242q0 81 -18.5 132.5t-59.5 79.5l-270 -676q24 -10 55 -15t68 -5zM400 -10q-40 0 -75.5 6t-63.5 19l-36 -90h-50l45 114
q-47 34 -71 94t-24 144v242q0 145 69.5 218t206.5 73q34 0 64.5 -4.5t56.5 -14.5l33 84h50l-41 -103q55 -34 83 -97t28 -156v-242q0 -143 -69 -215t-206 -72z" />
    <glyph glyph-name="Oslashacute" unicode="&#x1fe;" horiz-adv-x="800" 
d="M125 0zM237 80l268 671q-22 7 -48 10.5t-57 3.5q-122 0 -173.5 -57t-51.5 -189v-242q0 -71 15 -120t47 -77zM400 35q122 0 173.5 56t51.5 186v242q0 81 -18.5 132.5t-59.5 79.5l-270 -676q24 -10 55 -15t68 -5zM400 -10q-40 0 -75.5 6t-63.5 19l-36 -90h-50l45 114
q-47 34 -71 94t-24 144v242q0 145 69.5 218t206.5 73q34 0 64.5 -4.5t56.5 -14.5l33 84h50l-41 -103q55 -34 83 -97t28 -156v-242q0 -143 -69 -215t-206 -72zM333 900l146 200h80l-185 -200h-41z" />
    <glyph glyph-name="Thorn" unicode="&#xde;" 
d="M125 0v800h50v-130h206q109 0 166.5 -54t57.5 -157v-92q0 -105 -57.5 -161t-167.5 -56h-205v-150h-50zM175 195h205q93 0 134 39.5t41 132.5v92q0 89 -41 127.5t-134 38.5h-205v-430z" />
    <glyph glyph-name="Dcroat" unicode="&#x110;" horiz-adv-x="800" 
d="M25 420v45h350v-45h-350zM125 0v800h246q143 0 223.5 -79.5t80.5 -211.5v-222q0 -131 -81 -209t-224 -78h-245zM175 45h195q129 0 192 67t63 175v222q0 107 -63 176.5t-192 69.5h-195v-710z" />
    <glyph glyph-name="Hbar" unicode="&#x126;" horiz-adv-x="800" 
d="M175 390h450v195h-450v-195zM175 345v-345h-50v585h-100v45h100v170h50v-170h450v170h50v-170h100v-45h-100v-585h-50v345h-450z" />
    <glyph glyph-name="IJ" unicode="&#x132;" horiz-adv-x="1400" 
d="M125 0zM1029 -10q-120 0 -179 59t-65 186l50 6q8 -123 47 -164.5t144 -41.5q106 0 152.5 53t46.5 171v496h-225v45h275v-540q0 -140 -59 -205t-187 -65zM125 0v45h200v710h-200v45h450v-45h-200v-710h200v-45h-450z" />
    <glyph glyph-name="Ldot" unicode="&#x13f;" horiz-adv-x="800" 
d="M125 0zM125 0v800h50v-755h360v-45h-410zM580 430q-22 0 -36 8t-14 29v7q0 22 14 30.5t36 8.5t36 -8.5t14 -30.5v-7q0 -21 -14 -29t-36 -8z" />
    <glyph glyph-name="Lslash" unicode="&#x141;" horiz-adv-x="600" 
d="M25 353v45l400 124v-45zM125 0v800h50v-755h360v-45h-410z" />
    <glyph glyph-name="Eng" unicode="&#x14a;" horiz-adv-x="800" 
d="M468 -208q-31 0 -63.5 4.5t-66.5 17.5l13 51q33 -12 61 -17t53 -5q81 0 120.5 53.5t39.5 160.5v497q0 103 -48 154.5t-145 51.5q-74 0 -135.5 -35t-121.5 -110v-615h-50v800h50v-140h10q48 73 114.5 111.5t144.5 38.5q107 0 169 -62.5t62 -169.5v-534q0 -118 -55 -185
t-152 -67z" />
    <glyph glyph-name="OE" unicode="&#x152;" horiz-adv-x="1000" 
d="M400 0q-128 0 -201.5 76.5t-73.5 210.5v222q0 136 73 213.5t201 77.5h496v-45h-320v-295h270v-45h-270v-370h320v-45h-495zM400 45h125v710h-125q-110 0 -167.5 -63t-57.5 -183v-222q0 -119 57.5 -180.5t167.5 -61.5z" />
    <glyph glyph-name="Tbar" unicode="&#x166;" 
d="M125 335v45h450v-45h-450zM325 0v755h-250v45h550v-45h-250v-755h-50z" />
    <glyph glyph-name="Alpha" unicode="&#x391;" horiz-adv-x="800" 
d="M65 0zM567 295l-168 429l-168 -429h336zM682 0l-98 250h-370l-98 -250h-51l318 800h35l318 -800h-54z" />
    <glyph glyph-name="Alphatonos" unicode="&#x386;" horiz-adv-x="800" 
d="M47 0zM567 295l-168 429l-168 -429h336zM682 0l-98 250h-370l-98 -250h-51l318 800h35l318 -800h-54zM47 600l86 200h80l-125 -200h-41z" />
    <glyph glyph-name="Beta" unicode="&#x392;" horiz-adv-x="800" 
d="M125 0zM125 0v800h323q101 0 155 -48.5t54 -139.5v-45q0 -54 -29.5 -92t-79.5 -47v-9q63 -6 102 -52.5t39 -117.5v-45q0 -99 -57 -151.5t-164 -52.5h-343zM175 441h273q87 0 124 32.5t37 107.5v28q0 78 -37 112t-124 34h-273v-314zM175 45h293q92 0 131.5 37t39.5 123v32
q0 85 -39.5 122t-131.5 37h-293v-351z" />
    <glyph glyph-name="Gamma" unicode="&#x393;" horiz-adv-x="600" 
d="M125 0v800h420v-45h-370v-755h-50z" />
    <glyph glyph-name="Delta" unicode="&#x394;" horiz-adv-x="800" 
d="M65 0v45l313 755h35l322 -755v-45h-670zM682 45l-284 689l-284 -689h568z" />
    <glyph glyph-name="Epsilon" unicode="&#x395;" 
d="M125 0zM125 0v800h470v-45h-420v-295h370v-45h-370v-370h420v-45h-470z" />
    <glyph glyph-name="Epsilontonos" unicode="&#x388;" horiz-adv-x="900" 
d="M17 0zM325 0v800h470v-45h-420v-295h370v-45h-370v-370h420v-45h-470zM17 600l86 200h80l-125 -200h-41z" />
    <glyph glyph-name="Zeta" unicode="&#x396;" horiz-adv-x="800" 
d="M125 0zM675 0h-550v45l491 710h-491v45h550v-45l-490 -710h490v-45z" />
    <glyph glyph-name="Eta" unicode="&#x397;" horiz-adv-x="800" 
d="M125 0zM125 0v800h50v-340h450v340h50v-800h-50v415h-450v-415h-50z" />
    <glyph glyph-name="Etatonos" unicode="&#x389;" horiz-adv-x="1000" 
d="M17 0zM325 0v800h50v-340h450v340h50v-800h-50v415h-450v-415h-50zM17 600l86 200h80l-125 -200h-41z" />
    <glyph glyph-name="Theta" unicode="&#x398;" horiz-adv-x="800" 
d="M400 -10q-137 0 -206 72t-69 215v242q0 145 69.5 218t206.5 73q136 0 205 -73t69 -218v-242q0 -143 -69 -215t-206 -72zM400 35q122 0 173.5 56t51.5 186v242q0 132 -51.5 189t-173.5 57t-173.5 -57t-51.5 -189v-242q0 -130 51.5 -186t173.5 -56zM300 385v45h200v-45
h-200z" />
    <glyph glyph-name="Iota" unicode="&#x399;" 
d="M125 0zM125 0v45h200v710h-200v45h450v-45h-200v-710h200v-45h-450z" />
    <glyph glyph-name="Iotatonos" unicode="&#x38a;" horiz-adv-x="900" 
d="M47 0zM325 0v45h200v710h-200v45h450v-45h-200v-710h200v-45h-450zM47 600l86 200h80l-125 -200h-41z" />
    <glyph glyph-name="Iotadieresis" unicode="&#x3aa;" 
d="M125 0zM125 0v45h200v710h-200v45h450v-45h-200v-710h200v-45h-450zM245 930q-20 0 -32.5 7.5t-12.5 29.5v7q0 22 12.5 30.5t32.5 8.5t32.5 -8.5t12.5 -30.5v-7q0 -22 -13 -29.5t-32 -7.5zM455 930q-20 0 -32.5 7.5t-12.5 29.5v7q0 22 12.5 30.5t32.5 8.5t32.5 -8.5
t12.5 -30.5v-7q0 -22 -13 -29.5t-32 -7.5z" />
    <glyph glyph-name="Kappa" unicode="&#x39a;" 
d="M125 0zM175 400v-400h-50v800h50v-355h84l309 355h66l-326 -372l323 -428h-63l-299 400h-94z" />
    <glyph glyph-name="Lambda" unicode="&#x39b;" horiz-adv-x="800" 
d="M684 0l-285 727l-284 -727h-50l318 800h35l318 -800h-52z" />
    <glyph glyph-name="Mu" unicode="&#x39c;" horiz-adv-x="900" 
d="M125 0zM427 200l-252 528v-728h-50v800h68l258 -544l258 544h66v-800h-50v729l-253 -529h-45z" />
    <glyph glyph-name="Nu" unicode="&#x39d;" horiz-adv-x="800" 
d="M125 0zM617 0l-444 715v-715h-48v800h52l450 -727v727h48v-800h-58z" />
    <glyph glyph-name="Xi" unicode="&#x39e;" 
d="M80 755v45h540v-45h-540zM105 415v45h490v-45h-490zM80 0v45h540v-45h-540z" />
    <glyph glyph-name="Omicron" unicode="&#x39f;" horiz-adv-x="800" 
d="M125 0zM400 -10q-137 0 -206 70t-69 217v242q0 149 69.5 220t206.5 71q136 0 205 -71t69 -220v-242q0 -147 -69 -217t-206 -70zM400 35q122 0 173.5 56t51.5 186v242q0 132 -51.5 189t-173.5 57t-173.5 -57t-51.5 -189v-242q0 -130 51.5 -186t173.5 -56z" />
    <glyph glyph-name="Omicrontonos" unicode="&#x38c;" horiz-adv-x="900" 
d="M17 0zM500 -10q-137 0 -206 70t-69 217v242q0 149 69.5 220t206.5 71q136 0 205 -71t69 -220v-242q0 -147 -69 -217t-206 -70zM500 35q122 0 173.5 56t51.5 186v242q0 132 -51.5 189t-173.5 57t-173.5 -57t-51.5 -189v-242q0 -130 51.5 -186t173.5 -56zM17 600l86 200h80
l-125 -200h-41z" />
    <glyph glyph-name="Pi" unicode="&#x3a0;" horiz-adv-x="800" 
d="M125 0v800h550v-800h-50v755h-450v-755h-50z" />
    <glyph glyph-name="Rho" unicode="&#x3a1;" 
d="M125 0zM125 0v800h256q109 0 166.5 -54t57.5 -157v-98q0 -103 -57.5 -157t-167.5 -54h-205v-280h-50zM175 325h205q93 0 134 39t41 129v92q0 90 -41 130t-134 40h-205v-430z" />
    <glyph glyph-name="Sigma" unicode="&#x3a3;" 
d="M595 0h-500v45l340 367l-340 343v45h500v-45h-435l315 -318v-50l-315 -342h435v-45z" />
    <glyph glyph-name="Tau" unicode="&#x3a4;" 
d="M75 0zM325 0v755h-250v45h550v-45h-250v-755h-50z" />
    <glyph glyph-name="Upsilon" unicode="&#x3a5;" 
d="M39 0zM375 0h-50v300l-286 500h57l255 -451l254 451h55l-285 -500v-300z" />
    <glyph glyph-name="Upsilontonos" unicode="&#x38e;" horiz-adv-x="900" 
d="M0 0zM575 0h-50v300l-286 500h57l255 -451l254 451h55l-285 -500v-300zM-23 600l86 200h80l-125 -200h-41z" />
    <glyph glyph-name="Upsilondieresis" unicode="&#x3ab;" 
d="M39 0zM375 0h-50v300l-286 500h57l255 -451l254 451h55l-285 -500v-300zM245 930q-20 0 -32.5 7.5t-12.5 29.5v7q0 22 12.5 30.5t32.5 8.5t32.5 -8.5t12.5 -30.5v-7q0 -22 -13 -29.5t-32 -7.5zM455 930q-20 0 -32.5 7.5t-12.5 29.5v7q0 22 12.5 30.5t32.5 8.5t32.5 -8.5
t12.5 -30.5v-7q0 -22 -13 -29.5t-32 -7.5z" />
    <glyph glyph-name="Phi" unicode="&#x3a6;" horiz-adv-x="900" 
d="M95 0zM583 90h-108v-110h-50v110h-107q-108 0 -165.5 68.5t-57.5 198.5v82q0 132 57.5 201.5t165.5 69.5h107v110h50v-110h108q108 0 165 -69.5t57 -201.5v-82q0 -130 -57 -198.5t-165 -68.5zM583 665h-108v-530h108q90 0 131 53t41 169v82q0 119 -41 172.5t-131 53.5z
M318 135h107v530h-107q-90 0 -131.5 -53.5t-41.5 -172.5v-82q0 -116 41.5 -169t131.5 -53z" />
    <glyph glyph-name="Chi" unicode="&#x3a7;" horiz-adv-x="800" 
d="M98 0zM646 0l-242 371l-251 -371h-55l279 411l-254 389h55l231 -354l240 354h55l-268 -394l265 -406h-55z" />
    <glyph glyph-name="Psi" unicode="&#x3a8;" horiz-adv-x="900" 
d="M475 0h-50v212q-156 10 -228 75.5t-72 169.5v343h50v-343q0 -92 59 -137.5t191 -53.5v534h50v-534q133 8 191.5 53.5t58.5 137.5v343h50v-343q0 -104 -72 -169.5t-228 -75.5v-212z" />
    <glyph glyph-name="Omega" unicode="&#x3a9;" horiz-adv-x="900" 
d="M375 0h-250v45h200v145q-98 30 -149 85.5t-51 135.5v108q0 142 79.5 216.5t245.5 74.5t245.5 -74.5t79.5 -216.5v-108q0 -80 -51 -135.5t-149 -85.5v-145h200v-45h-250v220q109 28 154.5 71t45.5 120v108q0 131 -64 188.5t-211 57.5t-211 -57.5t-64 -188.5v-108
q0 -77 45.5 -120t154.5 -71v-220z" />
    <glyph glyph-name="Omegatonos" unicode="&#x38f;" horiz-adv-x="1000" 
d="M17 0zM475 0h-250v45h200v145q-98 30 -149 85.5t-51 135.5v108q0 142 79.5 216.5t245.5 74.5t245.5 -74.5t79.5 -216.5v-108q0 -80 -51 -135.5t-149 -85.5v-145h200v-45h-250v220q109 28 154.5 71t45.5 120v108q0 131 -64 188.5t-211 57.5t-211 -57.5t-64 -188.5v-108
q0 -77 45.5 -120t154.5 -71v-220zM17 600l86 200h80l-125 -200h-41z" />
    <glyph glyph-name="Ohm" unicode="&#x2126;" horiz-adv-x="900" 
d="M125 0zM375 0h-250v45h200v145q-98 30 -149 85.5t-51 135.5v108q0 142 79.5 216.5t245.5 74.5t245.5 -74.5t79.5 -216.5v-108q0 -80 -51 -135.5t-149 -85.5v-145h200v-45h-250v220q109 28 154.5 71t45.5 120v108q0 131 -64 188.5t-211 57.5t-211 -57.5t-64 -188.5v-108
q0 -77 45.5 -120t154.5 -71v-220z" />
    <glyph glyph-name="Djecyrillic" unicode="&#x402;" horiz-adv-x="900" 
d="M305 0v755h-230v45h530v-45h-250v-255h195q110 0 167.5 -49t57.5 -142v-98q0 -103 -57.5 -157t-167.5 -54v43q93 0 134 39.5t41 130.5v94q0 81 -41 115.5t-134 34.5h-195v-457h-50z" />
    <glyph glyph-name="Ecyrillic" unicode="&#x404;" horiz-adv-x="800" 
d="M695 232q-7 -118 -78 -180t-207 -62q-139 0 -212 72t-73 215v242q0 146 73 218.5t213 72.5q135 0 206 -63t78 -183l-50 -5q-10 110 -65 158t-170 48q-125 0 -180 -57.5t-55 -188.5v-59h302v-45h-302v-138q0 -129 55 -185.5t180 -56.5q116 0 170.5 47.5t64.5 154.5z" />
    <glyph glyph-name="Dzecyrillic" unicode="&#x405;" horiz-adv-x="800" 
d="M125 0zM412 -6q-120 0 -189.5 44t-97.5 138l43 17q29 -90 85.5 -122t159.5 -32q114 0 170 40.5t56 123.5q0 84 -46.5 121t-180.5 62q-154 27 -212.5 75.5t-58.5 141.5t68.5 147t191.5 54q97 0 160 -39.5t101 -123.5l-43 -18q-36 76 -88.5 106t-129.5 30
q-107 0 -159.5 -37.5t-52.5 -114.5q0 -78 47.5 -113.5t184.5 -60.5q152 -27 208.5 -77.5t56.5 -152.5q0 -95 -71 -152t-203 -57z" />
    <glyph glyph-name="Icyrillic" unicode="&#x406;" 
d="M125 0zM125 0v45h200v710h-200v45h450v-45h-200v-710h200v-45h-450z" />
    <glyph glyph-name="Yicyrillic" unicode="&#x407;" 
d="M125 0zM125 0v45h200v710h-200v45h450v-45h-200v-710h200v-45h-450zM245 930q-20 0 -32.5 7.5t-12.5 29.5v7q0 22 12.5 30.5t32.5 8.5t32.5 -8.5t12.5 -30.5v-7q0 -22 -13 -29.5t-32 -7.5zM455 930q-20 0 -32.5 7.5t-12.5 29.5v7q0 22 12.5 30.5t32.5 8.5t32.5 -8.5
t12.5 -30.5v-7q0 -22 -13 -29.5t-32 -7.5z" />
    <glyph glyph-name="Jecyrillic" unicode="&#x408;" 
d="M85 0zM329 -10q-120 0 -179 59t-65 186l50 6q8 -123 47 -164.5t144 -41.5q106 0 152.5 53t46.5 171v496h-225v45h275v-540q0 -140 -59 -205t-187 -65z" />
    <glyph glyph-name="Ljecyrillic" unicode="&#x409;" horiz-adv-x="1200" 
d="M271 235q-1 -119 -42.5 -181t-119.5 -62q-14 0 -29 2t-28 6l9 43q11 -4 21 -5t18 -1q66 0 95 49t30 162l3 552h447v-280h205q113 0 169 -52t56 -159v-98q0 -107 -55.5 -159t-168.5 -52h-256v755h-351zM675 45h205q89 0 132 41.5t43 128.5v92q0 87 -43 128.5t-132 41.5
h-205v-432z" />
    <glyph glyph-name="Njecyrillic" unicode="&#x40a;" horiz-adv-x="1200" 
d="M675 46h205q89 0 132 41.5t43 127.5v92q0 86 -43 127.5t-132 41.5h-205v-430zM175 414v-414h-50v800h50v-340h450v340h50v-280h205q113 0 169 -52t56 -159v-98q0 -107 -55.5 -159t-168.5 -52h-256v414h-450z" />
    <glyph glyph-name="Tshecyrillic" unicode="&#x40b;" horiz-adv-x="900" 
d="M355 0h-50v755h-230v45h530v-45h-250v-265h195q110 0 167.5 -54t57.5 -157v-279h-50v277q0 87 -43 128.5t-132 41.5h-195v-447z" />
    <glyph glyph-name="Dzhecyrillic" unicode="&#x40f;" horiz-adv-x="800" 
d="M375 -150v150h-250v800h50v-755h450v755h50v-800h-250v-150h-50z" />
    <glyph glyph-name="Acyrillic" unicode="&#x410;" horiz-adv-x="800" 
d="M65 0zM567 295l-168 429l-168 -429h336zM682 0l-98 250h-370l-98 -250h-51l318 800h35l318 -800h-54z" />
    <glyph glyph-name="Becyrillic" unicode="&#x411;" horiz-adv-x="800" 
d="M125 0v800h525v-45h-475v-275h299q101 0 158 -52t57 -145v-72q0 -99 -56.5 -155t-157.5 -56h-350zM175 45h289q89 0 132 42t43 129v52q0 85 -43 126t-132 41h-289v-390z" />
    <glyph glyph-name="Vecyrillic" unicode="&#x412;" horiz-adv-x="800" 
d="M125 0zM125 0v800h323q101 0 155 -48.5t54 -139.5v-45q0 -54 -29.5 -92t-79.5 -47v-9q63 -6 102 -52.5t39 -117.5v-45q0 -99 -57 -151.5t-164 -52.5h-343zM175 441h273q87 0 124 32.5t37 107.5v28q0 78 -37 112t-124 34h-273v-314zM175 45h293q92 0 131.5 37t39.5 123v32
q0 85 -39.5 122t-131.5 37h-293v-351z" />
    <glyph glyph-name="Gecyrillic" unicode="&#x413;" horiz-adv-x="600" 
d="M125 0zM125 0v800h420v-45h-370v-755h-50z" />
    <glyph glyph-name="Gjecyrillic" unicode="&#x403;" horiz-adv-x="600" 
d="M125 0zM125 0v800h420v-45h-370v-755h-50zM268 900l146 200h80l-185 -200h-41z" />
    <glyph glyph-name="Decyrillic" unicode="&#x414;" horiz-adv-x="900" 
d="M208 54v-9h417v710h-351l-3 -452q-1 -104 -15 -161t-48 -88zM125 0v-150h-50v195h75q39 28 56.5 92t18.5 172l3 491h447v-755h100v-195h-50v150h-600z" />
    <glyph glyph-name="Iecyrillic" unicode="&#x415;" 
d="M125 0zM125 0v800h470v-45h-420v-295h370v-45h-370v-370h420v-45h-470z" />
    <glyph glyph-name="IEgravecyrillic" unicode="&#x400;" 
d="M125 0zM125 0v800h470v-45h-420v-295h370v-45h-370v-370h420v-45h-470zM406 900l-185 200h80l146 -200h-41z" />
    <glyph glyph-name="Iocyrillic" unicode="&#x401;" 
d="M125 0zM125 0v800h470v-45h-420v-295h370v-45h-370v-370h420v-45h-470zM275 930q-20 0 -32.5 7.5t-12.5 29.5v7q0 22 12.5 30.5t32.5 8.5t32.5 -8.5t12.5 -30.5v-7q0 -22 -13 -29.5t-32 -7.5zM485 930q-20 0 -32.5 7.5t-12.5 29.5v7q0 22 12.5 30.5t32.5 8.5t32.5 -8.5
t12.5 -30.5v-7q0 -22 -13 -29.5t-32 -7.5z" />
    <glyph glyph-name="Zhecyrillic" unicode="&#x416;" horiz-adv-x="900" 
d="M340 405l-225 -405h-58l240 427l-243 373h57l226 -350h89v350h50v-350h82l232 350h57l-245 -371l242 -429h-58l-226 405h-84v-405h-50v405h-86z" />
    <glyph glyph-name="Zecyrillic" unicode="&#x417;" horiz-adv-x="800" 
d="M400 -10q-139 0 -208.5 50t-76.5 154l50 6q10 -90 64 -128.5t171 -38.5q128 0 182.5 42.5t54.5 141.5v27q0 83 -43 117.5t-146 34.5h-138v45h138q86 0 121.5 30.5t35.5 104.5v32q0 86 -49.5 122.5t-165.5 36.5q-102 0 -149.5 -35t-55.5 -117l-50 6q7 96 69 142.5
t186 46.5q135 0 200 -49.5t65 -152.5v-32q0 -69 -31 -106.5t-83 -46.5v-9q66 -6 106 -52t40 -118v-27q0 -116 -70.5 -171.5t-216.5 -55.5z" />
    <glyph glyph-name="Iicyrillic" unicode="&#x418;" horiz-adv-x="800" 
d="M625 0v709l-442 -709h-58v800h50v-721l453 721h47v-800h-50z" />
    <glyph glyph-name="Igravecyrillic" unicode="&#x40d;" horiz-adv-x="800" 
d="M125 0zM625 0v709l-442 -709h-58v800h50v-721l453 721h47v-800h-50zM406 900l-185 200h80l146 -200h-41z" />
    <glyph glyph-name="Iishortcyrillic" unicode="&#x419;" horiz-adv-x="800" 
d="M125 0zM625 0v709l-442 -709h-58v800h50v-721l453 721h47v-800h-50zM380 893q-84 0 -142.5 46t-59.5 159l50 5q2 -90 38 -128t114 -38t114 38t38 128l50 -5q-1 -113 -59.5 -159t-142.5 -46z" />
    <glyph glyph-name="Kacyrillic" unicode="&#x41a;" 
d="M125 0zM175 400v-400h-50v800h50v-355h84l309 355h66l-326 -372l323 -428h-63l-299 400h-94z" />
    <glyph glyph-name="Kjecyrillic" unicode="&#x40c;" 
d="M125 0zM175 400v-400h-50v800h50v-355h84l309 355h66l-326 -372l323 -428h-63l-299 400h-94zM333 900l146 200h80l-185 -200h-41z" />
    <glyph glyph-name="Elcyrillic" unicode="&#x41b;" horiz-adv-x="800" 
d="M625 0v755h-351l-3 -520q-1 -128 -41.5 -186.5t-110.5 -58.5q-19 0 -35.5 2t-31.5 8l11 43q12 -4 24 -6t23 -2q60 0 87 50t28 163l3 552h447v-800h-50z" />
    <glyph glyph-name="Emcyrillic" unicode="&#x41c;" horiz-adv-x="900" 
d="M125 0zM427 200l-252 528v-728h-50v800h68l258 -544l258 544h66v-800h-50v729l-253 -529h-45z" />
    <glyph glyph-name="Encyrillic" unicode="&#x41d;" horiz-adv-x="800" 
d="M125 0zM125 0v800h50v-340h450v340h50v-800h-50v415h-450v-415h-50z" />
    <glyph glyph-name="Ocyrillic" unicode="&#x41e;" horiz-adv-x="800" 
d="M125 0zM400 -10q-137 0 -206 70t-69 217v242q0 149 69.5 220t206.5 71q136 0 205 -71t69 -220v-242q0 -147 -69 -217t-206 -70zM400 35q122 0 173.5 56t51.5 186v242q0 132 -51.5 189t-173.5 57t-173.5 -57t-51.5 -189v-242q0 -130 51.5 -186t173.5 -56z" />
    <glyph glyph-name="Pecyrillic" unicode="&#x41f;" horiz-adv-x="800" 
d="M125 0zM125 0v800h550v-800h-50v755h-450v-755h-50z" />
    <glyph glyph-name="Ercyrillic" unicode="&#x420;" 
d="M125 0zM125 0v800h256q109 0 166.5 -54t57.5 -157v-98q0 -103 -57.5 -157t-167.5 -54h-205v-280h-50zM175 325h205q93 0 134 39t41 129v92q0 90 -41 130t-134 40h-205v-430z" />
    <glyph glyph-name="Escyrillic" unicode="&#x421;" horiz-adv-x="800" 
d="M125 0zM410 -10q-139 0 -212 71.5t-73 205.5v262q0 137 73 209t213 72q131 0 204 -59.5t80 -186.5l-50 -5q-10 115 -62 160.5t-173 45.5q-125 0 -180 -57.5t-55 -188.5v-242q0 -129 55 -185.5t180 -56.5q124 0 179 47.5t56 154.5l50 -5q0 -118 -73 -180t-212 -62z" />
    <glyph glyph-name="Tecyrillic" unicode="&#x422;" 
d="M75 0zM325 0v755h-250v45h550v-45h-250v-755h-50z" />
    <glyph glyph-name="Ucyrillic" unicode="&#x423;" 
d="M206 -8q-16 0 -31.5 2t-32.5 6l9 45q15 -4 26.5 -6t26.5 -2q47 0 75.5 28t57.5 100l6 15h-16l-277 620h56l253 -577l235 577h55l-271 -649q-37 -90 -74.5 -124.5t-97.5 -34.5z" />
    <glyph glyph-name="Ushortcyrillic" unicode="&#x40e;" 
d="M50 0zM206 -8q-16 0 -31.5 2t-32.5 6l9 45q15 -4 26.5 -6t26.5 -2q47 0 75.5 28t57.5 100l6 15h-16l-277 620h56l253 -577l235 577h55l-271 -649q-37 -90 -74.5 -124.5t-97.5 -34.5zM350 893q-84 0 -142.5 46t-59.5 159l50 5q2 -90 38 -128t114 -38t114 38t38 128l50 -5
q-1 -113 -59.5 -159t-142.5 -46z" />
    <glyph glyph-name="Efcyrillic" unicode="&#x424;" horiz-adv-x="900" 
d="M583 90h-108v-110h-50v110h-107q-108 0 -165.5 68.5t-57.5 198.5v82q0 132 57.5 201.5t165.5 69.5h107v110h50v-110h108q108 0 165 -69.5t57 -201.5v-82q0 -130 -57 -198.5t-165 -68.5zM583 665h-108v-530h108q90 0 131 53t41 169v82q0 119 -41 172.5t-131 53.5zM318 135
h107v530h-107q-90 0 -131.5 -53.5t-41.5 -172.5v-82q0 -116 41.5 -169t131.5 -53z" />
    <glyph glyph-name="Khacyrillic" unicode="&#x425;" horiz-adv-x="800" 
d="M98 0zM646 0l-242 371l-251 -371h-55l279 411l-254 389h55l231 -354l240 354h55l-268 -394l265 -406h-55z" />
    <glyph glyph-name="Tsecyrillic" unicode="&#x426;" horiz-adv-x="800" 
d="M675 -150v150h-550v800h50v-755h400v755h50v-755h100v-195h-50z" />
    <glyph glyph-name="Checyrillic" unicode="&#x427;" 
d="M575 800v-800h-50v280h-205q-119 0 -172 50t-53 161v309h50v-307q0 -91 41 -130.5t134 -39.5h205v477h50z" />
    <glyph glyph-name="Shacyrillic" unicode="&#x428;" horiz-adv-x="1000" 
d="M125 0v800h50v-755h300v755h50v-755h300v755h50v-800h-750z" />
    <glyph glyph-name="Shchacyrillic" unicode="&#x429;" horiz-adv-x="1050" 
d="M975 -150h-47v150h-803v800h50v-755h300v755h50v-755h300v755h50v-755h100v-195z" />
    <glyph glyph-name="Hardsigncyrillic" unicode="&#x42a;" horiz-adv-x="800" 
d="M481 0h-256v755h-200v45h250v-280h205q110 0 167.5 -52.5t57.5 -158.5v-98q0 -106 -57.5 -158.5t-166.5 -52.5zM275 45h205q93 0 134 39.5t41 130.5v92q0 91 -41 130.5t-134 39.5h-205v-432z" />
    <glyph glyph-name="Yericyrillic" unicode="&#x42b;" horiz-adv-x="900" 
d="M125 0v800h50v-280h175q122 0 186 -54t64 -157v-98q0 -103 -64 -157t-185 -54h-226zM725 0v800h50v-800h-50zM175 45h175q107 0 153.5 39.5t46.5 130.5v92q0 91 -46.5 130.5t-153.5 39.5h-175v-432z" />
    <glyph glyph-name="Softsigncyrillic" unicode="&#x42c;" 
d="M125 0v800h50v-280h205q110 0 167.5 -54t57.5 -157v-98q0 -103 -57.5 -157t-166.5 -54h-256zM175 45h205q93 0 134 39.5t41 130.5v92q0 91 -41 130.5t-134 39.5h-205v-432z" />
    <glyph glyph-name="Ereversedcyrillic" unicode="&#x42d;" horiz-adv-x="800" 
d="M390 -10q-136 0 -207 62.5t-78 181.5l50 6q10 -110 64.5 -157.5t170.5 -47.5q125 0 180 56.5t55 185.5v138h-302v45h302v59q0 131 -55 188.5t-180 57.5q-115 0 -170 -48.5t-65 -160.5l-50 6q7 121 78 184.5t206 63.5q143 0 214.5 -74.5t71.5 -216.5v-242
q0 -140 -71 -213.5t-214 -73.5z" />
    <glyph glyph-name="IUcyrillic" unicode="&#x42e;" horiz-adv-x="1000" 
d="M625 -10q-125 0 -187.5 73.5t-62.5 213.5v138h-200v-415h-50v800h50v-340h200v59q0 141 62.5 216t188.5 75q125 0 187 -75t62 -216v-242q0 -140 -62.5 -213.5t-187.5 -73.5zM625 35q107 0 153.5 56.5t46.5 185.5v242q0 131 -46.5 188.5t-153.5 57.5t-153.5 -57.5
t-46.5 -188.5v-242q0 -129 46.5 -185.5t153.5 -56.5z" />
    <glyph glyph-name="IAcyrillic" unicode="&#x42f;" horiz-adv-x="800" 
d="M349 359h275v396h-275q-93 0 -134 -40t-41 -130v-58q0 -90 41 -129t134 -39zM624 314h-251l-205 -314h-58l206 315q-96 7 -144 60.5t-48 149.5v64q0 103 55.5 157t168.5 54h326v-800h-50v314z" />
    <glyph glyph-name="Gheupturncyrillic" unicode="&#x490;" horiz-adv-x="600" 
d="M125 0v800h370v150h50v-195h-370v-755h-50z" />
    <glyph glyph-name="a" unicode="a" horiz-adv-x="800" 
d="M322 35q66 0 116 24t87 75v141h-225q-57 0 -93.5 -25t-36.5 -86q0 -63 36.5 -96t115.5 -33zM315 -10q-89 0 -139.5 46t-50.5 127q0 72 47.5 113t127.5 41h225v110q0 57 -40.5 97.5t-123.5 40.5q-81 0 -117.5 -24.5t-55.5 -90.5l-45 13q24 78 74 112.5t142 34.5
q99 0 157.5 -48t58.5 -134v-268q0 -79 25.5 -103.5t94.5 -12.5v-47q-69 -10 -106.5 13t-44.5 80h-10q-36 -48 -93 -74t-126 -26z" />
    <glyph glyph-name="agrave" unicode="&#xe0;" horiz-adv-x="800" 
d="M125 0zM322 35q66 0 116 24t87 75v141h-225q-57 0 -93.5 -25t-36.5 -86q0 -63 36.5 -96t115.5 -33zM315 -10q-89 0 -139.5 46t-50.5 127q0 72 47.5 113t127.5 41h225v110q0 57 -40.5 97.5t-123.5 40.5q-81 0 -117.5 -24.5t-55.5 -90.5l-45 13q24 78 74 112.5t142 34.5
q99 0 157.5 -48t58.5 -134v-268q0 -79 25.5 -103.5t94.5 -12.5v-47q-69 -10 -106.5 13t-44.5 80h-10q-36 -48 -93 -74t-126 -26zM386 700l-185 200h80l146 -200h-41z" />
    <glyph glyph-name="aacute" unicode="&#xe1;" horiz-adv-x="800" 
d="M125 0zM322 35q66 0 116 24t87 75v141h-225q-57 0 -93.5 -25t-36.5 -86q0 -63 36.5 -96t115.5 -33zM315 -10q-89 0 -139.5 46t-50.5 127q0 72 47.5 113t127.5 41h225v110q0 57 -40.5 97.5t-123.5 40.5q-81 0 -117.5 -24.5t-55.5 -90.5l-45 13q24 78 74 112.5t142 34.5
q99 0 157.5 -48t58.5 -134v-268q0 -79 25.5 -103.5t94.5 -12.5v-47q-69 -10 -106.5 13t-44.5 80h-10q-36 -48 -93 -74t-126 -26zM293 700l146 200h80l-185 -200h-41z" />
    <glyph glyph-name="acircumflex" unicode="&#xe2;" horiz-adv-x="800" 
d="M125 0zM322 35q66 0 116 24t87 75v141h-225q-57 0 -93.5 -25t-36.5 -86q0 -63 36.5 -96t115.5 -33zM315 -10q-89 0 -139.5 46t-50.5 127q0 72 47.5 113t127.5 41h225v110q0 57 -40.5 97.5t-123.5 40.5q-81 0 -117.5 -24.5t-55.5 -90.5l-45 13q24 78 74 112.5t142 34.5
q99 0 157.5 -48t58.5 -134v-268q0 -79 25.5 -103.5t94.5 -12.5v-47q-69 -10 -106.5 13t-44.5 80h-10q-36 -48 -93 -74t-126 -26zM191 722l-21 27l173 168h32l174 -168l-21 -27l-169 148z" />
    <glyph glyph-name="atilde" unicode="&#xe3;" horiz-adv-x="800" 
d="M125 0zM322 35q66 0 116 24t87 75v141h-225q-57 0 -93.5 -25t-36.5 -86q0 -63 36.5 -96t115.5 -33zM315 -10q-89 0 -139.5 46t-50.5 127q0 72 47.5 113t127.5 41h225v110q0 57 -40.5 97.5t-123.5 40.5q-81 0 -117.5 -24.5t-55.5 -90.5l-45 13q24 78 74 112.5t142 34.5
q99 0 157.5 -48t58.5 -134v-268q0 -79 25.5 -103.5t94.5 -12.5v-47q-69 -10 -106.5 13t-44.5 80h-10q-36 -48 -93 -74t-126 -26zM447 710q-33 0 -56.5 19.5t-51.5 70.5q-20 40 -34.5 55t-31.5 15q-31 0 -44.5 -33.5t-11.5 -105.5v-11h-42v15q0 87 24.5 131t73.5 44
q34 0 56.5 -18t47.5 -67q24 -43 39 -59t31 -16q29 0 42.5 33.5t13.5 105.5v11h42v-15q0 -87 -24.5 -131t-73.5 -44z" />
    <glyph glyph-name="adieresis" unicode="&#xe4;" horiz-adv-x="800" 
d="M125 0zM322 35q66 0 116 24t87 75v141h-225q-57 0 -93.5 -25t-36.5 -86q0 -63 36.5 -96t115.5 -33zM315 -10q-89 0 -139.5 46t-50.5 127q0 72 47.5 113t127.5 41h225v110q0 57 -40.5 97.5t-123.5 40.5q-81 0 -117.5 -24.5t-55.5 -90.5l-45 13q24 78 74 112.5t142 34.5
q99 0 157.5 -48t58.5 -134v-268q0 -79 25.5 -103.5t94.5 -12.5v-47q-69 -10 -106.5 13t-44.5 80h-10q-36 -48 -93 -74t-126 -26zM255 730q-20 0 -32.5 7.5t-12.5 29.5v7q0 22 12.5 30.5t32.5 8.5t32.5 -8.5t12.5 -30.5v-7q0 -22 -13 -29.5t-32 -7.5zM465 730
q-20 0 -32.5 7.5t-12.5 29.5v7q0 22 12.5 30.5t32.5 8.5t32.5 -8.5t12.5 -30.5v-7q0 -22 -13 -29.5t-32 -7.5z" />
    <glyph glyph-name="aring" unicode="&#xe5;" horiz-adv-x="800" 
d="M125 0zM322 35q66 0 116 24t87 75v141h-225q-57 0 -93.5 -25t-36.5 -86q0 -63 36.5 -96t115.5 -33zM315 -10q-89 0 -139.5 46t-50.5 127q0 72 47.5 113t127.5 41h225v110q0 57 -40.5 97.5t-123.5 40.5q-81 0 -117.5 -24.5t-55.5 -90.5l-45 13q24 78 74 112.5t142 34.5
q99 0 157.5 -48t58.5 -134v-268q0 -79 25.5 -103.5t94.5 -12.5v-47q-69 -10 -106.5 13t-44.5 80h-10q-36 -48 -93 -74t-126 -26zM360 685q-68 0 -104 37t-36 108v32q0 72 36 110t104 38t104 -38t36 -110v-32q0 -71 -36 -108t-104 -37zM360 726q49 0 70.5 25t21.5 79v32
q0 56 -21.5 81.5t-70.5 25.5t-70.5 -25.5t-21.5 -81.5v-32q0 -54 21.5 -79t70.5 -25z" />
    <glyph glyph-name="amacron" unicode="&#x101;" horiz-adv-x="800" 
d="M125 0zM322 35q66 0 116 24t87 75v141h-225q-57 0 -93.5 -25t-36.5 -86q0 -63 36.5 -96t115.5 -33zM315 -10q-89 0 -139.5 46t-50.5 127q0 72 47.5 113t127.5 41h225v110q0 57 -40.5 97.5t-123.5 40.5q-81 0 -117.5 -24.5t-55.5 -90.5l-45 13q24 78 74 112.5t142 34.5
q99 0 157.5 -48t58.5 -134v-268q0 -79 25.5 -103.5t94.5 -12.5v-47q-69 -10 -106.5 13t-44.5 80h-10q-36 -48 -93 -74t-126 -26zM185 780v45h350v-45h-350z" />
    <glyph glyph-name="abreve" unicode="&#x103;" horiz-adv-x="800" 
d="M125 0zM322 35q66 0 116 24t87 75v141h-225q-57 0 -93.5 -25t-36.5 -86q0 -63 36.5 -96t115.5 -33zM315 -10q-89 0 -139.5 46t-50.5 127q0 72 47.5 113t127.5 41h225v110q0 57 -40.5 97.5t-123.5 40.5q-81 0 -117.5 -24.5t-55.5 -90.5l-45 13q24 78 74 112.5t142 34.5
q99 0 157.5 -48t58.5 -134v-268q0 -79 25.5 -103.5t94.5 -12.5v-47q-69 -10 -106.5 13t-44.5 80h-10q-36 -48 -93 -74t-126 -26zM360 693q-98 0 -149.5 54t-52.5 156h50q2 -87 38 -126t114 -39t114 39t38 126h50q-1 -102 -52.5 -156t-149.5 -54z" />
    <glyph glyph-name="aogonek" unicode="&#x105;" horiz-adv-x="800" 
d="M125 0zM322 35q66 0 116 24t87 75v141h-225q-57 0 -93.5 -25t-36.5 -86q0 -63 36.5 -96t115.5 -33zM315 -10q-89 0 -139.5 46t-50.5 127q0 72 47.5 113t127.5 41h225v110q0 57 -40.5 97.5t-123.5 40.5q-81 0 -117.5 -24.5t-55.5 -90.5l-45 13q24 78 74 112.5t142 34.5
q99 0 157.5 -48t58.5 -134v-268q0 -79 25.5 -103.5t94.5 -12.5v-47q-69 -10 -106.5 13t-44.5 80h-10q-36 -48 -93 -74t-126 -26zM620 -215q-59 0 -95 30t-36 79q0 43 31.5 80.5t86.5 59.5l12 -11q-41 -25 -60.5 -53t-19.5 -63q0 -40 20.5 -58.5t66.5 -18.5q21 0 38 2t36 6
v-45q-19 -4 -41 -6t-39 -2z" />
    <glyph glyph-name="aringacute" unicode="&#x1fb;" horiz-adv-x="800" 
d="M125 0zM322 35q66 0 116 24t87 75v141h-225q-57 0 -93.5 -25t-36.5 -86q0 -63 36.5 -96t115.5 -33zM315 -10q-89 0 -139.5 46t-50.5 127q0 72 47.5 113t127.5 41h225v110q0 57 -40.5 97.5t-123.5 40.5q-81 0 -117.5 -24.5t-55.5 -90.5l-45 13q24 78 74 112.5t142 34.5
q99 0 157.5 -48t58.5 -134v-268q0 -79 25.5 -103.5t94.5 -12.5v-47q-69 -10 -106.5 13t-44.5 80h-10q-36 -48 -93 -74t-126 -26zM360 685q-68 0 -104 37t-36 108v32q0 72 36 110t104 38t104 -38t36 -110v-32q0 -71 -36 -108t-104 -37zM360 726q49 0 70.5 25t21.5 79v32
q0 56 -21.5 81.5t-70.5 25.5t-70.5 -25.5t-21.5 -81.5v-32q0 -54 21.5 -79t70.5 -25zM363 1000l146 200h80l-185 -200h-41z" />
    <glyph glyph-name="b" unicode="b" 
d="M342 -10q-56 0 -113.5 15.5t-103.5 44.5v750h50v-290h10q25 43 80.5 71.5t124.5 28.5q84 0 134.5 -59.5t50.5 -168.5v-163q0 -104 -63 -166.5t-170 -62.5zM341 33q91 0 137.5 47.5t46.5 140.5v160q0 93 -35.5 138.5t-109.5 45.5q-59 0 -109 -26.5t-96 -83.5v-381
q35 -21 75 -31t91 -10z" />
    <glyph glyph-name="c" unicode="c" 
d="M364 -10q-116 0 -177.5 58.5t-61.5 168.5v162q0 113 61 172t177 59q110 0 163 -44t60 -137l-48 -4q-8 78 -47 109t-129 31q-96 0 -141.5 -45t-45.5 -141v-162q0 -94 46 -138.5t143 -44.5q91 0 129.5 26.5t44.5 94.5l48 -4q-6 -84 -59.5 -122.5t-162.5 -38.5z" />
    <glyph glyph-name="ccedilla" unicode="&#xe7;" 
d="M125 0zM364 -10q-116 0 -177.5 58.5t-61.5 168.5v162q0 113 61 172t177 59q110 0 163 -44t60 -137l-48 -4q-8 78 -47 109t-129 31q-96 0 -141.5 -45t-45.5 -141v-162q0 -94 46 -138.5t143 -44.5q91 0 129.5 26.5t44.5 94.5l48 -4q-6 -84 -59.5 -122.5t-162.5 -38.5z
M316 0l10 22q60 -11 92 -43t32 -80q0 -54 -36 -84.5t-100 -30.5q-57 0 -93 25.5t-40 85.5l48 4q4 -40 22.5 -56.5t57.5 -16.5q50 0 70.5 17t20.5 59q0 40 -19.5 62.5t-64.5 35.5z" />
    <glyph glyph-name="cacute" unicode="&#x107;" 
d="M125 0zM364 -10q-116 0 -177.5 58.5t-61.5 168.5v162q0 113 61 172t177 59q110 0 163 -44t60 -137l-48 -4q-8 78 -47 109t-129 31q-96 0 -141.5 -45t-45.5 -141v-162q0 -94 46 -138.5t143 -44.5q91 0 129.5 26.5t44.5 94.5l48 -4q-6 -84 -59.5 -122.5t-162.5 -38.5z
M279 700l146 200h80l-185 -200h-41z" />
    <glyph glyph-name="ccircumflex" unicode="&#x109;" 
d="M125 0zM364 -10q-116 0 -177.5 58.5t-61.5 168.5v162q0 113 61 172t177 59q110 0 163 -44t60 -137l-48 -4q-8 78 -47 109t-129 31q-96 0 -141.5 -45t-45.5 -141v-162q0 -94 46 -138.5t143 -44.5q91 0 129.5 26.5t44.5 94.5l48 -4q-6 -84 -59.5 -122.5t-162.5 -38.5z
M187 722l-21 27l173 168h32l174 -168l-21 -27l-169 148z" />
    <glyph glyph-name="cdotaccent" unicode="&#x10b;" 
d="M125 0zM364 -10q-116 0 -177.5 58.5t-61.5 168.5v162q0 113 61 172t177 59q110 0 163 -44t60 -137l-48 -4q-8 78 -47 109t-129 31q-96 0 -141.5 -45t-45.5 -141v-162q0 -94 46 -138.5t143 -44.5q91 0 129.5 26.5t44.5 94.5l48 -4q-6 -84 -59.5 -122.5t-162.5 -38.5z
M356 730q-22 0 -36 8t-14 29v7q0 22 14 30.5t36 8.5t36 -8.5t14 -30.5v-7q0 -21 -14 -29t-36 -8z" />
    <glyph glyph-name="ccaron" unicode="&#x10d;" 
d="M125 0zM364 -10q-116 0 -177.5 58.5t-61.5 168.5v162q0 113 61 172t177 59q110 0 163 -44t60 -137l-48 -4q-8 78 -47 109t-129 31q-96 0 -141.5 -45t-45.5 -141v-162q0 -94 46 -138.5t143 -44.5q91 0 129.5 26.5t44.5 94.5l48 -4q-6 -84 -59.5 -122.5t-162.5 -38.5z
M340 704l-174 168l21 27l169 -148l168 148l21 -27l-173 -168h-32z" />
    <glyph glyph-name="d" unicode="d" 
d="M320 35q59 0 109 26.5t96 83.5v376q-40 23 -81 34.5t-85 11.5q-90 0 -137 -47.5t-47 -140.5v-161q0 -97 34 -140t111 -43zM515 90q-25 -43 -80.5 -71.5t-124.5 -28.5q-90 0 -137.5 58t-47.5 170v163q0 105 63 167t170 62q46 0 88 -11t79 -27v228h50v-800h-50v90h-10z" />
    <glyph glyph-name="dcaron" unicode="&#x10f;" 
d="M125 0zM320 35q59 0 109 26.5t96 83.5v376q-40 23 -81 34.5t-85 11.5q-90 0 -137 -47.5t-47 -140.5v-161q0 -97 34 -140t111 -43zM515 90q-25 -43 -80.5 -71.5t-124.5 -28.5q-90 0 -137.5 58t-47.5 170v163q0 105 63 167t170 62q46 0 88 -11t79 -27v228h50v-800h-50v90
h-10zM716 755l81 245h67l-106 -245h-42z" />
    <glyph glyph-name="e" unicode="e" 
d="M569 119q-25 -69 -75 -99t-143 -30q-107 0 -166.5 57.5t-59.5 170.5v161q0 116 62.5 173.5t163.5 57.5t162.5 -58.5t61.5 -179.5v-77h-400v-78q0 -96 43.5 -139t131.5 -43q79 0 114 23.5t56 76.5zM175 379v-42h350v33q0 101 -44 147.5t-131 46.5t-131 -45t-44 -140z" />
    <glyph glyph-name="egrave" unicode="&#xe8;" 
d="M125 0zM569 119q-25 -69 -75 -99t-143 -30q-107 0 -166.5 57.5t-59.5 170.5v161q0 116 62.5 173.5t163.5 57.5t162.5 -58.5t61.5 -179.5v-77h-400v-78q0 -96 43.5 -139t131.5 -43q79 0 114 23.5t56 76.5zM175 379v-42h350v33q0 101 -44 147.5t-131 46.5t-131 -45
t-44 -140zM377 700l-185 200h80l146 -200h-41z" />
    <glyph glyph-name="eacute" unicode="&#xe9;" 
d="M125 0zM569 119q-25 -69 -75 -99t-143 -30q-107 0 -166.5 57.5t-59.5 170.5v161q0 116 62.5 173.5t163.5 57.5t162.5 -58.5t61.5 -179.5v-77h-400v-78q0 -96 43.5 -139t131.5 -43q79 0 114 23.5t56 76.5zM175 379v-42h350v33q0 101 -44 147.5t-131 46.5t-131 -45
t-44 -140zM284 700l146 200h80l-185 -200h-41z" />
    <glyph glyph-name="ecircumflex" unicode="&#xea;" 
d="M125 0zM569 119q-25 -69 -75 -99t-143 -30q-107 0 -166.5 57.5t-59.5 170.5v161q0 116 62.5 173.5t163.5 57.5t162.5 -58.5t61.5 -179.5v-77h-400v-78q0 -96 43.5 -139t131.5 -43q79 0 114 23.5t56 76.5zM175 379v-42h350v33q0 101 -44 147.5t-131 46.5t-131 -45
t-44 -140zM182 722l-21 27l173 168h32l174 -168l-21 -27l-169 148z" />
    <glyph glyph-name="edieresis" unicode="&#xeb;" 
d="M125 0zM569 119q-25 -69 -75 -99t-143 -30q-107 0 -166.5 57.5t-59.5 170.5v161q0 116 62.5 173.5t163.5 57.5t162.5 -58.5t61.5 -179.5v-77h-400v-78q0 -96 43.5 -139t131.5 -43q79 0 114 23.5t56 76.5zM175 379v-42h350v33q0 101 -44 147.5t-131 46.5t-131 -45
t-44 -140zM246 730q-20 0 -32.5 7.5t-12.5 29.5v7q0 22 12.5 30.5t32.5 8.5t32.5 -8.5t12.5 -30.5v-7q0 -22 -13 -29.5t-32 -7.5zM456 730q-20 0 -32.5 7.5t-12.5 29.5v7q0 22 12.5 30.5t32.5 8.5t32.5 -8.5t12.5 -30.5v-7q0 -22 -13 -29.5t-32 -7.5z" />
    <glyph glyph-name="emacron" unicode="&#x113;" 
d="M125 0zM569 119q-25 -69 -75 -99t-143 -30q-107 0 -166.5 57.5t-59.5 170.5v161q0 116 62.5 173.5t163.5 57.5t162.5 -58.5t61.5 -179.5v-77h-400v-78q0 -96 43.5 -139t131.5 -43q79 0 114 23.5t56 76.5zM175 379v-42h350v33q0 101 -44 147.5t-131 46.5t-131 -45
t-44 -140zM176 780v45h350v-45h-350z" />
    <glyph glyph-name="ebreve" unicode="&#x115;" 
d="M125 0zM569 119q-25 -69 -75 -99t-143 -30q-107 0 -166.5 57.5t-59.5 170.5v161q0 116 62.5 173.5t163.5 57.5t162.5 -58.5t61.5 -179.5v-77h-400v-78q0 -96 43.5 -139t131.5 -43q79 0 114 23.5t56 76.5zM175 379v-42h350v33q0 101 -44 147.5t-131 46.5t-131 -45
t-44 -140zM351 693q-98 0 -149.5 54t-52.5 156h50q2 -87 38 -126t114 -39t114 39t38 126h50q-1 -102 -52.5 -156t-149.5 -54z" />
    <glyph glyph-name="edotaccent" unicode="&#x117;" 
d="M125 0zM569 119q-25 -69 -75 -99t-143 -30q-107 0 -166.5 57.5t-59.5 170.5v161q0 116 62.5 173.5t163.5 57.5t162.5 -58.5t61.5 -179.5v-77h-400v-78q0 -96 43.5 -139t131.5 -43q79 0 114 23.5t56 76.5zM175 379v-42h350v33q0 101 -44 147.5t-131 46.5t-131 -45
t-44 -140zM351 730q-22 0 -36 8t-14 29v7q0 22 14 30.5t36 8.5t36 -8.5t14 -30.5v-7q0 -21 -14 -29t-36 -8z" />
    <glyph glyph-name="eogonek" unicode="&#x119;" 
d="M125 0zM569 119q-25 -69 -75 -99t-143 -30q-107 0 -166.5 57.5t-59.5 170.5v161q0 116 62.5 173.5t163.5 57.5t162.5 -58.5t61.5 -179.5v-77h-400v-78q0 -96 43.5 -139t131.5 -43q79 0 114 23.5t56 76.5zM175 379v-42h350v33q0 101 -44 147.5t-131 46.5t-131 -45
t-44 -140zM491 -215q-59 0 -95 30t-36 79q0 43 31.5 80.5t86.5 59.5l12 -11q-41 -25 -60.5 -53t-19.5 -63q0 -40 20.5 -58.5t66.5 -18.5q21 0 38 2t36 6v-45q-19 -4 -41 -6t-39 -2z" />
    <glyph glyph-name="ecaron" unicode="&#x11b;" 
d="M125 0zM569 119q-25 -69 -75 -99t-143 -30q-107 0 -166.5 57.5t-59.5 170.5v161q0 116 62.5 173.5t163.5 57.5t162.5 -58.5t61.5 -179.5v-77h-400v-78q0 -96 43.5 -139t131.5 -43q79 0 114 23.5t56 76.5zM175 379v-42h350v33q0 101 -44 147.5t-131 46.5t-131 -45
t-44 -140zM335 704l-174 168l21 27l169 -148l168 148l21 -27l-173 -168h-32z" />
    <glyph glyph-name="f" unicode="f" horiz-adv-x="600" 
d="M225 0v555h-120v45h120v40q0 81 43.5 125.5t108.5 44.5q25 0 51 -6t46 -15l-10 -43q-19 9 -42 14t-46 5q-46 0 -73.5 -29t-27.5 -95v-41h200v-45h-200v-555h-50z" />
    <glyph glyph-name="g" unicode="g" horiz-adv-x="800" 
d="M675 -48q0 -81 -51 -121.5t-129 -40.5h-188q-79 0 -130.5 40.5t-51.5 126.5q0 50 23.5 80t66.5 34v6q-33 5 -51.5 29t-18.5 61q0 53 28.5 85.5t79.5 36.5v4q-36 11 -54.5 39.5t-18.5 71.5v37q0 69 52 114t148 45h270v-45l-145 12v-7q38 -10 56.5 -46.5t18.5 -72.5v-36
q0 -66 -48.5 -107.5t-155.5 -41.5h-121q-32 0 -48.5 -19t-16.5 -65q0 -42 22 -62t66 -20h227q81 0 125.5 -36t44.5 -102zM380 297q73 0 111.5 26t38.5 80v32q0 63 -38.5 91.5t-111.5 28.5t-111.5 -28.5t-38.5 -91.5v-32q0 -54 38.5 -80t111.5 -26zM305 -165h203
q60 0 88.5 27.5t28.5 83.5q0 48 -26.5 71t-80.5 23h-343v-68q0 -67 33.5 -102t96.5 -35z" />
    <glyph glyph-name="gcircumflex" unicode="&#x11d;" horiz-adv-x="800" 
d="M125 0zM675 -48q0 -81 -51 -121.5t-129 -40.5h-188q-79 0 -130.5 40.5t-51.5 126.5q0 50 23.5 80t66.5 34v6q-33 5 -51.5 29t-18.5 61q0 53 28.5 85.5t79.5 36.5v4q-36 11 -54.5 39.5t-18.5 71.5v37q0 69 52 114t148 45h270v-45l-145 12v-7q38 -10 56.5 -46.5t18.5 -72.5
v-36q0 -66 -48.5 -107.5t-155.5 -41.5h-121q-32 0 -48.5 -19t-16.5 -65q0 -42 22 -62t66 -20h227q81 0 125.5 -36t44.5 -102zM380 297q73 0 111.5 26t38.5 80v32q0 63 -38.5 91.5t-111.5 28.5t-111.5 -28.5t-38.5 -91.5v-32q0 -54 38.5 -80t111.5 -26zM305 -165h203
q60 0 88.5 27.5t28.5 83.5q0 48 -26.5 71t-80.5 23h-343v-68q0 -67 33.5 -102t96.5 -35zM231 722l-21 27l173 168h32l174 -168l-21 -27l-169 148z" />
    <glyph glyph-name="gbreve" unicode="&#x11f;" horiz-adv-x="800" 
d="M125 0zM675 -48q0 -81 -51 -121.5t-129 -40.5h-188q-79 0 -130.5 40.5t-51.5 126.5q0 50 23.5 80t66.5 34v6q-33 5 -51.5 29t-18.5 61q0 53 28.5 85.5t79.5 36.5v4q-36 11 -54.5 39.5t-18.5 71.5v37q0 69 52 114t148 45h270v-45l-145 12v-7q38 -10 56.5 -46.5t18.5 -72.5
v-36q0 -66 -48.5 -107.5t-155.5 -41.5h-121q-32 0 -48.5 -19t-16.5 -65q0 -42 22 -62t66 -20h227q81 0 125.5 -36t44.5 -102zM380 297q73 0 111.5 26t38.5 80v32q0 63 -38.5 91.5t-111.5 28.5t-111.5 -28.5t-38.5 -91.5v-32q0 -54 38.5 -80t111.5 -26zM305 -165h203
q60 0 88.5 27.5t28.5 83.5q0 48 -26.5 71t-80.5 23h-343v-68q0 -67 33.5 -102t96.5 -35zM400 693q-98 0 -149.5 54t-52.5 156h50q2 -87 38 -126t114 -39t114 39t38 126h50q-1 -102 -52.5 -156t-149.5 -54z" />
    <glyph glyph-name="gdotaccent" unicode="&#x121;" horiz-adv-x="800" 
d="M125 0zM675 -48q0 -81 -51 -121.5t-129 -40.5h-188q-79 0 -130.5 40.5t-51.5 126.5q0 50 23.5 80t66.5 34v6q-33 5 -51.5 29t-18.5 61q0 53 28.5 85.5t79.5 36.5v4q-36 11 -54.5 39.5t-18.5 71.5v37q0 69 52 114t148 45h270v-45l-145 12v-7q38 -10 56.5 -46.5t18.5 -72.5
v-36q0 -66 -48.5 -107.5t-155.5 -41.5h-121q-32 0 -48.5 -19t-16.5 -65q0 -42 22 -62t66 -20h227q81 0 125.5 -36t44.5 -102zM380 297q73 0 111.5 26t38.5 80v32q0 63 -38.5 91.5t-111.5 28.5t-111.5 -28.5t-38.5 -91.5v-32q0 -54 38.5 -80t111.5 -26zM305 -165h203
q60 0 88.5 27.5t28.5 83.5q0 48 -26.5 71t-80.5 23h-343v-68q0 -67 33.5 -102t96.5 -35zM400 730q-22 0 -36 8t-14 29v7q0 22 14 30.5t36 8.5t36 -8.5t14 -30.5v-7q0 -21 -14 -29t-36 -8z" />
    <glyph glyph-name="gcommaaccent" unicode="&#x123;" horiz-adv-x="800" 
d="M125 0zM675 -48q0 -81 -51 -121.5t-129 -40.5h-188q-79 0 -130.5 40.5t-51.5 126.5q0 50 23.5 80t66.5 34v6q-33 5 -51.5 29t-18.5 61q0 53 28.5 85.5t79.5 36.5v4q-36 11 -54.5 39.5t-18.5 71.5v37q0 69 52 114t148 45h270v-45l-145 12v-7q38 -10 56.5 -46.5t18.5 -72.5
v-36q0 -66 -48.5 -107.5t-155.5 -41.5h-121q-32 0 -48.5 -19t-16.5 -65q0 -42 22 -62t66 -20h227q81 0 125.5 -36t44.5 -102zM380 297q73 0 111.5 26t38.5 80v32q0 63 -38.5 91.5t-111.5 28.5t-111.5 -28.5t-38.5 -91.5v-32q0 -54 38.5 -80t111.5 -26zM305 -165h203
q60 0 88.5 27.5t28.5 83.5q0 48 -26.5 71t-80.5 23h-343v-68q0 -67 33.5 -102t96.5 -35zM356 700l135 200h41l-96 -200h-80z" />
    <glyph glyph-name="h" unicode="h" 
d="M125 0v800h50v-300h10q37 51 83 80.5t118 29.5q85 0 137 -53.5t52 -140.5v-416h-50v405q0 75 -38 117.5t-105 42.5q-60 0 -107.5 -26.5t-99.5 -88.5v-450h-50z" />
    <glyph glyph-name="hcircumflex" unicode="&#x125;" 
d="M0 0zM125 0v800h50v-300h10q37 51 83 80.5t118 29.5q85 0 137 -53.5t52 -140.5v-416h-50v405q0 75 -38 117.5t-105 42.5q-60 0 -107.5 -26.5t-99.5 -88.5v-450h-50zM-19 922l-21 27l173 168h32l174 -168l-21 -27l-169 148z" />
    <glyph glyph-name="i" unicode="i" horiz-adv-x="500" 
d="M200 0zM225 0v600h50v-600h-50zM250 730q-22 0 -36 8t-14 29v7q0 22 14 30.5t36 8.5t36 -8.5t14 -30.5v-7q0 -21 -14 -29t-36 -8z" />
    <glyph glyph-name="igrave" unicode="&#xec;" horiz-adv-x="500" 
d="M91 0zM225 0v600h50v-600h-50zM276 700l-185 200h80l146 -200h-41z" />
    <glyph glyph-name="iacute" unicode="&#xed;" horiz-adv-x="500" 
d="M183 0zM225 0v600h50v-600h-50zM183 700l146 200h80l-185 -200h-41z" />
    <glyph glyph-name="icircumflex" unicode="&#xee;" horiz-adv-x="500" 
d="M60 0zM225 0v600h50v-600h-50zM81 722l-21 27l173 168h32l174 -168l-21 -27l-169 148z" />
    <glyph glyph-name="idieresis" unicode="&#xef;" horiz-adv-x="500" 
d="M100 0zM225 0v600h50v-600h-50zM145 730q-20 0 -32.5 7.5t-12.5 29.5v7q0 22 12.5 30.5t32.5 8.5t32.5 -8.5t12.5 -30.5v-7q0 -22 -13 -29.5t-32 -7.5zM355 730q-20 0 -32.5 7.5t-12.5 29.5v7q0 22 12.5 30.5t32.5 8.5t32.5 -8.5t12.5 -30.5v-7q0 -22 -13 -29.5t-32 -7.5
z" />
    <glyph glyph-name="itilde" unicode="&#x129;" horiz-adv-x="500" 
d="M65 0zM225 0v600h50v-600h-50zM337 710q-33 0 -56.5 19.5t-51.5 70.5q-20 40 -34.5 55t-31.5 15q-31 0 -44.5 -33.5t-11.5 -105.5v-11h-42v15q0 87 24.5 131t73.5 44q34 0 56.5 -18t47.5 -67q24 -43 39 -59t31 -16q29 0 42.5 33.5t13.5 105.5v11h42v-15q0 -87 -24.5 -131
t-73.5 -44z" />
    <glyph glyph-name="imacron" unicode="&#x12b;" horiz-adv-x="500" 
d="M75 0zM225 0v600h50v-600h-50zM75 780v45h350v-45h-350z" />
    <glyph glyph-name="ibreve" unicode="&#x12d;" horiz-adv-x="500" 
d="M48 0zM225 0v600h50v-600h-50zM250 693q-98 0 -149.5 54t-52.5 156h50q2 -87 38 -126t114 -39t114 39t38 126h50q-1 -102 -52.5 -156t-149.5 -54z" />
    <glyph glyph-name="iogonek" unicode="&#x12f;" horiz-adv-x="500" 
d="M139 0zM225 0v600h50v-600h-50zM250 730q-22 0 -36 8t-14 29v7q0 22 14 30.5t36 8.5t36 -8.5t14 -30.5v-7q0 -21 -14 -29t-36 -8zM270 -215q-59 0 -95 30t-36 79q0 43 31.5 80.5t86.5 59.5l12 -11q-41 -25 -60.5 -53t-19.5 -63q0 -40 20.5 -58.5t66.5 -18.5q21 0 38 2
t36 6v-45q-19 -4 -41 -6t-39 -2z" />
    <glyph glyph-name="j" unicode="j" horiz-adv-x="500" 
d="M55 0zM158 -208q-25 0 -51.5 5t-51.5 15l11 45q25 -11 47 -15t42 -4q60 0 90 41t30 123v553h-200v45h250v-606q0 -96 -44 -149t-123 -53zM300 730q-22 0 -36 8t-14 29v7q0 22 14 30.5t36 8.5t36 -8.5t14 -30.5v-7q0 -21 -14 -29t-36 -8z" />
    <glyph glyph-name="jcircumflex" unicode="&#x135;" horiz-adv-x="500" 
d="M55 0zM158 -208q-25 0 -51.5 5t-51.5 15l11 45q25 -11 47 -15t42 -4q60 0 90 41t30 123v553h-200v45h250v-606q0 -96 -44 -149t-123 -53zM77 722l-21 27l173 168h32l174 -168l-21 -27l-169 148z" />
    <glyph glyph-name="k" unicode="k" horiz-adv-x="600" 
d="M175 293v-293h-50v800h50v-462h101l204 262h60l-222 -280l219 -320h-57l-202 293h-103z" />
    <glyph glyph-name="kcommaaccent" unicode="&#x137;" horiz-adv-x="600" 
d="M125 0zM175 293v-293h-50v800h50v-462h101l204 262h60l-222 -280l219 -320h-57l-202 293h-103zM199 -300l96 200h80l-135 -200h-41z" />
    <glyph glyph-name="l" unicode="l" horiz-adv-x="500" 
d="M346 -5q-80 0 -125.5 61t-45.5 168v576h50v-577q0 -84 33 -132t91 -48q15 0 35 5t35 12l12 -43q-18 -9 -39.5 -15.5t-45.5 -6.5z" />
    <glyph glyph-name="lacute" unicode="&#x13a;" horiz-adv-x="500" 
d="M148 0zM346 -5q-80 0 -125.5 61t-45.5 168v576h50v-577q0 -84 33 -132t91 -48q15 0 35 5t35 12l12 -43q-18 -9 -39.5 -15.5t-45.5 -6.5zM148 900l146 200h80l-185 -200h-41z" />
    <glyph glyph-name="lcommaaccent" unicode="&#x13c;" horiz-adv-x="500" 
d="M175 0zM346 -5q-80 0 -125.5 61t-45.5 168v576h50v-577q0 -84 33 -132t91 -48q15 0 35 5t35 12l12 -43q-18 -9 -39.5 -15.5t-45.5 -6.5zM201 -300l96 200h80l-135 -200h-41z" />
    <glyph glyph-name="lcaron" unicode="&#x13e;" horiz-adv-x="500" 
d="M175 0zM346 -5q-80 0 -125.5 61t-45.5 168v576h50v-577q0 -84 33 -132t91 -48q15 0 35 5t35 12l12 -43q-18 -9 -39.5 -15.5t-45.5 -6.5zM376 755l81 245h67l-106 -245h-42z" />
    <glyph glyph-name="m" unicode="m" horiz-adv-x="1000" 
d="M175 460v-460h-50v600h50v-100h10q23 50 67.5 80t107.5 30q56 0 97 -29.5t57 -80.5h11q23 50 71.5 80t114.5 30q76 0 120 -50.5t44 -139.5v-420h-50v404q0 83 -30 121.5t-94 38.5q-47 0 -92 -26.5t-84 -77.5v-460h-50v404q0 83 -30 121.5t-94 38.5q-47 0 -92 -26.5
t-84 -77.5z" />
    <glyph glyph-name="n" unicode="n" 
d="M125 0v600h50v-100h10q28 51 83 80.5t118 29.5q87 0 138 -52.5t51 -142.5v-415h-50v405q0 78 -37 118.5t-106 40.5q-57 0 -109 -27.5t-98 -81.5v-455h-50z" />
    <glyph glyph-name="ntilde" unicode="&#xf1;" 
d="M125 0zM125 0v600h50v-100h10q28 51 83 80.5t118 29.5q87 0 138 -52.5t51 -142.5v-415h-50v405q0 78 -37 118.5t-106 40.5q-57 0 -109 -27.5t-98 -81.5v-455h-50zM457 710q-33 0 -56.5 19.5t-51.5 70.5q-20 40 -34.5 55t-31.5 15q-31 0 -44.5 -33.5t-11.5 -105.5v-11h-42
v15q0 87 24.5 131t73.5 44q34 0 56.5 -18t47.5 -67q24 -43 39 -59t31 -16q29 0 42.5 33.5t13.5 105.5v11h42v-15q0 -87 -24.5 -131t-73.5 -44z" />
    <glyph glyph-name="nacute" unicode="&#x144;" 
d="M125 0zM125 0v600h50v-100h10q28 51 83 80.5t118 29.5q87 0 138 -52.5t51 -142.5v-415h-50v405q0 78 -37 118.5t-106 40.5q-57 0 -109 -27.5t-98 -81.5v-455h-50zM303 700l146 200h80l-185 -200h-41z" />
    <glyph glyph-name="ncommaaccent" unicode="&#x146;" 
d="M125 0zM125 0v600h50v-100h10q28 51 83 80.5t118 29.5q87 0 138 -52.5t51 -142.5v-415h-50v405q0 78 -37 118.5t-106 40.5q-57 0 -109 -27.5t-98 -81.5v-455h-50zM236 -300l96 200h80l-135 -200h-41z" />
    <glyph glyph-name="ncaron" unicode="&#x148;" 
d="M125 0zM125 0v600h50v-100h10q28 51 83 80.5t118 29.5q87 0 138 -52.5t51 -142.5v-415h-50v405q0 78 -37 118.5t-106 40.5q-57 0 -109 -27.5t-98 -81.5v-455h-50zM354 704l-174 168l21 27l169 -148l168 148l21 -27l-173 -168h-32z" />
    <glyph glyph-name="o" unicode="o" 
d="M350 -10q-109 0 -167 58.5t-58 168.5v162q0 112 58.5 171.5t167.5 59.5q108 0 166 -59.5t58 -171.5v-162q0 -110 -58 -168.5t-167 -58.5zM350 35q90 0 132.5 44.5t42.5 137.5v162q0 95 -42.5 140.5t-132.5 45.5t-132.5 -45.5t-42.5 -140.5v-162q0 -93 42.5 -137.5
t132.5 -44.5z" />
    <glyph glyph-name="ograve" unicode="&#xf2;" 
d="M125 0zM350 -10q-109 0 -167 58.5t-58 168.5v162q0 112 58.5 171.5t167.5 59.5q108 0 166 -59.5t58 -171.5v-162q0 -110 -58 -168.5t-167 -58.5zM350 35q90 0 132.5 44.5t42.5 137.5v162q0 95 -42.5 140.5t-132.5 45.5t-132.5 -45.5t-42.5 -140.5v-162q0 -93 42.5 -137.5
t132.5 -44.5zM376 700l-185 200h80l146 -200h-41z" />
    <glyph glyph-name="oacute" unicode="&#xf3;" 
d="M125 0zM350 -10q-109 0 -167 58.5t-58 168.5v162q0 112 58.5 171.5t167.5 59.5q108 0 166 -59.5t58 -171.5v-162q0 -110 -58 -168.5t-167 -58.5zM350 35q90 0 132.5 44.5t42.5 137.5v162q0 95 -42.5 140.5t-132.5 45.5t-132.5 -45.5t-42.5 -140.5v-162q0 -93 42.5 -137.5
t132.5 -44.5zM283 700l146 200h80l-185 -200h-41z" />
    <glyph glyph-name="ocircumflex" unicode="&#xf4;" 
d="M125 0zM350 -10q-109 0 -167 58.5t-58 168.5v162q0 112 58.5 171.5t167.5 59.5q108 0 166 -59.5t58 -171.5v-162q0 -110 -58 -168.5t-167 -58.5zM350 35q90 0 132.5 44.5t42.5 137.5v162q0 95 -42.5 140.5t-132.5 45.5t-132.5 -45.5t-42.5 -140.5v-162q0 -93 42.5 -137.5
t132.5 -44.5zM181 722l-21 27l173 168h32l174 -168l-21 -27l-169 148z" />
    <glyph glyph-name="otilde" unicode="&#xf5;" 
d="M125 0zM350 -10q-109 0 -167 58.5t-58 168.5v162q0 112 58.5 171.5t167.5 59.5q108 0 166 -59.5t58 -171.5v-162q0 -110 -58 -168.5t-167 -58.5zM350 35q90 0 132.5 44.5t42.5 137.5v162q0 95 -42.5 140.5t-132.5 45.5t-132.5 -45.5t-42.5 -140.5v-162q0 -93 42.5 -137.5
t132.5 -44.5zM437 710q-33 0 -56.5 19.5t-51.5 70.5q-20 40 -34.5 55t-31.5 15q-31 0 -44.5 -33.5t-11.5 -105.5v-11h-42v15q0 87 24.5 131t73.5 44q34 0 56.5 -18t47.5 -67q24 -43 39 -59t31 -16q29 0 42.5 33.5t13.5 105.5v11h42v-15q0 -87 -24.5 -131t-73.5 -44z" />
    <glyph glyph-name="odieresis" unicode="&#xf6;" 
d="M125 0zM350 -10q-109 0 -167 58.5t-58 168.5v162q0 112 58.5 171.5t167.5 59.5q108 0 166 -59.5t58 -171.5v-162q0 -110 -58 -168.5t-167 -58.5zM350 35q90 0 132.5 44.5t42.5 137.5v162q0 95 -42.5 140.5t-132.5 45.5t-132.5 -45.5t-42.5 -140.5v-162q0 -93 42.5 -137.5
t132.5 -44.5zM245 730q-20 0 -32.5 7.5t-12.5 29.5v7q0 22 12.5 30.5t32.5 8.5t32.5 -8.5t12.5 -30.5v-7q0 -22 -13 -29.5t-32 -7.5zM455 730q-20 0 -32.5 7.5t-12.5 29.5v7q0 22 12.5 30.5t32.5 8.5t32.5 -8.5t12.5 -30.5v-7q0 -22 -13 -29.5t-32 -7.5z" />
    <glyph glyph-name="omacron" unicode="&#x14d;" 
d="M125 0zM350 -10q-109 0 -167 58.5t-58 168.5v162q0 112 58.5 171.5t167.5 59.5q108 0 166 -59.5t58 -171.5v-162q0 -110 -58 -168.5t-167 -58.5zM350 35q90 0 132.5 44.5t42.5 137.5v162q0 95 -42.5 140.5t-132.5 45.5t-132.5 -45.5t-42.5 -140.5v-162q0 -93 42.5 -137.5
t132.5 -44.5zM175 780v45h350v-45h-350z" />
    <glyph glyph-name="obreve" unicode="&#x14f;" 
d="M125 0zM350 -10q-109 0 -167 58.5t-58 168.5v162q0 112 58.5 171.5t167.5 59.5q108 0 166 -59.5t58 -171.5v-162q0 -110 -58 -168.5t-167 -58.5zM350 35q90 0 132.5 44.5t42.5 137.5v162q0 95 -42.5 140.5t-132.5 45.5t-132.5 -45.5t-42.5 -140.5v-162q0 -93 42.5 -137.5
t132.5 -44.5zM350 693q-98 0 -149.5 54t-52.5 156h50q2 -87 38 -126t114 -39t114 39t38 126h50q-1 -102 -52.5 -156t-149.5 -54z" />
    <glyph glyph-name="ohungarumlaut" unicode="&#x151;" 
d="M125 0zM350 -10q-109 0 -167 58.5t-58 168.5v162q0 112 58.5 171.5t167.5 59.5q108 0 166 -59.5t58 -171.5v-162q0 -110 -58 -168.5t-167 -58.5zM350 35q90 0 132.5 44.5t42.5 137.5v162q0 95 -42.5 140.5t-132.5 45.5t-132.5 -45.5t-42.5 -140.5v-162q0 -93 42.5 -137.5
t132.5 -44.5zM426 700l56 200h90l-105 -200h-41zM236 700l56 200h90l-105 -200h-41z" />
    <glyph glyph-name="p" unicode="p" 
d="M341 33q94 0 139 46t45 142v162q0 93 -35.5 137.5t-109.5 44.5q-59 0 -109 -26.5t-96 -83.5v-374q40 -23 81 -35.5t85 -12.5zM342 -10q-34 0 -79 10t-88 28v-228h-50v800h50v-100h10q26 54 80.5 82t119.5 28q89 0 139.5 -60.5t50.5 -167.5v-163q0 -107 -62 -168t-171 -61
z" />
    <glyph glyph-name="q" unicode="q" 
d="M525 -200v300h-10q-33 -51 -88.5 -80.5t-121.5 -29.5q-84 0 -132 60.5t-48 167.5v163q0 107 62 168t171 61q60 0 117.5 -13.5t99.5 -38.5v-758h-50zM320 35q60 0 110 27t95 83v384q-34 19 -75 28.5t-91 9.5q-94 0 -139 -46t-45 -142v-151q0 -99 35.5 -146t109.5 -47z" />
    <glyph glyph-name="r" unicode="r" horiz-adv-x="600" 
d="M125 0v600h50v-100h10q38 59 82.5 84.5t94.5 25.5q74 0 116 -44.5t42 -125.5v-65h-50v63q0 57 -26 92t-82 35q-54 0 -99.5 -28t-87.5 -87v-450h-50z" />
    <glyph glyph-name="racute" unicode="&#x155;" horiz-adv-x="600" 
d="M125 0zM125 0v600h50v-100h10q38 59 82.5 84.5t94.5 25.5q74 0 116 -44.5t42 -125.5v-65h-50v63q0 57 -26 92t-82 35q-54 0 -99.5 -28t-87.5 -87v-450h-50zM273 700l146 200h80l-185 -200h-41z" />
    <glyph glyph-name="rcommaaccent" unicode="&#x157;" horiz-adv-x="600" 
d="M36 0zM125 0v600h50v-100h10q38 59 82.5 84.5t94.5 25.5q74 0 116 -44.5t42 -125.5v-65h-50v63q0 57 -26 92t-82 35q-54 0 -99.5 -28t-87.5 -87v-450h-50zM36 -300l96 200h80l-135 -200h-41z" />
    <glyph glyph-name="rcaron" unicode="&#x159;" horiz-adv-x="600" 
d="M125 0zM125 0v600h50v-100h10q38 59 82.5 84.5t94.5 25.5q74 0 116 -44.5t42 -125.5v-65h-50v63q0 57 -26 92t-82 35q-54 0 -99.5 -28t-87.5 -87v-450h-50zM324 704l-174 168l21 27l169 -148l168 148l21 -27l-173 -168h-32z" />
    <glyph glyph-name="s" unicode="s" 
d="M368 -10q-72 0 -140 22t-124 67l26 41q51 -42 111.5 -63.5t126.5 -21.5q76 0 119 31t43 85q0 53 -39 79t-149 46q-116 21 -166.5 60t-50.5 107q0 75 52.5 121t138.5 46q65 0 124 -23t110 -63l-24 -39q-46 35 -99 57.5t-111 22.5q-66 0 -104 -30t-38 -82q0 -58 38.5 -85
t148.5 -45q116 -20 167 -58.5t51 -107.5q0 -75 -58 -121t-153 -46z" />
    <glyph glyph-name="sacute" unicode="&#x15b;" 
d="M104 0zM368 -10q-72 0 -140 22t-124 67l26 41q51 -42 111.5 -63.5t126.5 -21.5q76 0 119 31t43 85q0 53 -39 79t-149 46q-116 21 -166.5 60t-50.5 107q0 75 52.5 121t138.5 46q65 0 124 -23t110 -63l-24 -39q-46 35 -99 57.5t-111 22.5q-66 0 -104 -30t-38 -82
q0 -58 38.5 -85t148.5 -45q116 -20 167 -58.5t51 -107.5q0 -75 -58 -121t-153 -46zM281 700l146 200h80l-185 -200h-41z" />
    <glyph glyph-name="scircumflex" unicode="&#x15d;" 
d="M104 0zM368 -10q-72 0 -140 22t-124 67l26 41q51 -42 111.5 -63.5t126.5 -21.5q76 0 119 31t43 85q0 53 -39 79t-149 46q-116 21 -166.5 60t-50.5 107q0 75 52.5 121t138.5 46q65 0 124 -23t110 -63l-24 -39q-46 35 -99 57.5t-111 22.5q-66 0 -104 -30t-38 -82
q0 -58 38.5 -85t148.5 -45q116 -20 167 -58.5t51 -107.5q0 -75 -58 -121t-153 -46zM179 722l-21 27l173 168h32l174 -168l-21 -27l-169 148z" />
    <glyph glyph-name="scedilla" unicode="&#x15f;" 
d="M104 0zM368 -10q-72 0 -140 22t-124 67l26 41q51 -42 111.5 -63.5t126.5 -21.5q76 0 119 31t43 85q0 53 -39 79t-149 46q-116 21 -166.5 60t-50.5 107q0 75 52.5 121t138.5 46q65 0 124 -23t110 -63l-24 -39q-46 35 -99 57.5t-111 22.5q-66 0 -104 -30t-38 -82
q0 -58 38.5 -85t148.5 -45q116 -20 167 -58.5t51 -107.5q0 -75 -58 -121t-153 -46zM318 0l10 22q60 -11 92 -43t32 -80q0 -54 -36 -84.5t-100 -30.5q-57 0 -93 25.5t-40 85.5l48 4q4 -40 22.5 -56.5t57.5 -16.5q50 0 70.5 17t20.5 59q0 40 -19.5 62.5t-64.5 35.5z" />
    <glyph glyph-name="scaron" unicode="&#x161;" 
d="M104 0zM368 -10q-72 0 -140 22t-124 67l26 41q51 -42 111.5 -63.5t126.5 -21.5q76 0 119 31t43 85q0 53 -39 79t-149 46q-116 21 -166.5 60t-50.5 107q0 75 52.5 121t138.5 46q65 0 124 -23t110 -63l-24 -39q-46 35 -99 57.5t-111 22.5q-66 0 -104 -30t-38 -82
q0 -58 38.5 -85t148.5 -45q116 -20 167 -58.5t51 -107.5q0 -75 -58 -121t-153 -46zM332 704l-174 168l21 27l169 -148l168 148l21 -27l-173 -168h-32z" />
    <glyph glyph-name="scommaaccent" unicode="&#x219;" 
d="M104 0zM368 -10q-72 0 -140 22t-124 67l26 41q51 -42 111.5 -63.5t126.5 -21.5q76 0 119 31t43 85q0 53 -39 79t-149 46q-116 21 -166.5 60t-50.5 107q0 75 52.5 121t138.5 46q65 0 124 -23t110 -63l-24 -39q-46 35 -99 57.5t-111 22.5q-66 0 -104 -30t-38 -82
q0 -58 38.5 -85t148.5 -45q116 -20 167 -58.5t51 -107.5q0 -75 -58 -121t-153 -46zM196 -300l96 200h80l-135 -200h-41z" />
    <glyph glyph-name="t" unicode="t" horiz-adv-x="600" 
d="M399 -9q-81 0 -127.5 52t-46.5 144v368h-120v45h120v200h50v-200h220v-45h-220v-359q0 -81 32 -120t98 -39q19 0 42 5.5t46 15.5l11 -44q-26 -11 -53 -17t-52 -6z" />
    <glyph glyph-name="tcedilla" unicode="&#x163;" horiz-adv-x="600" 
d="M105 0zM399 -9q-81 0 -127.5 52t-46.5 144v368h-120v45h120v200h50v-200h220v-45h-220v-359q0 -81 32 -120t98 -39q19 0 42 5.5t46 15.5l11 -44q-26 -11 -53 -17t-52 -6zM335 0l10 22q60 -11 92 -43t32 -80q0 -54 -36 -84.5t-100 -30.5q-57 0 -93 25.5t-40 85.5l48 4
q4 -40 22.5 -56.5t57.5 -16.5q50 0 70.5 17t20.5 59q0 40 -19.5 62.5t-64.5 35.5z" />
    <glyph glyph-name="tcaron" unicode="&#x165;" horiz-adv-x="600" 
d="M105 0zM399 -9q-81 0 -127.5 52t-46.5 144v368h-120v45h120v200h50v-200h220v-45h-220v-359q0 -81 32 -120t98 -39q19 0 42 5.5t46 15.5l11 -44q-26 -11 -53 -17t-52 -6zM416 755l81 245h67l-106 -245h-42z" />
    <glyph glyph-name="tcommaaccent" unicode="&#x21b;" horiz-adv-x="600" 
d="M105 0zM399 -9q-81 0 -127.5 52t-46.5 144v368h-120v45h120v200h50v-200h220v-45h-220v-359q0 -81 32 -120t98 -39q19 0 42 5.5t46 15.5l11 -44q-26 -11 -53 -17t-52 -6zM186 -300l96 200h80l-135 -200h-41z" />
    <glyph glyph-name="u" unicode="u" 
d="M314 -10q-86 0 -137.5 56t-51.5 149v405h50v-385q0 -89 36 -134.5t107 -45.5q51 0 104.5 26.5t102.5 83.5v455h50v-600h-50v100h-10q-39 -56 -88.5 -83t-112.5 -27z" />
    <glyph glyph-name="ugrave" unicode="&#xf9;" 
d="M125 0zM314 -10q-86 0 -137.5 56t-51.5 149v405h50v-385q0 -89 36 -134.5t107 -45.5q51 0 104.5 26.5t102.5 83.5v455h50v-600h-50v100h-10q-39 -56 -88.5 -83t-112.5 -27zM346 700l-185 200h80l146 -200h-41z" />
    <glyph glyph-name="uacute" unicode="&#xfa;" 
d="M125 0zM314 -10q-86 0 -137.5 56t-51.5 149v405h50v-385q0 -89 36 -134.5t107 -45.5q51 0 104.5 26.5t102.5 83.5v455h50v-600h-50v100h-10q-39 -56 -88.5 -83t-112.5 -27zM313 700l146 200h80l-185 -200h-41z" />
    <glyph glyph-name="ucircumflex" unicode="&#xfb;" 
d="M125 0zM314 -10q-86 0 -137.5 56t-51.5 149v405h50v-385q0 -89 36 -134.5t107 -45.5q51 0 104.5 26.5t102.5 83.5v455h50v-600h-50v100h-10q-39 -56 -88.5 -83t-112.5 -27zM181 722l-21 27l173 168h32l174 -168l-21 -27l-169 148z" />
    <glyph glyph-name="udieresis" unicode="&#xfc;" 
d="M125 0zM314 -10q-86 0 -137.5 56t-51.5 149v405h50v-385q0 -89 36 -134.5t107 -45.5q51 0 104.5 26.5t102.5 83.5v455h50v-600h-50v100h-10q-39 -56 -88.5 -83t-112.5 -27zM245 730q-20 0 -32.5 7.5t-12.5 29.5v7q0 22 12.5 30.5t32.5 8.5t32.5 -8.5t12.5 -30.5v-7
q0 -22 -13 -29.5t-32 -7.5zM455 730q-20 0 -32.5 7.5t-12.5 29.5v7q0 22 12.5 30.5t32.5 8.5t32.5 -8.5t12.5 -30.5v-7q0 -22 -13 -29.5t-32 -7.5z" />
    <glyph glyph-name="utilde" unicode="&#x169;" 
d="M125 0zM314 -10q-86 0 -137.5 56t-51.5 149v405h50v-385q0 -89 36 -134.5t107 -45.5q51 0 104.5 26.5t102.5 83.5v455h50v-600h-50v100h-10q-39 -56 -88.5 -83t-112.5 -27zM437 710q-33 0 -56.5 19.5t-51.5 70.5q-20 40 -34.5 55t-31.5 15q-31 0 -44.5 -33.5
t-11.5 -105.5v-11h-42v15q0 87 24.5 131t73.5 44q34 0 56.5 -18t47.5 -67q24 -43 39 -59t31 -16q29 0 42.5 33.5t13.5 105.5v11h42v-15q0 -87 -24.5 -131t-73.5 -44z" />
    <glyph glyph-name="umacron" unicode="&#x16b;" 
d="M125 0zM314 -10q-86 0 -137.5 56t-51.5 149v405h50v-385q0 -89 36 -134.5t107 -45.5q51 0 104.5 26.5t102.5 83.5v455h50v-600h-50v100h-10q-39 -56 -88.5 -83t-112.5 -27zM175 780v45h350v-45h-350z" />
    <glyph glyph-name="ubreve" unicode="&#x16d;" 
d="M125 0zM314 -10q-86 0 -137.5 56t-51.5 149v405h50v-385q0 -89 36 -134.5t107 -45.5q51 0 104.5 26.5t102.5 83.5v455h50v-600h-50v100h-10q-39 -56 -88.5 -83t-112.5 -27zM350 693q-98 0 -149.5 54t-52.5 156h50q2 -87 38 -126t114 -39t114 39t38 126h50
q-1 -102 -52.5 -156t-149.5 -54z" />
    <glyph glyph-name="uring" unicode="&#x16f;" 
d="M125 0zM314 -10q-86 0 -137.5 56t-51.5 149v405h50v-385q0 -89 36 -134.5t107 -45.5q51 0 104.5 26.5t102.5 83.5v455h50v-600h-50v100h-10q-39 -56 -88.5 -83t-112.5 -27zM350 685q-68 0 -104 37t-36 108v32q0 72 36 110t104 38t104 -38t36 -110v-32q0 -71 -36 -108
t-104 -37zM350 726q49 0 70.5 25t21.5 79v32q0 56 -21.5 81.5t-70.5 25.5t-70.5 -25.5t-21.5 -81.5v-32q0 -54 21.5 -79t70.5 -25z" />
    <glyph glyph-name="uhungarumlaut" unicode="&#x171;" 
d="M125 0zM314 -10q-86 0 -137.5 56t-51.5 149v405h50v-385q0 -89 36 -134.5t107 -45.5q51 0 104.5 26.5t102.5 83.5v455h50v-600h-50v100h-10q-39 -56 -88.5 -83t-112.5 -27zM426 700l56 200h90l-105 -200h-41zM236 700l56 200h90l-105 -200h-41z" />
    <glyph glyph-name="uogonek" unicode="&#x173;" 
d="M125 0zM314 -10q-86 0 -137.5 56t-51.5 149v405h50v-385q0 -89 36 -134.5t107 -45.5q51 0 104.5 26.5t102.5 83.5v455h50v-600h-50v100h-10q-39 -56 -88.5 -83t-112.5 -27zM565 -215q-59 0 -95 30t-36 79q0 43 31.5 80.5t86.5 59.5l12 -11q-41 -25 -60.5 -53t-19.5 -63
q0 -40 20.5 -58.5t66.5 -18.5q21 0 38 2t36 6v-45q-19 -4 -41 -6t-39 -2z" />
    <glyph glyph-name="v" unicode="v" horiz-adv-x="600" 
d="M327 0h-55l-223 600h52l200 -553l200 553h49z" />
    <glyph glyph-name="w" unicode="w" horiz-adv-x="900" 
d="M609 0l-160 437l-158 -437h-53l-168 600h49l150 -543l156 443h48l161 -443l147 543h49l-168 -600h-53z" />
    <glyph glyph-name="wcircumflex" unicode="&#x175;" horiz-adv-x="900" 
d="M70 0zM609 0l-160 437l-158 -437h-53l-168 600h49l150 -543l156 443h48l161 -443l147 543h49l-168 -600h-53zM281 722l-21 27l173 168h32l174 -168l-21 -27l-169 148z" />
    <glyph glyph-name="wgrave" unicode="&#x1e81;" horiz-adv-x="900" 
d="M70 0zM609 0l-160 437l-158 -437h-53l-168 600h49l150 -543l156 443h48l161 -443l147 543h49l-168 -600h-53zM476 700l-185 200h80l146 -200h-41z" />
    <glyph glyph-name="wacute" unicode="&#x1e83;" horiz-adv-x="900" 
d="M70 0zM609 0l-160 437l-158 -437h-53l-168 600h49l150 -543l156 443h48l161 -443l147 543h49l-168 -600h-53zM383 700l146 200h80l-185 -200h-41z" />
    <glyph glyph-name="wdieresis" unicode="&#x1e85;" horiz-adv-x="900" 
d="M70 0zM609 0l-160 437l-158 -437h-53l-168 600h49l150 -543l156 443h48l161 -443l147 543h49l-168 -600h-53zM345 730q-20 0 -32.5 7.5t-12.5 29.5v7q0 22 12.5 30.5t32.5 8.5t32.5 -8.5t12.5 -30.5v-7q0 -22 -13 -29.5t-32 -7.5zM555 730q-20 0 -32.5 7.5t-12.5 29.5v7
q0 22 12.5 30.5t32.5 8.5t32.5 -8.5t12.5 -30.5v-7q0 -22 -13 -29.5t-32 -7.5z" />
    <glyph glyph-name="x" unicode="x" horiz-adv-x="600" 
d="M471 0l-175 269l-173 -269h-51l197 307l-189 293h52l170 -261l175 261h51l-199 -299l194 -301h-52z" />
    <glyph glyph-name="y" unicode="y" horiz-adv-x="600" 
d="M124 -206q-15 0 -31.5 1.5t-39.5 5.5l7 45q19 -4 35 -6t39 -2q51 0 81 27t59 102l13 33h-12l-226 600h52l204 -550l195 550h50l-234 -645q-31 -87 -75.5 -124t-116.5 -37z" />
    <glyph glyph-name="yacute" unicode="&#xfd;" horiz-adv-x="600" 
d="M49 0zM124 -206q-15 0 -31.5 1.5t-39.5 5.5l7 45q19 -4 35 -6t39 -2q51 0 81 27t59 102l13 33h-12l-226 600h52l204 -550l195 550h50l-234 -645q-31 -87 -75.5 -124t-116.5 -37zM233 700l146 200h80l-185 -200h-41z" />
    <glyph glyph-name="ydieresis" unicode="&#xff;" horiz-adv-x="600" 
d="M49 0zM124 -206q-15 0 -31.5 1.5t-39.5 5.5l7 45q19 -4 35 -6t39 -2q51 0 81 27t59 102l13 33h-12l-226 600h52l204 -550l195 550h50l-234 -645q-31 -87 -75.5 -124t-116.5 -37zM195 730q-20 0 -32.5 7.5t-12.5 29.5v7q0 22 12.5 30.5t32.5 8.5t32.5 -8.5t12.5 -30.5v-7
q0 -22 -13 -29.5t-32 -7.5zM405 730q-20 0 -32.5 7.5t-12.5 29.5v7q0 22 12.5 30.5t32.5 8.5t32.5 -8.5t12.5 -30.5v-7q0 -22 -13 -29.5t-32 -7.5z" />
    <glyph glyph-name="ycircumflex" unicode="&#x177;" horiz-adv-x="600" 
d="M49 0zM124 -206q-15 0 -31.5 1.5t-39.5 5.5l7 45q19 -4 35 -6t39 -2q51 0 81 27t59 102l13 33h-12l-226 600h52l204 -550l195 550h50l-234 -645q-31 -87 -75.5 -124t-116.5 -37zM131 722l-21 27l173 168h32l174 -168l-21 -27l-169 148z" />
    <glyph glyph-name="ygrave" unicode="&#x1ef3;" horiz-adv-x="600" 
d="M49 0zM124 -206q-15 0 -31.5 1.5t-39.5 5.5l7 45q19 -4 35 -6t39 -2q51 0 81 27t59 102l13 33h-12l-226 600h52l204 -550l195 550h50l-234 -645q-31 -87 -75.5 -124t-116.5 -37zM326 700l-185 200h80l146 -200h-41z" />
    <glyph glyph-name="z" unicode="z" 
d="M555 0h-410v45l353 510h-353v45h410v-45l-355 -510h355v-45z" />
    <glyph glyph-name="zacute" unicode="&#x17a;" 
d="M145 0zM555 0h-410v45l353 510h-353v45h410v-45l-355 -510h355v-45zM283 700l146 200h80l-185 -200h-41z" />
    <glyph glyph-name="zdotaccent" unicode="&#x17c;" 
d="M145 0zM555 0h-410v45l353 510h-353v45h410v-45l-355 -510h355v-45zM350 730q-22 0 -36 8t-14 29v7q0 22 14 30.5t36 8.5t36 -8.5t14 -30.5v-7q0 -21 -14 -29t-36 -8z" />
    <glyph glyph-name="zcaron" unicode="&#x17e;" 
d="M145 0zM555 0h-410v45l353 510h-353v45h410v-45l-355 -510h355v-45zM334 704l-174 168l21 27l169 -148l168 148l21 -27l-173 -168h-32z" />
    <glyph glyph-name="ordfeminine" unicode="&#xaa;" 
d="M290 363q53 0 90.5 17.5t59.5 45.5v110h-157q-55 0 -80.5 -18.5t-25.5 -58.5q0 -49 27.5 -72.5t85.5 -23.5zM280 321q-69 0 -109 35.5t-40 97.5q0 55 38 86.5t89 31.5h182v71q0 60 -33 92.5t-95 32.5q-57 0 -82.5 -18t-42.5 -70l-40 14q15 60 56 88t113 28
q80 0 124.5 -41t44.5 -116v-209q0 -47 20 -61.5t75 -7.5v-49q-62 -5 -89 12.5t-29 64.5h-7q-28 -37 -71.5 -59.5t-103.5 -22.5z" />
    <glyph glyph-name="ordmasculine" unicode="&#xba;" 
d="M350 321q-95 0 -146 48t-51 137v114q0 92 51 141t146 49t145.5 -49t50.5 -141v-114q0 -89 -50.5 -137t-145.5 -48zM350 366q75 0 110.5 34t35.5 106v114q0 75 -35.5 110t-110.5 35q-76 0 -111.5 -35t-35.5 -110v-114q0 -72 35.5 -106t111.5 -34z" />
    <glyph glyph-name="germandbls" unicode="&#xdf;" horiz-adv-x="800" 
d="M517 -6q-57 0 -108.5 20t-87.5 57l25 39q37 -35 79 -53t91 -18q69 0 104.5 28.5t35.5 83.5q0 51 -31 77.5t-114 45.5q-103 23 -146.5 59.5t-43.5 100.5q0 66 61 106t156 44q0 89 -45.5 134t-137.5 45q-90 0 -135 -50t-45 -150v-563h-50v576q0 108 62 170t169 62
q108 0 170 -59.5t62 -163.5v-42q-112 0 -165 -26t-53 -81q0 -47 33.5 -72t123.5 -45q97 -22 138 -59.5t41 -106.5q0 -73 -51 -116t-138 -43z" />
    <glyph glyph-name="ae" unicode="&#xe6;" horiz-adv-x="1000" 
d="M870 123q-14 -68 -60 -100.5t-134 -32.5q-63 0 -106 23t-68 67h-6q-33 -35 -87.5 -62.5t-117.5 -27.5q-78 0 -122 45t-44 126q0 69 42 111.5t110 42.5h198v101q0 69 -36 109t-113 40q-71 0 -100 -21t-45 -75l-43 14q12 61 57.5 94t128.5 33q66 0 113 -25.5t66 -71.5
q23 46 69.5 71.5t103.5 25.5q90 0 144.5 -49.5t54.5 -153.5v-112h-350v-113q0 -78 37 -112.5t113 -34.5q72 0 105 20.5t46 78.5zM525 414v-77h300v68q0 84 -37.5 122t-112.5 38q-73 0 -111.5 -37t-38.5 -114zM475 102v173h-170q-64 0 -97 -27.5t-33 -80.5q0 -69 30.5 -102.5
t92.5 -33.5q54 0 101.5 21.5t75.5 49.5z" />
    <glyph glyph-name="aeacute" unicode="&#x1fd;" horiz-adv-x="1000" 
d="M125 0zM870 123q-14 -68 -60 -100.5t-134 -32.5q-63 0 -106 23t-68 67h-6q-33 -35 -87.5 -62.5t-117.5 -27.5q-78 0 -122 45t-44 126q0 69 42 111.5t110 42.5h198v101q0 69 -36 109t-113 40q-71 0 -100 -21t-45 -75l-43 14q12 61 57.5 94t128.5 33q66 0 113 -25.5
t66 -71.5q23 46 69.5 71.5t103.5 25.5q90 0 144.5 -49.5t54.5 -153.5v-112h-350v-113q0 -78 37 -112.5t113 -34.5q72 0 105 20.5t46 78.5zM525 414v-77h300v68q0 84 -37.5 122t-112.5 38q-73 0 -111.5 -37t-38.5 -114zM475 102v173h-170q-64 0 -97 -27.5t-33 -80.5
q0 -69 30.5 -102.5t92.5 -33.5q54 0 101.5 21.5t75.5 49.5zM434 700l146 200h80l-185 -200h-41z" />
    <glyph glyph-name="eth" unicode="&#xf0;" 
d="M350 -10q-101 0 -163 57t-62 173v72q0 96 62 152t161 56q70 0 115.5 -25t62.5 -59h8q-4 71 -24 130t-58 105l-177 -81v40l151 69q-37 35 -88.5 61t-117.5 43l15 38q73 -19 131 -50t99 -74l160 73v-40l-135 -62q43 -54 64 -127t21 -164v-151q0 -123 -62 -179.5t-163 -56.5
zM351 35q91 0 132.5 43.5t41.5 139.5v63q0 90 -41.5 131.5t-132.5 41.5t-132.5 -41.5t-41.5 -131.5v-63q0 -96 41.5 -139.5t132.5 -43.5z" />
    <glyph glyph-name="oslash" unicode="&#xf8;" 
d="M175 217q0 -48 10.5 -82t31.5 -56l233 465q-20 10 -45 15.5t-55 5.5q-87 0 -131 -45t-44 -141v-162zM350 35q87 0 131 42.5t44 139.5v162q0 47 -10.5 82t-31.5 58l-232 -465q19 -10 44 -14.5t55 -4.5zM350 -10q-34 0 -64.5 6t-55.5 18l-44 -89h-46l56 111
q-34 28 -52.5 73t-18.5 108v162q0 117 61 174t165 57q34 0 64 -6t55 -18l45 89h46l-56 -112q34 -28 52 -74.5t18 -109.5v-162q0 -116 -60.5 -171.5t-164.5 -55.5z" />
    <glyph glyph-name="oslashacute" unicode="&#x1ff;" 
d="M125 0zM175 217q0 -48 10.5 -82t31.5 -56l233 465q-20 10 -45 15.5t-55 5.5q-87 0 -131 -45t-44 -141v-162zM350 35q87 0 131 42.5t44 139.5v162q0 47 -10.5 82t-31.5 58l-232 -465q19 -10 44 -14.5t55 -4.5zM350 -10q-34 0 -64.5 6t-55.5 18l-44 -89h-46l56 111
q-34 28 -52.5 73t-18.5 108v162q0 117 61 174t165 57q34 0 64 -6t55 -18l45 89h46l-56 -112q34 -28 52 -74.5t18 -109.5v-162q0 -116 -60.5 -171.5t-164.5 -55.5zM283 700l146 200h80l-185 -200h-41z" />
    <glyph glyph-name="thorn" unicode="&#xfe;" 
d="M341 33q96 0 140 45.5t44 142.5v162q0 94 -35 138t-110 44q-60 0 -109.5 -26.5t-95.5 -83.5v-374q43 -25 83 -36.5t83 -11.5zM342 -10q-36 0 -78.5 9.5t-88.5 28.5v-228h-50v1000h50v-300h10q25 54 76.5 82t123.5 28q93 0 141.5 -58.5t48.5 -169.5v-163q0 -111 -60 -170
t-173 -59z" />
    <glyph glyph-name="dcroat" unicode="&#x111;" 
d="M320 35q60 0 109.5 26.5t95.5 83.5v324q-43 25 -83 36.5t-83 11.5q-96 0 -140 -40.5t-44 -127.5v-151q0 -84 35 -123.5t110 -39.5zM515 90q-35 -49 -84 -74.5t-121 -25.5q-90 0 -137.5 53.5t-47.5 154.5v153q0 101 60 155t173 54q40 0 82.5 -9.5t84.5 -28.5v127h-200v45
h200v106h50v-106h100v-45h-100v-649h-50v90h-10z" />
    <glyph glyph-name="hbar" unicode="&#x127;" 
d="M175 400v-400h-50v649h-100v45h100v106h50v-106h200v-45h-200v-199h10q40 57 89 83.5t112 26.5q80 0 134.5 -50.5t54.5 -143.5v-366h-50v355q0 81 -40 120.5t-103 39.5q-57 0 -107 -27.5t-100 -87.5z" />
    <glyph glyph-name="dotlessi" unicode="&#x131;" horiz-adv-x="500" 
d="M225 0v600h50v-600h-50z" />
    <glyph glyph-name="ij" unicode="&#x133;" horiz-adv-x="1000" 
d="M200 0zM658 -208q-25 0 -51.5 5t-51.5 15l11 45q25 -11 47 -15t42 -4q60 0 90 41t30 123v553h-200v45h250v-606q0 -96 -44 -149t-123 -53zM800 730q-22 0 -36 8t-14 29v7q0 22 14 30.5t36 8.5t36 -8.5t14 -30.5v-7q0 -21 -14 -29t-36 -8zM225 0v600h50v-600h-50zM250 730
q-22 0 -36 8t-14 29v7q0 22 14 30.5t36 8.5t36 -8.5t14 -30.5v-7q0 -21 -14 -29t-36 -8z" />
    <glyph glyph-name="kgreenlandic" unicode="&#x138;" horiz-adv-x="600" 
d="M125 0zM175 293v-293h-50v600h50v-262h101l204 262h60l-222 -280l219 -320h-57l-202 293h-103z" />
    <glyph glyph-name="ldot" unicode="&#x140;" horiz-adv-x="800" 
d="M175 0zM346 -5q-80 0 -125.5 61t-45.5 168v576h50v-577q0 -84 33 -132t91 -48q15 0 35 5t35 12l12 -43q-18 -9 -39.5 -15.5t-45.5 -6.5zM620 330q-22 0 -36 8t-14 29v7q0 22 14 30.5t36 8.5t36 -8.5t14 -30.5v-7q0 -21 -14 -29t-36 -8z" />
    <glyph glyph-name="lslash" unicode="&#x142;" horiz-adv-x="500" 
d="M75 330v45l350 100v-45zM346 -5q-80 0 -125.5 61t-45.5 168v576h50v-577q0 -84 33 -132t91 -48q15 0 35 5t35 12l12 -43q-18 -9 -39.5 -15.5t-45.5 -6.5z" />
    <glyph glyph-name="napostrophe" unicode="&#x149;" 
d="M33 0zM125 0v600h50v-100h10q28 51 83 80.5t118 29.5q87 0 138 -52.5t51 -142.5v-415h-50v405q0 78 -37 118.5t-106 40.5q-57 0 -109 -27.5t-98 -81.5v-455h-50zM33 700l146 200h80l-185 -200h-41z" />
    <glyph glyph-name="eng" unicode="&#x14b;" 
d="M397 -208q-23 0 -48.5 4.5t-52.5 12.5l12 51q26 -10 50 -13.5t45 -3.5q56 0 89 39t33 125v397q0 78 -37 119.5t-106 41.5q-60 0 -109.5 -26.5t-97.5 -83.5v-455h-50v600h50v-100h10q28 54 82 82t127 28q84 0 132.5 -54.5t48.5 -150.5v-411q0 -103 -50 -152.5t-128 -49.5z
" />
    <glyph glyph-name="oe" unicode="&#x153;" horiz-adv-x="1000" 
d="M869 119q-23 -64 -73 -96.5t-125 -32.5q-60 0 -106 28t-65 80q-23 -52 -69 -80t-106 -28q-97 0 -148.5 58.5t-51.5 168.5v162q0 113 51.5 172t149.5 59q60 0 106.5 -29t68.5 -83q26 54 73 83t107 29q94 0 144 -61t50 -177v-77h-350v-78q0 -96 36 -139t109 -43
q60 0 94 22.5t56 77.5zM525 379v-42h300v33q0 101 -36.5 147.5t-108.5 46.5q-78 0 -116.5 -45t-38.5 -140zM325 35q75 0 112.5 42.5t37.5 139.5v162q0 96 -37.5 141t-112.5 45t-112.5 -45t-37.5 -141v-162q0 -97 37.5 -139.5t112.5 -42.5z" />
    <glyph glyph-name="tbar" unicode="&#x167;" horiz-adv-x="600" 
d="M105 305v40h390v-40h-390zM399 -9q-81 0 -127.5 52t-46.5 144v368h-120v45h120v200h50v-200h220v-45h-220v-359q0 -81 32 -120t98 -39q19 0 42 5.5t46 15.5l11 -44q-26 -11 -53 -17t-52 -6z" />
    <glyph glyph-name="longs" unicode="&#x17f;" horiz-adv-x="500" 
d="M225 0v555h-120v45h120v40q0 81 41 125.5t101 44.5q28 0 56.5 -6t50.5 -16l-10 -43q-21 8 -46.5 14t-51.5 6q-42 0 -66.5 -29t-24.5 -95v-641h-50z" />
    <glyph glyph-name="dotlessj" unicode="&#xf6be;" horiz-adv-x="500" 
d="M158 -208q-25 0 -51.5 5t-51.5 15l11 45q25 -11 47 -15t42 -4q60 0 90 41t30 123v553h-200v45h250v-606q0 -96 -44 -149t-123 -53z" />
    <glyph glyph-name="dotlessj" unicode="&#x237;" horiz-adv-x="500" 
d="M158 -208q-25 0 -51.5 5t-51.5 15l11 45q25 -11 47 -15t42 -4q60 0 90 41t30 123v553h-200v45h250v-606q0 -96 -44 -149t-123 -53z" />
    <glyph glyph-name="alpha" unicode="&#x3b1;" horiz-adv-x="800" 
d="M330 36q54 0 103 27.5t92 81.5v310q-43 54 -92 81.5t-103 27.5q-76 0 -114.5 -48t-38.5 -144v-144q0 -96 38.5 -144t114.5 -48zM541 110h-10q-37 -59 -87 -89.5t-119 -30.5q-93 0 -146.5 60.5t-53.5 167.5v164q0 107 53.5 167.5t146.5 60.5q55 0 105.5 -29.5t84.5 -80.5
h10v100h50v-440q0 -79 25.5 -103.5t94.5 -12.5v-47q-75 -10 -112 17t-42 96z" />
    <glyph glyph-name="alphatonos" unicode="&#x3ac;" horiz-adv-x="800" 
d="M125 0zM330 36q54 0 103 27.5t92 81.5v310q-43 54 -92 81.5t-103 27.5q-76 0 -114.5 -48t-38.5 -144v-144q0 -96 38.5 -144t114.5 -48zM541 110h-10q-37 -59 -87 -89.5t-119 -30.5q-93 0 -146.5 60.5t-53.5 167.5v164q0 107 53.5 167.5t146.5 60.5q55 0 105.5 -29.5
t84.5 -80.5h10v100h50v-440q0 -79 25.5 -103.5t94.5 -12.5v-47q-75 -10 -112 17t-42 96zM346 700l86 200h80l-125 -200h-41z" />
    <glyph glyph-name="beta" unicode="&#x3b2;" 
d="M341 33q94 0 138 42.5t44 135.5v42q0 80 -41.5 117t-131.5 37h-51v43h45q78 0 114.5 33t36.5 104v18q0 83 -36.5 121.5t-114.5 38.5q-87 0 -128 -45.5t-41 -143.5v-503q36 -21 76 -30.5t90 -9.5zM342 -10q-43 0 -87.5 8.5t-79.5 24.5v-223h-50v773q0 111 58.5 174
t160.5 63q93 0 146 -52t53 -145v-26q0 -61 -31.5 -101.5t-87.5 -50.5v-9q71 -7 111 -53.5t40 -119.5v-44q0 -102 -62 -160.5t-171 -58.5z" />
    <glyph glyph-name="gamma" unicode="&#x3b3;" horiz-adv-x="600" 
d="M327 -200h-54l4 212l-228 588h55l196 -525l191 525h59l-227 -588z" />
    <glyph glyph-name="delta" unicode="&#x3b4;" 
d="M350 -10q-110 0 -167.5 58.5t-57.5 168.5v92q0 63 38.5 111.5t112.5 81.5q-64 26 -94 64.5t-30 93.5q0 69 46 104.5t129 35.5h180v-45h-180q-60 0 -92.5 -22.5t-32.5 -70.5q0 -54 34 -83.5t130 -59.5q123 -39 166 -80t43 -120v-102q0 -110 -57.5 -168.5t-167.5 -58.5z
M350 35q93 0 134 43t41 139v102q0 66 -39.5 97.5t-169.5 69.5q-69 -31 -105 -75t-36 -102v-92q0 -96 41 -139t134 -43z" />
    <glyph glyph-name="epsilon" unicode="&#x3b5;" 
d="M354 -10q-128 0 -188 43t-60 134v10q0 57 32.5 100t98.5 47v4q-52 3 -82.5 34.5t-30.5 85.5v14q0 76 53.5 112t166.5 36q111 0 165.5 -38t61.5 -120l-49 -5q-8 65 -48 91.5t-130 26.5q-93 0 -131.5 -24.5t-38.5 -84.5v-14q0 -51 39 -72.5t133 -21.5h56v-42h-56
q-111 0 -150.5 -25t-39.5 -94v-10q0 -78 45 -110t153 -32q93 0 135 29t51 100l49 -5q-7 -87 -63.5 -128t-171.5 -41z" />
    <glyph glyph-name="epsilontonos" unicode="&#x3ad;" 
d="M106 0zM354 -10q-128 0 -188 43t-60 134v10q0 57 32.5 100t98.5 47v4q-52 3 -82.5 34.5t-30.5 85.5v14q0 76 53.5 112t166.5 36q111 0 165.5 -38t61.5 -120l-49 -5q-8 65 -48 91.5t-130 26.5q-93 0 -131.5 -24.5t-38.5 -84.5v-14q0 -51 39 -72.5t133 -21.5h56v-42h-56
q-111 0 -150.5 -25t-39.5 -94v-10q0 -78 45 -110t153 -32q93 0 135 29t51 100l49 -5q-7 -87 -63.5 -128t-171.5 -41zM296 700l86 200h80l-125 -200h-41z" />
    <glyph glyph-name="zeta" unicode="&#x3b6;" 
d="M428 -200h-103v45h100q54 0 79.5 24.5t25.5 75.5t-25.5 75.5t-79.5 24.5h-85q-104 0 -162 55t-58 153q0 56 20.5 106t68.5 109l164 205l-3 7q-104 -10 -174.5 24.5t-88.5 103.5l44 11q14 -65 92.5 -90t177.5 4l154 76l21 -56l-159 -60l-195 -252q-43 -57 -57.5 -93
t-14.5 -90q0 -79 44.5 -123.5t125.5 -44.5h84q71 0 111 -38.5t40 -106.5t-39 -106.5t-108 -38.5z" />
    <glyph glyph-name="eta" unicode="&#x3b7;" 
d="M525 -200v605q0 78 -37 118.5t-106 40.5q-57 0 -109 -27.5t-98 -81.5v-455h-50v600h50v-100h10q28 51 83 80.5t118 29.5q87 0 138 -52.5t51 -142.5v-615h-50z" />
    <glyph glyph-name="etatonos" unicode="&#x3ae;" 
d="M125 0zM525 -200v605q0 78 -37 118.5t-106 40.5q-57 0 -109 -27.5t-98 -81.5v-455h-50v600h50v-100h10q28 51 83 80.5t118 29.5q87 0 138 -52.5t51 -142.5v-615h-50zM296 700l86 200h80l-125 -200h-41z" />
    <glyph glyph-name="theta" unicode="&#x3b8;" 
d="M350 -10q-108 0 -166.5 59t-58.5 168v362q0 111 58.5 171t167.5 60q107 0 165.5 -60t58.5 -171v-362q0 -109 -58.5 -168t-166.5 -59zM175 579v-149h350v149q0 94 -43.5 140t-131.5 46t-131.5 -46t-43.5 -140zM350 35q88 0 131.5 45t43.5 137v168h-350v-168
q0 -92 43.5 -137t131.5 -45z" />
    <glyph glyph-name="iota" unicode="&#x3b9;" horiz-adv-x="500" 
d="M336 -7q-78 0 -119.5 56.5t-41.5 160.5v390h50v-391q0 -85 28.5 -128t84.5 -43q19 0 40.5 5.5t44.5 15.5l11 -43q-25 -11 -49.5 -17t-48.5 -6z" />
    <glyph glyph-name="iotadieresistonos" unicode="&#x390;" horiz-adv-x="500" 
d="M0 0zM336 -7q-78 0 -119.5 56.5t-41.5 160.5v390h50v-391q0 -85 28.5 -128t84.5 -43q19 0 40.5 5.5t44.5 15.5l11 -43q-25 -11 -49.5 -17t-48.5 -6zM156 700l66 200h60l-85 -200h-41zM35 720q-16 0 -25.5 7.5t-9.5 29.5v7q0 22 9.5 30.5t25.5 8.5t25.5 -8.5t9.5 -30.5v-7
q0 -22 -10 -29.5t-25 -7.5zM385 720q-16 0 -25.5 7.5t-9.5 29.5v7q0 22 9.5 30.5t25.5 8.5t25.5 -8.5t9.5 -30.5v-7q0 -22 -10 -29.5t-25 -7.5z" />
    <glyph glyph-name="iotatonos" unicode="&#x3af;" horiz-adv-x="500" 
d="M175 0zM336 -7q-78 0 -119.5 56.5t-41.5 160.5v390h50v-391q0 -85 28.5 -128t84.5 -43q19 0 40.5 5.5t44.5 15.5l11 -43q-25 -11 -49.5 -17t-48.5 -6zM181 700l86 200h80l-125 -200h-41z" />
    <glyph glyph-name="iotadieresis" unicode="&#x3ca;" horiz-adv-x="500" 
d="M55 0zM336 -7q-78 0 -119.5 56.5t-41.5 160.5v390h50v-391q0 -85 28.5 -128t84.5 -43q19 0 40.5 5.5t44.5 15.5l11 -43q-25 -11 -49.5 -17t-48.5 -6zM100 730q-20 0 -32.5 7.5t-12.5 29.5v7q0 22 12.5 30.5t32.5 8.5t32.5 -8.5t12.5 -30.5v-7q0 -22 -13 -29.5t-32 -7.5z
M310 730q-20 0 -32.5 7.5t-12.5 29.5v7q0 22 12.5 30.5t32.5 8.5t32.5 -8.5t12.5 -30.5v-7q0 -22 -13 -29.5t-32 -7.5z" />
    <glyph glyph-name="kappa" unicode="&#x3ba;" horiz-adv-x="600" 
d="M175 293v-293h-50v600h50v-262h101l204 262h60l-222 -280l219 -320h-57l-202 293h-103z" />
    <glyph glyph-name="lambda" unicode="&#x3bb;" horiz-adv-x="600" 
d="M500 0l-196 551l-204 -551h-51l226 600h12l-13 33q-29 73 -59 101t-81 28q-23 0 -39 -2t-35 -6l-7 44q19 4 36.5 6t34.5 2q72 0 116.5 -37t75.5 -124l234 -645h-50z" />
    <glyph glyph-name="mu" unicode="&#x3bc;" horiz-adv-x="800" 
d="M175 20l5 -220h-60l5 220v580h50v-404q0 -77 42.5 -118.5t120.5 -41.5q60 0 106.5 19.5t80.5 59.5v485h50v-440q0 -80 25 -104t95 -12v-47q-71 -10 -108.5 13t-42.5 80h-10q-25 -36 -79 -68t-120 -32q-54 0 -95.5 20t-64.5 57v-47z" />
    <glyph glyph-name="nu" unicode="&#x3bd;" horiz-adv-x="600" 
d="M317 0h-35l-233 600h53l205 -554q81 142 133 282t64 272h46q-16 -146 -72.5 -290.5t-160.5 -309.5z" />
    <glyph glyph-name="xi" unicode="&#x3be;" 
d="M595 -55q0 -72 -37.5 -108.5t-111.5 -36.5h-126v45h125q55 0 80 23.5t25 76.5t-25 76.5t-80 23.5h-105q-97 0 -156 44.5t-59 117.5v27q0 72 48.5 119.5t128.5 53.5v4q-53 0 -85 34t-32 89q0 45 28.5 83t74.5 57l-1 7q-84 -2 -144 32.5t-76 94.5l44 11q17 -61 85.5 -85.5
t167.5 -5.5l211 81l21 -56l-218 -64l-74 -36q-34 -16 -51.5 -46.5t-17.5 -70.5q0 -51 27 -78.5t77 -27.5h166v-45h-164q-80 0 -123 -35t-43 -101v-27q0 -63 42.5 -97.5t122.5 -34.5h104q75 0 113 -36.5t38 -108.5z" />
    <glyph glyph-name="omicron" unicode="&#x3bf;" 
d="M125 0zM350 -10q-109 0 -167 58.5t-58 168.5v162q0 112 58.5 171.5t167.5 59.5q108 0 166 -59.5t58 -171.5v-162q0 -110 -58 -168.5t-167 -58.5zM350 35q90 0 132.5 44.5t42.5 137.5v162q0 95 -42.5 140.5t-132.5 45.5t-132.5 -45.5t-42.5 -140.5v-162q0 -93 42.5 -137.5
t132.5 -44.5z" />
    <glyph glyph-name="omicrontonos" unicode="&#x3cc;" 
d="M125 0zM350 -10q-109 0 -167 58.5t-58 168.5v162q0 112 58.5 171.5t167.5 59.5q108 0 166 -59.5t58 -171.5v-162q0 -110 -58 -168.5t-167 -58.5zM350 35q90 0 132.5 44.5t42.5 137.5v162q0 95 -42.5 140.5t-132.5 45.5t-132.5 -45.5t-42.5 -140.5v-162q0 -93 42.5 -137.5
t132.5 -44.5zM316 700l86 200h80l-125 -200h-41z" />
    <glyph glyph-name="pi" unicode="&#x3c0;" horiz-adv-x="800" 
d="M695 600v-45h-120v-431q0 -56 26 -72.5t94 -7.5v-47q-91 -11 -130.5 19.5t-39.5 111.5v427h-300v-555h-50v555h-100v45h620z" />
    <glyph glyph-name="rho" unicode="&#x3c1;" 
d="M380 40q74 0 109.5 46t35.5 142v151q0 95 -43 140.5t-132 45.5t-132 -45.5t-43 -140.5v-234q43 -54 93.5 -79.5t111.5 -25.5zM125 -200v579q0 110 59 170.5t167 60.5q107 0 165.5 -60.5t58.5 -170.5v-161q0 -109 -51 -168.5t-144 -59.5q-60 0 -110.5 29t-84.5 81h-10
v-300h-50z" />
    <glyph glyph-name="sigma1" unicode="&#x3c2;" 
d="M304 -200v45h125q57 0 81 20.5t24 69.5q0 46 -24 65.5t-81 19.5h-85q-111 0 -165 58.5t-54 178.5v120q0 119 56 176t172 57q107 0 156.5 -44t56.5 -147l-43 -3q-5 84 -42 116t-129 32q-97 0 -137 -41t-40 -140v-136q0 -99 38 -140t131 -41h85q76 0 113 -32.5t37 -98.5
q0 -69 -35.5 -102t-109.5 -33h-130z" />
    <glyph glyph-name="sigma" unicode="&#x3c3;" horiz-adv-x="800" 
d="M350 35q87 0 131 45.5t44 136.5v132q0 103 -44 154.5t-131 51.5t-131 -46.5t-44 -139.5v-152q0 -91 44 -136.5t131 -45.5zM350 -10q-106 0 -165.5 60t-59.5 167v152q0 109 59.5 170t166.5 61h375v-55l-232 12q38 -25 59.5 -80t21.5 -128v-132q0 -107 -59.5 -167
t-165.5 -60z" />
    <glyph glyph-name="tau" unicode="&#x3c4;" horiz-adv-x="600" 
d="M445 -3q-91 -9 -130.5 19.5t-39.5 103.5v435h-200v45h460v-45h-210v-432q0 -57 24 -72.5t96 -6.5v-47z" />
    <glyph glyph-name="upsilon" unicode="&#x3c5;" 
d="M350 -10q-109 0 -167 58.5t-58 168.5v383h50v-383q0 -97 44 -139.5t131 -42.5t131 42.5t44 139.5v383h50v-383q0 -110 -58 -168.5t-167 -58.5z" />
    <glyph glyph-name="upsilondieresistonos" unicode="&#x3b0;" 
d="M125 0zM350 -10q-109 0 -167 58.5t-58 168.5v383h50v-383q0 -97 44 -139.5t131 -42.5t131 42.5t44 139.5v383h50v-383q0 -110 -58 -168.5t-167 -58.5zM296 700l66 200h60l-85 -200h-41zM175 720q-16 0 -25.5 7.5t-9.5 29.5v7q0 22 9.5 30.5t25.5 8.5t25.5 -8.5t9.5 -30.5
v-7q0 -22 -10 -29.5t-25 -7.5zM525 720q-16 0 -25.5 7.5t-9.5 29.5v7q0 22 9.5 30.5t25.5 8.5t25.5 -8.5t9.5 -30.5v-7q0 -22 -10 -29.5t-25 -7.5z" />
    <glyph glyph-name="upsilondieresis" unicode="&#x3cb;" 
d="M125 0zM350 -10q-109 0 -167 58.5t-58 168.5v383h50v-383q0 -97 44 -139.5t131 -42.5t131 42.5t44 139.5v383h50v-383q0 -110 -58 -168.5t-167 -58.5zM245 730q-20 0 -32.5 7.5t-12.5 29.5v7q0 22 12.5 30.5t32.5 8.5t32.5 -8.5t12.5 -30.5v-7q0 -22 -13 -29.5t-32 -7.5z
M455 730q-20 0 -32.5 7.5t-12.5 29.5v7q0 22 12.5 30.5t32.5 8.5t32.5 -8.5t12.5 -30.5v-7q0 -22 -13 -29.5t-32 -7.5z" />
    <glyph glyph-name="upsilontonos" unicode="&#x3cd;" 
d="M125 0zM350 -10q-109 0 -167 58.5t-58 168.5v383h50v-383q0 -97 44 -139.5t131 -42.5t131 42.5t44 139.5v383h50v-383q0 -110 -58 -168.5t-167 -58.5zM316 700l86 200h80l-125 -200h-41z" />
    <glyph glyph-name="phi" unicode="&#x3c6;" horiz-adv-x="900" 
d="M475 -200h-50v192q-136 11 -218 83t-82 202v72q0 80 16.5 143.5t60.5 117.5l52 -17q-38 -49 -58.5 -109t-20.5 -135v-72q0 -108 62.5 -169t187.5 -71v563h50q144 0 222 -73.5t78 -207.5v-42q0 -130 -82 -202t-218 -83v-192zM475 555v-518q125 11 187.5 71.5t62.5 168.5
v42q0 122 -63 179t-187 57z" />
    <glyph glyph-name="chi" unicode="&#x3c7;" horiz-adv-x="600" 
d="M471 -200l-174 360l-167 -360h-60l200 406l-193 394h55l169 -348l169 348h60l-201 -396l197 -404h-55z" />
    <glyph glyph-name="psi" unicode="&#x3c8;" horiz-adv-x="900" 
d="M475 -200h-50v192q-147 9 -223.5 76.5t-76.5 188.5v343h50v-343q0 -108 59 -160t191 -60v563h50v-563q132 8 191 60t59 160v343h50v-343q0 -121 -76.5 -188.5t-223.5 -76.5v-192z" />
    <glyph glyph-name="omega" unicode="&#x3c9;" horiz-adv-x="900" 
d="M295 -10q-81 0 -125.5 67.5t-44.5 189.5v72q0 89 19 170.5t43 119.5l45 -19q-17 -34 -37 -110.5t-20 -160.5v-72q0 -110 30 -161t95 -51t95 43.5t30 138.5v283h50v-283q0 -95 30 -138.5t95 -43.5t95 51t30 161v72q0 84 -20 160.5t-37 110.5l45 19q24 -38 43 -119.5
t19 -170.5v-72q0 -122 -44.5 -189.5t-125.5 -67.5q-53 0 -96 34t-59 94h-2q-16 -60 -58 -94t-95 -34z" />
    <glyph glyph-name="omegatonos" unicode="&#x3ce;" horiz-adv-x="900" 
d="M125 0zM295 -10q-81 0 -125.5 67.5t-44.5 189.5v72q0 89 19 170.5t43 119.5l45 -19q-17 -34 -37 -110.5t-20 -160.5v-72q0 -110 30 -161t95 -51t95 43.5t30 138.5v283h50v-283q0 -95 30 -138.5t95 -43.5t95 51t30 161v72q0 84 -20 160.5t-37 110.5l45 19
q24 -38 43 -119.5t19 -170.5v-72q0 -122 -44.5 -189.5t-125.5 -67.5q-53 0 -96 34t-59 94h-2q-16 -60 -58 -94t-95 -34zM396 700l86 200h80l-125 -200h-41z" />
    <glyph glyph-name="acyrillic" unicode="&#x430;" horiz-adv-x="800" 
d="M125 0zM322 35q66 0 116 24t87 75v141h-225q-57 0 -93.5 -25t-36.5 -86q0 -63 36.5 -96t115.5 -33zM315 -10q-89 0 -139.5 46t-50.5 127q0 72 47.5 113t127.5 41h225v110q0 57 -40.5 97.5t-123.5 40.5q-81 0 -117.5 -24.5t-55.5 -90.5l-45 13q24 78 74 112.5t142 34.5
q99 0 157.5 -48t58.5 -134v-268q0 -79 25.5 -103.5t94.5 -12.5v-47q-69 -10 -106.5 13t-44.5 80h-10q-36 -48 -93 -74t-126 -26z" />
    <glyph glyph-name="becyrillic" unicode="&#x431;" 
d="M350 -10q-107 0 -166 61.5t-59 174.5v291q0 112 52.5 176t165.5 84l188 33l8 -43l-181 -31q-106 -18 -149.5 -72.5t-43.5 -164.5v-43h6q22 40 72 62t119 22q101 0 157 -54.5t56 -153.5v-112q0 -110 -59 -170t-166 -60zM349 35q91 0 132.5 43.5t41.5 139.5v103
q0 90 -41.5 131.5t-132.5 41.5t-132.5 -41.5t-41.5 -131.5v-103q0 -96 41.5 -139.5t132.5 -43.5z" />
    <glyph glyph-name="vecyrillic" unicode="&#x432;" 
d="M125 0v600h221q119 0 174.5 -34t55.5 -109v-14q0 -60 -28 -89t-89 -33v-6q70 -4 102.5 -37.5t32.5 -102.5v-8q0 -87 -59.5 -127t-188.5 -40h-221zM175 338h179q99 0 135.5 21.5t36.5 78.5v14q0 60 -38.5 82t-141.5 22h-171v-218zM175 44h171q113 0 155.5 26t42.5 95v10
q0 69 -41 94.5t-149 25.5h-179v-251z" />
    <glyph glyph-name="gecyrillic" unicode="&#x433;" horiz-adv-x="500" 
d="M125 0v600h320v-45h-270v-555h-50z" />
    <glyph glyph-name="gjecyrillic" unicode="&#x453;" horiz-adv-x="500" 
d="M125 0zM125 0v600h320v-45h-270v-555h-50zM218 700l146 200h80l-185 -200h-41z" />
    <glyph glyph-name="decyrillic" unicode="&#x434;" horiz-adv-x="800" 
d="M208 54v-9h317v510h-251l-3 -292q-1 -87 -14.5 -132t-48.5 -77zM145 0v-150h-50v195h55q40 30 57 80.5t18 143.5l3 331h347v-555h100v-195h-50v150h-480z" />
    <glyph glyph-name="iecyrillic" unicode="&#x435;" 
d="M125 0zM569 119q-25 -69 -75 -99t-143 -30q-107 0 -166.5 57.5t-59.5 170.5v161q0 116 62.5 173.5t163.5 57.5t162.5 -58.5t61.5 -179.5v-77h-400v-78q0 -96 43.5 -139t131.5 -43q79 0 114 23.5t56 76.5zM175 379v-42h350v33q0 101 -44 147.5t-131 46.5t-131 -45
t-44 -140z" />
    <glyph glyph-name="iegravecyrillic" unicode="&#x450;" 
d="M125 0zM569 119q-25 -69 -75 -99t-143 -30q-107 0 -166.5 57.5t-59.5 170.5v161q0 116 62.5 173.5t163.5 57.5t162.5 -58.5t61.5 -179.5v-77h-400v-78q0 -96 43.5 -139t131.5 -43q79 0 114 23.5t56 76.5zM175 379v-42h350v33q0 101 -44 147.5t-131 46.5t-131 -45
t-44 -140zM377 700l-185 200h80l146 -200h-41z" />
    <glyph glyph-name="iocyrillic" unicode="&#x451;" 
d="M125 0zM569 119q-25 -69 -75 -99t-143 -30q-107 0 -166.5 57.5t-59.5 170.5v161q0 116 62.5 173.5t163.5 57.5t162.5 -58.5t61.5 -179.5v-77h-400v-78q0 -96 43.5 -139t131.5 -43q79 0 114 23.5t56 76.5zM175 379v-42h350v33q0 101 -44 147.5t-131 46.5t-131 -45
t-44 -140zM246 730q-20 0 -32.5 7.5t-12.5 29.5v7q0 22 12.5 30.5t32.5 8.5t32.5 -8.5t12.5 -30.5v-7q0 -22 -13 -29.5t-32 -7.5zM456 730q-20 0 -32.5 7.5t-12.5 29.5v7q0 22 12.5 30.5t32.5 8.5t32.5 -8.5t12.5 -30.5v-7q0 -22 -13 -29.5t-32 -7.5z" />
    <glyph glyph-name="zhecyrillic" unicode="&#x436;" horiz-adv-x="800" 
d="M290 296l-168 -296h-52l183 318l-189 282h53l171 -259h90v259h46v-259h85l174 259h53l-190 -279l184 -321h-51l-168 296h-87v-296h-46v296h-88z" />
    <glyph glyph-name="zecyrillic" unicode="&#x437;" 
d="M356 -10q-125 0 -183.5 45t-66.5 147l49 7q11 -87 53 -120t138 -33q109 0 153.5 29t44.5 100v10q0 64 -40.5 90.5t-139.5 26.5h-46v44h46q89 0 125.5 24t36.5 83v14q0 59 -40.5 83t-139.5 24q-88 0 -125.5 -30.5t-47.5 -111.5l-49 8q7 96 61.5 138t170.5 42
q110 0 165 -38.5t55 -115.5v-14q0 -59 -28 -90t-85 -34v-6q66 -4 98.5 -39t32.5 -101v-10q0 -86 -59.5 -129t-178.5 -43z" />
    <glyph glyph-name="iicyrillic" unicode="&#x438;" 
d="M525 0v515l-352 -515h-48v600h50v-516l353 516h47v-600h-50z" />
    <glyph glyph-name="iishortcyrillic" unicode="&#x439;" 
d="M125 0zM525 0v515l-352 -515h-48v600h50v-516l353 516h47v-600h-50zM350 693q-84 0 -142.5 46t-59.5 159l50 5q2 -90 38 -128t114 -38t114 38t38 128l50 -5q-1 -113 -59.5 -159t-142.5 -46z" />
    <glyph glyph-name="igravecyrillic" unicode="&#x45d;" 
d="M125 0zM525 0v515l-352 -515h-48v600h50v-516l353 516h47v-600h-50zM376 700l-185 200h80l146 -200h-41z" />
    <glyph glyph-name="kacyrillic" unicode="&#x43a;" horiz-adv-x="600" 
d="M175 293v-293h-50v600h50v-262h101l204 262h60l-222 -280l219 -320h-57l-202 293h-103z" />
    <glyph glyph-name="kjecyrillic" unicode="&#x45c;" horiz-adv-x="600" 
d="M125 0zM175 293v-293h-50v600h50v-262h101l204 262h60l-222 -280l219 -320h-57l-202 293h-103zM266 700l146 200h80l-185 -200h-41z" />
    <glyph glyph-name="elcyrillic" unicode="&#x43b;" 
d="M525 0v555h-271l-3 -320q-1 -121 -39 -183t-113 -62q-19 0 -35.5 2.5t-31.5 7.5l11 43q13 -4 26 -6t29 -2q57 0 81.5 49t25.5 164l3 352h367v-600h-50z" />
    <glyph glyph-name="emcyrillic" unicode="&#x43c;" horiz-adv-x="800" 
d="M374 150l-199 380v-530h-50v600h67l209 -406l209 406h65v-600h-50v533l-199 -383h-52z" />
    <glyph glyph-name="encyrillic" unicode="&#x43d;" 
d="M125 0v600h50v-230h350v230h50v-600h-50v325h-350v-325h-50z" />
    <glyph glyph-name="ocyrillic" unicode="&#x43e;" 
d="M125 0zM350 -10q-109 0 -167 58.5t-58 168.5v162q0 112 58.5 171.5t167.5 59.5q108 0 166 -59.5t58 -171.5v-162q0 -110 -58 -168.5t-167 -58.5zM350 35q90 0 132.5 44.5t42.5 137.5v162q0 95 -42.5 140.5t-132.5 45.5t-132.5 -45.5t-42.5 -140.5v-162q0 -93 42.5 -137.5
t132.5 -44.5z" />
    <glyph glyph-name="pecyrillic" unicode="&#x43f;" 
d="M125 0v600h450v-600h-50v555h-350v-555h-50z" />
    <glyph glyph-name="ercyrillic" unicode="&#x440;" 
d="M125 0zM341 33q94 0 139 46t45 142v162q0 93 -35.5 137.5t-109.5 44.5q-59 0 -109 -26.5t-96 -83.5v-374q40 -23 81 -35.5t85 -12.5zM342 -10q-34 0 -79 10t-88 28v-228h-50v800h50v-100h10q26 54 80.5 82t119.5 28q89 0 139.5 -60.5t50.5 -167.5v-163q0 -107 -62 -168
t-171 -61z" />
    <glyph glyph-name="escyrillic" unicode="&#x441;" 
d="M125 0zM364 -10q-116 0 -177.5 58.5t-61.5 168.5v162q0 113 61 172t177 59q110 0 163 -44t60 -137l-48 -4q-8 78 -47 109t-129 31q-96 0 -141.5 -45t-45.5 -141v-162q0 -94 46 -138.5t143 -44.5q91 0 129.5 26.5t44.5 94.5l48 -4q-6 -84 -59.5 -122.5t-162.5 -38.5z" />
    <glyph glyph-name="tecyrillic" unicode="&#x442;" horiz-adv-x="600" 
d="M275 0v555h-200v45h450v-45h-200v-555h-50z" />
    <glyph glyph-name="ucyrillic" unicode="&#x443;" horiz-adv-x="600" 
d="M49 0zM124 -206q-15 0 -31.5 1.5t-39.5 5.5l7 45q19 -4 35 -6t39 -2q51 0 81 27t59 102l13 33h-12l-226 600h52l204 -550l195 550h50l-234 -645q-31 -87 -75.5 -124t-116.5 -37z" />
    <glyph glyph-name="ushortcyrillic" unicode="&#x45e;" horiz-adv-x="600" 
d="M49 0zM124 -206q-15 0 -31.5 1.5t-39.5 5.5l7 45q19 -4 35 -6t39 -2q51 0 81 27t59 102l13 33h-12l-226 600h52l204 -550l195 550h50l-234 -645q-31 -87 -75.5 -124t-116.5 -37zM300 693q-84 0 -142.5 46t-59.5 159l50 5q2 -90 38 -128t114 -38t114 38t38 128l50 -5
q-1 -113 -59.5 -159t-142.5 -46z" />
    <glyph glyph-name="efcyrillic" unicode="&#x444;" horiz-adv-x="900" 
d="M552 0h-77v-200h-50v200h-77q-105 0 -164 63t-59 176v122q0 113 59 176t164 63h77v200h50v-200h77q105 0 164 -63t59 -176v-122q0 -113 -59 -176t-164 -63zM359 45h66v510h-66q-93 0 -138.5 -49t-45.5 -149v-116q0 -99 45.5 -147.5t138.5 -48.5zM541 555h-66v-510h66
q93 0 138.5 48.5t45.5 147.5v116q0 100 -45.5 149t-138.5 49z" />
    <glyph glyph-name="khacyrillic" unicode="&#x445;" horiz-adv-x="600" 
d="M72 0zM471 0l-175 269l-173 -269h-51l197 307l-189 293h52l170 -261l175 261h51l-199 -299l194 -301h-52z" />
    <glyph glyph-name="tsecyrillic" unicode="&#x446;" 
d="M580 -150v150h-455v600h50v-555h300v555h50v-555h100v-195h-45z" />
    <glyph glyph-name="checyrillic" unicode="&#x447;" 
d="M575 600v-600h-50v220q-39 -15 -82 -22.5t-93 -7.5q-114 0 -169.5 54.5t-55.5 166.5v189h50v-187q0 -94 41.5 -136.5t134.5 -43.5q50 -1 94.5 7t79.5 29v331h50z" />
    <glyph glyph-name="shacyrillic" unicode="&#x448;" horiz-adv-x="1000" 
d="M125 0v600h50v-555h300v555h50v-555h300v555h50v-600h-750z" />
    <glyph glyph-name="shchacyrillic" unicode="&#x449;" horiz-adv-x="1050" 
d="M975 -150h-42v150h-808v600h50v-555h300v555h50v-555h300v555h50v-555h100v-195z" />
    <glyph glyph-name="hardsigncyrillic" unicode="&#x44a;" horiz-adv-x="800" 
d="M521 0h-296v555h-200v45h250v-240h245q86 0 135.5 -40.5t49.5 -116.5v-42q0 -78 -49.5 -119.5t-134.5 -41.5zM275 45h225q83 0 119 27t36 89v42q0 60 -36 86t-119 26h-225v-270z" />
    <glyph glyph-name="yericyrillic" unicode="&#x44b;" horiz-adv-x="900" 
d="M125 0v600h50v-240h215q86 0 135.5 -41t49.5 -116v-42q0 -77 -49.5 -119t-134.5 -42h-266zM725 0v600h50v-600h-50zM175 45h195q83 0 119 26.5t36 89.5v42q0 61 -36 86.5t-119 25.5h-195v-270z" />
    <glyph glyph-name="softsigncyrillic" unicode="&#x44c;" 
d="M125 0v600h50v-240h245q86 0 135.5 -42t49.5 -115v-42q0 -75 -49.5 -118t-134.5 -43h-296zM175 45h225q83 0 119 27t36 89v42q0 61 -36 86.5t-119 25.5h-225v-270z" />
    <glyph glyph-name="ereversedcyrillic" unicode="&#x44d;" 
d="M336 -10q-110 0 -163 38.5t-59 122.5l48 3q10 -69 46.5 -94t127.5 -25q98 0 143.5 42.5t45.5 139.5v73h-252v45h252v48q0 99 -45.5 140.5t-141.5 41.5q-93 0 -130 -29.5t-46 -110.5l-48 4q7 95 60 138t163 43q126 0 182 -60t56 -173v-150q0 -116 -55.5 -176.5
t-183.5 -60.5z" />
    <glyph glyph-name="iucyrillic" unicode="&#x44e;" horiz-adv-x="900" 
d="M575 -10q-97 0 -148.5 58.5t-51.5 168.5v88h-200v-305h-50v600h50v-250h200v30q0 112 52 171t149 59t148 -59.5t51 -171.5v-162q0 -110 -51.5 -168.5t-148.5 -58.5zM575 35q81 0 115.5 42.5t34.5 139.5v162q0 99 -34.5 142.5t-115.5 43.5t-115.5 -43.5t-34.5 -142.5v-162
q0 -97 34.5 -139.5t115.5 -42.5z" />
    <glyph glyph-name="iacyrillic" unicode="&#x44f;" 
d="M300 253h225v302h-225q-67 0 -96 -32t-29 -104v-22q0 -77 29 -110.5t96 -33.5zM525 210h-159l-192 -210h-58l189 210q-90 0 -135 47.5t-45 135.5v22q0 93 43.5 139t130.5 46h276v-600h-50v210z" />
    <glyph glyph-name="djecyrillic" unicode="&#x452;" 
d="M408 -208q-25 0 -51.5 5t-51.5 15l11 45q21 -10 43 -14.5t46 -4.5q60 0 90 41t30 123v353q0 75 -37.5 117.5t-105.5 42.5q-52 0 -106.5 -30.5t-100.5 -84.5v-400h-50v649h-100v45h100v106h50v-106h200v-45h-200v-199h10q35 50 92 80t114 30q83 0 133.5 -53.5t50.5 -140.5
v-372q0 -96 -44 -149t-123 -53z" />
    <glyph glyph-name="ecyrillic" unicode="&#x454;" 
d="M585 151q-6 -82 -60.5 -121.5t-161.5 -39.5q-122 0 -180.5 58t-58.5 179v150q0 119 58 176t180 57q108 0 162.5 -44t61.5 -137l-48 -4q-10 80 -48 110t-129 30q-99 0 -143 -43t-44 -139v-48h252v-45h-252v-73q0 -96 44.5 -139t144.5 -43q89 0 126.5 25.5t48.5 93.5z" />
    <glyph glyph-name="dzecyrillic" unicode="&#x455;" 
d="M104 0zM368 -10q-72 0 -140 22t-124 67l26 41q51 -42 111.5 -63.5t126.5 -21.5q76 0 119 31t43 85q0 53 -39 79t-149 46q-116 21 -166.5 60t-50.5 107q0 75 52.5 121t138.5 46q65 0 124 -23t110 -63l-24 -39q-46 35 -99 57.5t-111 22.5q-66 0 -104 -30t-38 -82
q0 -58 38.5 -85t148.5 -45q116 -20 167 -58.5t51 -107.5q0 -75 -58 -121t-153 -46z" />
    <glyph glyph-name="icyrillic" unicode="&#x456;" horiz-adv-x="500" 
d="M200 0zM225 0v600h50v-600h-50zM250 730q-22 0 -36 8t-14 29v7q0 22 14 30.5t36 8.5t36 -8.5t14 -30.5v-7q0 -21 -14 -29t-36 -8z" />
    <glyph glyph-name="yicyrillic" unicode="&#x457;" horiz-adv-x="500" 
d="M100 0zM225 0v600h50v-600h-50zM145 730q-20 0 -32.5 7.5t-12.5 29.5v7q0 22 12.5 30.5t32.5 8.5t32.5 -8.5t12.5 -30.5v-7q0 -22 -13 -29.5t-32 -7.5zM355 730q-20 0 -32.5 7.5t-12.5 29.5v7q0 22 12.5 30.5t32.5 8.5t32.5 -8.5t12.5 -30.5v-7q0 -22 -13 -29.5t-32 -7.5
z" />
    <glyph glyph-name="jecyrillic" unicode="&#x458;" horiz-adv-x="500" 
d="M55 0zM158 -208q-25 0 -51.5 5t-51.5 15l11 45q25 -11 47 -15t42 -4q60 0 90 41t30 123v553h-200v45h250v-606q0 -96 -44 -149t-123 -53zM300 730q-22 0 -36 8t-14 29v7q0 22 14 30.5t36 8.5t36 -8.5t14 -30.5v-7q0 -21 -14 -29t-36 -8z" />
    <glyph glyph-name="ljecyrillic" unicode="&#x459;" horiz-adv-x="1100" 
d="M254 555l-3 -320q-1 -119 -35 -181.5t-97 -62.5q-15 0 -30 2.5t-29 6.5l9 43q14 -4 24.5 -6t21.5 -2q48 0 68.5 48.5t21.5 164.5l3 352h367v-238h235q91 0 143 -42t52 -117v-42q0 -75 -51.5 -118t-142.5 -43h-286v555h-271zM575 45h225q79 0 117 28.5t38 87.5v42
q0 58 -38 86t-117 28h-225v-272z" />
    <glyph glyph-name="njecyrillic" unicode="&#x45a;" horiz-adv-x="1100" 
d="M575 45h225q79 0 117 28.5t38 87.5v42q0 58 -38 85t-117 27h-225v-270zM175 305v-305h-50v600h50v-250h350v250h50v-240h235q87 0 141 -43t54 -114v-42q0 -72 -53.5 -116.5t-140.5 -44.5h-286v305h-350z" />
    <glyph glyph-name="tshecyrillic" unicode="&#x45b;" 
d="M25 0zM175 400v-400h-50v649h-100v45h100v106h50v-106h200v-45h-200v-199h10q40 57 89 83.5t112 26.5q80 0 134.5 -50.5t54.5 -143.5v-366h-50v355q0 81 -40 120.5t-103 39.5q-57 0 -107 -27.5t-100 -87.5z" />
    <glyph glyph-name="dzhecyrillic" unicode="&#x45f;" 
d="M325 -150v150h-200v600h50v-555h350v555h50v-600h-200v-150h-50z" />
    <glyph glyph-name="gheupturncyrillic" unicode="&#x491;" horiz-adv-x="500" 
d="M125 0v600h275v125h45v-170h-270v-555h-50z" />
    <glyph glyph-name="nsuperior" unicode="&#x207f;" horiz-adv-x="600" 
d="M120 303v499h43v-83h8q25 43 66 67t90 24q69 0 111 -47t42 -123v-337h-43v330q0 68 -28.5 103t-84.5 35q-42 0 -83 -22t-78 -65v-381h-43z" />
    <glyph glyph-name="gravecmb" unicode="&#x300;" horiz-adv-x="0" 
d="M26 700l-185 200h80l146 -200h-41z" />
    <glyph glyph-name="acutecmb" unicode="&#x301;" horiz-adv-x="0" 
d="M-67 700l146 200h80l-185 -200h-41z" />
    <glyph glyph-name="circumflexcmb" unicode="&#x302;" horiz-adv-x="0" 
d="M-169 722l-21 27l173 168h32l174 -168l-21 -27l-169 148z" />
    <glyph glyph-name="tildecmb" unicode="&#x303;" horiz-adv-x="0" 
d="M87 710q-33 0 -56.5 19.5t-51.5 70.5q-20 40 -34.5 55t-31.5 15q-31 0 -44.5 -33.5t-11.5 -105.5v-11h-42v15q0 87 24.5 131t73.5 44q34 0 56.5 -18t47.5 -67q24 -43 39 -59t31 -16q29 0 42.5 33.5t13.5 105.5v11h42v-15q0 -87 -24.5 -131t-73.5 -44z" />
    <glyph glyph-name="macroncmb" unicode="&#x304;" horiz-adv-x="0" 
d="M-175 780v45h350v-45h-350z" />
    <glyph glyph-name="brevecmb" unicode="&#x306;" horiz-adv-x="0" 
d="M0 693q-98 0 -149.5 54t-52.5 156h50q2 -87 38 -126t114 -39t114 39t38 126h50q-1 -102 -52.5 -156t-149.5 -54z" />
    <glyph glyph-name="dotaccentcmb" unicode="&#x307;" horiz-adv-x="0" 
d="M0 730q-22 0 -36 8t-14 29v7q0 22 14 30.5t36 8.5t36 -8.5t14 -30.5v-7q0 -21 -14 -29t-36 -8z" />
    <glyph glyph-name="dieresiscmb" unicode="&#x308;" horiz-adv-x="0" 
d="M-105 730q-20 0 -32.5 7.5t-12.5 29.5v7q0 22 12.5 30.5t32.5 8.5t32.5 -8.5t12.5 -30.5v-7q0 -22 -13 -29.5t-32 -7.5zM105 730q-20 0 -32.5 7.5t-12.5 29.5v7q0 22 12.5 30.5t32.5 8.5t32.5 -8.5t12.5 -30.5v-7q0 -22 -13 -29.5t-32 -7.5z" />
    <glyph glyph-name="ringcmb" unicode="&#x30a;" horiz-adv-x="0" 
d="M0 685q-68 0 -104 37t-36 108v32q0 72 36 110t104 38t104 -38t36 -110v-32q0 -71 -36 -108t-104 -37zM0 726q49 0 70.5 25t21.5 79v32q0 56 -21.5 81.5t-70.5 25.5t-70.5 -25.5t-21.5 -81.5v-32q0 -54 21.5 -79t70.5 -25z" />
    <glyph glyph-name="hungarumlautcmb" unicode="&#x30b;" horiz-adv-x="0" 
d="M76 700l56 200h90l-105 -200h-41zM-114 700l56 200h90l-105 -200h-41z" />
    <glyph glyph-name="caroncmb" unicode="&#x30c;" horiz-adv-x="0" 
d="M-16 704l-174 168l21 27l169 -148l168 148l21 -27l-173 -168h-32z" />
    <glyph glyph-name="commaturnedabovecmb" unicode="&#x312;" horiz-adv-x="0" 
d="M-84 700l135 200h41l-96 -200h-80z" />
    <glyph glyph-name="commaaccentcmb" unicode="&#x326;" horiz-adv-x="0" 
d="M-114 -300l96 200h80l-135 -200h-41z" />
    <glyph glyph-name="cedillacmb" unicode="&#x327;" horiz-adv-x="0" 
d="M-30 0l10 22q60 -11 92 -43t32 -80q0 -54 -36 -84.5t-100 -30.5q-57 0 -93 25.5t-40 85.5l48 4q4 -40 22.5 -56.5t57.5 -16.5q50 0 70.5 17t20.5 59q0 40 -19.5 62.5t-64.5 35.5z" />
    <glyph glyph-name="ogonekcmb" unicode="&#x328;" horiz-adv-x="0" 
d="M55 -215q-59 0 -95 30t-36 79q0 43 31.5 80.5t86.5 59.5l12 -11q-41 -25 -60.5 -53t-19.5 -63q0 -40 20.5 -58.5t66.5 -18.5q21 0 38 2t36 6v-45q-19 -4 -41 -6t-39 -2z" />
    <glyph glyph-name="zero" unicode="0" horiz-adv-x="800" 
d="M400 -10q-142 0 -213.5 90t-71.5 267v102q0 179 72 270t214 91q141 0 212.5 -91t71.5 -270v-102q0 -177 -71.5 -267t-213.5 -90zM400 35q122 0 178.5 77t56.5 245v82q0 169 -56.5 247.5t-178.5 78.5t-178.5 -78.5t-56.5 -247.5v-82q0 -168 56.5 -245t178.5 -77zM400 342
q-23 0 -37.5 9t-14.5 34v29q0 25 14.5 34t37.5 9t37 -9t14 -34v-29q0 -25 -14.5 -34t-36.5 -9z" />
    <glyph glyph-name="one" unicode="1" horiz-adv-x="800" 
d="M205 0v45h220v640h-9q-22 -60 -82.5 -99.5t-138.5 -39.5l-10 53q97 0 163.5 55.5t79.5 145.5h47v-755h200v-45h-470z" />
    <glyph glyph-name="two" unicode="2" horiz-adv-x="800" 
d="M125 0v170q0 86 40 136t124 66l196 40q70 14 100 47.5t30 93.5v41q0 90 -51 130.5t-164 40.5q-110 0 -158 -41.5t-57 -144.5l-50 5q7 114 72 170t192 56q132 0 199 -52t67 -154v-66q0 -69 -46 -112t-129 -60l-182 -37q-70 -14 -101.5 -51t-31.5 -106v-127h500v-45h-550z
" />
    <glyph glyph-name="three" unicode="3" horiz-adv-x="800" 
d="M390 -10q-145 0 -206.5 45t-68.5 157l50 6q11 -100 55.5 -132.5t169.5 -32.5q128 0 181.5 41.5t53.5 142.5v27q0 88 -51 124.5t-174 36.5h-110v45h110q112 0 158.5 28.5t46.5 97.5v32q0 87 -48.5 123t-166.5 36q-110 0 -154 -31.5t-51 -118.5l-50 6q7 96 68.5 141.5
t186.5 45.5q140 0 202.5 -48t62.5 -154v-32q0 -64 -35 -102t-97 -43v-9q72 -6 112 -52t40 -126v-27q0 -119 -67.5 -173t-217.5 -54z" />
    <glyph glyph-name="four" unicode="4" horiz-adv-x="800" 
d="M173 280h352v474zM725 235h-150v-235h-50v235h-410v45l385 520h75v-520h150v-45z" />
    <glyph glyph-name="five" unicode="5" horiz-adv-x="800" 
d="M389 -10q-140 0 -201 46.5t-73 162.5l50 5q13 -100 59 -134.5t166 -34.5q125 0 180 45.5t55 135.5v48q0 78 -44.5 119.5t-145.5 41.5h-290v375h490v-45h-440v-285h240q119 0 179.5 -49t60.5 -148v-67q0 -99 -74 -157.5t-212 -58.5z" />
    <glyph glyph-name="six" unicode="6" horiz-adv-x="800" 
d="M400 -10q-134 0 -204.5 73t-70.5 213v243q0 143 68.5 217t208.5 74q119 0 180 -38.5t79 -127.5l-51 -12q-16 77 -61.5 105t-148.5 28q-120 0 -172.5 -57.5t-52.5 -188.5v-136h10q31 44 86.5 67.5t139.5 23.5q134 0 199 -59t65 -153v-22q0 -119 -72 -184.5t-203 -65.5z
M399 35q114 0 169 49.5t55 153.5v13q0 91 -55 134.5t-169 43.5t-169 -43.5t-55 -134.5v-13q0 -104 55 -153.5t169 -49.5z" />
    <glyph glyph-name="seven" unicode="7" horiz-adv-x="800" 
d="M325 0q52 243 108 400t192 355h-500v45h550v-45q-144 -236 -201 -400.5t-89 -354.5h-60z" />
    <glyph glyph-name="eight" unicode="8" horiz-adv-x="800" 
d="M400 -10q-140 0 -207.5 53.5t-67.5 163.5v22q0 87 41 134t111 54v9q-60 6 -96 45.5t-36 114.5v32q0 97 63 144.5t192 47.5t192 -47.5t63 -144.5v-32q0 -75 -36 -114.5t-96 -45.5v-9q70 -7 111 -54t41 -134v-22q0 -110 -67.5 -163.5t-207.5 -53.5zM400 440q113 0 159 31.5
t46 109.5v27q0 87 -46 123t-159 36t-159 -36t-46 -123v-27q0 -78 46 -109.5t159 -31.5zM400 33q123 0 174 41.5t51 142.5v17q0 88 -51 124.5t-174 36.5t-174 -36.5t-51 -124.5v-17q0 -101 51 -142.5t174 -41.5z" />
    <glyph glyph-name="nine" unicode="9" horiz-adv-x="800" 
d="M401 371q114 0 169 43.5t55 134.5v13q0 104 -55 153.5t-169 49.5t-169 -49.5t-55 -153.5v-13q0 -91 55 -134.5t169 -43.5zM398 -10q-119 0 -180 38.5t-79 127.5l52 12q16 -77 61 -105t148 -28q120 0 172.5 57.5t52.5 188.5v136h-10q-31 -44 -86.5 -67.5t-139.5 -23.5
q-125 0 -194.5 55.5t-69.5 156.5v22q0 119 72 184.5t203 65.5q137 0 206 -72t69 -214v-243q0 -143 -66.5 -217t-210.5 -74z" />
    <glyph glyph-name="onequarter" unicode="&#xbc;" horiz-adv-x="1500" 
d="M160 0zM525 0l400 800h50l-400 -800h-50zM1061 176h209v261zM1432 136h-115v-136h-47v136h-254v40l252 320h49v-320h115v-40zM173 304v40h136v384h-5q-12 -40 -50.5 -64t-87.5 -25l-6 42q47 2 92.5 30.5t58.5 88.5h43v-456h124v-40h-305z" />
    <glyph glyph-name="onehalf" unicode="&#xbd;" horiz-adv-x="1500" 
d="M160 0zM525 0l400 800h50l-400 -800h-50zM1023 0v104q0 56 25.5 88t90.5 45l100 20q51 10 69.5 28.5t18.5 58.5v19q0 54 -29 76.5t-98 22.5t-95 -19.5t-30 -74.5l-47 4q4 69 44.5 99.5t127.5 30.5q88 0 129.5 -33t41.5 -103v-34q0 -45 -25.5 -74t-88.5 -42l-99 -20
q-52 -10 -71 -29t-19 -62v-65h310v-40h-355zM173 304v40h136v384h-5q-12 -40 -50.5 -64t-87.5 -25l-6 42q47 2 92.5 30.5t58.5 88.5h43v-456h124v-40h-305z" />
    <glyph glyph-name="threequarters" unicode="&#xbe;" horiz-adv-x="1500" 
d="M116 0zM525 0l400 800h50l-400 -800h-50zM298 298q-98 0 -138 30.5t-44 91.5l46 4q6 -47 29.5 -66t106.5 -19q72 0 103.5 23.5t31.5 78.5v16q0 47 -30.5 67.5t-102.5 20.5h-59v40h59q65 0 93 16.5t28 53.5v20q0 49 -29 69.5t-98 20.5q-60 0 -87.5 -17t-31.5 -58l-47 4
q4 60 44 86t122 26q89 0 130 -30t41 -95v-16q0 -42 -20 -66t-51 -28v-8q37 -3 60.5 -33.5t23.5 -76.5v-14q0 -73 -43.5 -107t-136.5 -34zM1061 176h209v261zM1432 136h-115v-136h-47v136h-254v40l252 320h49v-320h115v-40z" />
    <glyph glyph-name="oneeighth" unicode="&#x215b;" horiz-adv-x="1500" 
d="M160 0zM525 0l400 800h50l-400 -800h-50zM1200 -4q-101 0 -139.5 38t-38.5 105v8q0 48 20.5 78.5t57.5 33.5v8q-28 4 -47 29t-19 66v10q0 69 43.5 100.5t122.5 31.5q80 0 123 -30.5t43 -101.5v-10q0 -41 -19 -66t-47 -29v-8q37 -3 58 -34.5t21 -77.5v-8q0 -69 -38.5 -106
t-140.5 -37zM1200 282q66 0 93 17t27 59v15q0 49 -27 69.5t-93 20.5q-65 0 -92 -20.5t-27 -69.5v-15q0 -42 27 -59t92 -17zM1200 37q72 0 102 24t30 81v9q0 50 -30 70.5t-102 20.5t-101.5 -20.5t-29.5 -70.5v-9q0 -57 29.5 -81t101.5 -24zM173 304v40h136v384h-5
q-12 -40 -50.5 -64t-87.5 -25l-6 42q47 2 92.5 30.5t58.5 88.5h43v-456h124v-40h-305z" />
    <glyph glyph-name="threeeighths" unicode="&#x215c;" horiz-adv-x="1500" 
d="M116 0zM525 0l400 800h50l-400 -800h-50zM1200 -5q-101 0 -139.5 38t-38.5 105v8q0 48 20.5 78.5t57.5 33.5v8q-28 4 -47 29t-19 66v10q0 69 43.5 100.5t122.5 31.5q80 0 123 -30.5t43 -101.5v-10q0 -41 -19 -66t-47 -29v-8q37 -3 58 -34.5t21 -77.5v-8q0 -69 -38.5 -106
t-140.5 -37zM1200 281q66 0 93 17t27 59v15q0 49 -27 69.5t-93 20.5q-65 0 -92 -20.5t-27 -69.5v-15q0 -42 27 -59t92 -17zM1200 36q72 0 102 24t30 81v9q0 50 -30 70.5t-102 20.5t-101.5 -20.5t-29.5 -70.5v-9q0 -57 29.5 -81t101.5 -24zM298 298q-98 0 -138 30.5t-44 91.5
l46 4q6 -47 29.5 -66t106.5 -19q72 0 103.5 23.5t31.5 78.5v16q0 47 -30.5 67.5t-102.5 20.5h-59v40h59q65 0 93 16.5t28 53.5v20q0 49 -29 69.5t-98 20.5q-60 0 -87.5 -17t-31.5 -58l-47 4q4 60 44 86t122 26q89 0 130 -30t41 -95v-16q0 -42 -20 -66t-51 -28v-8
q37 -3 60.5 -33.5t23.5 -76.5v-14q0 -73 -43.5 -107t-136.5 -34z" />
    <glyph glyph-name="fiveeighths" unicode="&#x215d;" horiz-adv-x="1500" 
d="M117 0zM525 0l400 800h50l-400 -800h-50zM1200 -5q-101 0 -139.5 38t-38.5 105v8q0 48 20.5 78.5t57.5 33.5v8q-28 4 -47 29t-19 66v10q0 69 43.5 100.5t122.5 31.5q80 0 123 -30.5t43 -101.5v-10q0 -41 -19 -66t-47 -29v-8q37 -3 58 -34.5t21 -77.5v-8q0 -69 -38.5 -106
t-140.5 -37zM1200 281q66 0 93 17t27 59v15q0 49 -27 69.5t-93 20.5q-65 0 -92 -20.5t-27 -69.5v-15q0 -42 27 -59t92 -17zM1200 36q72 0 102 24t30 81v9q0 50 -30 70.5t-102 20.5t-101.5 -20.5t-29.5 -70.5v-9q0 -57 29.5 -81t101.5 -24zM300 298q-98 0 -138.5 29.5
t-44.5 103.5l45 6q6 -59 34 -79t104 -20q72 0 102.5 25t30.5 83v25q0 52 -29.5 74.5t-99.5 22.5h-170v232h323v-40h-276v-151h124q84 0 129 -32.5t45 -92.5v-49q0 -66 -46.5 -101.5t-132.5 -35.5z" />
    <glyph glyph-name="seveneighths" unicode="&#x215e;" horiz-adv-x="1500" 
d="M122 0zM525 0l400 800h50l-400 -800h-50zM1200 -5q-101 0 -139.5 38t-38.5 105v8q0 48 20.5 78.5t57.5 33.5v8q-28 4 -47 29t-19 66v10q0 69 43.5 100.5t122.5 31.5q80 0 123 -30.5t43 -101.5v-10q0 -41 -19 -66t-47 -29v-8q37 -3 58 -34.5t21 -77.5v-8q0 -69 -38.5 -106
t-140.5 -37zM1200 281q66 0 93 17t27 59v15q0 49 -27 69.5t-93 20.5q-65 0 -92 -20.5t-27 -69.5v-15q0 -42 27 -59t92 -17zM1200 36q72 0 102 24t30 81v9q0 50 -30 70.5t-102 20.5t-101.5 -20.5t-29.5 -70.5v-9q0 -57 29.5 -81t101.5 -24zM246 304q37 166 72 253.5
t114 203.5h-310v39h357v-39q-78 -128 -116.5 -221t-63.5 -236h-53z" />
    <glyph glyph-name="underscore" unicode="_" horiz-adv-x="900" 
d="M100 -175v50h700v-50h-700z" />
    <glyph glyph-name="hyphen" unicode="&#x2011;" horiz-adv-x="900" 
d="M150 325v50h600v-50h-600z" />
    <glyph glyph-name="hyphen" unicode="&#x2010;" horiz-adv-x="900" 
d="M150 325v50h600v-50h-600z" />
    <glyph glyph-name="hyphen" unicode="&#xad;" horiz-adv-x="900" 
d="M150 325v50h600v-50h-600z" />
    <glyph glyph-name="hyphen" unicode="-" horiz-adv-x="900" 
d="M150 325v50h600v-50h-600z" />
    <glyph glyph-name="endash" unicode="&#x2013;" horiz-adv-x="1000" 
d="M150 325v50h700v-50h-700z" />
    <glyph glyph-name="emdash" unicode="&#x2014;" horiz-adv-x="1300" 
d="M150 325v50h1000v-50h-1000z" />
    <glyph glyph-name="horizontalbar" unicode="&#x2015;" horiz-adv-x="1000" 
d="M0 325v50h1000v-50h-1000z" />
    <glyph glyph-name="parenleft" unicode="(" 
d="M525 -210q-140 34 -220 170t-80 340t80 340t220 170l6 -42q-124 -34 -190 -154.5t-66 -313.5t66 -313.5t191 -154.5z" />
    <glyph glyph-name="parenright" unicode=")" 
d="M175 -210l-7 42q125 34 191 154.5t66 313.5t-66 313.5t-190 154.5l6 42q140 -34 220 -170t80 -340t-80 -340t-220 -170z" />
    <glyph glyph-name="bracketleft" unicode="[" 
d="M225 -200v1000h300v-45h-250v-910h250v-45h-300z" />
    <glyph glyph-name="bracketright" unicode="]" 
d="M175 -200v45h250v910h-250v45h300v-1000h-300z" />
    <glyph glyph-name="braceleft" unicode="{" 
d="M525 -210q-184 -3 -267 38t-83 128q0 37 16 68.5t56 74.5q32 34 45 54.5t13 39.5q0 52 -50 74t-180 25v40q128 3 179 24.5t51 72.5q0 17 -13 35.5t-45 46.5q-40 37 -56 66.5t-16 68.5q0 87 86 127t264 37v-45q-162 3 -231 -24.5t-69 -95.5q0 -27 14.5 -50.5t51.5 -56.5
q36 -33 50 -56.5t14 -51.5q0 -56 -43 -83t-124 -30v-5q81 -8 124 -40t43 -86q0 -28 -15 -53.5t-53 -62.5q-34 -34 -48 -59t-14 -54q0 -70 69 -98.5t231 -25.5v-43z" />
    <glyph glyph-name="braceright" unicode="}" 
d="M525 -44q0 -87 -83 -128t-267 -38v43q162 -3 231 25.5t69 98.5q0 29 -14 54t-48 59q-38 37 -53 62.5t-15 53.5q0 54 43 86t124 40v5q-81 3 -124 30t-43 83q0 28 14 51.5t50 56.5q37 33 51.5 56.5t14.5 50.5q0 68 -69 95.5t-231 24.5v45q178 3 264 -37t86 -127
q0 -39 -16 -68.5t-56 -66.5q-32 -28 -45 -46.5t-13 -35.5q0 -51 51 -72.5t179 -24.5v-40q-130 -3 -180 -25t-50 -74q0 -19 13 -39.5t45 -54.5q40 -43 56 -74.5t16 -68.5z" />
    <glyph glyph-name="numbersign" unicode="#" horiz-adv-x="900" 
d="M536 270l13 265h-185l-13 -265h185zM522 0l11 225h-185l-11 -225h-45l11 225h-203v45h206l13 265h-219v45h221l11 220h45l-11 -220h185l11 220h45l-11 -220h204v-45h-206l-13 -265h219v-45h-222l-11 -225h-45z" />
    <glyph glyph-name="percent" unicode="%" horiz-adv-x="1100" 
d="M275 388q-69 0 -112 40.5t-43 124.5v90q0 85 43 126t112 41t111.5 -41t42.5 -126v-90q0 -84 -42.5 -124.5t-111.5 -40.5zM275 0l500 800h50l-500 -800h-50zM275 433q48 0 76 28t28 90v94q0 62 -28 91t-76 29t-76.5 -29t-28.5 -91v-94q0 -62 28.5 -90t76.5 -28zM825 -12
q-69 0 -112 40.5t-43 124.5v90q0 85 43 126t112 41t111.5 -41t42.5 -126v-90q0 -84 -42.5 -124.5t-111.5 -40.5zM825 33q48 0 76 28t28 90v94q0 62 -28 91t-76 29t-76.5 -29t-28.5 -91v-94q0 -62 28.5 -90t76.5 -28z" />
    <glyph glyph-name="perthousand" unicode="&#x2030;" horiz-adv-x="1400" 
d="M255 388q-61 0 -99 38t-38 117v110q0 80 38.5 118.5t98.5 38.5q61 0 98.5 -38.5t37.5 -118.5v-110q0 -79 -38 -117t-98 -38zM775 800l-500 -800h-50l500 800h50zM167 541q0 -56 22 -81.5t66 -25.5q40 0 63.5 25.5t23.5 81.5v114q0 57 -23.5 83t-63.5 26q-44 0 -66 -26
t-22 -83v-114zM1282 147q0 -80 -38.5 -118.5t-98.5 -38.5q-61 0 -98.5 38.5t-37.5 118.5v110q0 79 38 117t98 38q61 0 99 -38t38 -117v-110zM882 147q0 -80 -38.5 -118.5t-98.5 -38.5q-61 0 -98.5 38.5t-37.5 118.5v110q0 79 38 117t98 38q61 0 99 -38t38 -117v-110z
M657 155q0 -61 21.5 -90t66.5 -29q40 0 64.5 29t24.5 90v104q0 56 -24.5 81.5t-64.5 25.5q-45 0 -66.5 -25.5t-21.5 -81.5v-104zM1057 155q0 -61 21.5 -90t66.5 -29t67 29t22 90v104q0 56 -22 81.5t-67 25.5t-66.5 -25.5t-21.5 -81.5v-104z" />
    <glyph glyph-name="quotesingle" unicode="'" 
d="M330 450l-20 350h80l-20 -350h-40z" />
    <glyph glyph-name="quotedbl" unicode="&#x22;" horiz-adv-x="800" 
d="M530 450l-20 350h80l-20 -350h-40zM230 450l-20 350h80l-20 -350h-40z" />
    <glyph glyph-name="quoteleft" unicode="&#x2018;" 
d="M261 450l175 350h44l-120 -350h-99z" />
    <glyph glyph-name="quoteleft" unicode="&#x2bb;" 
d="M261 450l175 350h44l-120 -350h-99z" />
    <glyph glyph-name="quoteright" unicode="&#x2019;" 
d="M220 450l120 350h99l-175 -350h-44z" />
    <glyph glyph-name="quotedblleft" unicode="&#x201c;" horiz-adv-x="900" 
d="M511 450l165 350h44l-120 -350h-89zM211 450l165 350h44l-120 -350h-89z" />
    <glyph glyph-name="quotedblright" unicode="&#x201d;" horiz-adv-x="900" 
d="M480 450l120 350h89l-165 -350h-44zM180 450l120 350h89l-165 -350h-44z" />
    <glyph glyph-name="quotereversed" unicode="&#x201b;" 
d="M230 450zM405 450l-175 350h99l120 -350h-44z" />
    <glyph glyph-name="quotesinglbase" unicode="&#x201a;" 
d="M220 0zM220 -200l120 350h99l-175 -350h-44z" />
    <glyph glyph-name="quotedblbase" unicode="&#x201e;" horiz-adv-x="900" 
d="M180 0zM480 -200l120 350h89l-165 -350h-44zM180 -200l120 350h89l-165 -350h-44z" />
    <glyph glyph-name="guilsinglleft" unicode="&#x2039;" 
d="M500 120l-300 220v20l300 220v-55l-242 -175l242 -175v-55z" />
    <glyph glyph-name="guilsinglright" unicode="&#x203a;" 
d="M200 120v55l242 175l-242 175v55l300 -220v-20z" />
    <glyph glyph-name="guillemotleft" unicode="&#xab;" horiz-adv-x="900" 
d="M750 120l-300 220v20l300 220v-55l-242 -175l242 -175v-55zM450 120l-300 220v20l300 220v-55l-242 -175l242 -175v-55z" />
    <glyph glyph-name="guillemotright" unicode="&#xbb;" horiz-adv-x="900" 
d="M150 120v55l242 175l-242 175v55l300 -220v-20zM450 120v55l242 175l-242 175v55l300 -220v-20z" />
    <glyph glyph-name="asterisk" unicode="*" horiz-adv-x="900" 
d="M670 355l-207 150l13 -245h-54l13 244l-206 -149l-27 46l223 130l-223 130l27 46l206 -150l-13 243h54l-13 -244l207 151l27 -46l-223 -130l223 -130z" />
    <glyph glyph-name="dagger" unicode="&#x2020;" horiz-adv-x="1000" 
d="M475 -200v755h-200l-30 -255h-40l30 300h242l-7 200h60l-7 -200h242l30 -300h-40l-30 255h-200v-755h-50z" />
    <glyph glyph-name="daggerdbl" unicode="&#x2021;" horiz-adv-x="1000" 
d="M465 -200l7 200h-237l-30 230h40l30 -185h200v510h-200l-30 -185h-40l30 230h242l-7 200h60l-7 -200h242l30 -230h-40l-30 185h-200v-510h200l30 185h40l-30 -230h-237l7 -200h-70z" />
    <glyph glyph-name="period" unicode="." 
d="M351 -10q-28 0 -45 13t-17 41v28q0 29 17 42.5t45 13.5t44.5 -13.5t16.5 -42.5v-28q0 -28 -17 -41t-44 -13z" />
    <glyph glyph-name="comma" unicode="," 
d="M220 -200l120 350h99l-175 -350h-44z" />
    <glyph glyph-name="colon" unicode=":" 
d="M351 470q-28 0 -45 13t-17 41v28q0 29 17 42.5t45 13.5t44.5 -13.5t16.5 -42.5v-28q0 -28 -17 -41t-44 -13zM351 -10q-28 0 -45 13t-17 41v28q0 29 17 42.5t45 13.5t44.5 -13.5t16.5 -42.5v-28q0 -28 -17 -41t-44 -13z" />
    <glyph glyph-name="semicolon" unicode=";" 
d="M351 470q-28 0 -45 13t-17 41v28q0 29 17 42.5t45 13.5t44.5 -13.5t16.5 -42.5v-28q0 -28 -17 -41t-44 -13zM220 -200l120 350h99l-175 -350h-44z" />
    <glyph glyph-name="ellipsis" unicode="&#x2026;" horiz-adv-x="1200" 
d="M139 0zM1001 -10q-28 0 -45 13t-17 41v28q0 29 17 42.5t45 13.5t44.5 -13.5t16.5 -42.5v-28q0 -28 -17 -41t-44 -13zM601 -10q-28 0 -45 13t-17 41v28q0 29 17 42.5t45 13.5t44.5 -13.5t16.5 -42.5v-28q0 -28 -17 -41t-44 -13zM201 -10q-28 0 -45 13t-17 41v28
q0 29 17 42.5t45 13.5t44.5 -13.5t16.5 -42.5v-28q0 -28 -17 -41t-44 -13z" />
    <glyph glyph-name="exclam" unicode="!" 
d="M330 300l-10 500h60l-10 -500h-40zM351 -10q-27 0 -44.5 13t-17.5 41v28q0 29 17.5 42.5t44.5 13.5t44 -13.5t17 -42.5v-28q0 -28 -17.5 -41t-43.5 -13z" />
    <glyph glyph-name="exclamdown" unicode="&#xa1;" 
d="M351 809q27 0 44 -13.5t17 -42.5v-28q0 -28 -17.5 -41t-43.5 -13q-27 0 -44.5 13t-17.5 41v28q0 29 17.5 42.5t44.5 13.5zM371 500l10 -500h-60l10 500h40z" />
    <glyph glyph-name="exclamdbl" unicode="&#x203c;" horiz-adv-x="1100" 
d="M289 0zM730 300l-10 500h60l-10 -500h-40zM751 -10q-27 0 -44.5 13t-17.5 41v28q0 29 17.5 42.5t44.5 13.5t44 -13.5t17 -42.5v-28q0 -28 -17.5 -41t-43.5 -13zM330 300l-10 500h60l-10 -500h-40zM351 -10q-27 0 -44.5 13t-17.5 41v28q0 29 17.5 42.5t44.5 13.5t44 -13.5
t17 -42.5v-28q0 -28 -17.5 -41t-43.5 -13z" />
    <glyph glyph-name="question" unicode="?" horiz-adv-x="1000" 
d="M420 313l-10 40q163 26 234 72t71 127v30q0 99 -49.5 141t-165.5 42q-124 0 -169.5 -38t-55.5 -148l-50 5q7 127 67 176.5t207 49.5q132 0 199 -54.5t67 -161.5v-46q0 -100 -77.5 -152.5t-267.5 -82.5zM451 -10q-27 0 -44.5 13t-17.5 41v28q0 29 17.5 42.5t44.5 13.5
t44 -13.5t17 -42.5v-28q0 -28 -17.5 -41t-43.5 -13z" />
    <glyph glyph-name="questiondown" unicode="&#xbf;" horiz-adv-x="1000" 
d="M539 810q27 0 44.5 -13t17.5 -41v-28q0 -29 -17.5 -42.5t-44.5 -13.5t-44 13.5t-17 42.5v28q0 28 17.5 41t43.5 13zM570 487l10 -40q-163 -26 -234 -72t-71 -127v-30q0 -99 49.5 -141t165.5 -42q124 0 169.5 38t55.5 148l50 -5q-7 -127 -67 -176.5t-207 -49.5
q-132 0 -199 54.5t-67 161.5v46q0 100 77.5 152.5t267.5 82.5z" />
    <glyph glyph-name="slash" unicode="/" 
d="M125 -200l400 1000h50l-400 -1000h-50z" />
    <glyph glyph-name="backslash" unicode="\" 
d="M525 -200l-400 1000h50l400 -1000h-50z" />
    <glyph glyph-name="fraction" unicode="&#x2215;" horiz-adv-x="300" 
d="M-75 0l400 800h50l-400 -800h-50z" />
    <glyph glyph-name="fraction" unicode="&#x2044;" horiz-adv-x="300" 
d="M-75 0l400 800h50l-400 -800h-50z" />
    <glyph glyph-name="bar" unicode="|" 
d="M330 -200v1000h40v-1000h-40z" />
    <glyph glyph-name="brokenbar" unicode="&#xa6;" 
d="M330 400v400h40v-400h-40zM330 -200v400h40v-400h-40z" />
    <glyph glyph-name="at" unicode="@" horiz-adv-x="1000" 
d="M578 -110q-170 0 -261.5 80.5t-91.5 238.5v298q0 146 71.5 224.5t202.5 78.5q132 0 204 -76.5t72 -216.5v-244q-6 -84 -49.5 -123.5t-125.5 -39.5q-85 0 -125 45.5t-40 126.5v122q0 80 45 128t111 48q52 0 85.5 -15t46.5 -40h7q0 125 -58 187.5t-174 62.5
q-120 0 -176.5 -64.5t-56.5 -203.5v-298q0 -140 76.5 -210t236.5 -70q59 0 109 8.5t93 21.5v-39q-49 -14 -101.5 -22t-100.5 -8zM604 150q63 0 94.5 33.5t31.5 100.5v112q0 72 -31.5 108t-94.5 36t-93.5 -36.5t-30.5 -109.5v-102q0 -71 30.5 -106.5t93.5 -35.5z" />
    <glyph glyph-name="ampersand" unicode="&#x26;" horiz-adv-x="900" 
d="M768 -6q-57 30 -114.5 60t-108.5 67q-42 -57 -106 -94t-133 -37q-81 0 -131 58t-50 153q0 72 45.5 133t109.5 96q-29 56 -42 106t-13 83q0 87 50.5 139.5t133.5 52.5q74 0 116 -45.5t42 -115.5q0 -73 -60.5 -126.5t-172.5 -105.5q12 -19 28 -43t35 -49q30 -38 67 -77
t78 -73q32 45 60.5 97.5t56.5 115.5l40 -21q-34 -67 -64 -120t-66 -98l207 -113zM274 620q0 -40 11.5 -83t31.5 -89q94 42 149.5 92t55.5 108q0 51 -32 84t-82 33q-64 0 -99 -38t-35 -107zM315 35q49 0 104 29.5t94 78.5q-40 32 -79.5 76.5t-74.5 92.5q-16 22 -31.5 43.5
t-29.5 42.5q-44 -25 -83.5 -77t-39.5 -120q0 -75 38.5 -120.5t101.5 -45.5z" />
    <glyph glyph-name="section" unicode="&#xa7;" horiz-adv-x="900" 
d="M440 177l18 -4l18 -4q74 1 114 33.5t40 91.5q0 51 -36 79t-129 47l-18 4l-18 4q-74 -1 -114 -33.5t-40 -91.5q0 -51 36 -79t129 -47zM468 -207q-63 0 -121 22t-101 62l26 41q50 -42 96.5 -61t104.5 -19q75 0 119 34.5t44 93.5q0 67 -46.5 104t-161.5 61
q-107 22 -155 61.5t-48 108.5q0 59 36.5 96t92.5 54q-57 23 -93 66t-36 110q0 79 58.5 128t153.5 49q63 0 121 -22t101 -62l-28 -40q-49 41 -95.5 59.5t-103.5 18.5q-75 0 -119 -34t-44 -93q0 -67 46.5 -103.5t161.5 -61.5q107 -22 155 -61t48 -107q0 -60 -36.5 -98.5
t-94.5 -55.5q63 -28 97 -67t34 -100q0 -84 -58 -134t-154 -50z" />
    <glyph glyph-name="paragraph" unicode="&#xb6;" horiz-adv-x="900" 
d="M625 340h-150v-540h-50v540q-121 0 -188 52t-67 145v52q0 100 67 155.5t187 55.5h251v-1000h-50v540z" />
    <glyph glyph-name="lsquare" unicode="&#x2113;" horiz-adv-x="800" 
d="M385 295q54 0 90.5 24.5t46.5 87.5l38 222q10 59 -11.5 97.5t-96.5 38.5q-55 0 -91 -27t-47 -89l-40 -229q-10 -54 14.5 -89.5t96.5 -35.5zM512 24q-31 -13 -67 -22t-76 -9q-96 0 -148.5 55t-35.5 152l79 449q14 82 68.5 121.5t126.5 39.5q87 0 126 -49t25 -132l-38 -222
q-13 -81 -63.5 -119t-119.5 -38q-46 0 -80.5 14t-56.5 41l-15 -96q-13 -81 26 -122.5t114 -41.5q27 0 60 7.5t71 22.5z" />
    <glyph glyph-name="numero" unicode="&#x2116;" horiz-adv-x="1200" 
d="M900 301q-81 0 -130.5 50t-49.5 154v96q0 105 50 156.5t131 51.5t130 -51.5t49 -156.5v-96q0 -104 -49.5 -154t-130.5 -50zM900 346q64 0 97 37t33 122v96q0 84 -32.5 123.5t-97.5 39.5t-97.5 -39.5t-32.5 -123.5v-96q0 -85 33 -122t97 -37zM170 697v-697h-50v800h57
l353 -713v713h50v-800h-63z" />
    <glyph glyph-name="periodcentered" unicode="&#x2219;" 
d="M351 330q-28 0 -45 13t-17 41v28q0 29 17 42.5t45 13.5t44.5 -13.5t16.5 -42.5v-28q0 -28 -17 -41t-44 -13z" />
    <glyph glyph-name="periodcentered" unicode="&#xb7;" 
d="M351 330q-28 0 -45 13t-17 41v28q0 29 17 42.5t45 13.5t44.5 -13.5t16.5 -42.5v-28q0 -28 -17 -41t-44 -13z" />
    <glyph glyph-name="bullet" unicode="&#x2022;" horiz-adv-x="900" 
d="M451 276q-57 0 -92.5 21t-35.5 65v72q0 46 35.5 67.5t92.5 21.5t92 -21.5t35 -67.5v-72q0 -44 -35.5 -65t-91.5 -21z" />
    <glyph glyph-name="anoteleia" unicode="&#x387;" 
d="M289 330zM351 330q-28 0 -45 13t-17 41v28q0 29 17 42.5t45 13.5t44.5 -13.5t16.5 -42.5v-28q0 -28 -17 -41t-44 -13z" />
    <glyph glyph-name="underscoredbl" unicode="&#x2017;" horiz-adv-x="900" 
d="M100 0zM100 0v50h700v-50h-700zM100 -175v50h700v-50h-700z" />
    <glyph glyph-name="minute" unicode="&#x2032;" 
d="M220 450zM220 450l120 350h99l-175 -350h-44z" />
    <glyph glyph-name="second" unicode="&#x2033;" horiz-adv-x="900" 
d="M180 450zM480 450l120 350h89l-165 -350h-44zM180 450l120 350h89l-165 -350h-44z" />
    <glyph glyph-name="overline" unicode="&#x203e;" horiz-adv-x="900" 
d="M100 925zM100 925v50h700v-50h-700z" />
    <glyph glyph-name="plus" unicode="+" horiz-adv-x="900" 
d="M425 0v325h-325v50h325v325h50v-325h325v-50h-325v-325h-50z" />
    <glyph glyph-name="minus" unicode="&#x2212;" horiz-adv-x="900" 
d="M100 325v50h700v-50h-700z" />
    <glyph glyph-name="plusminus" unicode="&#xb1;" horiz-adv-x="900" 
d="M100 0zM425 100v325h-325v50h325v325h50v-325h325v-50h-325v-325h-50zM100 0v50h700v-50h-700z" />
    <glyph glyph-name="divide" unicode="&#xf7;" horiz-adv-x="900" 
d="M450 546q-29 0 -47.5 11t-18.5 33v17q0 23 18.5 34.5t47.5 11.5t47 -11.5t18 -34.5v-17q0 -22 -18.5 -33t-46.5 -11zM100 325v50h700v-50h-700zM450 46q-29 0 -47.5 11t-18.5 33v17q0 23 18.5 34.5t47.5 11.5t47 -11.5t18 -34.5v-17q0 -22 -18.5 -33t-46.5 -11z" />
    <glyph glyph-name="multiply" unicode="&#xd7;" horiz-adv-x="900" 
d="M169 31l-33 33l281 286l-281 286l33 33l281 -286l281 281l33 -33l-281 -281l281 -281l-33 -33l-281 281z" />
    <glyph glyph-name="equal" unicode="=" horiz-adv-x="900" 
d="M100 465v50h700v-50h-700zM100 185v50h700v-50h-700z" />
    <glyph glyph-name="less" unicode="&#x3c;" horiz-adv-x="900" 
d="M750 25l-600 300v50l600 300v-45l-560 -280l560 -280v-45z" />
    <glyph glyph-name="greater" unicode="&#x3e;" horiz-adv-x="900" 
d="M150 25v45l560 280l-560 280v45l600 -300v-50z" />
    <glyph glyph-name="lessequal" unicode="&#x2264;" horiz-adv-x="900" 
d="M750 200l-600 250v50l600 250v-45l-552 -230l552 -230v-45zM150 0v40h600v-40h-600z" />
    <glyph glyph-name="greaterequal" unicode="&#x2265;" horiz-adv-x="900" 
d="M150 200v45l552 230l-552 230v45l600 -250v-50zM750 0h-600v40h600v-40z" />
    <glyph glyph-name="approxequal" unicode="&#x2248;" horiz-adv-x="900" 
d="M627 390q-57 0 -101 31t-86 100q-52 87 -86 115.5t-85 28.5q-49 0 -74 -36t-25 -106v-123h-50v129q0 88 43.5 134.5t111.5 46.5q57 0 100.5 -30.5t86.5 -99.5q54 -88 87.5 -117t81.5 -29q41 0 70 32t29 112v122h50v-129q0 -88 -43 -134.5t-110 -46.5zM627 -10
q-57 0 -101 31t-86 100q-52 87 -86 115.5t-85 28.5q-49 0 -74 -36t-25 -106v-123h-50v129q0 88 43.5 134.5t111.5 46.5q57 0 100.5 -30.5t86.5 -99.5q54 -88 87.5 -117t81.5 -29q41 0 70 32t29 112v122h50v-129q0 -88 -43 -134.5t-110 -46.5z" />
    <glyph glyph-name="notequal" unicode="&#x2260;" horiz-adv-x="900" 
d="M800 215h-371l-54 -215h-50l54 215h-279v50h291l68 270h-359v50h371l54 215h50l-54 -215h279v-50h-291l-68 -270h359v-50z" />
    <glyph glyph-name="logicalnot" unicode="&#xac;" horiz-adv-x="900" 
d="M725 0v325h-625v50h675v-375h-50z" />
    <glyph glyph-name="uni23af" unicode="&#x23af;" horiz-adv-x="1000" 
d="M-150 375v50h1300v-50h-1300z" />
    <glyph glyph-name="arrowleft" unicode="&#x2190;" horiz-adv-x="1100" 
d="M480 75l-330 315v20l330 315h20v-300h450v-50h-450v-300h-20z" />
    <glyph glyph-name="arrowup" unicode="&#x2191;" horiz-adv-x="900" 
d="M425 0v450h-300v20l315 330h20l315 -330v-20h-300v-450h-50z" />
    <glyph glyph-name="arrowright" unicode="&#x2192;" horiz-adv-x="1100" 
d="M600 75v300h-450v50h450v300h20l330 -315v-20l-330 -315h-20z" />
    <glyph glyph-name="arrowdown" unicode="&#x2193;" horiz-adv-x="900" 
d="M440 0l-315 330v20h300v450h50v-450h300v-20l-315 -330h-20z" />
    <glyph glyph-name="arrowboth" unicode="&#x2194;" horiz-adv-x="1300" 
d="M500 375v-300h-20l-330 315v20l330 315h20v-300h300v300h20l330 -315v-20l-330 -315h-20v300h-300z" />
    <glyph glyph-name="partialdiff" unicode="&#x2202;" 
d="M295 -10q-101 0 -158.5 56.5t-33.5 169.5l15 71q20 94 83.5 149t156.5 55q90 0 139 -30.5t62 -73.5h3q31 169 -21 254t-216 132l15 34q175 -49 234 -149.5t20 -287.5l-31 -148q-25 -120 -94.5 -176t-173.5 -56zM305 33q93 0 139 45.5t66 135.5l14 62q19 85 -16.5 128
t-134.5 43q-95 0 -140 -42.5t-63 -128.5l-13 -62q-19 -90 14.5 -135t133.5 -46z" />
    <glyph glyph-name="Delta#1" unicode="&#x2206;" horiz-adv-x="800" 
d="M65 0zM65 0v45l313 755h35l322 -755v-45h-670zM682 45l-284 689l-284 -689h568z" />
    <glyph glyph-name="product" unicode="&#x220f;" horiz-adv-x="800" 
d="M125 -200v1000h550v-1000h-50v955h-450v-955h-50z" />
    <glyph glyph-name="summation" unicode="&#x2211;" 
d="M595 -155v-45h-500v45l334 468l-334 442v45h500v-45h-439l321 -428v-30l-320 -452h438z" />
    <glyph glyph-name="mu1" unicode="&#xb5;" horiz-adv-x="800" 
d="M120 0zM175 20l5 -220h-60l5 220v580h50v-404q0 -77 42.5 -118.5t120.5 -41.5q60 0 106.5 19.5t80.5 59.5v485h50v-440q0 -80 25 -104t95 -12v-47q-71 -10 -108.5 13t-42.5 80h-10q-25 -36 -79 -68t-120 -32q-54 0 -95.5 20t-64.5 57v-47z" />
    <glyph glyph-name="radical" unicode="&#x221a;" 
d="M382 0l-213 452l-93 -22v40l121 30l198 -434l217 834h40l-235 -900h-35z" />
    <glyph glyph-name="infinity" unicode="&#x221e;" horiz-adv-x="1000" 
d="M303 120q-80 0 -129 77.5t-49 202.5t47.5 202.5t125.5 77.5q63 0 105.5 -46.5t98.5 -175.5q50 127 91 174.5t102 47.5q81 0 130.5 -77t49.5 -202t-49 -203t-128 -78q-59 0 -100.5 47.5t-98.5 179.5q-50 -130 -91.5 -178.5t-104.5 -48.5zM701 165q59 0 91.5 61.5
t32.5 173.5q-1 112 -36 173.5t-98 61.5q-55 0 -91 -47.5t-81 -179.5q54 -142 92 -192.5t90 -50.5zM309 165q50 0 85.5 47.5t84.5 179.5q-54 142 -91.5 192.5t-88.5 50.5q-59 0 -91.5 -61.5t-32.5 -173.5q1 -112 36 -173.5t98 -61.5z" />
    <glyph glyph-name="orthogonal" unicode="&#x221f;" horiz-adv-x="900" 
d="M195 0v700h50v-655h525v-45h-575z" />
    <glyph glyph-name="intersection" unicode="&#x2229;" horiz-adv-x="900" 
d="M175 0v433q0 134 71 205.5t204 71.5t204 -71.5t71 -205.5v-433h-50v433q0 119 -54.5 175.5t-170.5 56.5t-170.5 -56.5t-54.5 -175.5v-433h-50z" />
    <glyph glyph-name="integral" unicode="&#x222b;" 
d="M203 -205q-25 1 -51.5 8t-45.5 14l10 43q19 -7 42 -13t46 -7q55 1 88 35t33 109v636q0 91 49 140.5t123 49.5q25 0 51.5 -7t45.5 -15l-10 -43q-19 7 -42 13.5t-46 6.5q-55 0 -88 -34t-33 -110v-637q0 -90 -49 -139t-123 -50z" />
    <glyph glyph-name="equivalence" unicode="&#x2261;" horiz-adv-x="900" 
d="M100 525v50h700v-50h-700zM100 325v50h700v-50h-700zM100 125v50h700v-50h-700z" />
    <glyph glyph-name="integralbt" unicode="&#x2321;" 
d="M203 -205q-25 1 -51.5 8t-45.5 14l10 43q19 -7 42 -13t46 -7q55 1 88 35t33 109v816h50v-816q0 -90 -49 -139t-123 -50z" />
    <glyph glyph-name="dollar" unicode="$" 
d="M170 589q0 -50 38 -87t122 -67v276q-78 -1 -119 -32.5t-41 -89.5zM534 216q0 51 -39.5 88t-124.5 68v-283q81 2 122.5 34.5t41.5 92.5zM370 -50h-40v96q-56 4 -108 23t-98 55l24 41q40 -32 86 -51.5t96 -23.5v296q-109 37 -157 84t-48 116q0 77 54.5 122.5t150.5 46.5v95
h40v-97q50 -5 96.5 -23t84.5 -43l-25 -41q-33 21 -73 39t-83 24v-288q111 -39 160 -86t49 -116q0 -78 -55.5 -124t-153.5 -50v-95z" />
    <glyph glyph-name="cent" unicode="&#xa2;" 
d="M175 317q0 -91 42 -134.5t123 -47.5v529q-80 -4 -122.5 -46.5t-42.5 -138.5v-162zM340 -50v141q-102 5 -158.5 60t-56.5 166v162q0 110 57 167.5t158 62.5v141h40v-140q101 -4 150 -48t56 -133l-48 -4q-8 79 -45 108.5t-113 31.5v-531q76 1 113.5 26t44.5 95l48 -4
q-6 -81 -55.5 -119.5t-150.5 -41.5v-140h-40z" />
    <glyph glyph-name="sterling" unicode="&#xa3;" horiz-adv-x="800" 
d="M695 192q-6 -101 -52.5 -151.5t-132.5 -50.5q-28 0 -65.5 11.5t-102.5 40.5q-53 22 -84.5 24t-57.5 -15l-92 -60l-28 36l78 43q37 21 63 78.5t26 111.5q0 41 -13.5 77.5t-30.5 72.5h-118v45h97q-16 33 -27 68t-11 74q0 96 66.5 154.5t191.5 58.5t186 -46.5t67 -149.5
l-51 -6q-7 89 -52.5 123t-149.5 34q-111 0 -159.5 -41t-48.5 -129q0 -35 13 -70t29 -70h239v-45h-217q16 -34 27.5 -70t11.5 -73q0 -61 -20.5 -103.5t-65.5 -73.5l4 -5q34 20 68.5 16t80.5 -22q39 -15 75.5 -29.5t70.5 -14.5q69 0 97.5 35t37.5 128z" />
    <glyph glyph-name="currency" unicode="&#xa4;" horiz-adv-x="900" 
d="M450 135q87 0 131 42.5t44 139.5v162q0 96 -44 141t-131 45t-131 -45t-44 -141v-162q0 -97 44 -139.5t131 -42.5zM259 173l-90 -92l-33 33l102 104q-6 21 -9.5 45.5t-3.5 53.5v162q0 28 4.5 53t11.5 47l-105 107l33 33l95 -96q28 41 75 64t112 23q62 0 111 -21t78 -66
l91 91l33 -33l-103 -103q7 -21 10.5 -46t3.5 -53v-162q0 -26 -4 -49.5t-11 -44.5l104 -104l-33 -33l-92 92q-28 -42 -75.5 -65t-113.5 -23q-63 0 -113 19t-78 64z" />
    <glyph glyph-name="yen" unicode="&#xa5;" horiz-adv-x="800" 
d="M625 120h-200v-120h-50v120h-200v45h200v155h-200v45h176l-262 435h57l255 -426l254 426h55l-261 -435h176v-45h-200v-155h200v-45z" />
    <glyph glyph-name="franc" unicode="&#x20a3;" 
d="M375 220h-200v-220h-50v220h-100v45h100v535h470v-45h-420v-275h350v-45h-350v-170h200v-45z" />
    <glyph glyph-name="lira" unicode="&#x20a4;" horiz-adv-x="800" 
d="M695 192q-6 -99 -50.5 -150.5t-134.5 -51.5q-45 0 -87 17.5t-81 34.5q-39 16 -75 23t-67 -14l-92 -60l-28 36l78 43q37 20 62.5 79t25.5 113q0 13 -2.5 27.5t-6.5 30.5h-177v40h164q-6 16 -13 32.5t-16 34.5q-10 23 -19 43.5t-15 39.5h-101v40h90q-3 13 -4.5 25t-1.5 22
q0 96 66.5 154.5t191.5 58.5t186 -46.5t67 -149.5l-51 -6q-7 89 -52.5 123t-149.5 34q-110 0 -158.5 -41t-48.5 -129q0 -10 1.5 -21t5.5 -24h298v-40h-285q6 -16 14 -34.5t18 -39.5t17.5 -40t13.5 -36h222v-40h-209q4 -14 5.5 -27t1.5 -23q0 -60 -21.5 -104.5t-65.5 -75.5
l4 -5q34 19 68.5 15.5t80.5 -21.5q39 -15 75.5 -29.5t70.5 -14.5q78 0 103 41t32 122z" />
    <glyph glyph-name="peseta" unicode="&#x20a7;" horiz-adv-x="1200" 
d="M729 -9q-61 0 -91 51t-30 155v363h-153v-69q0 -107 -43.5 -159t-131.5 -52h-110v-280h-45v800h156q88 0 131 -50.5t43 -149.5h153v200h45v-200h167v-40h-167v-364q0 -81 20.5 -120t61.5 -39q13 0 25.5 2.5t31.5 9.5l12 -45q-21 -8 -39.5 -10.5t-35.5 -2.5zM170 323h110
q67 0 98.5 41t31.5 129v92q0 88 -31.5 129t-98.5 41h-110v-432zM938 -10q-37 0 -69.5 9.5t-65.5 34.5l25 35q29 -23 54.5 -31t55.5 -8q55 0 84.5 24t29.5 70q0 43 -23 73t-100 87q-69 52 -96 93t-27 92q0 63 38.5 102t101.5 39q33 0 60.5 -9.5t58.5 -33.5l-28 -33
q-27 22 -46.5 29t-44.5 7q-46 0 -70.5 -24t-24.5 -70q0 -47 27 -84t96 -84q69 -48 96 -87t27 -90q0 -63 -43.5 -102t-115.5 -39z" />
    <glyph glyph-name="Euro" unicode="&#x20ac;" horiz-adv-x="800" 
d="M440 -10q-135 0 -205 69t-70 203v22h-100v45h100v140h-100v45h100v22q0 135 70 204.5t206 69.5q111 0 174.5 -49.5t75.5 -146.5l-46 -7q-16 87 -62.5 122.5t-142.5 35.5q-119 0 -172 -52t-53 -177v-22h230v-45h-230v-140h230v-45h-230v-22q0 -123 53 -175t172 -52
q94 0 141 35t64 119l46 -7q-12 -95 -76 -143.5t-175 -48.5z" />
    <glyph glyph-name="florin" unicode="&#x192;" 
d="M224 -6q-25 0 -60.5 6t-58.5 16l11 43q30 -11 58 -15.5t50 -4.5q57 0 79 33t22 118v245h-210v40h210v165q0 76 41.5 123t109.5 47q25 0 60.5 -6t58.5 -16l-11 -43q-30 11 -58 15.5t-50 4.5q-56 0 -78.5 -33.5t-22.5 -117.5v-139h220v-40h-220v-271q0 -78 -41 -124
t-110 -46z" />
    <glyph glyph-name="asciicircum" unicode="^" horiz-adv-x="900" 
d="M730 200l-280 558l-280 -558h-45l300 600h50l300 -600h-45z" />
    <glyph glyph-name="asciitilde" unicode="~" horiz-adv-x="900" 
d="M627 210q-60 0 -103.5 41t-84.5 120q-54 104 -88.5 139t-81.5 35q-49 0 -74 -43.5t-25 -128.5v-153h-50v159q0 99 41.5 155t113.5 56q60 0 103.5 -40t83.5 -120q53 -104 87 -140t82 -36q49 0 74 44t25 130v152h50v-159q0 -99 -40.5 -155t-112.5 -56z" />
    <glyph glyph-name="acute" unicode="&#xb4;" 
d="M283 700zM283 700l146 200h80l-185 -200h-41z" />
    <glyph glyph-name="grave" unicode="`" 
d="M405 450l-175 350h99l120 -350h-44z" />
    <glyph glyph-name="hungarumlaut" unicode="&#x2dd;" 
d="M236 700zM426 700l56 200h90l-105 -200h-41zM236 700l56 200h90l-105 -200h-41z" />
    <glyph glyph-name="circumflex" unicode="&#x2c6;" 
d="M160 722zM181 722l-21 27l173 168h32l174 -168l-21 -27l-169 148z" />
    <glyph glyph-name="caron" unicode="&#x2c7;" 
d="M160 704zM334 704l-174 168l21 27l169 -148l168 148l21 -27l-173 -168h-32z" />
    <glyph glyph-name="breve" unicode="&#x2d8;" 
d="M148 693zM350 693q-98 0 -149.5 54t-52.5 156h50q2 -87 38 -126t114 -39t114 39t38 126h50q-1 -102 -52.5 -156t-149.5 -54z" />
    <glyph glyph-name="tilde" unicode="&#x2dc;" 
d="M165 710zM437 710q-33 0 -56.5 19.5t-51.5 70.5q-20 40 -34.5 55t-31.5 15q-31 0 -44.5 -33.5t-11.5 -105.5v-11h-42v15q0 87 24.5 131t73.5 44q34 0 56.5 -18t47.5 -67q24 -43 39 -59t31 -16q29 0 42.5 33.5t13.5 105.5v11h42v-15q0 -87 -24.5 -131t-73.5 -44z" />
    <glyph glyph-name="macron" unicode="&#x2c9;" 
d="M175 780zM175 780v45h350v-45h-350z" />
    <glyph glyph-name="macron" unicode="&#xaf;" 
d="M175 780zM175 780v45h350v-45h-350z" />
    <glyph glyph-name="dieresis" unicode="&#xa8;" 
d="M200 730zM245 730q-20 0 -32.5 7.5t-12.5 29.5v7q0 22 12.5 30.5t32.5 8.5t32.5 -8.5t12.5 -30.5v-7q0 -22 -13 -29.5t-32 -7.5zM455 730q-20 0 -32.5 7.5t-12.5 29.5v7q0 22 12.5 30.5t32.5 8.5t32.5 -8.5t12.5 -30.5v-7q0 -22 -13 -29.5t-32 -7.5z" />
    <glyph glyph-name="dotaccent" unicode="&#x2d9;" 
d="M300 730zM350 730q-22 0 -36 8t-14 29v7q0 22 14 30.5t36 8.5t36 -8.5t14 -30.5v-7q0 -21 -14 -29t-36 -8z" />
    <glyph glyph-name="ring" unicode="&#x2da;" 
d="M210 685zM350 685q-68 0 -104 37t-36 108v32q0 72 36 110t104 38t104 -38t36 -110v-32q0 -71 -36 -108t-104 -37zM350 726q49 0 70.5 25t21.5 79v32q0 56 -21.5 81.5t-70.5 25.5t-70.5 -25.5t-21.5 -81.5v-32q0 -54 21.5 -79t70.5 -25z" />
    <glyph glyph-name="cedilla" unicode="&#xb8;" 
d="M185 0zM320 0l10 22q60 -11 92 -43t32 -80q0 -54 -36 -84.5t-100 -30.5q-57 0 -93 25.5t-40 85.5l48 4q4 -40 22.5 -56.5t57.5 -16.5q50 0 70.5 17t20.5 59q0 40 -19.5 62.5t-64.5 35.5z" />
    <glyph glyph-name="ogonek" unicode="&#x2db;" 
d="M274 0zM405 -215q-59 0 -95 30t-36 79q0 43 31.5 80.5t86.5 59.5l12 -11q-41 -25 -60.5 -53t-19.5 -63q0 -40 20.5 -58.5t66.5 -18.5q21 0 38 2t36 6v-45q-19 -4 -41 -6t-39 -2z" />
    <glyph glyph-name="tonos" unicode="&#x384;" 
d="M296 700zM296 700l86 200h80l-125 -200h-41z" />
    <glyph glyph-name="dieresistonos" unicode="&#x385;" 
d="M140 700zM296 700l66 200h60l-85 -200h-41zM175 720q-16 0 -25.5 7.5t-9.5 29.5v7q0 22 9.5 30.5t25.5 8.5t25.5 -8.5t9.5 -30.5v-7q0 -22 -10 -29.5t-25 -7.5zM525 720q-16 0 -25.5 7.5t-9.5 29.5v7q0 22 9.5 30.5t25.5 8.5t25.5 -8.5t9.5 -30.5v-7q0 -22 -10 -29.5
t-25 -7.5z" />
    <glyph glyph-name="copyright" unicode="&#xa9;" horiz-adv-x="1200" 
d="M600 -110q-195 0 -290 90.5t-95 276.5v222q0 188 95 279.5t291 91.5q195 0 289.5 -91.5t94.5 -279.5v-222q0 -186 -95 -276.5t-290 -90.5zM600 -72q184 0 264.5 81t80.5 268v182q0 188 -80.5 270.5t-264.5 82.5t-264.5 -82.5t-80.5 -270.5v-182q0 -187 80.5 -268
t264.5 -81zM609 100q-101 0 -150 50t-49 154v135q0 102 49 151.5t149 49.5q92 0 135.5 -42.5t49.5 -131.5l-43 -3q-5 82 -37 109t-106 27q-76 0 -111.5 -35t-35.5 -119v-150q0 -83 35.5 -118.5t113.5 -35.5q72 0 104 24.5t37 102.5l43 -3q-6 -85 -49.5 -125t-134.5 -40z" />
    <glyph glyph-name="registered" unicode="&#xae;" horiz-adv-x="800" 
d="M400 138q-146 0 -216.5 67t-70.5 206v173q0 140 71 208t217 68t216 -68t70 -208v-173q0 -139 -70.5 -206t-216.5 -67zM400 175q134 0 193 57.5t59 188.5v153q0 134 -59 192t-193 58t-193 -58t-59 -192v-153q0 -131 59 -188.5t193 -57.5zM326 479h103q34 0 51.5 16.5
t17.5 47.5v28q0 37 -17.5 55.5t-51.5 18.5h-103v-166zM326 323h-39v358h142q54 0 81.5 -28t27.5 -82v-28q0 -40 -21 -65t-61 -32l91 -123h-48l-89 120h-84v-120z" />
    <glyph glyph-name="trademark" unicode="&#x2122;" horiz-adv-x="1400" 
d="M362 351v411h-172v38h372v-38h-161v-411h-39zM740 710v-359h-39v449h29l191 -319l188 319h31v-449h-39l-2 362l-162 -275h-32z" />
    <glyph glyph-name="degree" unicode="&#xb0;" horiz-adv-x="600" 
d="M300 346q-78 0 -126.5 44.5t-48.5 137.5v93q0 93 48.5 139t126.5 46q80 0 127.5 -46t47.5 -139v-93q0 -93 -48.5 -137.5t-126.5 -44.5zM300 388q63 0 96.5 32t33.5 108v93q0 73 -33.5 108t-96.5 35q-66 0 -98 -35t-32 -108v-93q0 -76 32 -108t98 -32z" />
    <glyph glyph-name="careof" unicode="&#x2105;" horiz-adv-x="1100" 
d="M275 0l500 800h50l-500 -800h-50zM422 495q-13 -54 -52.5 -80.5t-94.5 -26.5q-69 0 -112 40.5t-43 124.5v90q0 85 43 126t112 41q57 0 96 -27t52 -84l-49 -9q-9 38 -35 56.5t-64 18.5q-48 0 -76.5 -29t-28.5 -91v-94q0 -62 28.5 -90t76.5 -28q38 0 64 17.5t35 55.5z
M825 -12q-69 0 -112 40.5t-43 124.5v90q0 85 43 126t112 41t111.5 -41t42.5 -126v-90q0 -84 -42.5 -124.5t-111.5 -40.5zM825 33q48 0 76 28t28 90v94q0 62 -28 91t-76 29t-76.5 -29t-28.5 -91v-94q0 -62 28.5 -90t76.5 -28z" />
    <glyph glyph-name="uni2117" unicode="&#x2117;" horiz-adv-x="1200" 
d="M600 -110q-190 0 -287.5 93t-97.5 274v222q0 184 97.5 277.5t288.5 93.5q190 0 287 -93.5t97 -277.5v-222q0 -181 -97.5 -274t-287.5 -93zM600 -72q182 0 263.5 82.5t81.5 266.5v182q0 187 -81.5 270t-263.5 83t-263.5 -83t-81.5 -270v-182q0 -184 81.5 -266.5
t263.5 -82.5zM453 122v504h187q78 0 119 -42t41 -121v-38q0 -74 -41 -113t-119 -39h-137v-151h-50zM503 314h137q57 0 83.5 26.5t26.5 84.5v38q0 63 -26.5 92.5t-83.5 29.5h-137v-271z" />
    <glyph glyph-name="estimated" unicode="&#x212e;" horiz-adv-x="1000" 
d="M495 -12q-180 0 -288.5 122.5t-108.5 291.5q0 171 107 292t294 121t291.5 -138t108.5 -327h-607v-210q38 -33 90.5 -52.5t112.5 -19.5q107 0 183 38.5t120 107.5l48 -60q-51 -79 -139.5 -122.5t-211.5 -43.5zM292 430h409v230q-38 31 -89 53t-115 22q-59 0 -112.5 -18.5
t-92.5 -53.5v-233z" />
    <glyph glyph-name="arrowupdn" unicode="&#x2195;" horiz-adv-x="900" 
d="M460 -100h-20l-315 330v20h300v300h-300v20l315 330h20l315 -330v-20h-300v-300h300v-20z" />
    <glyph glyph-name="arrowupdnbse" unicode="&#x21a8;" horiz-adv-x="900" 
d="M100 0zM460 -100h-20l-315 330v20h300v300h-300v20l315 330h20l315 -330v-20h-300v-300h300v-20zM100 -175v50h700v-50h-700z" />
    <glyph glyph-name="logicalnotreversed" unicode="&#x2310;" horiz-adv-x="900" 
d="M125 0v400h675v-50h-625v-350h-50z" />
    <glyph glyph-name="lighthorzbxd" unicode="&#x2500;" horiz-adv-x="1100" 
d="M-20 325h1140v-50h-1140v50z" />
    <glyph glyph-name="heavyhorzbxd" unicode="&#x2501;" horiz-adv-x="1100" 
d="M-20 350h1140v-100h-1140v100z" />
    <glyph glyph-name="lightvertbxd" unicode="&#x2502;" horiz-adv-x="1100" 
d="M525 1050h50v-1500h-50v1500z" />
    <glyph glyph-name="heavyvertbxd" unicode="&#x2503;" horiz-adv-x="1100" 
d="M500 1050h100v-1500h-100v1500z" />
    <glyph glyph-name="lighttrpldashhorzbxd" unicode="&#x2504;" horiz-adv-x="1100" 
d="M61 325h244v-50h-244v50zM427 325h244v-50h-244v50zM793 325h244v-50h-244v50z" />
    <glyph glyph-name="heavytrpldashhorzbxd" unicode="&#x2505;" horiz-adv-x="1100" 
d="M61 350h244v-100h-244v100zM427 350h244v-100h-244v100zM793 350h244v-100h-244v100z" />
    <glyph glyph-name="lighttrpldashvertbxd" unicode="&#x2506;" horiz-adv-x="1100" 
d="M525 55h50v-244h-50v244zM525 421h50v-244h-50v244zM525 787h50v-244h-50v244zM525 1153h50v-244h-50v244z" />
    <glyph glyph-name="heavytrpldashvertbxd" unicode="&#x2507;" horiz-adv-x="1100" 
d="M500 55h100v-244h-100v244zM500 421h100v-244h-100v244zM500 787h100v-244h-100v244zM500 1153h100v-244h-100v244z" />
    <glyph glyph-name="lightquaddashhorzbxd" unicode="&#x2508;" horiz-adv-x="1100" 
d="M34 325h207v-50h-207v50zM309 325h207v-50h-207v50zM584 325h207v-50h-207v50zM859 325h207v-50h-207v50z" />
    <glyph glyph-name="heavyquaddashhorzbxd" unicode="&#x2509;" horiz-adv-x="1100" 
d="M34 350h207v-100h-207v100zM309 350h207v-100h-207v100zM584 350h207v-100h-207v100zM859 350h207v-100h-207v100z" />
    <glyph glyph-name="lightquaddashvertbxd" unicode="&#x250a;" horiz-adv-x="1100" 
d="M525 -9h50v-207h-50v207zM525 266h50v-207h-50v207zM525 541h50v-207h-50v207zM525 816h50v-207h-50v207z" />
    <glyph glyph-name="heavyquaddashvertbxd" unicode="&#x250b;" horiz-adv-x="1100" 
d="M500 -9h100v-207h-100v207zM500 266h100v-207h-100v207zM500 541h100v-207h-100v207zM500 816h100v-207h-100v207z" />
    <glyph glyph-name="lightdnrightbxd" unicode="&#x250c;" horiz-adv-x="1100" 
d="M525 325h595v-50h-545v-725h-50v775z" />
    <glyph glyph-name="dnlightrightheavybxd" unicode="&#x250d;" horiz-adv-x="1100" 
d="M525 350h595v-100h-545v-700h-50v800z" />
    <glyph glyph-name="dnheavyrightlightbxd" unicode="&#x250e;" horiz-adv-x="1100" 
d="M500 325h620v-50h-520v-725h-100v775z" />
    <glyph glyph-name="heavydnrightbxd" unicode="&#x250f;" horiz-adv-x="1100" 
d="M500 350h620v-100h-520v-700h-100v800z" />
    <glyph glyph-name="lightdnleftbxd" unicode="&#x2510;" horiz-adv-x="1100" 
d="M-20 325h595v-775h-50v725h-545v50z" />
    <glyph glyph-name="dnlightleftheavybxd" unicode="&#x2511;" horiz-adv-x="1100" 
d="M-20 350h595v-800h-50v700h-545v100z" />
    <glyph glyph-name="dnheavyleftlightbxd" unicode="&#x2512;" horiz-adv-x="1100" 
d="M-20 325h620v-775h-100v725h-520v50z" />
    <glyph glyph-name="heavydnleftbxd" unicode="&#x2513;" horiz-adv-x="1100" 
d="M-20 350h620v-800h-100v700h-520v100z" />
    <glyph glyph-name="lightuprightbxd" unicode="&#x2514;" horiz-adv-x="1100" 
d="M525 1050h50v-725h545v-50h-595v775z" />
    <glyph glyph-name="uplightrightheavybxd" unicode="&#x2515;" horiz-adv-x="1100" 
d="M525 1050h50v-700h545v-100h-595v800z" />
    <glyph glyph-name="upheavyrightlightbxd" unicode="&#x2516;" horiz-adv-x="1100" 
d="M500 1050h100v-725h520v-50h-620v775z" />
    <glyph glyph-name="heavyuprightbxd" unicode="&#x2517;" horiz-adv-x="1100" 
d="M500 1050h100v-700h520v-100h-620v800z" />
    <glyph glyph-name="lightupleftbxd" unicode="&#x2518;" horiz-adv-x="1100" 
d="M-20 325h545v725h50v-775h-595v50z" />
    <glyph glyph-name="uplightleftheavybxd" unicode="&#x2519;" horiz-adv-x="1100" 
d="M-20 350h545v700h50v-800h-595v100z" />
    <glyph glyph-name="upheavyleftlightbxd" unicode="&#x251a;" horiz-adv-x="1100" 
d="M-20 325h520v725h100v-775h-620v50z" />
    <glyph glyph-name="heavyupleftbxd" unicode="&#x251b;" horiz-adv-x="1100" 
d="M-20 350h520v700h100v-800h-620v100z" />
    <glyph glyph-name="lightvertrightbxd" unicode="&#x251c;" horiz-adv-x="1100" 
d="M525 1050h50v-725h545v-50h-545v-725h-50v1500z" />
    <glyph glyph-name="vertlightrightheavybxd" unicode="&#x251d;" horiz-adv-x="1100" 
d="M525 1050h50v-700h545v-100h-545v-700h-50v1500z" />
    <glyph glyph-name="upheavyrightdnlightbxd" unicode="&#x251e;" horiz-adv-x="1100" 
d="M500 1050h100v-725h520v-50h-545v-725h-50v725h-25v775z" />
    <glyph glyph-name="dnheavyrightuplightbxd" unicode="&#x251f;" horiz-adv-x="1100" 
d="M500 325h25v725h50v-725h545v-50h-520v-725h-100v775z" />
    <glyph glyph-name="vertheavyrightlightbxd" unicode="&#x2520;" horiz-adv-x="1100" 
d="M500 1050h100v-725h520v-50h-520v-725h-100v1500z" />
    <glyph glyph-name="dnlightrightupheavybxd" unicode="&#x2521;" horiz-adv-x="1100" 
d="M500 1050h100v-700h520v-100h-545v-700h-50v700h-25v800z" />
    <glyph glyph-name="uplightrightdnheavybxd" unicode="&#x2522;" horiz-adv-x="1100" 
d="M500 350h25v700h50v-700h545v-100h-520v-700h-100v800z" />
    <glyph glyph-name="heavyvertrightbxd" unicode="&#x2523;" horiz-adv-x="1100" 
d="M500 1050h100v-700h520v-100h-520v-700h-100v1500z" />
    <glyph glyph-name="lightvertleftbxd" unicode="&#x2524;" horiz-adv-x="1100" 
d="M-20 325h545v725h50v-1500h-50v725h-545v50z" />
    <glyph glyph-name="vertlightleftheavybxd" unicode="&#x2525;" horiz-adv-x="1100" 
d="M-20 350h545v700h50v-1500h-50v700h-545v100z" />
    <glyph glyph-name="upheavyleftdnlightbxd" unicode="&#x2526;" horiz-adv-x="1100" 
d="M-20 325h520v725h100v-775h-25v-725h-50v725h-545v50z" />
    <glyph glyph-name="dnheavyleftuplightbxd" unicode="&#x2527;" horiz-adv-x="1100" 
d="M-20 325h545v725h50v-725h25v-775h-100v725h-520v50z" />
    <glyph glyph-name="vertheavyleftlightbxd" unicode="&#x2528;" horiz-adv-x="1100" 
d="M-20 325h520v725h100v-1500h-100v725h-520v50z" />
    <glyph glyph-name="dnlightleftupheavybxd" unicode="&#x2529;" horiz-adv-x="1100" 
d="M-20 350h520v700h100v-800h-25v-700h-50v700h-545v100z" />
    <glyph glyph-name="uplightleftdnheavybxd" unicode="&#x252a;" horiz-adv-x="1100" 
d="M-20 350h545v700h50v-700h25v-800h-100v700h-520v100z" />
    <glyph glyph-name="heavyvertleftbxd" unicode="&#x252b;" horiz-adv-x="1100" 
d="M-20 350h520v700h100v-1500h-100v700h-520v100z" />
    <glyph glyph-name="lightdnhorzbxd" unicode="&#x252c;" horiz-adv-x="1100" 
d="M-20 325h1140v-50h-545v-725h-50v725h-545v50z" />
    <glyph glyph-name="leftheavyrightdnlightbxd" unicode="&#x252d;" horiz-adv-x="1100" 
d="M-20 350h595v-25h545v-50h-545v-725h-50v700h-545v100z" />
    <glyph glyph-name="rightheavyleftdnlightbxd" unicode="&#x252e;" horiz-adv-x="1100" 
d="M-20 325h545v25h595v-100h-545v-700h-50v725h-545v50z" />
    <glyph glyph-name="dnlighthorzheavybxd" unicode="&#x252f;" horiz-adv-x="1100" 
d="M-20 350h1140v-100h-545v-700h-50v700h-545v100z" />
    <glyph glyph-name="dnheavyhorzlightbxd" unicode="&#x2530;" horiz-adv-x="1100" 
d="M-20 325h1140v-50h-520v-725h-100v725h-520v50z" />
    <glyph glyph-name="rightlightleftdnheavybxd" unicode="&#x2531;" horiz-adv-x="1100" 
d="M-20 350h620v-25h520v-50h-520v-725h-100v700h-520v100z" />
    <glyph glyph-name="leftlightrightdnheavybxd" unicode="&#x2532;" horiz-adv-x="1100" 
d="M-20 325h520v25h620v-100h-520v-700h-100v725h-520v50z" />
    <glyph glyph-name="heavydnhorzbxd" unicode="&#x2533;" horiz-adv-x="1100" 
d="M-20 350h1140v-100h-520v-700h-100v700h-520v100z" />
    <glyph glyph-name="lightuphorzbxd" unicode="&#x2534;" horiz-adv-x="1100" 
d="M-20 325h545v725h50v-725h545v-50h-1140v50z" />
    <glyph glyph-name="leftheavyrightuplightbxd" unicode="&#x2535;" horiz-adv-x="1100" 
d="M-20 350h545v700h50v-725h545v-50h-545v-25h-595v100z" />
    <glyph glyph-name="rightheavyleftuplightbxd" unicode="&#x2536;" horiz-adv-x="1100" 
d="M-20 325h545v725h50v-700h545v-100h-595v25h-545v50z" />
    <glyph glyph-name="uplighthorzheavybxd" unicode="&#x2537;" horiz-adv-x="1100" 
d="M-20 350h545v700h50v-700h545v-100h-1140v100z" />
    <glyph glyph-name="upheavyhorzlightbxd" unicode="&#x2538;" horiz-adv-x="1100" 
d="M-20 325h520v725h100v-725h520v-50h-1140v50z" />
    <glyph glyph-name="rightlightleftupheavybxd" unicode="&#x2539;" horiz-adv-x="1100" 
d="M-20 350h520v700h100v-725h520v-50h-520v-25h-620v100z" />
    <glyph glyph-name="leftlightrightupheavybxd" unicode="&#x253a;" horiz-adv-x="1100" 
d="M-20 325h520v725h100v-700h520v-100h-620v25h-520v50z" />
    <glyph glyph-name="heavyuphorzbxd" unicode="&#x253b;" horiz-adv-x="1100" 
d="M-20 350h520v700h100v-700h520v-100h-1140v100z" />
    <glyph glyph-name="lightverthorzbxd" unicode="&#x253c;" horiz-adv-x="1100" 
d="M-20 325h545v725h50v-725h545v-50h-545v-725h-50v725h-545v50z" />
    <glyph glyph-name="leftheavyrightvertlightbxd" unicode="&#x253d;" horiz-adv-x="1100" 
d="M-20 350h545v700h50v-725h545v-50h-545v-725h-50v700h-545v100z" />
    <glyph glyph-name="rightheavyleftvertlightbxd" unicode="&#x253e;" horiz-adv-x="1100" 
d="M-20 325h545v725h50v-700h545v-100h-545v-700h-50v725h-545v50z" />
    <glyph glyph-name="vertlighthorzheavybxd" unicode="&#x253f;" horiz-adv-x="1100" 
d="M-20 350h545v700h50v-700h545v-100h-545v-700h-50v700h-545v100z" />
    <glyph glyph-name="upheavydnhorzlightbxd" unicode="&#x2540;" horiz-adv-x="1100" 
d="M-20 325h520v725h100v-725h520v-50h-545v-725h-50v725h-545v50z" />
    <glyph glyph-name="dnheavyuphorzlightbxd" unicode="&#x2541;" horiz-adv-x="1100" 
d="M-20 325h545v725h50v-725h545v-50h-520v-725h-100v725h-520v50z" />
    <glyph glyph-name="vertheavyhorzlightbxd" unicode="&#x2542;" horiz-adv-x="1100" 
d="M-20 325h520v725h100v-725h520v-50h-520v-725h-100v725h-520v50z" />
    <glyph glyph-name="leftupheavyrightdnlightbxd" unicode="&#x2543;" horiz-adv-x="1100" 
d="M-20 350h520v700h100v-725h520v-50h-520v-25h-25v-700h-50v700h-545v100z" />
    <glyph glyph-name="rightupheavyleftdnlightbxd" unicode="&#x2544;" horiz-adv-x="1100" 
d="M-20 325h520v725h100v-700h520v-100h-545v-700h-50v700h-25v25h-520v50z" />
    <glyph glyph-name="leftdnheavyrightuplightbxd" unicode="&#x2545;" horiz-adv-x="1100" 
d="M-20 350h545v700h50v-700h25v-25h520v-50h-520v-725h-100v700h-520v100z" />
    <glyph glyph-name="rightdnheavyleftuplightbxd" unicode="&#x2546;" horiz-adv-x="1100" 
d="M-20 325h520v25h25v700h50v-700h545v-100h-520v-700h-100v725h-520v50z" />
    <glyph glyph-name="dnlightuphorzheavybxd" unicode="&#x2547;" horiz-adv-x="1100" 
d="M-20 350h520v700h100v-700h520v-100h-545v-700h-50v700h-545v100z" />
    <glyph glyph-name="uplightdnhorzheavybxd" unicode="&#x2548;" horiz-adv-x="1100" 
d="M-20 350h545v700h50v-700h545v-100h-520v-700h-100v700h-520v100z" />
    <glyph glyph-name="rightlightleftvertheavybxd" unicode="&#x2549;" horiz-adv-x="1100" 
d="M-20 350h520v700h100v-725h520v-50h-520v-725h-100v700h-520v100z" />
    <glyph glyph-name="leftlightrightvertheavybxd" unicode="&#x254a;" horiz-adv-x="1100" 
d="M-20 325h520v725h100v-700h520v-100h-520v-700h-100v725h-520v50z" />
    <glyph glyph-name="heavyverthorzbxd" unicode="&#x254b;" horiz-adv-x="1100" 
d="M-20 350h520v700h100v-700h520v-100h-520v-700h-100v700h-520v100z" />
    <glyph glyph-name="lightdbldashhorzbxd" unicode="&#x254c;" horiz-adv-x="1100" 
d="M137 325h275v-50h-275v50zM687 325h275v-50h-275v50z" />
    <glyph glyph-name="heavydbldashhorzbxd" unicode="&#x254d;" horiz-adv-x="1100" 
d="M137 350h275v-100h-275v100zM687 350h275v-100h-275v100z" />
    <glyph glyph-name="lightdbldashvertbxd" unicode="&#x254e;" horiz-adv-x="1100" 
d="M525 162h50v-275h-50v275zM525 712h50v-275h-50v275z" />
    <glyph glyph-name="heavydbldashvertbxd" unicode="&#x254f;" horiz-adv-x="1100" 
d="M500 162h100v-275h-100v275zM500 712h100v-275h-100v275z" />
    <glyph glyph-name="dblhorzbxd" unicode="&#x2550;" horiz-adv-x="1100" 
d="M-20 375h1140v-50h-1140v50zM-20 275h1140v-50h-1140v50z" />
    <glyph glyph-name="dblvertbxd" unicode="&#x2551;" horiz-adv-x="1100" 
d="M475 1050h50v-1500h-50v1500zM575 1050h50v-1500h-50v1500z" />
    <glyph glyph-name="dnsngrightdblbxd" unicode="&#x2552;" horiz-adv-x="1100" 
d="M525 375h595v-50h-545v-50h545v-50h-545v-675h-50v825z" />
    <glyph glyph-name="dndblrightsngbxd" unicode="&#x2553;" horiz-adv-x="1100" 
d="M475 325h645v-50h-495v-725h-50v725h-50v-725h-50v775z" />
    <glyph glyph-name="dbldnrightbxd" unicode="&#x2554;" horiz-adv-x="1100" 
d="M475 375h645v-50h-595v-775h-50v825zM575 275h545v-50h-495v-675h-50v725z" />
    <glyph glyph-name="dnsngleftdblbxd" unicode="&#x2555;" horiz-adv-x="1100" 
d="M-20 375h595v-825h-50v675h-545v50h545v50h-545v50z" />
    <glyph glyph-name="dndblleftsngbxd" unicode="&#x2556;" horiz-adv-x="1100" 
d="M-20 325h645v-775h-50v725h-50v-725h-50v725h-495v50z" />
    <glyph glyph-name="dbldnleftbxd" unicode="&#x2557;" horiz-adv-x="1100" 
d="M-20 375h645v-825h-50v775h-595v50zM-20 275h545v-725h-50v675h-495v50z" />
    <glyph glyph-name="upsngrightdblbxd" unicode="&#x2558;" horiz-adv-x="1100" 
d="M525 1050h50v-675h545v-50h-545v-50h545v-50h-595v825z" />
    <glyph glyph-name="updblrightsngbxd" unicode="&#x2559;" horiz-adv-x="1100" 
d="M475 1050h50v-725h50v725h50v-725h495v-50h-645v775z" />
    <glyph glyph-name="dbluprightbxd" unicode="&#x255a;" horiz-adv-x="1100" 
d="M475 1050h50v-775h595v-50h-645v825zM575 1050h50v-675h495v-50h-545v725z" />
    <glyph glyph-name="upsngleftdblbxd" unicode="&#x255b;" horiz-adv-x="1100" 
d="M-20 375h545v675h50v-825h-595v50h545v50h-545v50z" />
    <glyph glyph-name="updblleftsngbxd" unicode="&#x255c;" horiz-adv-x="1100" 
d="M-20 325h495v725h50v-725h50v725h50v-775h-645v50z" />
    <glyph glyph-name="dblupleftbxd" unicode="&#x255d;" horiz-adv-x="1100" 
d="M-20 275h595v775h50v-825h-645v50zM-20 375h495v675h50v-725h-545v50z" />
    <glyph glyph-name="vertsngrightdblbxd" unicode="&#x255e;" horiz-adv-x="1100" 
d="M525 1050h50v-675h545v-50h-545v-50h545v-50h-545v-675h-50v1500z" />
    <glyph glyph-name="vertdblrightsngbxd" unicode="&#x255f;" horiz-adv-x="1100" 
d="M575 1050h50v-725h495v-50h-495v-725h-50v1500zM475 1050h50v-1500h-50v1500z" />
    <glyph glyph-name="dblvertrightbxd" unicode="&#x2560;" horiz-adv-x="1100" 
d="M475 1050h50v-1500h-50v1500zM575 1050h50v-675h495v-50h-545v725zM575 275h545v-50h-495v-675h-50v725z" />
    <glyph glyph-name="vertsngleftdblbxd" unicode="&#x2561;" horiz-adv-x="1100" 
d="M-20 375h545v675h50v-1500h-50v675h-545v50h545v50h-545v50z" />
    <glyph glyph-name="vertdblleftsngbxd" unicode="&#x2562;" horiz-adv-x="1100" 
d="M-20 325h495v725h50v-1500h-50v725h-495v50zM575 1050h50v-1500h-50v1500z" />
    <glyph glyph-name="dblvertleftbxd" unicode="&#x2563;" horiz-adv-x="1100" 
d="M575 1050h50v-1500h-50v1500zM-20 275h545v-725h-50v675h-495v50zM-20 375h495v675h50v-725h-545v50z" />
    <glyph glyph-name="dnsnghorzdblbxd" unicode="&#x2564;" horiz-adv-x="1100" 
d="M-20 275h1140v-50h-545v-675h-50v675h-545v50zM-20 375h1140v-50h-1140v50z" />
    <glyph glyph-name="dndblhorzsngbxd" unicode="&#x2565;" horiz-adv-x="1100" 
d="M-20 325h1140v-50h-495v-725h-50v725h-50v-725h-50v725h-495v50z" />
    <glyph glyph-name="dbldnhorzbxd" unicode="&#x2566;" horiz-adv-x="1100" 
d="M-20 275h545v-725h-50v675h-495v50zM575 275h545v-50h-495v-675h-50v725zM-20 375h1140v-50h-1140v50z" />
    <glyph glyph-name="upsnghorzdblbxd" unicode="&#x2567;" horiz-adv-x="1100" 
d="M-20 375h545v675h50v-675h545v-50h-1140v50zM-20 275h1140v-50h-1140v50z" />
    <glyph glyph-name="updblhorzsngbxd" unicode="&#x2568;" horiz-adv-x="1100" 
d="M-20 325h495v725h50v-725h50v725h50v-725h495v-50h-1140v50z" />
    <glyph glyph-name="dbluphorzbxd" unicode="&#x2569;" horiz-adv-x="1100" 
d="M-20 375h495v675h50v-725h-545v50zM575 1050h50v-675h495v-50h-545v725zM-20 275h1140v-50h-1140v50z" />
    <glyph glyph-name="vertsnghorzdblbxd" unicode="&#x256a;" horiz-adv-x="1100" 
d="M-20 375h545v675h50v-675h545v-50h-545v-50h545v-50h-545v-675h-50v675h-545v50h545v50h-545v50z" />
    <glyph glyph-name="vertdblhorzsngbxd" unicode="&#x256b;" horiz-adv-x="1100" 
d="M-20 325h495v725h50v-725h50v725h50v-725h495v-50h-495v-725h-50v725h-50v-725h-50v725h-495v50z" />
    <glyph glyph-name="dblverthorzbxd" unicode="&#x256c;" horiz-adv-x="1100" 
d="M-20 375h495v675h50v-725h-545v50zM-20 275h545v-725h-50v675h-495v50zM575 1050h50v-675h495v-50h-545v725zM575 275h545v-50h-495v-675h-50v725z" />
    <glyph glyph-name="lightarcdnrightbxd" unicode="&#x256d;" horiz-adv-x="1100" 
d="M525 -250q0 119 45 224t123 183t183 123t224 45h20v-50h-20q-109 0 -204.5 -41.5t-167 -112.5t-112.5 -166.5t-41 -204.5v-200h-50v200z" />
    <glyph glyph-name="lightarcdnleftbxd" unicode="&#x256e;" horiz-adv-x="1100" 
d="M575 -450h-50v200q0 109 -41.5 204.5t-112.5 166.5t-166.5 112.5t-204.5 41.5h-20v50h20q119 0 224 -45t183 -123t123 -183t45 -224v-200z" />
    <glyph glyph-name="lightarcupleftbxd" unicode="&#x256f;" horiz-adv-x="1100" 
d="M575 850q0 -119 -45 -224t-123 -183t-183 -123t-224 -45h-20v50h20q109 0 204.5 41t166.5 112.5t112.5 167t41.5 204.5v200h50v-200z" />
    <glyph glyph-name="lightarcuprightbxd" unicode="&#x2570;" horiz-adv-x="1100" 
d="M525 1050h50v-200q0 -109 41 -204.5t112.5 -167t167 -112.5t204.5 -41h20v-50h-20q-119 0 -224 45t-183 123t-123 183t-45 224v200z" />
    <glyph glyph-name="lightdiaguprightdnleftbxd" unicode="&#x2571;" horiz-adv-x="1100" 
d="M1065 850h35v-35l-1065 -1065h-35v35z" />
    <glyph glyph-name="lightdiagupleftdnrightbxd" unicode="&#x2572;" horiz-adv-x="1100" 
d="M1100 -215v-35h-35l-1065 1065v35h35z" />
    <glyph glyph-name="lightdiagcrossbxd" unicode="&#x2573;" horiz-adv-x="1100" 
d="M515 300l-515 515v35h35l515 -515l515 515h35v-35l-515 -515l515 -515v-35h-35l-515 515l-515 -515h-35v35z" />
    <glyph glyph-name="lightleftbxd" unicode="&#x2574;" horiz-adv-x="1100" 
d="M-20 325h595v-50h-595v50z" />
    <glyph glyph-name="lightupbxd" unicode="&#x2575;" horiz-adv-x="1100" 
d="M525 1050h50v-775h-50v775z" />
    <glyph glyph-name="lightrightbxd" unicode="&#x2576;" horiz-adv-x="1100" 
d="M525 325h595v-50h-595v50z" />
    <glyph glyph-name="lightdnbxd" unicode="&#x2577;" horiz-adv-x="1100" 
d="M525 325h50v-775h-50v775z" />
    <glyph glyph-name="heavyleftbxd" unicode="&#x2578;" horiz-adv-x="1100" 
d="M-20 350h595v-100h-595v100z" />
    <glyph glyph-name="heavyupbxd" unicode="&#x2579;" horiz-adv-x="1100" 
d="M500 1050h100v-775h-100v775z" />
    <glyph glyph-name="heavyrightbxd" unicode="&#x257a;" horiz-adv-x="1100" 
d="M525 350h595v-100h-595v100z" />
    <glyph glyph-name="heavydnbxd" unicode="&#x257b;" horiz-adv-x="1100" 
d="M500 325h100v-775h-100v775z" />
    <glyph glyph-name="lightleftheavyrightbxd" unicode="&#x257c;" horiz-adv-x="1100" 
d="M-20 325h545v25h595v-100h-595v25h-545v50z" />
    <glyph glyph-name="lightupheavydnbxd" unicode="&#x257d;" horiz-adv-x="1100" 
d="M500 325h25v725h50v-725h25v-775h-100v775z" />
    <glyph glyph-name="heavyleftlightrightbxd" unicode="&#x257e;" horiz-adv-x="1100" 
d="M-20 350h595v-25h545v-50h-545v-25h-595v100z" />
    <glyph glyph-name="heavyuplightdnbxd" unicode="&#x257f;" horiz-adv-x="1100" 
d="M500 1050h100v-775h-25v-725h-50v725h-25v775z" />
    <glyph glyph-name="uphalfblock" unicode="&#x2580;" horiz-adv-x="1100" 
d="M0 850h1100v-550h-1100v550z" />
    <glyph glyph-name="dneighthblock" unicode="&#x2581;" horiz-adv-x="1100" 
d="M0 -113h1100v-137h-1100v137z" />
    <glyph glyph-name="dnquarterblock" unicode="&#x2582;" horiz-adv-x="1100" 
d="M0 25h1100v-275h-1100v275z" />
    <glyph glyph-name="dnthreeeighthsblock" unicode="&#x2583;" horiz-adv-x="1100" 
d="M0 162h1100v-412h-1100v412z" />
    <glyph glyph-name="dnhalfblock" unicode="&#x2584;" horiz-adv-x="1100" 
d="M0 300h1100v-550h-1100v550z" />
    <glyph glyph-name="dnfiveeighthsblock" unicode="&#x2585;" horiz-adv-x="1100" 
d="M0 437h1100v-687h-1100v687z" />
    <glyph glyph-name="dnthreequartersblock" unicode="&#x2586;" horiz-adv-x="1100" 
d="M0 575h1100v-825h-1100v825z" />
    <glyph glyph-name="dnseveneighthsblock" unicode="&#x2587;" horiz-adv-x="1100" 
d="M0 712h1100v-962h-1100v962z" />
    <glyph glyph-name="fullblock" unicode="&#x2588;" horiz-adv-x="1100" 
d="M0 850h1100v-1100h-1100v1100z" />
    <glyph glyph-name="leftseveneighthsblock" unicode="&#x2589;" horiz-adv-x="1100" 
d="M0 850h962v-1100h-962v1100z" />
    <glyph glyph-name="leftthreequartersblock" unicode="&#x258a;" horiz-adv-x="1100" 
d="M0 850h825v-1100h-825v1100z" />
    <glyph glyph-name="leftfiveeighthsblock" unicode="&#x258b;" horiz-adv-x="1100" 
d="M0 850h687v-1100h-687v1100z" />
    <glyph glyph-name="lefthalfblock" unicode="&#x258c;" horiz-adv-x="1100" 
d="M0 850h550v-1100h-550v1100z" />
    <glyph glyph-name="leftthreeeighthsblock" unicode="&#x258d;" horiz-adv-x="1100" 
d="M0 850h412v-1100h-412v1100z" />
    <glyph glyph-name="leftquarterblock" unicode="&#x258e;" horiz-adv-x="1100" 
d="M0 850h275v-1100h-275v1100z" />
    <glyph glyph-name="lefteighthblock" unicode="&#x258f;" horiz-adv-x="1100" 
d="M0 850h137v-1100h-137v1100z" />
    <glyph glyph-name="righthalfblock" unicode="&#x2590;" horiz-adv-x="1100" 
d="M550 850h550v-1100h-550v1100z" />
    <glyph glyph-name="lightshade" unicode="&#x2591;" horiz-adv-x="1100" 
d="M0 -220h20v-30h-20v30zM50 -170h20v-30h-20v30zM0 -120h20v-30h-20v30zM50 -70h20v-30h-20v30zM0 -20h20v-30h-20v30zM50 30h20v-30h-20v30zM0 80h20v-30h-20v30zM50 130h20v-30h-20v30zM0 180h20v-30h-20v30zM50 230h20v-30h-20v30zM0 280h20v-30h-20v30zM50 330h20v-30
h-20v30zM0 380h20v-30h-20v30zM50 430h20v-30h-20v30zM0 480h20v-30h-20v30zM50 530h20v-30h-20v30zM0 580h20v-30h-20v30zM50 630h20v-30h-20v30zM0 680h20v-30h-20v30zM50 730h20v-30h-20v30zM0 780h20v-30h-20v30zM50 830h20v-30h-20v30zM100 -220h20v-30h-20v30z
M150 -170h20v-30h-20v30zM100 -120h20v-30h-20v30zM150 -70h20v-30h-20v30zM100 -20h20v-30h-20v30zM150 30h20v-30h-20v30zM100 80h20v-30h-20v30zM150 130h20v-30h-20v30zM100 180h20v-30h-20v30zM150 230h20v-30h-20v30zM100 280h20v-30h-20v30zM150 330h20v-30h-20v30z
M100 380h20v-30h-20v30zM150 430h20v-30h-20v30zM100 480h20v-30h-20v30zM150 530h20v-30h-20v30zM100 580h20v-30h-20v30zM150 630h20v-30h-20v30zM100 680h20v-30h-20v30zM150 730h20v-30h-20v30zM100 780h20v-30h-20v30zM150 830h20v-30h-20v30zM200 -220h20v-30h-20v30z
M250 -170h20v-30h-20v30zM200 -120h20v-30h-20v30zM250 -70h20v-30h-20v30zM200 -20h20v-30h-20v30zM250 30h20v-30h-20v30zM200 80h20v-30h-20v30zM250 130h20v-30h-20v30zM200 180h20v-30h-20v30zM250 230h20v-30h-20v30zM200 280h20v-30h-20v30zM250 330h20v-30h-20v30z
M200 380h20v-30h-20v30zM250 430h20v-30h-20v30zM200 480h20v-30h-20v30zM250 530h20v-30h-20v30zM200 580h20v-30h-20v30zM250 630h20v-30h-20v30zM200 680h20v-30h-20v30zM250 730h20v-30h-20v30zM200 780h20v-30h-20v30zM250 830h20v-30h-20v30zM300 -220h20v-30h-20v30z
M350 -170h20v-30h-20v30zM300 -120h20v-30h-20v30zM350 -70h20v-30h-20v30zM300 -20h20v-30h-20v30zM350 30h20v-30h-20v30zM300 80h20v-30h-20v30zM350 130h20v-30h-20v30zM300 180h20v-30h-20v30zM350 230h20v-30h-20v30zM300 280h20v-30h-20v30zM350 330h20v-30h-20v30z
M300 380h20v-30h-20v30zM350 430h20v-30h-20v30zM300 480h20v-30h-20v30zM350 530h20v-30h-20v30zM300 580h20v-30h-20v30zM350 630h20v-30h-20v30zM300 680h20v-30h-20v30zM350 730h20v-30h-20v30zM300 780h20v-30h-20v30zM350 830h20v-30h-20v30zM400 -220h20v-30h-20v30z
M450 -170h20v-30h-20v30zM400 -120h20v-30h-20v30zM450 -70h20v-30h-20v30zM400 -20h20v-30h-20v30zM450 30h20v-30h-20v30zM400 80h20v-30h-20v30zM450 130h20v-30h-20v30zM400 180h20v-30h-20v30zM450 230h20v-30h-20v30zM400 280h20v-30h-20v30zM450 330h20v-30h-20v30z
M400 380h20v-30h-20v30zM450 430h20v-30h-20v30zM400 480h20v-30h-20v30zM450 530h20v-30h-20v30zM400 580h20v-30h-20v30zM450 630h20v-30h-20v30zM400 680h20v-30h-20v30zM450 730h20v-30h-20v30zM400 780h20v-30h-20v30zM450 830h20v-30h-20v30zM500 -220h20v-30h-20v30z
M550 -170h20v-30h-20v30zM500 -120h20v-30h-20v30zM550 -70h20v-30h-20v30zM500 -20h20v-30h-20v30zM550 30h20v-30h-20v30zM500 80h20v-30h-20v30zM550 130h20v-30h-20v30zM500 180h20v-30h-20v30zM550 230h20v-30h-20v30zM500 280h20v-30h-20v30zM550 330h20v-30h-20v30z
M500 380h20v-30h-20v30zM550 430h20v-30h-20v30zM500 480h20v-30h-20v30zM550 530h20v-30h-20v30zM500 580h20v-30h-20v30zM550 630h20v-30h-20v30zM500 680h20v-30h-20v30zM550 730h20v-30h-20v30zM500 780h20v-30h-20v30zM550 830h20v-30h-20v30zM600 -220h20v-30h-20v30z
M650 -170h20v-30h-20v30zM600 -120h20v-30h-20v30zM650 -70h20v-30h-20v30zM600 -20h20v-30h-20v30zM650 30h20v-30h-20v30zM600 80h20v-30h-20v30zM650 130h20v-30h-20v30zM600 180h20v-30h-20v30zM650 230h20v-30h-20v30zM600 280h20v-30h-20v30zM650 330h20v-30h-20v30z
M600 380h20v-30h-20v30zM650 430h20v-30h-20v30zM600 480h20v-30h-20v30zM650 530h20v-30h-20v30zM600 580h20v-30h-20v30zM650 630h20v-30h-20v30zM600 680h20v-30h-20v30zM650 730h20v-30h-20v30zM600 780h20v-30h-20v30zM650 830h20v-30h-20v30zM700 -220h20v-30h-20v30z
M750 -170h20v-30h-20v30zM700 -120h20v-30h-20v30zM750 -70h20v-30h-20v30zM700 -20h20v-30h-20v30zM750 30h20v-30h-20v30zM700 80h20v-30h-20v30zM750 130h20v-30h-20v30zM700 180h20v-30h-20v30zM750 230h20v-30h-20v30zM700 280h20v-30h-20v30zM750 330h20v-30h-20v30z
M700 380h20v-30h-20v30zM750 430h20v-30h-20v30zM700 480h20v-30h-20v30zM750 530h20v-30h-20v30zM700 580h20v-30h-20v30zM750 630h20v-30h-20v30zM700 680h20v-30h-20v30zM750 730h20v-30h-20v30zM700 780h20v-30h-20v30zM750 830h20v-30h-20v30zM800 -220h20v-30h-20v30z
M850 -170h20v-30h-20v30zM800 -120h20v-30h-20v30zM850 -70h20v-30h-20v30zM800 -20h20v-30h-20v30zM850 30h20v-30h-20v30zM800 80h20v-30h-20v30zM850 130h20v-30h-20v30zM800 180h20v-30h-20v30zM850 230h20v-30h-20v30zM800 280h20v-30h-20v30zM850 330h20v-30h-20v30z
M800 380h20v-30h-20v30zM850 430h20v-30h-20v30zM800 480h20v-30h-20v30zM850 530h20v-30h-20v30zM800 580h20v-30h-20v30zM850 630h20v-30h-20v30zM800 680h20v-30h-20v30zM850 730h20v-30h-20v30zM800 780h20v-30h-20v30zM850 830h20v-30h-20v30zM900 -220h20v-30h-20v30z
M950 -170h20v-30h-20v30zM900 -120h20v-30h-20v30zM950 -70h20v-30h-20v30zM900 -20h20v-30h-20v30zM950 30h20v-30h-20v30zM900 80h20v-30h-20v30zM950 130h20v-30h-20v30zM900 180h20v-30h-20v30zM950 230h20v-30h-20v30zM900 280h20v-30h-20v30zM950 330h20v-30h-20v30z
M900 380h20v-30h-20v30zM950 430h20v-30h-20v30zM900 480h20v-30h-20v30zM950 530h20v-30h-20v30zM900 580h20v-30h-20v30zM950 630h20v-30h-20v30zM900 680h20v-30h-20v30zM950 730h20v-30h-20v30zM900 780h20v-30h-20v30zM950 830h20v-30h-20v30zM1000 -220h20v-30h-20v30
zM1050 -170h20v-30h-20v30zM1000 -120h20v-30h-20v30zM1050 -70h20v-30h-20v30zM1000 -20h20v-30h-20v30zM1050 30h20v-30h-20v30zM1000 80h20v-30h-20v30zM1050 130h20v-30h-20v30zM1000 180h20v-30h-20v30zM1050 230h20v-30h-20v30zM1000 280h20v-30h-20v30zM1050 330h20
v-30h-20v30zM1000 380h20v-30h-20v30zM1050 430h20v-30h-20v30zM1000 480h20v-30h-20v30zM1050 530h20v-30h-20v30zM1000 580h20v-30h-20v30zM1050 630h20v-30h-20v30zM1000 680h20v-30h-20v30zM1050 730h20v-30h-20v30zM1000 780h20v-30h-20v30zM1050 830h20v-30h-20v30z
" />
    <glyph glyph-name="mediumshade" unicode="&#x2592;" horiz-adv-x="1100" 
d="M0 -200h40v-50h-40v50zM50 -150h40v-50h-40v50zM0 -100h40v-50h-40v50zM50 -50h40v-50h-40v50zM0 0h40v-50h-40v50zM50 50h40v-50h-40v50zM0 100h40v-50h-40v50zM50 150h40v-50h-40v50zM0 200h40v-50h-40v50zM50 250h40v-50h-40v50zM0 300h40v-50h-40v50zM50 350h40v-50
h-40v50zM0 400h40v-50h-40v50zM50 450h40v-50h-40v50zM0 500h40v-50h-40v50zM50 550h40v-50h-40v50zM0 600h40v-50h-40v50zM50 650h40v-50h-40v50zM0 700h40v-50h-40v50zM50 750h40v-50h-40v50zM0 800h40v-50h-40v50zM50 850h40v-50h-40v50zM100 -200h40v-50h-40v50z
M150 -150h40v-50h-40v50zM100 -100h40v-50h-40v50zM150 -50h40v-50h-40v50zM100 0h40v-50h-40v50zM150 50h40v-50h-40v50zM100 100h40v-50h-40v50zM150 150h40v-50h-40v50zM100 200h40v-50h-40v50zM150 250h40v-50h-40v50zM100 300h40v-50h-40v50zM150 350h40v-50h-40v50z
M100 400h40v-50h-40v50zM150 450h40v-50h-40v50zM100 500h40v-50h-40v50zM150 550h40v-50h-40v50zM100 600h40v-50h-40v50zM150 650h40v-50h-40v50zM100 700h40v-50h-40v50zM150 750h40v-50h-40v50zM100 800h40v-50h-40v50zM150 850h40v-50h-40v50zM200 -200h40v-50h-40v50z
M250 -150h40v-50h-40v50zM200 -100h40v-50h-40v50zM250 -50h40v-50h-40v50zM200 0h40v-50h-40v50zM250 50h40v-50h-40v50zM200 100h40v-50h-40v50zM250 150h40v-50h-40v50zM200 200h40v-50h-40v50zM250 250h40v-50h-40v50zM200 300h40v-50h-40v50zM250 350h40v-50h-40v50z
M200 400h40v-50h-40v50zM250 450h40v-50h-40v50zM200 500h40v-50h-40v50zM250 550h40v-50h-40v50zM200 600h40v-50h-40v50zM250 650h40v-50h-40v50zM200 700h40v-50h-40v50zM250 750h40v-50h-40v50zM200 800h40v-50h-40v50zM250 850h40v-50h-40v50zM300 -200h40v-50h-40v50z
M350 -150h40v-50h-40v50zM300 -100h40v-50h-40v50zM350 -50h40v-50h-40v50zM300 0h40v-50h-40v50zM350 50h40v-50h-40v50zM300 100h40v-50h-40v50zM350 150h40v-50h-40v50zM300 200h40v-50h-40v50zM350 250h40v-50h-40v50zM300 300h40v-50h-40v50zM350 350h40v-50h-40v50z
M300 400h40v-50h-40v50zM350 450h40v-50h-40v50zM300 500h40v-50h-40v50zM350 550h40v-50h-40v50zM300 600h40v-50h-40v50zM350 650h40v-50h-40v50zM300 700h40v-50h-40v50zM350 750h40v-50h-40v50zM300 800h40v-50h-40v50zM350 850h40v-50h-40v50zM400 -200h40v-50h-40v50z
M450 -150h40v-50h-40v50zM400 -100h40v-50h-40v50zM450 -50h40v-50h-40v50zM400 0h40v-50h-40v50zM450 50h40v-50h-40v50zM400 100h40v-50h-40v50zM450 150h40v-50h-40v50zM400 200h40v-50h-40v50zM450 250h40v-50h-40v50zM400 300h40v-50h-40v50zM450 350h40v-50h-40v50z
M400 400h40v-50h-40v50zM450 450h40v-50h-40v50zM400 500h40v-50h-40v50zM450 550h40v-50h-40v50zM400 600h40v-50h-40v50zM450 650h40v-50h-40v50zM400 700h40v-50h-40v50zM450 750h40v-50h-40v50zM400 800h40v-50h-40v50zM450 850h40v-50h-40v50zM500 -200h40v-50h-40v50z
M550 -150h40v-50h-40v50zM500 -100h40v-50h-40v50zM550 -50h40v-50h-40v50zM500 0h40v-50h-40v50zM550 50h40v-50h-40v50zM500 100h40v-50h-40v50zM550 150h40v-50h-40v50zM500 200h40v-50h-40v50zM550 250h40v-50h-40v50zM500 300h40v-50h-40v50zM550 350h40v-50h-40v50z
M500 400h40v-50h-40v50zM550 450h40v-50h-40v50zM500 500h40v-50h-40v50zM550 550h40v-50h-40v50zM500 600h40v-50h-40v50zM550 650h40v-50h-40v50zM500 700h40v-50h-40v50zM550 750h40v-50h-40v50zM500 800h40v-50h-40v50zM550 850h40v-50h-40v50zM600 -200h40v-50h-40v50z
M650 -150h40v-50h-40v50zM600 -100h40v-50h-40v50zM650 -50h40v-50h-40v50zM600 0h40v-50h-40v50zM650 50h40v-50h-40v50zM600 100h40v-50h-40v50zM650 150h40v-50h-40v50zM600 200h40v-50h-40v50zM650 250h40v-50h-40v50zM600 300h40v-50h-40v50zM650 350h40v-50h-40v50z
M600 400h40v-50h-40v50zM650 450h40v-50h-40v50zM600 500h40v-50h-40v50zM650 550h40v-50h-40v50zM600 600h40v-50h-40v50zM650 650h40v-50h-40v50zM600 700h40v-50h-40v50zM650 750h40v-50h-40v50zM600 800h40v-50h-40v50zM650 850h40v-50h-40v50zM700 -200h40v-50h-40v50z
M750 -150h40v-50h-40v50zM700 -100h40v-50h-40v50zM750 -50h40v-50h-40v50zM700 0h40v-50h-40v50zM750 50h40v-50h-40v50zM700 100h40v-50h-40v50zM750 150h40v-50h-40v50zM700 200h40v-50h-40v50zM750 250h40v-50h-40v50zM700 300h40v-50h-40v50zM750 350h40v-50h-40v50z
M700 400h40v-50h-40v50zM750 450h40v-50h-40v50zM700 500h40v-50h-40v50zM750 550h40v-50h-40v50zM700 600h40v-50h-40v50zM750 650h40v-50h-40v50zM700 700h40v-50h-40v50zM750 750h40v-50h-40v50zM700 800h40v-50h-40v50zM750 850h40v-50h-40v50zM800 -200h40v-50h-40v50z
M850 -150h40v-50h-40v50zM800 -100h40v-50h-40v50zM850 -50h40v-50h-40v50zM800 0h40v-50h-40v50zM850 50h40v-50h-40v50zM800 100h40v-50h-40v50zM850 150h40v-50h-40v50zM800 200h40v-50h-40v50zM850 250h40v-50h-40v50zM800 300h40v-50h-40v50zM850 350h40v-50h-40v50z
M800 400h40v-50h-40v50zM850 450h40v-50h-40v50zM800 500h40v-50h-40v50zM850 550h40v-50h-40v50zM800 600h40v-50h-40v50zM850 650h40v-50h-40v50zM800 700h40v-50h-40v50zM850 750h40v-50h-40v50zM800 800h40v-50h-40v50zM850 850h40v-50h-40v50zM900 -200h40v-50h-40v50z
M950 -150h40v-50h-40v50zM900 -100h40v-50h-40v50zM950 -50h40v-50h-40v50zM900 0h40v-50h-40v50zM950 50h40v-50h-40v50zM900 100h40v-50h-40v50zM950 150h40v-50h-40v50zM900 200h40v-50h-40v50zM950 250h40v-50h-40v50zM900 300h40v-50h-40v50zM950 350h40v-50h-40v50z
M900 400h40v-50h-40v50zM950 450h40v-50h-40v50zM900 500h40v-50h-40v50zM950 550h40v-50h-40v50zM900 600h40v-50h-40v50zM950 650h40v-50h-40v50zM900 700h40v-50h-40v50zM950 750h40v-50h-40v50zM900 800h40v-50h-40v50zM950 850h40v-50h-40v50zM1000 -200h40v-50h-40v50
zM1050 -150h40v-50h-40v50zM1000 -100h40v-50h-40v50zM1050 -50h40v-50h-40v50zM1000 0h40v-50h-40v50zM1050 50h40v-50h-40v50zM1000 100h40v-50h-40v50zM1050 150h40v-50h-40v50zM1000 200h40v-50h-40v50zM1050 250h40v-50h-40v50zM1000 300h40v-50h-40v50zM1050 350h40
v-50h-40v50zM1000 400h40v-50h-40v50zM1050 450h40v-50h-40v50zM1000 500h40v-50h-40v50zM1050 550h40v-50h-40v50zM1000 600h40v-50h-40v50zM1050 650h40v-50h-40v50zM1000 700h40v-50h-40v50zM1050 750h40v-50h-40v50zM1000 800h40v-50h-40v50zM1050 850h40v-50h-40v50z
" />
    </font>
</defs>
</svg>
