<?xml version="1.0" encoding="UTF-8" standalone="no"?>
<svg width="124px" height="23px" viewBox="0 0 124 23" version="1.1" xmlns="http://www.w3.org/2000/svg" xmlns:xlink="http://www.w3.org/1999/xlink" xmlns:sketch="http://www.bohemiancoding.com/sketch/ns">
    <!-- Generator: Sketch 3.2.2 (9983) - http://www.bohemiancoding.com/sketch -->
    <title>release 2</title>
    <desc>Created with Sketch.</desc>
    <defs></defs>
    <g id="Page-1" stroke="none" stroke-width="1" fill="none" fill-rule="evenodd" sketch:type="MSPage">
        <g id="home" sketch:type="MSArtboardGroup" transform="translate(-451.000000, -2337.000000)" fill="#FFFFFF">
            <g id="Group" sketch:type="MSLayerGroup" transform="translate(-78.000000, 2053.000000)">
                <path d="M539.885893,290.686 C539.699892,290.644666 539.472561,290.593 539.203893,290.531 C538.935225,290.469 538.583896,290.438 538.149893,290.438 C537.550557,290.438 536.987396,290.489666 536.460393,290.593 C535.933391,290.696334 535.458062,290.820333 535.034393,290.965 C534.610725,291.109667 534.238728,291.264666 533.918393,291.43 C533.598058,291.595334 533.344894,291.739999 533.158893,291.864 C532.931559,292.029334 532.761061,292.163666 532.647393,292.267 C532.533726,292.370334 532.425227,292.473666 532.321893,292.577 L532.290893,290.841 L529.376893,290.841 L529.376893,306 L532.321893,306 L532.321893,297.816 C532.321893,297.464665 532.337393,297.134002 532.368393,296.824 C532.399394,296.513998 532.46656,296.193668 532.569893,295.863 C532.817895,295.180997 533.195058,294.659168 533.701393,294.2975 C534.207729,293.935832 534.724391,293.677501 535.251393,293.5225 C535.778396,293.367499 536.264058,293.279667 536.708393,293.259 C537.152729,293.238333 537.436893,293.228 537.560893,293.228 C538.16023,293.228 538.625225,293.264166 538.955893,293.3365 C539.286562,293.408834 539.596559,293.486333 539.885893,293.569 L539.885893,290.686 Z M559.320352,298.777 C559.320352,298.590999 559.315186,298.405001 559.304852,298.219 C559.294519,298.032999 559.279019,297.836668 559.258352,297.63 C559.196352,297.133998 559.09302,296.679335 558.948352,296.266 C558.803685,295.852665 558.648687,295.485835 558.483352,295.1655 C558.318018,294.845165 558.152687,294.566168 557.987352,294.3285 C557.822018,294.090832 557.677353,293.899667 557.553352,293.755 C556.933349,292.948996 556.24619,292.323836 555.491852,291.8795 C554.737515,291.435164 554.003856,291.099334 553.290852,290.872 C552.577849,290.644666 551.926855,290.505167 551.337852,290.4535 C550.748849,290.401833 550.289021,290.376 549.958352,290.376 C549.52435,290.376 549.142021,290.3915 548.811352,290.4225 C548.480684,290.4535 548.232687,290.489666 548.067352,290.531 C547.757351,290.572334 547.302689,290.670499 546.703352,290.8255 C546.104016,290.980501 545.463356,291.233665 544.781352,291.585 C544.099349,291.936335 543.438022,292.427164 542.797352,293.0575 C542.156683,293.687836 541.650354,294.498995 541.278352,295.491 C541.051018,296.111003 540.906353,296.679331 540.844352,297.196 C540.782352,297.712669 540.751352,298.084666 540.751352,298.312 C540.751352,299.676007 541.004517,300.864328 541.510852,301.877 C542.017188,302.889672 542.699181,303.736997 543.556852,304.419 C544.414523,305.101003 545.401347,305.612498 546.517352,305.9535 C547.633358,306.294502 548.801013,306.465 550.020352,306.465 C551.281025,306.465 552.366015,306.335835 553.275352,306.0775 C554.18469,305.819165 554.846017,305.586668 555.259352,305.38 C555.383353,305.318 555.559018,305.225001 555.786352,305.101 C556.013687,304.976999 556.272018,304.816834 556.561352,304.6205 C556.850687,304.424166 557.140018,304.186501 557.429352,303.9075 C557.718687,303.628499 557.987351,303.313335 558.235352,302.962 C558.400687,302.734666 558.545352,302.507334 558.669352,302.28 C558.793353,302.052666 558.907019,301.825334 559.010352,301.598 L556.189352,300.823 C556.024018,301.112335 555.88452,301.360332 555.770852,301.567 C555.657185,301.773668 555.486687,301.990666 555.259352,302.218 C554.639349,302.879337 553.90569,303.359832 553.058352,303.6595 C552.211015,303.959168 551.33269,304.109 550.423352,304.109 C549.762016,304.109 549.162688,304.047001 548.625352,303.923 C548.088016,303.798999 547.607521,303.644001 547.183852,303.458 C546.760184,303.271999 546.398521,303.070501 546.098852,302.8535 C545.799184,302.636499 545.556353,302.435001 545.370352,302.249 C544.833016,301.732331 544.46102,301.205336 544.254352,300.668 C544.047685,300.130664 543.892686,299.500337 543.789352,298.777 L559.320352,298.777 Z M543.882352,296.576 C544.02702,296.224665 544.130352,295.992167 544.192352,295.8785 C544.254353,295.764833 544.347352,295.615001 544.471352,295.429 C545.112022,294.416328 545.928347,293.687836 546.920352,293.2435 C547.912357,292.799164 548.987013,292.577 550.144352,292.577 C550.640355,292.577 551.048518,292.602833 551.368852,292.6545 C551.689187,292.706167 551.952685,292.763 552.159352,292.825 C552.572688,292.949001 552.913684,293.083333 553.182352,293.228 C553.45102,293.372667 553.647352,293.486333 553.771352,293.569 C554.143354,293.817001 554.525684,294.152831 554.918352,294.5765 C555.311021,295.000169 555.672684,295.666662 556.003352,296.576 L543.882352,296.576 Z M563.254811,284.114 L563.254811,306 L566.168811,306 L566.168811,284.114 L563.254811,284.114 Z M588.70327,298.777 C588.70327,298.590999 588.698104,298.405001 588.68777,298.219 C588.677437,298.032999 588.661937,297.836668 588.64127,297.63 C588.57927,297.133998 588.475938,296.679335 588.33127,296.266 C588.186603,295.852665 588.031605,295.485835 587.86627,295.1655 C587.700936,294.845165 587.535605,294.566168 587.37027,294.3285 C587.204936,294.090832 587.060271,293.899667 586.93627,293.755 C586.316267,292.948996 585.629108,292.323836 584.87477,291.8795 C584.120433,291.435164 583.386774,291.099334 582.67377,290.872 C581.960767,290.644666 581.309773,290.505167 580.72077,290.4535 C580.131768,290.401833 579.671939,290.376 579.34127,290.376 C578.907268,290.376 578.524939,290.3915 578.19427,290.4225 C577.863602,290.4535 577.615605,290.489666 577.45027,290.531 C577.140269,290.572334 576.685607,290.670499 576.08627,290.8255 C575.486934,290.980501 574.846274,291.233665 574.16427,291.585 C573.482267,291.936335 572.82094,292.427164 572.18027,293.0575 C571.539601,293.687836 571.033272,294.498995 570.66127,295.491 C570.433936,296.111003 570.289271,296.679331 570.22727,297.196 C570.16527,297.712669 570.13427,298.084666 570.13427,298.312 C570.13427,299.676007 570.387435,300.864328 570.89377,301.877 C571.400106,302.889672 572.0821,303.736997 572.93977,304.419 C573.797441,305.101003 574.784265,305.612498 575.90027,305.9535 C577.016276,306.294502 578.183931,306.465 579.40327,306.465 C580.663943,306.465 581.748933,306.335835 582.65827,306.0775 C583.567608,305.819165 584.228935,305.586668 584.64227,305.38 C584.766271,305.318 584.941936,305.225001 585.16927,305.101 C585.396605,304.976999 585.654936,304.816834 585.94427,304.6205 C586.233605,304.424166 586.522936,304.186501 586.81227,303.9075 C587.101605,303.628499 587.370269,303.313335 587.61827,302.962 C587.783605,302.734666 587.92827,302.507334 588.05227,302.28 C588.176271,302.052666 588.289937,301.825334 588.39327,301.598 L585.57227,300.823 C585.406936,301.112335 585.267438,301.360332 585.15377,301.567 C585.040103,301.773668 584.869605,301.990666 584.64227,302.218 C584.022267,302.879337 583.288608,303.359832 582.44127,303.6595 C581.593933,303.959168 580.715608,304.109 579.80627,304.109 C579.144934,304.109 578.545607,304.047001 578.00827,303.923 C577.470934,303.798999 576.990439,303.644001 576.56677,303.458 C576.143102,303.271999 575.781439,303.070501 575.48177,302.8535 C575.182102,302.636499 574.939271,302.435001 574.75327,302.249 C574.215934,301.732331 573.843938,301.205336 573.63727,300.668 C573.430603,300.130664 573.275604,299.500337 573.17227,298.777 L588.70327,298.777 Z M573.26527,296.576 C573.409938,296.224665 573.51327,295.992167 573.57527,295.8785 C573.637271,295.764833 573.73027,295.615001 573.85427,295.429 C574.49494,294.416328 575.311266,293.687836 576.30327,293.2435 C577.295275,292.799164 578.369931,292.577 579.52727,292.577 C580.023273,292.577 580.431436,292.602833 580.75177,292.6545 C581.072105,292.706167 581.335603,292.763 581.54227,292.825 C581.955606,292.949001 582.296602,293.083333 582.56527,293.228 C582.833938,293.372667 583.03027,293.486333 583.15427,293.569 C583.526272,293.817001 583.908602,294.152831 584.30127,294.5765 C584.693939,295.000169 585.055602,295.666662 585.38627,296.576 L573.26527,296.576 Z M608.57173,295.677 C608.57173,295.09833 608.54073,294.550669 608.47873,294.034 C608.416729,293.517331 608.199731,293.011002 607.82773,292.515 C607.600395,292.204998 607.342064,291.951834 607.05273,291.7555 C606.763395,291.559166 606.479231,291.399001 606.20023,291.275 C605.921228,291.150999 605.668064,291.058 605.44073,290.996 C605.213395,290.934 605.048063,290.892667 604.94473,290.872 C604.510727,290.768666 604.061232,290.686 603.59623,290.624 C603.131227,290.562 602.697232,290.5155 602.29423,290.4845 C601.891227,290.4535 601.539898,290.432833 601.24023,290.4225 C600.940561,290.412167 600.739063,290.407 600.63573,290.407 C599.292389,290.407 598.155734,290.489666 597.22573,290.655 C596.295725,290.820334 595.582732,291.006332 595.08673,291.213 C594.528727,291.440334 594.099898,291.703832 593.80023,292.0035 C593.500561,292.303168 593.278397,292.556332 593.13373,292.763 C592.947729,293.052335 592.79273,293.357165 592.66873,293.6775 C592.544729,293.997835 592.472396,294.189 592.45173,294.251 L595.42773,294.53 C595.593064,294.240665 595.711896,294.0495 595.78423,293.9565 C595.856563,293.8635 595.965062,293.755001 596.10973,293.631 C596.419731,293.403666 596.771061,293.217667 597.16373,293.073 C597.556398,292.928333 597.959394,292.819834 598.37273,292.7475 C598.786065,292.675166 599.204561,292.6235 599.62823,292.5925 C600.051898,292.5615 600.439394,292.546 600.79073,292.546 C601.700067,292.546 602.45956,292.607999 603.06923,292.732 C603.678899,292.856001 604.149061,293.000666 604.47973,293.166 C604.831065,293.352001 605.099729,293.568999 605.28573,293.817 C605.47173,294.065001 605.600896,294.338832 605.67323,294.6385 C605.745563,294.938168 605.786896,295.248165 605.79723,295.5685 C605.807563,295.888835 605.81273,296.214332 605.81273,296.545 L601.50373,296.576 C599.705721,296.576 598.207402,296.612166 597.00873,296.6845 C595.810057,296.756834 594.849066,296.958332 594.12573,297.289 C593.919062,297.371667 593.665898,297.505999 593.36623,297.692 C593.066561,297.878001 592.777231,298.136332 592.49823,298.467 C592.219228,298.797668 591.976397,299.200664 591.76973,299.676 C591.563062,300.151336 591.45973,300.70933 591.45973,301.35 C591.45973,302.528006 591.852392,303.571662 592.63773,304.481 C593.175066,305.080336 593.758893,305.519499 594.38923,305.7985 C595.019566,306.077501 595.717059,306.278999 596.48173,306.403 C596.626397,306.423667 596.900227,306.454666 597.30323,306.496 C597.706232,306.537334 598.145394,306.558 598.62073,306.558 C600.315405,306.558 601.694891,306.335836 602.75923,305.8915 C603.823568,305.447164 604.61406,304.977002 605.13073,304.481 C605.31673,304.315666 605.471729,304.145168 605.59573,303.9695 C605.71973,303.793832 605.802396,303.664667 605.84373,303.582 C605.864396,303.871335 605.910896,304.165832 605.98323,304.4655 C606.055563,304.765168 606.189895,305.038999 606.38623,305.287 C606.582564,305.535001 606.866728,305.741666 607.23873,305.907 C607.610731,306.072334 608.11706,306.155 608.75773,306.155 C609.191732,306.155 609.625727,306.1395 610.05973,306.1085 C610.493732,306.0775 610.927727,306.041334 611.36173,306 L611.36173,303.954 C611.072395,303.995334 610.855397,304.021167 610.71073,304.0315 C610.566062,304.041833 610.421397,304.047 610.27673,304.047 C609.739393,304.047 609.362231,303.954001 609.14523,303.768 C608.928228,303.581999 608.778397,303.375334 608.69573,303.148 C608.633729,302.941332 608.597563,302.683002 608.58723,302.373 C608.576896,302.062998 608.57173,301.670336 608.57173,301.195 L608.57173,295.677 Z M605.84373,298.839 C605.823063,299.066334 605.79723,299.402164 605.76623,299.8465 C605.735229,300.290836 605.575064,300.781664 605.28573,301.319 C604.975728,301.877003 604.593398,302.331665 604.13873,302.683 C603.684061,303.034335 603.229398,303.313332 602.77473,303.52 C602.320061,303.726668 601.901565,303.871333 601.51923,303.954 C601.136894,304.036667 600.873397,304.088333 600.72873,304.109 C600.625396,304.129667 600.377398,304.165833 599.98473,304.2175 C599.592061,304.269167 599.189065,304.295 598.77573,304.295 C598.031726,304.295 597.380732,304.212334 596.82273,304.047 C596.264727,303.881666 595.810065,303.659501 595.45873,303.3805 C595.107394,303.101499 594.843897,302.781168 594.66823,302.4195 C594.492562,302.057832 594.40473,301.691002 594.40473,301.319 C594.40473,301.008998 594.456396,300.740334 594.55973,300.513 C594.663063,300.285666 594.781896,300.094501 594.91623,299.9395 C595.050564,299.784499 595.190062,299.6605 595.33473,299.5675 C595.479397,299.4745 595.593062,299.407334 595.67573,299.366 C596.151065,299.138666 596.750393,298.994 597.47373,298.932 C598.197066,298.87 599.13739,298.839 600.29473,298.839 L605.84373,298.839 Z M630.920189,293.104 C630.734188,292.917999 630.506857,292.726834 630.238189,292.5305 C629.969521,292.334166 629.576858,292.091335 629.060189,291.802 C628.006183,291.243997 626.879861,290.851334 625.681189,290.624 C624.482516,290.396666 623.294194,290.283 622.116189,290.283 C622.033521,290.283 621.775191,290.288167 621.341189,290.2985 C620.907186,290.308833 620.390525,290.350166 619.791189,290.4225 C619.191852,290.494834 618.561525,290.603333 617.900189,290.748 C617.238852,290.892667 616.649858,291.099332 616.133189,291.368 C615.409852,291.740002 614.826024,292.241164 614.381689,292.8715 C613.937353,293.501836 613.715189,294.240662 613.715189,295.088 C613.715189,295.687336 613.834021,296.234998 614.071689,296.731 C614.309356,297.227002 614.665853,297.650665 615.141189,298.002 C615.699191,298.415335 616.319185,298.699499 617.001189,298.8545 C617.683192,299.009501 618.354852,299.128333 619.016189,299.211 C619.946193,299.314334 620.814185,299.391833 621.620189,299.4435 C622.426193,299.495167 623.165019,299.552 623.836689,299.614 C624.508359,299.676 625.102519,299.748333 625.619189,299.831 C626.135858,299.913667 626.55952,300.047999 626.890189,300.234 C627.303524,300.440668 627.567021,300.673165 627.680689,300.9315 C627.794356,301.189835 627.851189,301.422332 627.851189,301.629 C627.851189,302.021669 627.732356,302.362665 627.494689,302.652 C627.257021,302.941335 626.972857,303.168666 626.642189,303.334 C626.290853,303.520001 625.877524,303.664666 625.402189,303.768 C624.926853,303.871334 624.472191,303.943666 624.038189,303.985 C623.604186,304.026334 623.237357,304.052167 622.937689,304.0625 C622.63802,304.072833 622.477855,304.078 622.457189,304.078 C622.271188,304.078 621.966357,304.067667 621.542689,304.047 C621.11902,304.026333 620.623025,303.974667 620.054689,303.892 C619.486352,303.809333 618.881858,303.680168 618.241189,303.5045 C617.600519,303.328832 616.980525,303.086002 616.381189,302.776 C616.029853,302.589999 615.704357,302.383334 615.404689,302.156 C615.10502,301.928666 614.913856,301.784 614.831189,301.722 L612.289189,303.396 C613.157193,304.181337 614.13885,304.790998 615.234189,305.225 C616.329527,305.659002 617.37835,305.974166 618.380689,306.1705 C619.383027,306.366834 620.276851,306.4805 621.062189,306.5115 C621.847526,306.5425 622.364187,306.558 622.612189,306.558 L623.108189,306.558 C623.41819,306.558 623.816019,306.537334 624.301689,306.496 C624.787358,306.454666 625.324686,306.377167 625.913689,306.2635 C626.502691,306.149833 627.086519,305.979334 627.665189,305.752 C628.243858,305.524666 628.781186,305.230168 629.277189,304.8685 C629.773191,304.506832 630.176187,304.057336 630.486189,303.52 C630.713523,303.106665 630.853022,302.698502 630.904689,302.2955 C630.956355,301.892498 630.982189,301.608334 630.982189,301.443 C630.982189,300.760997 630.837523,300.125503 630.548189,299.5365 C630.258854,298.947497 629.814525,298.456669 629.215189,298.064 C628.739853,297.753998 628.176692,297.526667 627.525689,297.382 C626.874685,297.237333 625.970528,297.113334 624.813189,297.01 C624.007185,296.948 623.237359,296.891167 622.503689,296.8395 C621.770018,296.787833 621.093192,296.725834 620.473189,296.6535 C619.853185,296.581166 619.305524,296.4985 618.830189,296.4055 C618.354853,296.3125 617.982857,296.183334 617.714189,296.018 C617.404187,295.852666 617.202689,295.651168 617.109689,295.4135 C617.016688,295.175832 616.970189,294.984667 616.970189,294.84 C616.970189,294.674666 617.006355,294.493834 617.078689,294.2975 C617.151022,294.101166 617.331854,293.889334 617.621189,293.662 C618.034524,293.372665 618.582185,293.150501 619.264189,292.9955 C619.946192,292.840499 620.824516,292.763 621.899189,292.763 C622.126523,292.763 622.477853,292.773333 622.953189,292.794 C623.428524,292.814667 623.960686,292.881833 624.549689,292.9955 C625.138691,293.109167 625.763852,293.284832 626.425189,293.5225 C627.086525,293.760168 627.727185,294.095998 628.347189,294.53 L630.920189,293.104 Z M652.493648,298.777 C652.493648,298.590999 652.488481,298.405001 652.478148,298.219 C652.467814,298.032999 652.452314,297.836668 652.431648,297.63 C652.369647,297.133998 652.266315,296.679335 652.121648,296.266 C651.97698,295.852665 651.821982,295.485835 651.656648,295.1655 C651.491313,294.845165 651.325982,294.566168 651.160648,294.3285 C650.995313,294.090832 650.850648,293.899667 650.726648,293.755 C650.106644,292.948996 649.419485,292.323836 648.665148,291.8795 C647.91081,291.435164 647.177151,291.099334 646.464148,290.872 C645.751144,290.644666 645.100151,290.505167 644.511148,290.4535 C643.922145,290.401833 643.462316,290.376 643.131648,290.376 C642.697645,290.376 642.315316,290.3915 641.984648,290.4225 C641.653979,290.4535 641.405982,290.489666 641.240648,290.531 C640.930646,290.572334 640.475984,290.670499 639.876648,290.8255 C639.277311,290.980501 638.636651,291.233665 637.954648,291.585 C637.272644,291.936335 636.611317,292.427164 635.970648,293.0575 C635.329978,293.687836 634.823649,294.498995 634.451648,295.491 C634.224313,296.111003 634.079648,296.679331 634.017648,297.196 C633.955647,297.712669 633.924648,298.084666 633.924648,298.312 C633.924648,299.676007 634.177812,300.864328 634.684148,301.877 C635.190483,302.889672 635.872477,303.736997 636.730148,304.419 C637.587819,305.101003 638.574642,305.612498 639.690648,305.9535 C640.806653,306.294502 641.974308,306.465 643.193648,306.465 C644.454321,306.465 645.53931,306.335835 646.448648,306.0775 C647.357985,305.819165 648.019312,305.586668 648.432648,305.38 C648.556648,305.318 648.732313,305.225001 648.959648,305.101 C649.186982,304.976999 649.445313,304.816834 649.734648,304.6205 C650.023982,304.424166 650.313313,304.186501 650.602648,303.9075 C650.891982,303.628499 651.160646,303.313335 651.408648,302.962 C651.573982,302.734666 651.718647,302.507334 651.842648,302.28 C651.966648,302.052666 652.080314,301.825334 652.183648,301.598 L649.362648,300.823 C649.197313,301.112335 649.057815,301.360332 648.944148,301.567 C648.83048,301.773668 648.659982,301.990666 648.432648,302.218 C647.812644,302.879337 647.078985,303.359832 646.231648,303.6595 C645.38431,303.959168 644.505985,304.109 643.596648,304.109 C642.935311,304.109 642.335984,304.047001 641.798648,303.923 C641.261312,303.798999 640.780816,303.644001 640.357148,303.458 C639.933479,303.271999 639.571816,303.070501 639.272148,302.8535 C638.972479,302.636499 638.729648,302.435001 638.543648,302.249 C638.006312,301.732331 637.634315,301.205336 637.427648,300.668 C637.22098,300.130664 637.065981,299.500337 636.962648,298.777 L652.493648,298.777 Z M637.055648,296.576 C637.200315,296.224665 637.303647,295.992167 637.365648,295.8785 C637.427648,295.764833 637.520647,295.615001 637.644648,295.429 C638.285317,294.416328 639.101643,293.687836 640.093648,293.2435 C641.085653,292.799164 642.160308,292.577 643.317648,292.577 C643.81365,292.577 644.221813,292.602833 644.542148,292.6545 C644.862482,292.706167 645.12598,292.763 645.332648,292.825 C645.745983,292.949001 646.08698,293.083333 646.355648,293.228 C646.624316,293.372667 646.820647,293.486333 646.944648,293.569 C647.316649,293.817001 647.698979,294.152831 648.091648,294.5765 C648.484316,295.000169 648.845979,295.666662 649.176648,296.576 L637.055648,296.576 Z" id="release-2" sketch:type="MSShapeGroup"></path>
            </g>
        </g>
    </g>
</svg>