<?xml version="1.0" encoding="UTF-8" standalone="no"?>
<svg width="124px" height="23px" viewBox="0 0 124 23" version="1.1" xmlns="http://www.w3.org/2000/svg" xmlns:xlink="http://www.w3.org/1999/xlink" xmlns:sketch="http://www.bohemiancoding.com/sketch/ns">
    <!-- Generator: Sketch 3.2.2 (9983) - http://www.bohemiancoding.com/sketch -->
    <title>release</title>
    <desc>Created with Sketch.</desc>
    <defs></defs>
    <g id="Page-1" stroke="none" stroke-width="1" fill="none" fill-rule="evenodd" sketch:type="MSPage">
        <g id="home" sketch:type="MSArtboardGroup" transform="translate(-41.000000, -35.000000)" fill="#0B0B0B">
            <path d="M51.927,41.686 C51.7409991,41.6446665 51.513668,41.5930003 51.245,41.531 C50.976332,41.4689997 50.6250022,41.438 50.191,41.438 C49.5916637,41.438 49.0285026,41.4896662 48.5015,41.593 C47.9744974,41.6963339 47.4991688,41.8203326 47.0755,41.965 C46.6518312,42.1096674 46.2798349,42.2646658 45.9595,42.43 C45.6391651,42.5953342 45.3860009,42.7399994 45.2,42.864 C44.9726655,43.0293342 44.8021672,43.1636661 44.6885,43.267 C44.5748328,43.3703339 44.4663338,43.4736661 44.363,43.577 L44.332,41.841 L41.418,41.841 L41.418,57 L44.363,57 L44.363,48.816 C44.363,48.4646649 44.3784998,48.1340016 44.4095,47.824 C44.4405002,47.5139985 44.5076661,47.1936683 44.611,46.863 C44.8590012,46.1809966 45.2361641,45.6591685 45.7425,45.2975 C46.2488359,44.9358315 46.7654974,44.6775008 47.2925,44.5225 C47.8195026,44.3674992 48.3051644,44.2796668 48.7495,44.259 C49.1938356,44.2383332 49.4779994,44.228 49.602,44.228 C50.2013363,44.228 50.6663317,44.2641663 50.997,44.3365 C51.3276683,44.4088337 51.6376652,44.4863329 51.927,44.569 L51.927,41.686 Z M71.361459,49.777 C71.361459,49.5909991 71.3562924,49.4050009 71.345959,49.219 C71.3356256,49.0329991 71.3201258,48.8366677 71.299459,48.63 C71.2374587,48.1339975 71.1341264,47.6793354 70.989459,47.266 C70.8447916,46.8526646 70.6897932,46.4858349 70.524459,46.1655 C70.3591249,45.8451651 70.1937932,45.5661679 70.028459,45.3285 C69.8631249,45.0908321 69.7184596,44.8996674 69.594459,44.755 C68.9744559,43.948996 68.2872961,43.3238356 67.532959,42.8795 C66.7786219,42.4351644 66.0449626,42.0993345 65.331959,41.872 C64.6189555,41.6446655 63.967962,41.5051669 63.378959,41.4535 C62.7899561,41.4018331 62.3301273,41.376 61.999459,41.376 C61.5654569,41.376 61.1831273,41.3914998 60.852459,41.4225 C60.5217907,41.4535002 60.2737932,41.4896665 60.108459,41.531 C59.7984575,41.5723335 59.3437954,41.6704992 58.744459,41.8255 C58.1451227,41.9805008 57.5044624,42.2336649 56.822459,42.585 C56.1404556,42.9363351 55.4791289,43.4271635 54.838459,44.0575 C54.1977892,44.6878365 53.6914609,45.498995 53.319459,46.491 C53.0921246,47.1110031 52.9474593,47.6793307 52.885459,48.196 C52.8234587,48.7126692 52.792459,49.0846655 52.792459,49.312 C52.792459,50.6760068 53.0456232,51.8643283 53.551959,52.877 C54.0582949,53.8896717 54.7402881,54.7369966 55.597959,55.419 C56.45563,56.1010034 57.4424534,56.6124983 58.558459,56.9535 C59.6744646,57.2945017 60.8421196,57.465 62.061459,57.465 C63.322132,57.465 64.4071211,57.3358346 65.316459,57.0775 C66.2257969,56.8191654 66.8871236,56.5866677 67.300459,56.38 C67.4244596,56.3179997 67.6001246,56.2250006 67.827459,56.101 C68.0547935,55.9769994 68.3131242,55.8168343 68.602459,55.6205 C68.8917938,55.4241657 69.1811242,55.1865014 69.470459,54.9075 C69.7597938,54.6284986 70.0284578,54.3133351 70.276459,53.962 C70.4417932,53.7346655 70.5864584,53.5073345 70.710459,53.28 C70.8344596,53.0526655 70.9481252,52.8253345 71.051459,52.598 L68.230459,51.823 C68.0651249,52.1123348 67.9256263,52.3603323 67.811959,52.567 C67.6982918,52.7736677 67.5277935,52.9906655 67.300459,53.218 C66.6804559,53.8793366 65.9467966,54.3598318 65.099459,54.6595 C64.2521215,54.9591682 63.3737969,55.109 62.464459,55.109 C61.8031224,55.109 61.203795,55.0470006 60.666459,54.923 C60.129123,54.7989994 59.6486278,54.6440009 59.224959,54.458 C58.8012902,54.2719991 58.4396272,54.0705011 58.139959,53.8535 C57.8402909,53.6364989 57.59746,53.4350009 57.411459,53.249 C56.874123,52.7323308 56.5021267,52.205336 56.295459,51.668 C56.0887913,51.130664 55.9337929,50.500337 55.830459,49.777 L71.361459,49.777 Z M55.923459,47.576 C56.0681264,47.2246649 56.1714587,46.9921672 56.233459,46.8785 C56.2954593,46.7648328 56.3884584,46.6150009 56.512459,46.429 C57.1531289,45.4163283 57.9694541,44.6878356 58.961459,44.2435 C59.953464,43.7991644 61.0281199,43.577 62.185459,43.577 C62.6814615,43.577 63.0896241,43.6028331 63.409959,43.6545 C63.730294,43.7061669 63.9937913,43.7629997 64.200459,43.825 C64.6137944,43.9490006 64.954791,44.0833326 65.223459,44.228 C65.492127,44.3726674 65.6884584,44.4863329 65.812459,44.569 C66.1844609,44.8170012 66.5667904,45.1528312 66.959459,45.5765 C67.3521277,46.0001688 67.7137907,46.6666621 68.044459,47.576 L55.923459,47.576 Z M75.2959181,35.114 L75.2959181,57 L78.2099181,57 L78.2099181,35.114 L75.2959181,35.114 Z M100.744377,49.777 C100.744377,49.5909991 100.73921,49.4050009 100.728877,49.219 C100.718544,49.0329991 100.703044,48.8366677 100.682377,48.63 C100.620377,48.1339975 100.517044,47.6793354 100.372377,47.266 C100.22771,46.8526646 100.072711,46.4858349 99.9073771,46.1655 C99.7420429,45.8451651 99.5767112,45.5661679 99.4113771,45.3285 C99.2460429,45.0908321 99.1013777,44.8996674 98.9773771,44.755 C98.357374,43.948996 97.6702142,43.3238356 96.9158771,42.8795 C96.16154,42.4351644 95.4278806,42.0993345 94.7148771,41.872 C94.0018735,41.6446655 93.35088,41.5051669 92.7618771,41.4535 C92.1728741,41.4018331 91.7130454,41.376 91.3823771,41.376 C90.9483749,41.376 90.5660454,41.3914998 90.2353771,41.4225 C89.9047088,41.4535002 89.6567112,41.4896665 89.4913771,41.531 C89.1813755,41.5723335 88.7267134,41.6704992 88.1273771,41.8255 C87.5280407,41.9805008 86.8873805,42.2336649 86.2053771,42.585 C85.5233737,42.9363351 84.8620469,43.4271635 84.2213771,44.0575 C83.5807072,44.6878365 83.0743789,45.498995 82.7023771,46.491 C82.4750426,47.1110031 82.3303774,47.6793307 82.2683771,48.196 C82.2063768,48.7126692 82.1753771,49.0846655 82.1753771,49.312 C82.1753771,50.6760068 82.4285412,51.8643283 82.9348771,52.877 C83.4412129,53.8896717 84.1232061,54.7369966 84.9808771,55.419 C85.838548,56.1010034 86.8253715,56.6124983 87.9413771,56.9535 C89.0573827,57.2945017 90.2250376,57.465 91.4443771,57.465 C92.70505,57.465 93.7900392,57.3358346 94.6993771,57.0775 C95.608715,56.8191654 96.2700417,56.5866677 96.6833771,56.38 C96.8073777,56.3179997 96.9830426,56.2250006 97.2103771,56.101 C97.4377115,55.9769994 97.6960423,55.8168343 97.9853771,55.6205 C98.2747119,55.4241657 98.5640423,55.1865014 98.8533771,54.9075 C99.1427119,54.6284986 99.4113758,54.3133351 99.6593771,53.962 C99.8247112,53.7346655 99.9693765,53.5073345 100.093377,53.28 C100.217378,53.0526655 100.331043,52.8253345 100.434377,52.598 L97.6133771,51.823 C97.4480429,52.1123348 97.3085443,52.3603323 97.1948771,52.567 C97.0812098,52.7736677 96.9107115,52.9906655 96.6833771,53.218 C96.063374,53.8793366 95.3297146,54.3598318 94.4823771,54.6595 C93.6350395,54.9591682 92.756715,55.109 91.8473771,55.109 C91.1860404,55.109 90.5867131,55.0470006 90.0493771,54.923 C89.5120411,54.7989994 89.0315459,54.6440009 88.6078771,54.458 C88.1842083,54.2719991 87.8225452,54.0705011 87.5228771,53.8535 C87.2232089,53.6364989 86.980378,53.4350009 86.7943771,53.249 C86.2570411,52.7323308 85.8850448,52.205336 85.6783771,51.668 C85.4717094,51.130664 85.3167109,50.500337 85.2133771,49.777 L100.744377,49.777 Z M85.3063771,47.576 C85.4510445,47.2246649 85.5543768,46.9921672 85.6163771,46.8785 C85.6783774,46.7648328 85.7713765,46.6150009 85.8953771,46.429 C86.5360469,45.4163283 87.3523721,44.6878356 88.3443771,44.2435 C89.336382,43.7991644 90.411038,43.577 91.5683771,43.577 C92.0643796,43.577 92.4725421,43.6028331 92.7928771,43.6545 C93.113212,43.7061669 93.3767094,43.7629997 93.5833771,43.825 C93.9967125,43.9490006 94.3377091,44.0833326 94.6063771,44.228 C94.8750451,44.3726674 95.0713765,44.4863329 95.1953771,44.569 C95.5673789,44.8170012 95.9497084,45.1528312 96.3423771,45.5765 C96.7350457,46.0001688 97.0967088,46.6666621 97.4273771,47.576 L85.3063771,47.576 Z M120.612836,46.677 C120.612836,46.0983304 120.581836,45.5506692 120.519836,45.034 C120.457836,44.5173307 120.240838,44.0110025 119.868836,43.515 C119.641502,43.2049985 119.383171,42.9518343 119.093836,42.7555 C118.804501,42.5591657 118.520337,42.3990006 118.241336,42.275 C117.962335,42.1509994 117.709171,42.0580003 117.481836,41.996 C117.254502,41.9339997 117.08917,41.8926668 116.985836,41.872 C116.551834,41.7686662 116.102338,41.6860003 115.637336,41.624 C115.172334,41.5619997 114.738338,41.5155002 114.335336,41.4845 C113.932334,41.4534998 113.581004,41.4328334 113.281336,41.4225 C112.981668,41.4121666 112.78017,41.407 112.676836,41.407 C111.333496,41.407 110.196841,41.4896658 109.266836,41.655 C108.336831,41.8203342 107.623839,42.0063323 107.127836,42.213 C106.569833,42.4403345 106.141004,42.7038318 105.841336,43.0035 C105.541668,43.3031682 105.319503,43.5563323 105.174836,43.763 C104.988835,44.0523348 104.833837,44.3571651 104.709836,44.6775 C104.585835,44.9978349 104.513503,45.1889997 104.492836,45.251 L107.468836,45.53 C107.63417,45.2406652 107.753002,45.0495005 107.825336,44.9565 C107.89767,44.8634995 108.006169,44.7550006 108.150836,44.631 C108.460838,44.4036655 108.812167,44.2176674 109.204836,44.073 C109.597505,43.9283326 110.000501,43.8198337 110.413836,43.7475 C110.827172,43.6751663 111.245667,43.6235002 111.669336,43.5925 C112.093005,43.5614998 112.480501,43.546 112.831836,43.546 C113.741174,43.546 114.500666,43.6079994 115.110336,43.732 C115.720006,43.8560006 116.190168,44.0006658 116.520836,44.166 C116.872171,44.3520009 117.140835,44.5689988 117.326836,44.817 C117.512837,45.0650012 117.642002,45.3388318 117.714336,45.6385 C117.78667,45.9381682 117.828003,46.2481651 117.838336,46.5685 C117.848669,46.8888349 117.853836,47.2143317 117.853836,47.545 L113.544836,47.576 C111.746827,47.576 110.248509,47.6121663 109.049836,47.6845 C107.851163,47.7568337 106.890173,47.9583317 106.166836,48.289 C105.960168,48.3716671 105.707004,48.5059991 105.407336,48.692 C105.107668,48.8780009 104.818337,49.1363317 104.539336,49.467 C104.260335,49.7976683 104.017504,50.2006643 103.810836,50.676 C103.604168,51.1513357 103.500836,51.7093301 103.500836,52.35 C103.500836,53.5280059 103.893499,54.5716621 104.678836,55.481 C105.216172,56.0803363 105.8,56.5194986 106.430336,56.7985 C107.060673,57.0775014 107.758166,57.2789994 108.522836,57.403 C108.667503,57.4236668 108.941334,57.4546665 109.344336,57.496 C109.747338,57.5373335 110.1865,57.558 110.661836,57.558 C112.356511,57.558 113.735997,57.3358356 114.800336,56.8915 C115.864675,56.4471644 116.655167,55.9770025 117.171836,55.481 C117.357837,55.3156658 117.512835,55.1451675 117.636836,54.9695 C117.760837,54.7938325 117.843503,54.6646671 117.884836,54.582 C117.905503,54.8713348 117.952002,55.1658318 118.024336,55.4655 C118.09667,55.7651682 118.231002,56.0389988 118.427336,56.287 C118.62367,56.5350012 118.907834,56.7416658 119.279836,56.907 C119.651838,57.0723342 120.158166,57.155 120.798836,57.155 C121.232838,57.155 121.666834,57.1395002 122.100836,57.1085 C122.534838,57.0774998 122.968834,57.0413335 123.402836,57 L123.402836,54.954 C123.113501,54.9953335 122.896503,55.0211666 122.751836,55.0315 C122.607169,55.0418334 122.462503,55.047 122.317836,55.047 C121.7805,55.047 121.403337,54.9540009 121.186336,54.768 C120.969335,54.5819991 120.819503,54.3753345 120.736836,54.148 C120.674836,53.9413323 120.638669,53.6830016 120.628336,53.373 C120.618003,53.0629985 120.612836,52.6703357 120.612836,52.195 L120.612836,46.677 Z M117.884836,49.839 C117.864169,50.0663345 117.838336,50.4021644 117.807336,50.8465 C117.776336,51.2908356 117.616171,51.781664 117.326836,52.319 C117.016835,52.8770028 116.634505,53.3316649 116.179836,53.683 C115.725167,54.0343351 115.270505,54.3133323 114.815836,54.52 C114.361167,54.7266677 113.942671,54.8713329 113.560336,54.954 C113.178001,55.0366671 112.914503,55.0883332 112.769836,55.109 C112.666502,55.1296668 112.418505,55.1658331 112.025836,55.2175 C111.633167,55.2691669 111.230172,55.295 110.816836,55.295 C110.072832,55.295 109.421839,55.2123342 108.863836,55.047 C108.305833,54.8816658 107.851171,54.6595014 107.499836,54.3805 C107.148501,54.1014986 106.885004,53.7811685 106.709336,53.4195 C106.533669,53.0578315 106.445836,52.6910019 106.445836,52.319 C106.445836,52.0089984 106.497502,51.7403345 106.600836,51.513 C106.70417,51.2856655 106.823002,51.0945008 106.957336,50.9395 C107.09167,50.7844992 107.231169,50.6605005 107.375836,50.5675 C107.520503,50.4744995 107.634169,50.4073335 107.716836,50.366 C108.192172,50.1386655 108.791499,49.9940003 109.514836,49.932 C110.238173,49.8699997 111.178497,49.839 112.335836,49.839 L117.884836,49.839 Z M142.961295,44.104 C142.775294,43.9179991 142.547963,43.7268343 142.279295,43.5305 C142.010627,43.3341657 141.617964,43.0913348 141.101295,42.802 C140.04729,42.2439972 138.920968,41.8513345 137.722295,41.624 C136.523622,41.3966655 135.335301,41.283 134.157295,41.283 C134.074628,41.283 133.816297,41.2881666 133.382295,41.2985 C132.948293,41.3088334 132.431631,41.3501663 131.832295,41.4225 C131.232959,41.4948337 130.602632,41.6033326 129.941295,41.748 C129.279958,41.8926674 128.690964,42.099332 128.174295,42.368 C127.450958,42.7400019 126.867131,43.2411635 126.422795,43.8715 C125.97846,44.5018365 125.756295,45.2406624 125.756295,46.088 C125.756295,46.6873363 125.875127,47.2349975 126.112795,47.731 C126.350463,48.2270025 126.706959,48.6506649 127.182295,49.002 C127.740298,49.4153354 128.360292,49.6994992 129.042295,49.8545 C129.724299,50.0095008 130.395958,50.1283329 131.057295,50.211 C131.9873,50.3143338 132.855291,50.3918331 133.661295,50.4435 C134.467299,50.4951669 135.206125,50.5519997 135.877795,50.614 C136.549465,50.6760003 137.143626,50.7483329 137.660295,50.831 C138.176964,50.9136671 138.600627,51.0479991 138.931295,51.234 C139.344631,51.4406677 139.608128,51.6731654 139.721795,51.9315 C139.835462,52.1898346 139.892295,52.4223323 139.892295,52.629 C139.892295,53.0216686 139.773463,53.3626652 139.535795,53.652 C139.298127,53.9413348 139.013963,54.1686658 138.683295,54.334 C138.33196,54.5200009 137.918631,54.6646662 137.443295,54.768 C136.967959,54.8713338 136.513297,54.9436665 136.079295,54.985 C135.645293,55.0263335 135.278463,55.0521666 134.978795,55.0625 C134.679127,55.0728334 134.518962,55.078 134.498295,55.078 C134.312294,55.078 134.007464,55.0676668 133.583795,55.047 C133.160126,55.0263332 132.664131,54.9746671 132.095795,54.892 C131.527459,54.8093329 130.922965,54.6801675 130.282295,54.5045 C129.641625,54.3288325 129.021631,54.0860015 128.422295,53.776 C128.07096,53.5899991 127.745463,53.3833345 127.445795,53.156 C127.146127,52.9286655 126.954962,52.7840003 126.872295,52.722 L124.330295,54.396 C125.198299,55.1813373 126.179956,55.7909978 127.275295,56.225 C128.370634,56.6590022 129.419457,56.9741657 130.421795,57.1705 C131.424133,57.3668343 132.317958,57.4804998 133.103295,57.5115 C133.888632,57.5425002 134.405294,57.558 134.653295,57.558 L135.149295,57.558 C135.459297,57.558 135.857126,57.5373335 136.342795,57.496 C136.828464,57.4546665 137.365792,57.3771672 137.954795,57.2635 C138.543798,57.1498328 139.127626,56.9793345 139.706295,56.752 C140.284965,56.5246655 140.822293,56.2301685 141.318295,55.8685 C141.814298,55.5068315 142.217294,55.057336 142.527295,54.52 C142.75463,54.1066646 142.894128,53.698502 142.945795,53.2955 C142.997462,52.892498 143.023295,52.6083342 143.023295,52.443 C143.023295,51.7609966 142.87863,51.1255029 142.589295,50.5365 C142.29996,49.9474971 141.855631,49.4566686 141.256295,49.064 C140.780959,48.7539984 140.217798,48.5266674 139.566795,48.382 C138.915792,48.2373326 138.011634,48.1133338 136.854295,48.01 C136.048291,47.9479997 135.278465,47.8911669 134.544795,47.8395 C133.811125,47.7878331 133.134298,47.7258337 132.514295,47.6535 C131.894292,47.5811663 131.346631,47.4985005 130.871295,47.4055 C130.395959,47.3124995 130.023963,47.1833342 129.755295,47.018 C129.445294,46.8526658 129.243796,46.6511679 129.150795,46.4135 C129.057795,46.1758321 129.011295,45.9846674 129.011295,45.84 C129.011295,45.6746658 129.047461,45.4938343 129.119795,45.2975 C129.192129,45.1011657 129.37296,44.8893345 129.662295,44.662 C130.075631,44.3726652 130.623292,44.1505008 131.305295,43.9955 C131.987299,43.8404992 132.865623,43.763 133.940295,43.763 C134.16763,43.763 134.518959,43.7733332 134.994295,43.794 C135.469631,43.8146668 136.001792,43.8818328 136.590795,43.9955 C137.179798,44.1091672 137.804958,44.2848321 138.466295,44.5225 C139.127632,44.7601679 139.768292,45.0959978 140.388295,45.53 L142.961295,44.104 Z M164.534754,49.777 C164.534754,49.5909991 164.529588,49.4050009 164.519254,49.219 C164.508921,49.0329991 164.493421,48.8366677 164.472754,48.63 C164.410754,48.1339975 164.307422,47.6793354 164.162754,47.266 C164.018087,46.8526646 163.863088,46.4858349 163.697754,46.1655 C163.53242,45.8451651 163.367088,45.5661679 163.201754,45.3285 C163.03642,45.0908321 162.891755,44.8996674 162.767754,44.755 C162.147751,43.948996 161.460591,43.3238356 160.706254,42.8795 C159.951917,42.4351644 159.218258,42.0993345 158.505254,41.872 C157.792251,41.6446655 157.141257,41.5051669 156.552254,41.4535 C155.963251,41.4018331 155.503422,41.376 155.172754,41.376 C154.738752,41.376 154.356422,41.3914998 154.025754,41.4225 C153.695086,41.4535002 153.447088,41.4896665 153.281754,41.531 C152.971753,41.5723335 152.51709,41.6704992 151.917754,41.8255 C151.318418,41.9805008 150.677758,42.2336649 149.995754,42.585 C149.313751,42.9363351 148.652424,43.4271635 148.011754,44.0575 C147.371084,44.6878365 146.864756,45.498995 146.492754,46.491 C146.26542,47.1110031 146.120754,47.6793307 146.058754,48.196 C145.996754,48.7126692 145.965754,49.0846655 145.965754,49.312 C145.965754,50.6760068 146.218918,51.8643283 146.725254,52.877 C147.23159,53.8896717 147.913583,54.7369966 148.771254,55.419 C149.628925,56.1010034 150.615749,56.6124983 151.731754,56.9535 C152.84776,57.2945017 154.015415,57.465 155.234754,57.465 C156.495427,57.465 157.580416,57.3358346 158.489754,57.0775 C159.399092,56.8191654 160.060419,56.5866677 160.473754,56.38 C160.597755,56.3179997 160.77342,56.2250006 161.000754,56.101 C161.228089,55.9769994 161.486419,55.8168343 161.775754,55.6205 C162.065089,55.4241657 162.354419,55.1865014 162.643754,54.9075 C162.933089,54.6284986 163.201753,54.3133351 163.449754,53.962 C163.615088,53.7346655 163.759754,53.5073345 163.883754,53.28 C164.007755,53.0526655 164.12142,52.8253345 164.224754,52.598 L161.403754,51.823 C161.23842,52.1123348 161.098921,52.3603323 160.985254,52.567 C160.871587,52.7736677 160.701089,52.9906655 160.473754,53.218 C159.853751,53.8793366 159.120092,54.3598318 158.272754,54.6595 C157.425417,54.9591682 156.547092,55.109 155.637754,55.109 C154.976418,55.109 154.37709,55.0470006 153.839754,54.923 C153.302418,54.7989994 152.821923,54.6440009 152.398254,54.458 C151.974585,54.2719991 151.612922,54.0705011 151.313254,53.8535 C151.013586,53.6364989 150.770755,53.4350009 150.584754,53.249 C150.047418,52.7323308 149.675422,52.205336 149.468754,51.668 C149.262086,51.130664 149.107088,50.500337 149.003754,49.777 L164.534754,49.777 Z M149.096754,47.576 C149.241422,47.2246649 149.344754,46.9921672 149.406754,46.8785 C149.468754,46.7648328 149.561754,46.6150009 149.685754,46.429 C150.326424,45.4163283 151.142749,44.6878356 152.134754,44.2435 C153.126759,43.7991644 154.201415,43.577 155.358754,43.577 C155.854757,43.577 156.262919,43.6028331 156.583254,43.6545 C156.903589,43.7061669 157.167086,43.7629997 157.373754,43.825 C157.78709,43.9490006 158.128086,44.0833326 158.396754,44.228 C158.665422,44.3726674 158.861754,44.4863329 158.985754,44.569 C159.357756,44.8170012 159.740086,45.1528312 160.132754,45.5765 C160.525423,46.0001688 160.887086,46.6666621 161.217754,47.576 L149.096754,47.576 Z" id="release" sketch:type="MSShapeGroup"></path>
        </g>
    </g>
</svg>